%
M48
METRIC,000.000
T01C0.89
T02C1.19
T03C1.80
T04C1.80
T10C0.56
T11C0.70
T12C0.81
T13C0.90
T14C0.99
T15C1.00
T16C1.02
T17C3.20
T18C4.00
T19C1.10
T20C1.78
T21C3.97
T22C0.80
T23C1.52
T24C2.00
T25C1.50
T26C0.50
%
T01
X044511Y129108
X044511Y131648
X044511Y134188
X084135Y132179
X084135Y129639
X084135Y127099
X123759Y129101
X123759Y131641
X123759Y134181
X020770Y004078
X020770Y006619
X020770Y009159
X060377Y007159
X060377Y004619
X060377Y002079
X099993Y004078
X099993Y006619
X099993Y009159
T02
X120858Y134178
X108361Y134178
X100537Y134178
X088040Y134178
X080217Y134178
X067721Y134178
X059898Y134178
X047401Y134178
X047401Y129199
X059898Y129199
X067721Y129199
X080217Y129199
X088040Y129199
X100537Y129199
X108361Y129199
X120858Y129199
X135355Y047198
X130376Y047198
X130376Y034701
X135355Y034701
T03
X053649Y127193
X073969Y127193
X094288Y127193
X114609Y127193
X137361Y040950
X128370Y040950
T04
X114609Y136185
X094288Y136185
X073969Y136185
X053649Y136185
T10
X012827Y031863
X010287Y033133
X012827Y034403
X010287Y035673
X010287Y038213
X012827Y039483
X010287Y040753
X012827Y036943
X152898Y010827
X151628Y008287
X150358Y010827
X149088Y008287
X147818Y010827
X146548Y008287
X145278Y010827
X144008Y008287
X136705Y010827
X135435Y008287
X134165Y010827
X132895Y008287
X131625Y010827
X130354Y008287
X129085Y010827
X127815Y008287
T11
X024928Y036985
X026732Y028667
X035482Y028667
X038949Y030343
X053605Y036515
X055764Y033289
X062655Y032824
X070877Y032299
X068843Y026637
X064933Y025454
X064933Y016703
X065594Y007127
X067651Y004816
X069988Y002251
X081062Y013300
X081088Y013274
X087463Y016957
X084390Y019269
X090562Y023409
X090562Y025441
X090562Y027473
X089902Y030038
X094448Y032121
X084822Y030038
X099579Y038649
X104913Y031537
X076313Y046421
X070877Y049545
X068388Y051933
X065949Y049596
X063333Y046218
X060158Y046269
X055078Y046269
X075932Y050536
X081012Y050536
X082942Y055565
X092924Y065751
X024928Y045735
X024141Y019218
X019061Y019218
X041337Y012487
X046417Y012487
X129691Y015518
X126770Y016851
X125468Y024452
X129119Y029869
X125468Y033203
X125881Y048125
X132084Y053110
X132389Y056221
X132389Y059206
X132389Y062444
X133501Y050157
X139597Y047376
X141599Y045088
X141121Y038727
X145280Y029869
X147915Y029901
X151535Y039997
X150349Y045088
X147471Y050157
X140835Y053110
X141140Y056221
X141140Y059206
X141140Y062444
X144931Y070477
X147471Y065397
X147725Y076827
X156869Y072763
X158139Y074795
X159409Y079113
X163981Y076827
X166267Y069207
X165251Y066508
X167791Y066508
X167791Y064126
X170331Y067556
X172871Y067556
X175411Y064572
X172871Y076306
X170331Y076306
X162711Y066667
X162711Y050157
X165505Y046093
X167791Y040759
X166267Y029329
X171093Y029329
X160171Y017645
X155376Y018756
X162965Y008755
X146264Y015073
X142391Y017645
X138803Y019931
X141121Y026027
X137311Y078097
X150233Y103497
X150296Y110133
X149439Y112832
X142676Y110133
X140689Y112832
X159155Y103497
X161441Y099687
X166521Y108196
X171601Y099687
X176681Y108323
X171601Y089527
X161441Y089527
X087114Y171569
X087114Y166570
X042917Y143416
X047235Y185326
X055935Y162339
X069270Y162339
X075810Y172372
X076446Y154909
X077335Y177198
X077715Y158846
X079303Y149194
X079875Y157005
X082923Y160307
X084192Y176944
X084320Y155989
X085589Y158783
X086732Y181897
X094098Y178468
X104639Y173896
X106291Y150909
X106291Y148242
X106291Y145321
X108449Y158275
X116323Y145575
X122166Y149131
X124324Y153067
X111497Y186596
X111497Y184056
X111497Y181516
X111497Y178976
X111497Y176436
X111497Y173896
X111497Y171356
X111497Y168816
X111497Y166276
X111497Y163736
X111497Y161196
X111497Y158656
X111497Y156116
X111497Y153576
X119118Y186596
X119118Y184056
X119118Y181516
X119118Y178976
X119118Y176436
X119118Y173896
X119118Y171356
X119118Y168816
X119118Y166276
X119118Y163736
X119118Y161196
X119118Y158656
X119118Y156116
X119118Y153576
X084828Y152179
X084828Y144559
X100448Y184056
X108068Y184056
X129151Y187993
X129151Y180373
X051680Y170340
X059301Y170340
X051680Y175293
X059301Y175293
X020184Y184437
X027804Y184437
X082287Y152179
X082287Y144559
X083176Y180246
X090797Y180246
X051680Y165260
X059301Y165260
X051680Y177579
X059301Y177579
X125848Y187993
X125848Y180373
X051680Y172880
X059301Y172880
X126991Y156878
X126991Y149258
X031107Y186977
X038726Y186977
X051680Y179992
X059301Y179992
X051680Y167800
X059301Y167800
X031107Y184437
X038726Y184437
X073270Y189517
X080890Y189517
X020184Y186977
X027804Y186977
X075303Y185707
X082923Y185707
X080255Y180246
X080255Y172626
X051680Y182532
X059301Y182532
X060387Y100742
X064452Y100677
X069613Y081968
X052452Y100742
X055613Y100742
X076323Y112419
X076323Y105774
X056387Y079323
X052452Y079323
X078774Y109774
X078774Y102548
X102645Y112676
X094387Y112742
X101613Y090806
X101613Y081387
X111419Y095452
X097032Y110613
X100710Y078806
X085741Y115774
X066645Y100677
T12
X045350Y025771
X045350Y028311
X045350Y030851
X045350Y033391
X052970Y033391
X052970Y030851
X052970Y028311
X052970Y025771
X166521Y079367
X166521Y076827
X167791Y061587
X170331Y061587
X172871Y061587
X175411Y061587
X177951Y061587
X177951Y053967
X175411Y053967
X172871Y053967
X170331Y053967
X167791Y053967
X165251Y053967
X162711Y053967
X160171Y053967
X157631Y053967
X155091Y053967
X152551Y053967
X150011Y053967
X147471Y053967
X144931Y053967
X144931Y061587
X147471Y061587
X150011Y061587
X152551Y061587
X155091Y061587
X157631Y061587
X160171Y061587
X162711Y061587
X165251Y061587
X154329Y090797
X151789Y090797
X149249Y090797
X146709Y090797
X144931Y084447
X142391Y084447
X139851Y084447
X137311Y084447
X139851Y080637
X142391Y080637
X135025Y069969
X135025Y067429
X125881Y066667
X125881Y069207
X125881Y074287
X125881Y076827
X125881Y061587
X125881Y059047
X125817Y053681
X125817Y051141
X129086Y026249
X131627Y026249
X134167Y026249
X136707Y026249
X136707Y018629
X134167Y018629
X131627Y018629
X129086Y018629
X125881Y014661
X138581Y014661
X142518Y014788
X145280Y018756
X147820Y018756
X150360Y018756
X152900Y018756
X155218Y014788
X160679Y013835
X160679Y011295
X160933Y003675
X160933Y001135
X152900Y026376
X150360Y026376
X147820Y026376
X145280Y026376
X146709Y098417
X149249Y098417
X151789Y098417
X154329Y098417
X159155Y106799
X159155Y109339
X080081Y087463
X083206Y095061
X083206Y087441
X072655Y111060
X070115Y111060
X076832Y083794
X079372Y083794
X089482Y083794
X092021Y083794
X095832Y083794
X098372Y083794
X083182Y083794
X085722Y083794
X086215Y095080
X086215Y087460
X114786Y107762
X112246Y107762
X099545Y107762
X097006Y107762
X109706Y107762
X107166Y107762
X102086Y107762
X104626Y107762
X094466Y107762
X091926Y107762
X089386Y107762
X086846Y107762
X084306Y107762
X081765Y107762
X081765Y100142
X084306Y100142
X086846Y100142
X089386Y100142
X091926Y100142
X094466Y100142
X097006Y100142
X099545Y100142
X102086Y100142
X104626Y100142
X107166Y100142
X109706Y100142
X112246Y100142
X114786Y100142
X116675Y096025
X111287Y090637
X111370Y086951
X080081Y095083
X066434Y097367
X064434Y097367
X062434Y097367
X060434Y097367
X058434Y097367
X056434Y097367
X054434Y097367
X052434Y097367
X066434Y083367
X064434Y083367
X062434Y083367
X060434Y083367
X058434Y083367
X056434Y083367
X054434Y083367
X052434Y083367
X067239Y095302
X067239Y093302
X067239Y091301
X067239Y089301
X067239Y087301
X067239Y085301
X089211Y095078
X089211Y087458
X070079Y107542
X072619Y107542
X048882Y104002
X051422Y104002
X056502Y111622
X053962Y111622
X053962Y104002
X056502Y104002
X059042Y111622
X059042Y104002
X051422Y111622
X048882Y111622
X066682Y103336
X063022Y110020
X072207Y079701
X072207Y087321
X116758Y092339
X111370Y079338
X116758Y084726
X111370Y083145
X116758Y088533
X034666Y082334
X034666Y084874
X025776Y081064
X023236Y081064
T13
X097953Y071364
X095413Y071364
X092873Y071364
X090333Y071364
X087793Y071364
X085253Y071364
X082713Y071364
X080173Y071364
X077633Y071364
X075093Y071364
X072553Y071364
X070013Y071364
X067473Y071364
X064933Y071364
X062393Y071364
X059853Y071364
X126610Y161450
X129151Y161450
X126610Y168181
X129151Y168181
X126610Y174911
X129151Y174911
T14
X060742Y042865
X063282Y042865
X065822Y042865
X068362Y042865
X070902Y042865
X073442Y042865
X075982Y042865
X078522Y042865
X081062Y042865
X081062Y035245
X078522Y035245
X075982Y035245
X073442Y035245
X070902Y035245
X068362Y035245
X065822Y035245
X063282Y035245
X060742Y035245
X058202Y035245
X058202Y042865
T15
X105980Y044542
X105980Y047082
X105980Y049622
X105980Y052162
X105980Y054702
X163981Y104767
X166521Y104767
X169061Y104767
X171601Y104767
X174141Y104767
X176681Y104767
X179221Y104767
X179221Y094607
X176681Y094607
X174141Y094607
X171601Y094607
X169061Y094607
X166521Y094607
X163981Y094607
X163981Y084447
X166521Y084447
X169061Y084447
X171601Y084447
X174141Y084447
X176681Y084447
X179221Y084447
X166679Y036314
X166679Y033774
X166552Y023360
X166552Y020820
X063492Y143416
X066031Y143416
X068571Y143416
X071112Y143416
X073651Y143416
X076192Y143416
X094353Y155481
X094353Y152941
X094353Y150401
X094353Y147861
X094353Y145321
X013657Y187027
X013657Y184487
X100448Y178976
X100448Y176436
X100448Y173896
X100448Y171356
X100448Y168816
X100448Y166276
X100448Y163736
X074240Y096327
X074240Y101407
X074240Y098867
X034666Y089954
X034666Y092494
X034666Y095033
X034666Y097574
X029586Y133134
X029586Y135674
T16
X105446Y023383
X097826Y023383
X035546Y019370
X033006Y019370
X030466Y019370
X167029Y012565
X169569Y012565
X172109Y012565
X172109Y004945
X169569Y004945
X167029Y004945
X155091Y032377
X155091Y034917
X155091Y037457
X155091Y039997
X155091Y042537
X155091Y045077
X141121Y070477
X141121Y073017
X056496Y115387
X053956Y115387
X107161Y111194
X107161Y094685
X107161Y092145
X107161Y089605
X107161Y087065
X107161Y084525
X107161Y081985
X107161Y079445
X048387Y079323
X090822Y112742
X088282Y112742
X085741Y112742
X083202Y112742
X080662Y112742
T17
X003937Y030593
X003937Y042023
X126545Y001937
X137975Y001937
X142738Y001937
X154168Y001937
T18
X006823Y056962
X006823Y016983
X113823Y016983
X113823Y056962
X066667Y184945
X130674Y144813
X005452Y146210
T19
X141946Y115245
X149566Y115245
T20
X176526Y019870
X176526Y042570
X031336Y104054
X031336Y126754
T21
X130961Y082669
X076581Y079000
X045355Y119194
X036954Y134119
X003677Y082081
T22
X061967Y167759
X061967Y165260
X061840Y172880
X061840Y170380
X107180Y176395
X107180Y173896
X090669Y176436
X090669Y173936
X090669Y171610
X090669Y169110
X068445Y177411
X068445Y174911
X051721Y185326
X054221Y185326
X061840Y177706
X061840Y175206
X090669Y166657
X090669Y164157
X059301Y162339
X061800Y162339
T23
X015295Y178341
X015295Y147353
X022026Y178341
X022026Y147353
X028757Y178341
X028757Y147353
X035488Y178341
X035488Y147353
T24
X047807Y158328
X057967Y148188
X068127Y158328
T25
X023236Y134404
X002916Y134404
X013076Y088684
X023236Y088684
T26
X008624Y140879
X009624Y140879
X010624Y140879
X011624Y140879
X012624Y140879
X013624Y140879
X014624Y140879
X015531Y137503
X014531Y137503
X013531Y137503
X012531Y137503
X011531Y137503
X010531Y137503
X009531Y137503
X008531Y137503
X042384Y131829
X042384Y130829
X042384Y129829
X042384Y128829
X042384Y127829
X039995Y127861
X039995Y128860
X039995Y129860
X039995Y130860
X039995Y131861
X100048Y138600
X099048Y138600
X098048Y138600
X097048Y138600
X096048Y138600
X095624Y140879
X096624Y140879
X097624Y140879
X098624Y140879
X099624Y140879
X100624Y140879
X041873Y091674
X041871Y090674
X041870Y089674
X041868Y088674
X041867Y087674
X041866Y086674
X039995Y086861
X039995Y087861
X039995Y088861
X039995Y089861
X039995Y090861
X023483Y074535
X022483Y074535
X021483Y074535
X020483Y074535
X019483Y074535
X018483Y074535
X017483Y074535
X016483Y074535
X017175Y077003
X018175Y077003
X019175Y077003
X020175Y077003
X021175Y077003
X022175Y077003
X023175Y077003
X101483Y074535
X100483Y074535
X099483Y074535
X098483Y074535
X097483Y074535
X096483Y074535
X096421Y076137
X097421Y076137
X098421Y076137
X099421Y076137
X100421Y076137
X101421Y076137
X077374Y124384
X078374Y124384
X079374Y124384
X080374Y124384
X081374Y124384
X082374Y124384
X082248Y122416
X081248Y122417
X080248Y122418
X079248Y122418
X078248Y122419
X077248Y122420
X123091Y110255
X123091Y109255
X123091Y108255
X123091Y107255
X123091Y106255
X123091Y105255
X120942Y105994
X120944Y106994
X120945Y107994
X120947Y108994
X120948Y109994
X120200Y016036
X120200Y017037
X120200Y018037
X120200Y019037
X120200Y020037
X120200Y021037
X120200Y022037
X123091Y022255
X123091Y021255
X123091Y020255
X123091Y019255
X123091Y018255
X123091Y017255
X123091Y016254
X123091Y015255
X120200Y053037
X120200Y054037
X120200Y055037
X120200Y056037
X120200Y057037
X120200Y058037
X120200Y059037
X123091Y059255
X123091Y058255
X123091Y057255
X123091Y056255
X123091Y055255
X123091Y054255
X123091Y053255
M30