%MOIN*%
%OFA0B0*%
%FSLAX46Y46*%
%IPPOS*%
%LPD*%
%AMOC8*
5,1,8,0,0,$1,22.5*%
%AMOC80*
5,1,8,0,0,$1,22.5*%
%AMCOMP1240*
4,1,7,
-0.01532587065323303,0.036999924786210982,
0.01532587065323303,0.036999924786210982,
0.036999924786210982,0.015325870653233032,
0.036999924786210982,-0.015325870653233029,
0.015325870653233034,-0.036999924786210982,
-0.015325870653233025,-0.036999924786210989,
-0.036999924786210975,-0.015325870653233053,
-0.036999924786210982,0.015325870653233039,
0*%
%AMOC81*
5,1,8,0,0,$1,112.5*%
%AMCOMP1310*
4,1,7,
-0.036999924786210982,-0.015325870653233029,
-0.036999924786210982,0.015325870653233032,
-0.01532587065323303,0.036999924786210982,
0.01532587065323303,0.036999924786210982,
0.036999924786210982,0.015325870653233032,
0.036999924786210989,-0.015325870653233029,
0.015325870653233049,-0.036999924786210975,
-0.015325870653233041,-0.036999924786210982,
0*%
%AMCOMP1320*
4,1,7,
-0.038999920720600774,-0.016154296093948327,
-0.038999920720600774,0.016154296093948334,
-0.01615429609394833,0.038999920720600774,
0.01615429609394833,0.038999920720600774,
0.038999920720600774,0.016154296093948334,
0.038999920720600774,-0.016154296093948327,
0.016154296093948351,-0.038999920720600767,
-0.016154296093948344,-0.038999920720600767,
0*%
%AMOC80*
5,1,8,0,0,$1,22.5*%
%AMOC81*
5,1,8,0,0,$1,112.5*%
%AMCOMP1390*
4,1,7,
-0.036999924786210982,-0.015325870653233029,
-0.036999924786210982,0.015325870653233032,
-0.01532587065323303,0.036999924786210982,
0.01532587065323303,0.036999924786210982,
0.036999924786210982,0.015325870653233032,
0.036999924786210989,-0.015325870653233029,
0.015325870653233049,-0.036999924786210975,
-0.015325870653233041,-0.036999924786210982,
0*%
%AMCOMP1400*
4,1,7,
-0.035499927835418645,-0.014704551572696551,
-0.035499927835418645,0.014704551572696557,
-0.014704551572696553,0.035499927835418645,
0.014704551572696553,0.035499927835418645,
0.035499927835418645,0.014704551572696557,
0.035499927835418651,-0.014704551572696551,
0.014704551572696574,-0.035499927835418638,
-0.014704551572696565,-0.035499927835418645,
0*%
%ADD10C,0.0785*%
%ADD11C,0.078869999999999982*%
%ADD12C,0.078999999999999987*%
%ADD13C,0.088*%
%ADD24C,0.16548*%
%ADD25C,0.074*%
%ADD26C,0.06*%
%ADD27C,0.068*%
%ADD28C,0.06737*%
%ADD29C,0.064*%
%ADD30R,0.064X0.064*%
%ADD31C,0.13398*%
%ADD32C,0.088*%
%ADD33R,0.084X0.084*%
%ADD34C,0.084*%
%ADD35C,0.108*%
%ADD36C,0.06343*%
%AMCOMP156*
4,1,7,
-0.01532587065323303,0.036999924786210982,
0.01532587065323303,0.036999924786210982,
0.036999924786210982,0.015325870653233032,
0.036999924786210982,-0.015325870653233029,
0.015325870653233034,-0.036999924786210982,
-0.015325870653233025,-0.036999924786210989,
-0.036999924786210975,-0.015325870653233053,
-0.036999924786210982,0.015325870653233039,
0*%
%ADD37COMP156,0.074*%
%ADD38C,0.16425*%
%AMCOMP157*
4,1,7,
-0.036999924786210982,-0.015325870653233029,
-0.036999924786210982,0.015325870653233032,
-0.01532587065323303,0.036999924786210982,
0.01532587065323303,0.036999924786210982,
0.036999924786210982,0.015325870653233032,
0.036999924786210989,-0.015325870653233029,
0.015325870653233049,-0.036999924786210975,
-0.015325870653233041,-0.036999924786210982,
0*%
%ADD39COMP157,0.074*%
%ADD40C,0.074*%
%ADD41C,0.06*%
%ADD42C,0.0785*%
%ADD43C,0.078869999999999982*%
%ADD44C,0.078999999999999987*%
%ADD45C,0.068*%
%ADD46C,0.078*%
%AMCOMP158*
4,1,7,
-0.038999920720600774,-0.016154296093948327,
-0.038999920720600774,0.016154296093948334,
-0.01615429609394833,0.038999920720600774,
0.01615429609394833,0.038999920720600774,
0.038999920720600774,0.016154296093948334,
0.038999920720600774,-0.016154296093948327,
0.016154296093948351,-0.038999920720600767,
-0.016154296093948344,-0.038999920720600767,
0*%
%ADD47COMP158,0.078*%
%ADD48C,0.13398*%
%ADD49C,0.15799999999999997*%
%ADD50C,0.06737*%
%ADD51C,0.094*%
%ADD52R,0.064X0.064*%
%ADD53C,0.17322834645669294*%
%ADD54C,0.13385826771653545*%
%ADD55C,0.07874015748031496*%
%ADD56R,0.086614173228346469X0.086614173228346469*%
%ADD57C,0.086614173228346469*%
%ADD58R,0.082677165354330714X0.082677165354330714*%
%ADD59O,0.082677165354330714X0.082677165354330714*%
%ADD60C,0.070866141732283464*%
%ADD61O,0.070866141732283464X0.070866141732283464*%
%ADD62O,0.11974803149606299X0.067748031496063*%
%ADD63C,0.081748031496063*%
%ADD64C,0.030000000000000002*%
%ADD65C,0*%
%ADD66C,0.16425*%
%ADD67P,0.064943385826771657X8X292.5*%
%ADD68P,0.064943385826771657X8X202.5*%
%ADD69C,0.060000000000000005*%
%ADD70P,0.064943385826771657X8X247.5*%
%ADD71P,0.064943385826771657X8X112.5*%
%ADD72P,0.064943385826771657X8X22.5*%
%ADD73P,0.064943385826771657X8X141.2*%
%ADD74C,0.067369960629921261*%
%ADD75C,0.067370078740157491*%
%ADD76C,0.068*%
%ADD77P,0.073602519685039378X8X22.5*%
%ADD78R,0.074X0.074*%
%ADD79C,0.16425*%
%AMCOMP159*
4,1,7,
-0.036999924786210982,-0.015325870653233029,
-0.036999924786210982,0.015325870653233032,
-0.01532587065323303,0.036999924786210982,
0.01532587065323303,0.036999924786210982,
0.036999924786210982,0.015325870653233032,
0.036999924786210989,-0.015325870653233029,
0.015325870653233049,-0.036999924786210975,
-0.015325870653233041,-0.036999924786210982,
0*%
%ADD80COMP159,0.074*%
%AMCOMP160*
4,1,7,
-0.035499927835418645,-0.014704551572696551,
-0.035499927835418645,0.014704551572696557,
-0.014704551572696553,0.035499927835418645,
0.014704551572696553,0.035499927835418645,
0.035499927835418645,0.014704551572696557,
0.035499927835418651,-0.014704551572696551,
0.014704551572696574,-0.035499927835418638,
-0.014704551572696565,-0.035499927835418645,
0*%
%ADD81COMP160,0.071*%
%ADD82C,0.071*%
%ADD83C,0.15799999999999997*%
%ADD84C,0.06737*%
G75*
D10*
X0001830950Y0005086620D02*
X0001901450Y0005086620D01*
X0002322950Y0005086620D02*
X0002393450Y0005086620D01*
X0002630930Y0005086620D02*
X0002701430Y0005086620D01*
X0003122930Y0005086620D02*
X0003193430Y0005086620D01*
X0003430900Y0005086620D02*
X0003501400Y0005086620D01*
X0003922900Y0005086620D02*
X0003993400Y0005086620D01*
X0004230950Y0005086620D02*
X0004301450Y0005086620D01*
X0004722950Y0005086620D02*
X0004793450Y0005086620D01*
X0004793450Y0005282620D02*
X0004722950Y0005282620D01*
X0004301450Y0005282620D02*
X0004230950Y0005282620D01*
X0003993400Y0005282620D02*
X0003922900Y0005282620D01*
X0003501400Y0005282620D02*
X0003430900Y0005282620D01*
X0003193430Y0005282620D02*
X0003122930Y0005282620D01*
X0002701430Y0005282620D02*
X0002630930Y0005282620D01*
X0002393450Y0005282620D02*
X0002322950Y0005282620D01*
X0001901450Y0005282620D02*
X0001830950Y0005282620D01*
D11*
X0002112200Y0005007620D03*
X0002912180Y0005007620D03*
X0003712150Y0005007620D03*
X0004512200Y0005007620D03*
D12*
X0004512200Y0005361620D03*
X0003712150Y0005361620D03*
X0002912180Y0005361620D03*
X0002112200Y0005361620D03*
D13*
X0001752420Y0005283000D03*
X0001752420Y0005182999D03*
X0001752420Y0005083000D03*
X0003312420Y0005103900D03*
X0003312420Y0005003900D03*
X0003312420Y0005203900D03*
X0004872430Y0005182709D03*
X0004872430Y0005082710D03*
X0004872430Y0005282709D03*
G04 next file*
G75*
D24*
X-0000157480Y-0000393700D02*
X0000268650Y0000668620D03*
X0000268650Y0002242620D03*
X0004481250Y0002242620D03*
X0004481250Y0000668620D03*
D25*
X0003565440Y0000921620D03*
X0003565440Y0001001620D03*
X0003565440Y0001081620D03*
X0003539440Y0001182620D03*
X0003339440Y0001182620D03*
X0002710360Y0001048700D03*
X0002556440Y0001002119D03*
X0002466760Y0001292290D03*
X0002368440Y0001821620D03*
X0002168440Y0001821620D03*
X0002989440Y0001989620D03*
X0003189440Y0001989620D03*
X0001396940Y0001128620D03*
X0001052440Y0001128620D03*
X0000981440Y0001456120D03*
X0000981440Y0001800620D03*
X0000950440Y0000756620D03*
X0000750440Y0000756620D03*
X0001627440Y0000491620D03*
X0001827440Y0000491620D03*
X0002556440Y0000657620D03*
D26*
X0002111440Y0001014620D02*
X0002059440Y0001014620D01*
X0002059440Y0001114620D02*
X0002111440Y0001114620D01*
X0002111440Y0001214620D02*
X0002059440Y0001214620D01*
X0002059440Y0001314620D02*
X0002111440Y0001314620D01*
X0001811440Y0001314620D02*
X0001759440Y0001314620D01*
X0001759440Y0001214620D02*
X0001811440Y0001214620D01*
X0001811440Y0001114620D02*
X0001759440Y0001114620D01*
X0001759440Y0001014620D02*
X0001811440Y0001014620D01*
D27*
X0001399440Y0000792620D02*
X0001399440Y0000732620D01*
X0001299440Y0000732620D02*
X0001299440Y0000792620D01*
X0001199440Y0000792620D02*
X0001199440Y0000732620D01*
D28*
X0004142750Y0001753620D02*
X0004202120Y0001753620D01*
X0004202120Y0001853620D02*
X0004142750Y0001853620D01*
X0004142750Y0001953620D02*
X0004202120Y0001953620D01*
X0004202120Y0002053620D02*
X0004142750Y0002053620D01*
X0004142750Y0002153620D02*
X0004202120Y0002153620D01*
D29*
X0000505009Y0001554440D03*
X0000405010Y0001504440D03*
X0000405010Y0001404440D03*
X0000505009Y0001454440D03*
X0000505009Y0001354440D03*
X0000405010Y0001304440D03*
X0000505009Y0001254440D03*
D30*
X0000405010Y0001604440D03*
D31*
X0000155010Y0001654440D03*
X0000155010Y0001204440D03*
D32*
X0000817740Y0000160620D03*
X0000817740Y0000260620D03*
X0000817740Y0000360619D03*
X0002377050Y0000281880D03*
X0002377050Y0000181880D03*
X0002377050Y0000081880D03*
X0003936740Y0000160620D03*
X0003936740Y0000260620D03*
X0003936740Y0000360619D03*
D33*
X0002291440Y0001387620D03*
D34*
X0002391440Y0001387620D03*
X0002491440Y0001387620D03*
X0002591440Y0001387620D03*
X0002691440Y0001387620D03*
X0002791440Y0001387620D03*
X0002891440Y0001387620D03*
X0002991440Y0001387620D03*
X0003091440Y0001387620D03*
X0003191440Y0001387620D03*
X0003191440Y0001687620D03*
X0003091440Y0001687620D03*
X0002991440Y0001687620D03*
X0002891440Y0001687620D03*
X0002791440Y0001687620D03*
X0002691440Y0001687620D03*
X0002591440Y0001687620D03*
X0002491440Y0001687620D03*
X0002391440Y0001687620D03*
X0002291440Y0001687620D03*
D35*
X0003851440Y0000920619D03*
X0004151440Y0000920619D03*
D36*
X0003856440Y0002781900D02*
X0003856440Y0002837340D01*
X0003756440Y0002837340D02*
X0003756440Y0002781900D01*
X0003656439Y0002781900D02*
X0003656439Y0002837340D01*
X0003556440Y0002837340D02*
X0003556440Y0002781900D01*
X0003456440Y0002781900D02*
X0003456440Y0002837340D01*
X0003356440Y0002837340D02*
X0003356440Y0002781900D01*
X0003256439Y0002781900D02*
X0003256439Y0002837340D01*
X0003156440Y0002837340D02*
X0003156440Y0002781900D01*
X0003056440Y0002781900D02*
X0003056440Y0002837340D01*
X0002956440Y0002837340D02*
X0002956440Y0002781900D01*
X0002856439Y0002781900D02*
X0002856439Y0002837340D01*
X0002756440Y0002837340D02*
X0002756440Y0002781900D01*
X0002656440Y0002781900D02*
X0002656440Y0002837340D01*
X0002556440Y0002837340D02*
X0002556440Y0002781900D01*
X0002456440Y0002781900D02*
X0002456440Y0002837340D01*
X0002356440Y0002837340D02*
X0002356440Y0002781900D01*
D37*
X0003265440Y0002187620D03*
X0002790440Y0001950620D03*
X0002692440Y0002044620D03*
X0002596440Y0001952620D03*
X0002493440Y0001819620D03*
X0003004440Y0001827620D03*
X0002790440Y0001271620D03*
X0002195440Y0001310620D03*
X0002110440Y0001437620D03*
X0001533440Y0001194620D03*
X0002582440Y0000280620D03*
X0002663440Y0000189619D03*
X0002755440Y0000088620D03*
X0003191440Y0000523620D03*
X0003192440Y0000522620D03*
X0003443440Y0000667620D03*
X0003322440Y0000758620D03*
X0003718440Y0001264620D03*
X0003920440Y0001521620D03*
X0004130440Y0001241620D03*
X0003658440Y0002588619D03*
G04 next file*
G75*
D38*
X0007795270Y-0000236220D02*
X0005155939Y0003254700D03*
D39*
X0004955940Y0003024700D03*
X0004955940Y0002924700D03*
X0004955940Y0002724700D03*
X0004955940Y0002624700D03*
X0004955940Y0002424700D03*
X0004955940Y0002324700D03*
X0004953440Y0002113450D03*
X0004953440Y0002013450D03*
X0005315940Y0002654700D03*
X0005315940Y0002754700D03*
X0005405940Y0003324700D03*
X0005505940Y0003324700D03*
X0005605940Y0003324700D03*
X0005705940Y0003324700D03*
X0005617190Y0004335950D03*
X0005917190Y0004335950D03*
X0006265940Y0004304700D03*
X0006265940Y0004204700D03*
X0006555940Y0003124700D03*
X0006555940Y0003024700D03*
X0006605940Y0002618450D03*
X0006505940Y0002618450D03*
X0006110940Y0000582200D03*
X0006325940Y0000544700D03*
X0006325940Y0000444700D03*
X0006335940Y0000144700D03*
X0006335940Y0000044700D03*
X0005610940Y0000582200D03*
X0005455940Y0000577200D03*
X0004955940Y0000577200D03*
D40*
X0004939690Y0000962700D03*
X0004939690Y0001307200D03*
X0005200190Y0002090949D03*
X0005212190Y0002213450D03*
X0005212190Y0002330950D03*
X0005212190Y0002458450D03*
X0005556690Y0002458450D03*
X0005556690Y0002330950D03*
X0005556690Y0002213450D03*
X0005544690Y0002090949D03*
X0005574760Y0001775140D03*
X0005919260Y0001775140D03*
X0006705940Y0002659700D03*
X0006805940Y0002659700D03*
X0006805940Y0003004200D03*
X0006705940Y0003004200D03*
X0005883440Y0004442200D03*
X0005538940Y0004442200D03*
X0005505940Y0003174700D03*
X0005605940Y0003174700D03*
D41*
X0005775940Y0003548700D02*
X0005775940Y0003600700D01*
X0005875940Y0003600700D02*
X0005875940Y0003548700D01*
X0005975940Y0003548700D02*
X0005975940Y0003600700D01*
X0006075940Y0003600700D02*
X0006075940Y0003548700D01*
X0006075940Y0003848700D02*
X0006075940Y0003900699D01*
X0005975940Y0003900699D02*
X0005975940Y0003848700D01*
X0005875940Y0003848700D02*
X0005875940Y0003900699D01*
X0005775940Y0003900699D02*
X0005775940Y0003848700D01*
X0005805940Y0002450700D02*
X0005805940Y0002398700D01*
X0005705940Y0002398700D02*
X0005705940Y0002450700D01*
X0005705940Y0002150700D02*
X0005705940Y0002098700D01*
X0005805940Y0002098700D02*
X0005805940Y0002150700D01*
X0005905940Y0002150700D02*
X0005905940Y0002098700D01*
X0006005940Y0002098700D02*
X0006005940Y0002150700D01*
X0006105940Y0002150700D02*
X0006105940Y0002098700D01*
X0006205940Y0002098700D02*
X0006205940Y0002150700D01*
X0006305940Y0002150700D02*
X0006305940Y0002098700D01*
X0006405940Y0002098700D02*
X0006405940Y0002150700D01*
X0006505940Y0002150700D02*
X0006505940Y0002098700D01*
X0006605940Y0002098700D02*
X0006605940Y0002150700D01*
X0006705940Y0002150700D02*
X0006705940Y0002098700D01*
X0006805940Y0002098700D02*
X0006805940Y0002150700D01*
X0006905940Y0002150700D02*
X0006905940Y0002098700D01*
X0007005940Y0002098700D02*
X0007005940Y0002150700D01*
X0007005940Y0002398700D02*
X0007005940Y0002450700D01*
X0006905940Y0002450700D02*
X0006905940Y0002398700D01*
X0006805940Y0002398700D02*
X0006805940Y0002450700D01*
X0006705940Y0002450700D02*
X0006705940Y0002398700D01*
X0006605940Y0002398700D02*
X0006605940Y0002450700D01*
X0006505940Y0002450700D02*
X0006505940Y0002398700D01*
X0006405940Y0002398700D02*
X0006405940Y0002450700D01*
X0006305940Y0002450700D02*
X0006305940Y0002398700D01*
X0006205940Y0002398700D02*
X0006205940Y0002450700D01*
X0006105940Y0002450700D02*
X0006105940Y0002398700D01*
X0006005940Y0002398700D02*
X0006005940Y0002450700D01*
X0005905940Y0002450700D02*
X0005905940Y0002398700D01*
X0005919690Y0001064450D02*
X0005919690Y0001012450D01*
X0006019689Y0001012450D02*
X0006019689Y0001064450D01*
X0005819690Y0001064450D02*
X0005819690Y0001012450D01*
X0005719690Y0001012450D02*
X0005719690Y0001064450D01*
X0005719690Y0000764450D02*
X0005719690Y0000712450D01*
X0005819690Y0000712450D02*
X0005819690Y0000764450D01*
X0005919690Y0000764450D02*
X0005919690Y0000712450D01*
X0006019689Y0000712450D02*
X0006019689Y0000764450D01*
X0005382190Y0000759450D02*
X0005382190Y0000707450D01*
X0005282190Y0000707450D02*
X0005282190Y0000759450D01*
X0005182190Y0000759450D02*
X0005182190Y0000707450D01*
X0005082190Y0000707450D02*
X0005082190Y0000759450D01*
X0005082190Y0001007450D02*
X0005082190Y0001059450D01*
X0005182190Y0001059450D02*
X0005182190Y0001007450D01*
X0005282190Y0001007450D02*
X0005282190Y0001059450D01*
X0005382190Y0001059450D02*
X0005382190Y0001007450D01*
D42*
X0005328940Y0001330950D02*
X0005328940Y0001401449D01*
X0005132940Y0001401449D02*
X0005132940Y0001330950D01*
X0005132940Y0001822949D02*
X0005132940Y0001893450D01*
X0005328940Y0001893450D02*
X0005328940Y0001822949D01*
D43*
X0005407940Y0001612200D03*
D44*
X0005053940Y0001612200D03*
D45*
X0005525940Y0002774700D02*
X0005585940Y0002774700D01*
X0005585940Y0002874700D02*
X0005525940Y0002874700D01*
X0006075940Y0001774700D02*
X0006135940Y0001774700D01*
X0006135940Y0001674700D02*
X0006075940Y0001674700D01*
X0006075940Y0001574700D02*
X0006135940Y0001574700D01*
X0006135940Y0001474700D02*
X0006075940Y0001474700D01*
X0006075940Y0001374700D02*
X0006135940Y0001374700D01*
X0006135940Y0001274700D02*
X0006075940Y0001274700D01*
X0006575940Y0000524700D02*
X0006575940Y0000464700D01*
X0006675940Y0000464700D02*
X0006675940Y0000524700D01*
X0006775940Y0000524700D02*
X0006775940Y0000464700D01*
X0006775940Y0000224700D02*
X0006775940Y0000164699D01*
X0006675940Y0000164699D02*
X0006675940Y0000224700D01*
X0006575940Y0000224700D02*
X0006575940Y0000164699D01*
D46*
X0006019620Y0000426270D03*
X0005969620Y0000326270D03*
X0005919620Y0000426270D03*
X0005869620Y0000326270D03*
X0005819620Y0000426270D03*
X0005769620Y0000326270D03*
X0005719620Y0000426270D03*
X0005382120Y0000426270D03*
X0005332120Y0000326270D03*
X0005282120Y0000426270D03*
X0005232120Y0000326270D03*
X0005182120Y0000426270D03*
X0005132120Y0000326270D03*
X0005082120Y0000426270D03*
D47*
X0005032120Y0000326270D03*
X0005669620Y0000326270D03*
D48*
X0005619620Y0000076270D03*
X0005432120Y0000076270D03*
X0004982120Y0000076270D03*
X0006069620Y0000076270D03*
D49*
X0006949840Y0000782310D03*
X0006949840Y0001676010D03*
D50*
X0006591870Y0001429700D02*
X0006532499Y0001429700D01*
X0006532499Y0001329700D02*
X0006591870Y0001329700D01*
X0006586870Y0000919700D02*
X0006527500Y0000919700D01*
X0006527500Y0000819700D02*
X0006586870Y0000819700D01*
X0006555940Y0003295010D02*
X0006555940Y0003354380D01*
X0006655940Y0003354380D02*
X0006655940Y0003295010D01*
X0006755940Y0003295010D02*
X0006755940Y0003354380D01*
X0006855940Y0003354380D02*
X0006855940Y0003295010D01*
X0006955940Y0003295010D02*
X0006955940Y0003354380D01*
X0007055940Y0003354380D02*
X0007055940Y0003295010D01*
X0007055940Y0003695010D02*
X0007055940Y0003754380D01*
X0006955940Y0003754380D02*
X0006955940Y0003695010D01*
X0006855940Y0003695010D02*
X0006855940Y0003754380D01*
X0006755940Y0003754380D02*
X0006755940Y0003695010D01*
X0006655940Y0003695010D02*
X0006655940Y0003754380D01*
X0006555940Y0003754380D02*
X0006555940Y0003695010D01*
X0006455940Y0003695010D02*
X0006455940Y0003754380D01*
X0006455940Y0004095010D02*
X0006455940Y0004154379D01*
X0006555940Y0004154379D02*
X0006555940Y0004095010D01*
X0006655940Y0004095010D02*
X0006655940Y0004154379D01*
X0006755940Y0004154379D02*
X0006755940Y0004095010D01*
X0006855940Y0004095010D02*
X0006855940Y0004154379D01*
X0006955940Y0004154379D02*
X0006955940Y0004095010D01*
X0007055940Y0004095010D02*
X0007055940Y0004154379D01*
X0006455940Y0003354380D02*
X0006455940Y0003295010D01*
D51*
X0005888440Y0004537200D03*
X0005588439Y0004537200D03*
D52*
X0005914690Y0004074700D03*
X0006265940Y0004074700D03*
X0006355940Y0003924699D03*
X0006555940Y0004259700D03*
X0006755940Y0003924699D03*
X0006955940Y0004264700D03*
X0006755940Y0003524700D03*
X0006455940Y0003024700D03*
X0006275940Y0003114700D03*
X0006225940Y0002944700D03*
X0006175939Y0002864700D03*
X0006405940Y0002624700D03*
X0006545940Y0002724700D03*
X0006605940Y0002524700D03*
X0006905940Y0002542200D03*
X0006515939Y0001814700D03*
X0006405940Y0001974700D03*
X0006605940Y0001604700D03*
X0006545940Y0001154700D03*
X0006735940Y0001154700D03*
X0006305940Y0000694700D03*
X0006117190Y0000738450D03*
X0005823440Y0001177200D03*
X0005719690Y0001175950D03*
X0005555940Y0001024700D03*
X0005464690Y0000784700D03*
X0005605940Y0000694700D03*
X0005758440Y0000593450D03*
X0005555940Y0001524700D03*
X0005495939Y0001865200D03*
X0005255939Y0001974700D03*
X0004955940Y0001894700D03*
X0005083440Y0001175950D03*
X0004990940Y0000663450D03*
X0005105940Y0000610950D03*
X0005805940Y0001974700D03*
X0005965940Y0001574700D03*
X0005805940Y0002574700D03*
X0005705940Y0002774700D03*
X0005815940Y0003024700D03*
X0005405940Y0003074700D03*
X0006355940Y0003524700D03*
X0006415940Y0000344699D03*
G04 next file*
G04 #@! TF.GenerationSoftware,KiCad,Pcbnew,(5.0.0)*
G04 #@! TF.CreationDate,2019-03-14T19:33:34-04:00*
G04 #@! TF.ProjectId,Power Sense 3.0,506F7765722053656E736520332E302E,rev?*
G04 #@! TF.SameCoordinates,Original*
G04 #@! TF.FileFunction,Soldermask,Top*
G04 #@! TF.FilePolarity,Negative*
G04 Gerber Fmt 4.6, Leading zero omitted, Abs format (unit mm)*
G04 Created by KiCad (PCBNEW (5.0.0)) date 03/14/19 19:33:34*
G01*
G04 APERTURE LIST*
G04 APERTURE END LIST*
D53*
G04 #@! TO.C,REF\002A\002A*
X-0002480314Y0009606299D02*
X0000214685Y0005756299D03*
G04 #@! TD*
D54*
G04 #@! TO.C,T2*
X0001397185Y0007021299D03*
X0001132185Y0007021299D03*
X0000867185Y0007021299D03*
X0000602185Y0007021299D03*
X0001397185Y0005801299D03*
X0001132185Y0005801299D03*
X0000867185Y0005801299D03*
X0000602185Y0005801299D03*
G04 #@! TD*
D55*
G04 #@! TO.C,C1*
X0002439685Y0006506299D03*
X0002439685Y0006604724D03*
G04 #@! TD*
G04 #@! TO.C,C2*
X0002434685Y0006806299D03*
X0002434685Y0006707874D03*
G04 #@! TD*
G04 #@! TO.C,C3*
X0002434685Y0006897874D03*
X0002434685Y0006996299D03*
G04 #@! TD*
G04 #@! TO.C,C4*
X0002134685Y0007296299D03*
X0002036259Y0007296299D03*
G04 #@! TD*
G04 #@! TO.C,C5*
X0002694685Y0006984724D03*
X0002694685Y0006886299D03*
G04 #@! TD*
G04 #@! TO.C,C6*
X0002334685Y0006391299D03*
X0002433110Y0006391299D03*
G04 #@! TD*
G04 #@! TO.C,C7*
X0003569685Y0006946299D03*
X0003569685Y0006847874D03*
G04 #@! TD*
G04 #@! TO.C,C8*
X0003569685Y0006561299D03*
X0003569685Y0006462873D03*
G04 #@! TD*
G04 #@! TO.C,C9*
X0003569685Y0006756299D03*
X0003569685Y0006657874D03*
G04 #@! TD*
G04 #@! TO.C,C10*
X0004219685Y0006846299D03*
X0004219685Y0006944724D03*
G04 #@! TD*
D56*
G04 #@! TO.C,D1*
X0004984685Y0006356299D03*
D57*
X0005084685Y0006356299D03*
G04 #@! TD*
D56*
G04 #@! TO.C,D2*
X0004984685Y0006886299D03*
D57*
X0005084685Y0006886299D03*
G04 #@! TD*
D56*
G04 #@! TO.C,D3*
X0004984685Y0006621299D03*
D57*
X0005084685Y0006621299D03*
G04 #@! TD*
D58*
G04 #@! TO.C,J1*
X0000537685Y0007263299D03*
D59*
X0000537685Y0007363299D03*
G04 #@! TD*
D58*
G04 #@! TO.C,J2*
X0003714685Y0005721299D03*
D59*
X0003714685Y0005821299D03*
X0003714685Y0005921299D03*
X0003714685Y0006021299D03*
X0003714685Y0006121299D03*
G04 #@! TD*
D60*
G04 #@! TO.C,R2*
X0002034685Y0006506299D03*
D61*
X0002334685Y0006506299D03*
G04 #@! TD*
D60*
G04 #@! TO.C,R3*
X0002334685Y0006706299D03*
D61*
X0002034685Y0006706299D03*
G04 #@! TD*
D60*
G04 #@! TO.C,R6*
X0002034685Y0006606299D03*
D61*
X0002334685Y0006606299D03*
G04 #@! TD*
D60*
G04 #@! TO.C,R7*
X0002034685Y0006806299D03*
D61*
X0002334685Y0006806299D03*
G04 #@! TD*
D60*
G04 #@! TO.C,R8*
X0002034685Y0007086299D03*
D61*
X0002334685Y0007086299D03*
G04 #@! TD*
D60*
G04 #@! TO.C,R9*
X0002034685Y0007186299D03*
D61*
X0002334685Y0007186299D03*
G04 #@! TD*
D60*
G04 #@! TO.C,R10*
X0004999685Y0006176299D03*
D61*
X0004999685Y0005876299D03*
G04 #@! TD*
D60*
G04 #@! TO.C,R11*
X0003239685Y0005991299D03*
D61*
X0003239685Y0005691299D03*
G04 #@! TD*
D60*
G04 #@! TO.C,R13*
X0003339685Y0005691299D03*
D61*
X0003339685Y0005991299D03*
G04 #@! TD*
D60*
G04 #@! TO.C,R14*
X0003274685Y0007096299D03*
D61*
X0003574685Y0007096299D03*
G04 #@! TD*
D60*
G04 #@! TO.C,R17*
X0002884685Y0007461299D03*
D61*
X0003184685Y0007461299D03*
G04 #@! TD*
D60*
G04 #@! TO.C,R18*
X0002964685Y0007311299D03*
D61*
X0003264685Y0007311299D03*
G04 #@! TD*
D60*
G04 #@! TO.C,R19*
X0003954685Y0007246299D03*
D61*
X0004254685Y0007246299D03*
G04 #@! TD*
D60*
G04 #@! TO.C,R21*
X0003159685Y0006796299D03*
D61*
X0003159685Y0007096299D03*
G04 #@! TD*
D60*
G04 #@! TO.C,R22*
X0005084685Y0007101299D03*
D61*
X0005084685Y0007401299D03*
G04 #@! TD*
D60*
G04 #@! TO.C,R23*
X0004954685Y0007101299D03*
D61*
X0004954685Y0007401299D03*
G04 #@! TD*
D53*
G04 #@! TO.C,T1*
X0002282185Y0005834192D03*
X0001882185Y0006233405D03*
X0002682185Y0006233405D03*
G04 #@! TD*
D62*
G04 #@! TO.C,U1*
X0004689685Y0006046299D03*
X0004689685Y0006146299D03*
X0004689685Y0006246299D03*
X0004689685Y0006346299D03*
X0004689685Y0006446299D03*
X0004689685Y0006546299D03*
X0004689685Y0006646299D03*
X0004689685Y0006746299D03*
X0004689685Y0006846299D03*
X0004689685Y0006946299D03*
X0004689685Y0007046299D03*
X0004689685Y0007146299D03*
X0004689685Y0007246299D03*
X0004689685Y0007346299D03*
X0004389685Y0007346299D03*
X0004389685Y0007246299D03*
X0004389685Y0007146299D03*
X0004389685Y0007046299D03*
X0004389685Y0006946299D03*
X0004389685Y0006846299D03*
X0004389685Y0006746299D03*
X0004389685Y0006646299D03*
X0004389685Y0006546299D03*
X0004389685Y0006446299D03*
X0004389685Y0006346299D03*
X0004389685Y0006246299D03*
X0004389685Y0006146299D03*
X0004389685Y0006046299D03*
G04 #@! TD*
D63*
G04 #@! TO.C,Y1*
X0003429685Y0006557874D03*
X0003429685Y0006754724D03*
G04 #@! TD*
D60*
G04 #@! TO.C,R12*
X0002334685Y0006991299D03*
D61*
X0002034685Y0006991299D03*
G04 #@! TD*
D60*
G04 #@! TO.C,R1*
X0001524685Y0007261299D03*
D61*
X0001224685Y0007261299D03*
G04 #@! TD*
D60*
G04 #@! TO.C,R4*
X0001224685Y0007361299D03*
D61*
X0001524685Y0007361299D03*
G04 #@! TD*
G04 #@! TO.C,R5*
X0002034685Y0006901299D03*
D60*
X0002334685Y0006901299D03*
G04 #@! TD*
D59*
G04 #@! TO.C,J4*
X0002499685Y0005646299D03*
X0002599685Y0005646299D03*
X0002699685Y0005646299D03*
X0002799685Y0005646299D03*
X0002899685Y0005646299D03*
D58*
X0002999685Y0005646299D03*
G04 #@! TD*
D60*
G04 #@! TO.C,R20*
X0001094685Y0007261299D03*
D61*
X0000794685Y0007261299D03*
G04 #@! TD*
G04 #@! TO.C,R24*
X0000794685Y0007361299D03*
D60*
X0001094685Y0007361299D03*
G04 #@! TD*
D58*
G04 #@! TO.C,J3*
X0003954685Y0006446299D03*
D59*
X0003954685Y0006546299D03*
X0003954685Y0006646299D03*
X0003954685Y0006746299D03*
X0003954685Y0006846299D03*
X0003954685Y0006946299D03*
X0003954685Y0007046299D03*
G04 #@! TD*
D53*
G04 #@! TO.C,REF\002A\002A*
X0005144685Y0005701299D03*
G04 #@! TD*
G04 #@! TO.C,REF\002A\002A*
X0002624685Y0007281299D03*
G04 #@! TD*
G04 next file*
G04 EAGLE Gerber RS-274X export*
G75*
G01*
D64*
X0001657543Y0003007377D02*
X0004750043Y0003007377D01*
X0004752582Y0004808456D01*
X0001660082Y0004810996D01*
X0001657543Y0003007377D01*
D65*
X0001707496Y0004692657D02*
X0001707519Y0004694574D01*
X0001707590Y0004696492D01*
X0001707708Y0004698405D01*
X0001707874Y0004700314D01*
X0001708082Y0004702220D01*
X0001708342Y0004704122D01*
X0001708645Y0004706015D01*
X0001708996Y0004707897D01*
X0001709393Y0004709775D01*
X0001709838Y0004711641D01*
X0001710326Y0004713496D01*
X0001710854Y0004715334D01*
X0001711440Y0004717165D01*
X0001712062Y0004718976D01*
X0001712732Y0004720775D01*
X0001713444Y0004722555D01*
X0001714196Y0004724318D01*
X0001714992Y0004726059D01*
X0001715838Y0004727783D01*
X0001716720Y0004729484D01*
X0001717645Y0004731165D01*
X0001718610Y0004732822D01*
X0001719618Y0004734452D01*
X0001720661Y0004736062D01*
X0001721748Y0004737641D01*
X0001722870Y0004739196D01*
X0001724031Y0004740724D01*
X0001725228Y0004742220D01*
X0001726464Y0004743688D01*
X0001727736Y0004745122D01*
X0001729039Y0004746527D01*
X0001730377Y0004747901D01*
X0001731751Y0004749240D01*
X0001733157Y0004750543D01*
X0001734590Y0004751814D01*
X0001736059Y0004753051D01*
X0001737551Y0004754248D01*
X0001739082Y0004755409D01*
X0001740637Y0004756531D01*
X0001742216Y0004757618D01*
X0001743826Y0004758661D01*
X0001745456Y0004759669D01*
X0001747114Y0004760633D01*
X0001748795Y0004761559D01*
X0001750496Y0004762440D01*
X0001752220Y0004763283D01*
X0001753960Y0004764082D01*
X0001755724Y0004764834D01*
X0001757503Y0004765547D01*
X0001759303Y0004766216D01*
X0001761114Y0004766838D01*
X0001762940Y0004767421D01*
X0001764783Y0004767952D01*
X0001766637Y0004768440D01*
X0001768503Y0004768885D01*
X0001770381Y0004769283D01*
X0001772263Y0004769633D01*
X0001774157Y0004769937D01*
X0001776059Y0004770196D01*
X0001777964Y0004770405D01*
X0001779870Y0004770570D01*
X0001781783Y0004770688D01*
X0001783704Y0004770759D01*
X0001785622Y0004770783D01*
X0001787539Y0004770759D01*
X0001789456Y0004770688D01*
X0001791370Y0004770570D01*
X0001793279Y0004770405D01*
X0001795185Y0004770196D01*
X0001797086Y0004769937D01*
X0001798980Y0004769633D01*
X0001800862Y0004769283D01*
X0001802740Y0004768885D01*
X0001804606Y0004768440D01*
X0001806460Y0004767952D01*
X0001808299Y0004767421D01*
X0001810129Y0004766838D01*
X0001811940Y0004766216D01*
X0001813740Y0004765547D01*
X0001815515Y0004764834D01*
X0001817283Y0004764082D01*
X0001819023Y0004763283D01*
X0001820748Y0004762440D01*
X0001822448Y0004761559D01*
X0001824129Y0004760633D01*
X0001825787Y0004759669D01*
X0001827417Y0004758661D01*
X0001829027Y0004757618D01*
X0001830606Y0004756531D01*
X0001832161Y0004755409D01*
X0001833688Y0004754248D01*
X0001835185Y0004753051D01*
X0001836649Y0004751814D01*
X0001838082Y0004750543D01*
X0001839492Y0004749240D01*
X0001840866Y0004747901D01*
X0001842204Y0004746527D01*
X0001843507Y0004745122D01*
X0001844779Y0004743688D01*
X0001846015Y0004742220D01*
X0001847212Y0004740724D01*
X0001848374Y0004739196D01*
X0001849492Y0004737641D01*
X0001850582Y0004736062D01*
X0001851625Y0004734452D01*
X0001852633Y0004732822D01*
X0001853598Y0004731165D01*
X0001854523Y0004729484D01*
X0001855405Y0004727783D01*
X0001856248Y0004726059D01*
X0001857043Y0004724318D01*
X0001857799Y0004722555D01*
X0001858511Y0004720775D01*
X0001859181Y0004718976D01*
X0001859803Y0004717165D01*
X0001860385Y0004715334D01*
X0001860917Y0004713496D01*
X0001861405Y0004711641D01*
X0001861846Y0004709775D01*
X0001862248Y0004707897D01*
X0001862598Y0004706015D01*
X0001862901Y0004704122D01*
X0001863161Y0004702220D01*
X0001863370Y0004700314D01*
X0001863531Y0004698405D01*
X0001863649Y0004696492D01*
X0001863724Y0004694574D01*
X0001863748Y0004692657D01*
X0001863724Y0004690740D01*
X0001863649Y0004688822D01*
X0001863531Y0004686909D01*
X0001863370Y0004685000D01*
X0001863161Y0004683094D01*
X0001862901Y0004681192D01*
X0001862598Y0004679299D01*
X0001862248Y0004677417D01*
X0001861846Y0004675539D01*
X0001861405Y0004673673D01*
X0001860917Y0004671818D01*
X0001860385Y0004669980D01*
X0001859803Y0004668149D01*
X0001859181Y0004666338D01*
X0001858511Y0004664539D01*
X0001857799Y0004662759D01*
X0001857043Y0004660996D01*
X0001856248Y0004659255D01*
X0001855405Y0004657531D01*
X0001854523Y0004655830D01*
X0001853598Y0004654149D01*
X0001852633Y0004652492D01*
X0001851625Y0004650862D01*
X0001850582Y0004649251D01*
X0001849492Y0004647673D01*
X0001848374Y0004646118D01*
X0001847212Y0004644590D01*
X0001846015Y0004643094D01*
X0001844779Y0004641625D01*
X0001843507Y0004640192D01*
X0001842204Y0004638787D01*
X0001840866Y0004637413D01*
X0001839492Y0004636074D01*
X0001838082Y0004634771D01*
X0001836649Y0004633500D01*
X0001835185Y0004632263D01*
X0001833688Y0004631066D01*
X0001832161Y0004629905D01*
X0001830606Y0004628783D01*
X0001829027Y0004627696D01*
X0001827417Y0004626653D01*
X0001825787Y0004625645D01*
X0001824129Y0004624681D01*
X0001822448Y0004623755D01*
X0001820748Y0004622874D01*
X0001819023Y0004622031D01*
X0001817283Y0004621232D01*
X0001815515Y0004620480D01*
X0001813740Y0004619767D01*
X0001811940Y0004619098D01*
X0001810129Y0004618476D01*
X0001808299Y0004617893D01*
X0001806460Y0004617362D01*
X0001804606Y0004616874D01*
X0001802740Y0004616429D01*
X0001800862Y0004616031D01*
X0001798980Y0004615681D01*
X0001797086Y0004615377D01*
X0001795185Y0004615118D01*
X0001793279Y0004614909D01*
X0001791370Y0004614744D01*
X0001789456Y0004614625D01*
X0001787539Y0004614555D01*
X0001785622Y0004614531D01*
X0001783704Y0004614555D01*
X0001781783Y0004614625D01*
X0001779870Y0004614744D01*
X0001777964Y0004614909D01*
X0001776059Y0004615118D01*
X0001774157Y0004615377D01*
X0001772263Y0004615681D01*
X0001770381Y0004616031D01*
X0001768503Y0004616429D01*
X0001766637Y0004616874D01*
X0001764783Y0004617362D01*
X0001762940Y0004617893D01*
X0001761114Y0004618476D01*
X0001759303Y0004619098D01*
X0001757503Y0004619767D01*
X0001755724Y0004620480D01*
X0001753960Y0004621232D01*
X0001752220Y0004622031D01*
X0001750496Y0004622874D01*
X0001748795Y0004623755D01*
X0001747114Y0004624681D01*
X0001745456Y0004625645D01*
X0001743826Y0004626653D01*
X0001742216Y0004627696D01*
X0001740637Y0004628783D01*
X0001739082Y0004629905D01*
X0001737551Y0004631066D01*
X0001736059Y0004632263D01*
X0001734590Y0004633500D01*
X0001733157Y0004634771D01*
X0001731751Y0004636074D01*
X0001730377Y0004637413D01*
X0001729039Y0004638787D01*
X0001727736Y0004640192D01*
X0001726464Y0004641625D01*
X0001725228Y0004643094D01*
X0001724031Y0004644590D01*
X0001722870Y0004646118D01*
X0001721748Y0004647673D01*
X0001720661Y0004649251D01*
X0001719618Y0004650862D01*
X0001718610Y0004652492D01*
X0001717645Y0004654149D01*
X0001716720Y0004655830D01*
X0001715838Y0004657531D01*
X0001714992Y0004659255D01*
X0001714196Y0004660996D01*
X0001713444Y0004662759D01*
X0001712732Y0004664539D01*
X0001712062Y0004666338D01*
X0001711440Y0004668149D01*
X0001710854Y0004669980D01*
X0001710326Y0004671818D01*
X0001709838Y0004673673D01*
X0001709393Y0004675539D01*
X0001708996Y0004677417D01*
X0001708645Y0004679299D01*
X0001708342Y0004681192D01*
X0001708082Y0004683094D01*
X0001707874Y0004685000D01*
X0001707708Y0004686909D01*
X0001707590Y0004688822D01*
X0001707519Y0004690740D01*
X0001707496Y0004692657D01*
D66*
X0001785622Y0004692657D03*
D65*
X0002936858Y0003110236D02*
X0002936881Y0003112153D01*
X0002936952Y0003114066D01*
X0002937066Y0003115984D01*
X0002937236Y0003117893D01*
X0002937440Y0003119795D01*
X0002937704Y0003121700D01*
X0002938007Y0003123594D01*
X0002938358Y0003125476D01*
X0002938751Y0003127354D01*
X0002939200Y0003129220D01*
X0002939688Y0003131074D01*
X0002940220Y0003132909D01*
X0002940803Y0003134744D01*
X0002941425Y0003136555D01*
X0002942090Y0003138354D01*
X0002942807Y0003140133D01*
X0002943559Y0003141897D01*
X0002944358Y0003143637D01*
X0002945200Y0003145362D01*
X0002946082Y0003147062D01*
X0002947007Y0003148744D01*
X0002947972Y0003150401D01*
X0002948980Y0003152031D01*
X0002950023Y0003153637D01*
X0002951110Y0003155220D01*
X0002952232Y0003156771D01*
X0002953393Y0003158303D01*
X0002954590Y0003159799D01*
X0002955826Y0003161267D01*
X0002957098Y0003162700D01*
X0002958401Y0003164106D01*
X0002959740Y0003165480D01*
X0002961114Y0003166818D01*
X0002962515Y0003168122D01*
X0002963952Y0003169393D01*
X0002965417Y0003170625D01*
X0002966917Y0003171826D01*
X0002968444Y0003172988D01*
X0002970000Y0003174110D01*
X0002971578Y0003175196D01*
X0002973188Y0003176240D01*
X0002974818Y0003177248D01*
X0002976472Y0003178212D01*
X0002978157Y0003179137D01*
X0002979858Y0003180019D01*
X0002981582Y0003180862D01*
X0002983322Y0003181661D01*
X0002985086Y0003182413D01*
X0002986866Y0003183125D01*
X0002988665Y0003183795D01*
X0002990476Y0003184413D01*
X0002992307Y0003185000D01*
X0002994145Y0003185531D01*
X0002996000Y0003186019D01*
X0002997866Y0003186464D01*
X0002999744Y0003186862D01*
X0003001625Y0003187212D01*
X0003003519Y0003187515D01*
X0003005421Y0003187775D01*
X0003007326Y0003187984D01*
X0003009236Y0003188149D01*
X0003011149Y0003188267D01*
X0003013066Y0003188338D01*
X0003014984Y0003188358D01*
X0003016901Y0003188338D01*
X0003018818Y0003188267D01*
X0003020728Y0003188149D01*
X0003022641Y0003187984D01*
X0003024547Y0003187775D01*
X0003026448Y0003187515D01*
X0003028342Y0003187212D01*
X0003030224Y0003186862D01*
X0003032102Y0003186464D01*
X0003033968Y0003186019D01*
X0003035822Y0003185531D01*
X0003037661Y0003185000D01*
X0003039492Y0003184413D01*
X0003041303Y0003183795D01*
X0003043102Y0003183125D01*
X0003044881Y0003182413D01*
X0003046645Y0003181661D01*
X0003048385Y0003180862D01*
X0003050110Y0003180019D01*
X0003051807Y0003179137D01*
X0003053492Y0003178212D01*
X0003055145Y0003177248D01*
X0003056779Y0003176240D01*
X0003058389Y0003175196D01*
X0003059964Y0003174110D01*
X0003061523Y0003172988D01*
X0003063051Y0003171826D01*
X0003064547Y0003170625D01*
X0003066015Y0003169393D01*
X0003067448Y0003168122D01*
X0003068854Y0003166818D01*
X0003070228Y0003165480D01*
X0003071562Y0003164106D01*
X0003072870Y0003162700D01*
X0003074141Y0003161267D01*
X0003075377Y0003159799D01*
X0003076574Y0003158303D01*
X0003077736Y0003156771D01*
X0003078858Y0003155220D01*
X0003079944Y0003153637D01*
X0003080988Y0003152031D01*
X0003081996Y0003150401D01*
X0003082960Y0003148744D01*
X0003083885Y0003147062D01*
X0003084767Y0003145362D01*
X0003085610Y0003143637D01*
X0003086409Y0003141897D01*
X0003087161Y0003140133D01*
X0003087874Y0003138354D01*
X0003088543Y0003136555D01*
X0003089165Y0003134744D01*
X0003089748Y0003132909D01*
X0003090279Y0003131074D01*
X0003090767Y0003129220D01*
X0003091212Y0003127354D01*
X0003091610Y0003125476D01*
X0003091960Y0003123594D01*
X0003092263Y0003121700D01*
X0003092523Y0003119795D01*
X0003092728Y0003117893D01*
X0003092897Y0003115984D01*
X0003093015Y0003114066D01*
X0003093086Y0003112153D01*
X0003093110Y0003110236D01*
X0003093086Y0003108318D01*
X0003093015Y0003106401D01*
X0003092897Y0003104488D01*
X0003092728Y0003102578D01*
X0003092523Y0003100673D01*
X0003092263Y0003098771D01*
X0003091960Y0003096874D01*
X0003091610Y0003094996D01*
X0003091212Y0003093118D01*
X0003090767Y0003091248D01*
X0003090279Y0003089393D01*
X0003089748Y0003087559D01*
X0003089165Y0003085728D01*
X0003088543Y0003083917D01*
X0003087874Y0003082118D01*
X0003087161Y0003080338D01*
X0003086409Y0003078570D01*
X0003085610Y0003076834D01*
X0003084767Y0003075110D01*
X0003083885Y0003073409D01*
X0003082960Y0003071728D01*
X0003081996Y0003070070D01*
X0003080988Y0003068440D01*
X0003079944Y0003066830D01*
X0003078858Y0003065251D01*
X0003077736Y0003063696D01*
X0003076574Y0003062169D01*
X0003075377Y0003060673D01*
X0003074141Y0003059204D01*
X0003072870Y0003057771D01*
X0003071562Y0003056366D01*
X0003070228Y0003054992D01*
X0003068854Y0003053653D01*
X0003067448Y0003052346D01*
X0003066015Y0003051078D01*
X0003064547Y0003049842D01*
X0003063051Y0003048641D01*
X0003061523Y0003047484D01*
X0003059964Y0003046362D01*
X0003058389Y0003045275D01*
X0003056779Y0003044232D01*
X0003055145Y0003043224D01*
X0003053492Y0003042259D01*
X0003051807Y0003041334D01*
X0003050110Y0003040448D01*
X0003048385Y0003039606D01*
X0003046645Y0003038811D01*
X0003044881Y0003038055D01*
X0003043102Y0003037346D01*
X0003041303Y0003036673D01*
X0003039492Y0003036055D01*
X0003037661Y0003035472D01*
X0003035822Y0003034940D01*
X0003033968Y0003034448D01*
X0003032102Y0003034007D01*
X0003030224Y0003033606D01*
X0003028342Y0003033259D01*
X0003026448Y0003032956D01*
X0003024547Y0003032696D01*
X0003022641Y0003032488D01*
X0003020728Y0003032322D01*
X0003018818Y0003032204D01*
X0003016901Y0003032133D01*
X0003014984Y0003032110D01*
X0003013066Y0003032133D01*
X0003011149Y0003032204D01*
X0003009236Y0003032322D01*
X0003007326Y0003032488D01*
X0003005421Y0003032696D01*
X0003003519Y0003032956D01*
X0003001625Y0003033259D01*
X0002999744Y0003033606D01*
X0002997866Y0003034007D01*
X0002996000Y0003034448D01*
X0002994145Y0003034940D01*
X0002992307Y0003035472D01*
X0002990476Y0003036055D01*
X0002988665Y0003036673D01*
X0002986866Y0003037346D01*
X0002985086Y0003038055D01*
X0002983322Y0003038811D01*
X0002981582Y0003039606D01*
X0002979858Y0003040448D01*
X0002978157Y0003041334D01*
X0002976472Y0003042259D01*
X0002974818Y0003043224D01*
X0002973188Y0003044232D01*
X0002971578Y0003045275D01*
X0002970000Y0003046362D01*
X0002968444Y0003047484D01*
X0002966917Y0003048641D01*
X0002965417Y0003049842D01*
X0002963952Y0003051078D01*
X0002962515Y0003052346D01*
X0002961114Y0003053653D01*
X0002959740Y0003054992D01*
X0002958401Y0003056366D01*
X0002957098Y0003057771D01*
X0002955826Y0003059204D01*
X0002954590Y0003060673D01*
X0002953393Y0003062169D01*
X0002952232Y0003063696D01*
X0002951110Y0003065251D01*
X0002950023Y0003066830D01*
X0002948980Y0003068440D01*
X0002947972Y0003070070D01*
X0002947007Y0003071728D01*
X0002946082Y0003073409D01*
X0002945200Y0003075110D01*
X0002944358Y0003076834D01*
X0002943559Y0003078570D01*
X0002942807Y0003080338D01*
X0002942090Y0003082118D01*
X0002941425Y0003083917D01*
X0002940803Y0003085728D01*
X0002940220Y0003087559D01*
X0002939688Y0003089393D01*
X0002939200Y0003091248D01*
X0002938751Y0003093118D01*
X0002938358Y0003094996D01*
X0002938007Y0003096874D01*
X0002937704Y0003098771D01*
X0002937440Y0003100673D01*
X0002937236Y0003102578D01*
X0002937066Y0003104488D01*
X0002936952Y0003106401D01*
X0002936881Y0003108318D01*
X0002936858Y0003110236D01*
D66*
X0003014984Y0003110236D03*
D67*
X0003275814Y0003742578D03*
X0003275814Y0003442578D03*
D68*
X0002860425Y0004372429D03*
X0002760425Y0004372429D03*
D69*
X0003024874Y0003324964D02*
X0003024874Y0003272964D01*
X0003124874Y0003272964D02*
X0003124874Y0003324964D01*
X0003522901Y0003324964D02*
X0003522901Y0003272964D01*
X0003622905Y0003272964D02*
X0003622905Y0003324964D01*
X0003772905Y0003324964D02*
X0003772905Y0003272964D01*
X0003872905Y0003272964D02*
X0003872905Y0003324964D01*
X0003274874Y0003324964D02*
X0003274874Y0003272964D01*
X0003374874Y0003272964D02*
X0003374874Y0003324964D01*
D67*
X0003394307Y0003743326D03*
X0003394307Y0003443326D03*
D69*
X0004519125Y0004216606D02*
X0004519125Y0004268606D01*
X0004419125Y0004268606D02*
X0004419125Y0004216606D01*
X0003919125Y0004216606D02*
X0003919125Y0004268606D01*
X0003819122Y0004268606D02*
X0003819122Y0004216606D01*
X0004319125Y0004216606D02*
X0004319125Y0004268606D01*
X0004219125Y0004268606D02*
X0004219125Y0004216606D01*
X0004019125Y0004216606D02*
X0004019125Y0004268606D01*
X0004119125Y0004268606D02*
X0004119125Y0004216606D01*
X0003719125Y0004216606D02*
X0003719125Y0004268606D01*
X0003619125Y0004268606D02*
X0003619125Y0004216606D01*
X0003519125Y0004216606D02*
X0003519125Y0004268606D01*
X0003419125Y0004268606D02*
X0003419125Y0004216606D01*
X0003319125Y0004216606D02*
X0003319125Y0004268606D01*
X0003219125Y0004268606D02*
X0003219125Y0004216606D01*
X0003219125Y0003968606D02*
X0003219125Y0003916602D01*
X0003319125Y0003916602D02*
X0003319125Y0003968606D01*
X0003419125Y0003968606D02*
X0003419125Y0003916602D01*
X0003519125Y0003916602D02*
X0003519125Y0003968606D01*
X0003619125Y0003968606D02*
X0003619125Y0003916602D01*
X0003719125Y0003916602D02*
X0003719125Y0003968606D01*
X0003819122Y0003968606D02*
X0003819122Y0003916602D01*
X0003919125Y0003916602D02*
X0003919125Y0003968606D01*
X0004019125Y0003968606D02*
X0004019125Y0003916602D01*
X0004119125Y0003916602D02*
X0004119125Y0003968606D01*
X0004219125Y0003968606D02*
X0004219125Y0003916602D01*
X0004319125Y0003916602D02*
X0004319125Y0003968606D01*
X0004419125Y0003968606D02*
X0004419125Y0003916602D01*
X0004519125Y0003916602D02*
X0004519125Y0003968606D01*
D70*
X0004593492Y0003780515D03*
X0004381358Y0003568381D03*
D71*
X0003152814Y0003443405D03*
X0003152814Y0003743405D03*
D69*
X0002615531Y0003833346D02*
X0002615531Y0003885350D01*
X0002536791Y0003885350D02*
X0002536791Y0003833346D01*
X0002458051Y0003833346D02*
X0002458051Y0003885350D01*
X0002379311Y0003885350D02*
X0002379311Y0003833346D01*
X0002300570Y0003833346D02*
X0002300570Y0003885350D01*
X0002221830Y0003885350D02*
X0002221830Y0003833346D01*
X0002143090Y0003833346D02*
X0002143090Y0003885350D01*
X0002064350Y0003885350D02*
X0002064350Y0003833346D01*
X0002615531Y0003282165D02*
X0002615531Y0003230169D01*
X0002536791Y0003230169D02*
X0002536791Y0003282165D01*
X0002458051Y0003282165D02*
X0002458051Y0003230169D01*
X0002379311Y0003230169D02*
X0002379311Y0003282165D01*
X0002300570Y0003282165D02*
X0002300570Y0003230169D01*
X0002221830Y0003230169D02*
X0002221830Y0003282165D01*
X0002143090Y0003282165D02*
X0002143090Y0003230169D01*
X0002064350Y0003230169D02*
X0002064350Y0003282165D01*
X0002647220Y0003752051D02*
X0002699224Y0003752051D01*
X0002699224Y0003673311D02*
X0002647220Y0003673311D01*
X0002647220Y0003594570D02*
X0002699224Y0003594570D01*
X0002699224Y0003515830D02*
X0002647220Y0003515830D01*
X0002647220Y0003437090D02*
X0002699224Y0003437090D01*
X0002699224Y0003358350D02*
X0002647220Y0003358350D01*
D67*
X0003512224Y0003743248D03*
X0003512224Y0003443248D03*
D72*
X0002759023Y0004233921D03*
X0002859023Y0004233921D03*
D69*
X0001924488Y0004120570D02*
X0001924488Y0004068570D01*
X0002024484Y0004068570D02*
X0002024484Y0004120570D01*
X0002224488Y0004368570D02*
X0002224488Y0004420570D01*
X0002124488Y0004420570D02*
X0002124488Y0004368570D01*
X0002124488Y0004120570D02*
X0002124488Y0004068570D01*
X0002224488Y0004068570D02*
X0002224488Y0004120570D01*
X0002324488Y0004368570D02*
X0002324488Y0004420570D01*
X0002324488Y0004120570D02*
X0002324488Y0004068570D01*
X0002024484Y0004368570D02*
X0002024484Y0004420570D01*
X0001924488Y0004420570D02*
X0001924488Y0004368570D01*
D73*
X0002625263Y0004068338D03*
X0002481196Y0004331480D03*
D71*
X0002842811Y0003137826D03*
X0002842811Y0003437826D03*
D74*
X0002893137Y0003792417D02*
X0002952503Y0003792417D01*
D75*
X0002952503Y0003892417D02*
X0002893137Y0003892417D01*
X0002893137Y0003992417D02*
X0002952503Y0003992417D01*
D76*
X0003175661Y0004408657D02*
X0003175661Y0004468657D01*
X0003275657Y0004468657D02*
X0003275657Y0004408657D01*
X0003375661Y0004408657D02*
X0003375661Y0004468657D01*
X0003475661Y0004468657D02*
X0003475661Y0004408657D01*
X0003575661Y0004408657D02*
X0003575661Y0004468657D01*
D70*
X0004596787Y0003485543D03*
X0004384657Y0003273413D03*
X0004596791Y0003335685D03*
X0004384657Y0003123551D03*
X0004596791Y0003635405D03*
X0004384657Y0003423271D03*
D77*
X0001905003Y0003122937D03*
D76*
X0004188944Y0003127736D02*
X0004248944Y0003127736D01*
X0004248944Y0003227736D02*
X0004188944Y0003227736D01*
X0004188944Y0003327736D02*
X0004248944Y0003327736D01*
X0004248944Y0003427736D02*
X0004188944Y0003427736D01*
X0004188944Y0003527736D02*
X0004248944Y0003527736D01*
X0004248944Y0003627732D02*
X0004188944Y0003627732D01*
X0004188944Y0003727736D02*
X0004248944Y0003727736D01*
D77*
X0004218944Y0004377696D03*
D76*
X0002124244Y0004512799D02*
X0002124244Y0004572799D01*
X0002224244Y0004572799D02*
X0002224244Y0004512799D01*
D78*
X0002623822Y0003963677D03*
X0003375661Y0004558039D03*
X0003964944Y0003102618D03*
X0003820161Y0004354838D03*
X0004386582Y0003757937D03*
X0004000500Y0003204216D03*
X0004000500Y0003575059D03*
X0003716023Y0004438657D03*
X0004041141Y0004436118D03*
X0003101342Y0004037338D03*
X0003101342Y0004321818D03*
X0002740657Y0003227078D03*
X0002537464Y0003963677D03*
X0002377444Y0003966216D03*
X0002065023Y0003966216D03*
X0002189484Y0003966216D03*
X0003004818Y0004425956D03*
X0003004818Y0004164338D03*
X0002219964Y0003122937D03*
X0002065023Y0003122937D03*
G04 next file*
G75*
D79*
X0001574800Y0003031490D02*
X0000144780Y0003231540D03*
X0001454900Y0005280300D03*
D80*
X0001014799Y0003191490D03*
X0000914800Y0003191490D03*
D81*
X0001364800Y0003241489D03*
D82*
X0001364800Y0003341490D03*
D83*
X0000914800Y0003491490D03*
X0000514800Y0003491490D03*
X0001233700Y0004096610D03*
X0001233700Y0004990310D03*
X0000914800Y0005291490D03*
X0000114800Y0005291490D03*
D84*
X0001135110Y0005241490D02*
X0001194490Y0005241490D01*
X0001194490Y0005341490D02*
X0001135110Y0005341490D01*
X0001335110Y0003841490D02*
X0001394490Y0003841490D01*
X0001394490Y0003741490D02*
X0001335110Y0003741490D01*
X0001335110Y0003641489D02*
X0001394490Y0003641489D01*
X0001394490Y0003541490D02*
X0001335110Y0003541490D01*
M02*