%MOIN*%
%OFA0B0*%
%FSLAX44Y44*%
%IPPOS*%
%LPD*%
%ADD10C,0*%
D10*
X00015330Y00052803D02*
X00015330Y00052803D01*
X00015330Y00052783D01*
X00015329Y00052764D01*
X00015328Y00052745D01*
X00015326Y00052726D01*
X00015324Y00052707D01*
X00015321Y00052688D01*
X00015318Y00052669D01*
X00015315Y00052650D01*
X00015311Y00052631D01*
X00015306Y00052613D01*
X00015301Y00052594D01*
X00015296Y00052576D01*
X00015290Y00052558D01*
X00015284Y00052539D01*
X00015277Y00052521D01*
X00015270Y00052504D01*
X00015263Y00052486D01*
X00015255Y00052469D01*
X00015246Y00052451D01*
X00015238Y00052434D01*
X00015228Y00052417D01*
X00015219Y00052401D01*
X00015209Y00052385D01*
X00015198Y00052369D01*
X00015187Y00052353D01*
X00015176Y00052337D01*
X00015164Y00052322D01*
X00015152Y00052307D01*
X00015140Y00052292D01*
X00015127Y00052278D01*
X00015114Y00052264D01*
X00015101Y00052250D01*
X00015087Y00052237D01*
X00015073Y00052224D01*
X00015059Y00052211D01*
X00015044Y00052199D01*
X00015029Y00052187D01*
X00015014Y00052175D01*
X00014998Y00052164D01*
X00014983Y00052153D01*
X00014966Y00052143D01*
X00014950Y00052132D01*
X00014934Y00052123D01*
X00014917Y00052114D01*
X00014900Y00052105D01*
X00014883Y00052096D01*
X00014865Y00052088D01*
X00014848Y00052081D01*
X00014830Y00052074D01*
X00014812Y00052067D01*
X00014794Y00052061D01*
X00014775Y00052055D01*
X00014757Y00052050D01*
X00014738Y00052045D01*
X00014720Y00052040D01*
X00014701Y00052036D01*
X00014682Y00052033D01*
X00014663Y00052030D01*
X00014644Y00052027D01*
X00014625Y00052025D01*
X00014606Y00052023D01*
X00014587Y00052022D01*
X00014568Y00052022D01*
X00014549Y00052021D01*
X00014529Y00052022D01*
X00014510Y00052022D01*
X00014491Y00052023D01*
X00014472Y00052025D01*
X00014453Y00052027D01*
X00014434Y00052030D01*
X00014415Y00052033D01*
X00014396Y00052036D01*
X00014377Y00052040D01*
X00014359Y00052045D01*
X00014340Y00052050D01*
X00014322Y00052055D01*
X00014304Y00052061D01*
X00014285Y00052067D01*
X00014267Y00052074D01*
X00014250Y00052081D01*
X00014232Y00052088D01*
X00014215Y00052096D01*
X00014197Y00052105D01*
X00014180Y00052114D01*
X00014163Y00052123D01*
X00014147Y00052132D01*
X00014131Y00052143D01*
X00014115Y00052153D01*
X00014099Y00052164D01*
X00014083Y00052175D01*
X00014068Y00052187D01*
X00014053Y00052199D01*
X00014038Y00052211D01*
X00014024Y00052224D01*
X00014010Y00052237D01*
X00013996Y00052250D01*
X00013983Y00052264D01*
X00013970Y00052278D01*
X00013957Y00052292D01*
X00013945Y00052307D01*
X00013933Y00052322D01*
X00013921Y00052337D01*
X00013910Y00052353D01*
X00013899Y00052369D01*
X00013889Y00052385D01*
X00013878Y00052401D01*
X00013869Y00052417D01*
X00013860Y00052434D01*
X00013851Y00052451D01*
X00013842Y00052469D01*
X00013834Y00052486D01*
X00013827Y00052504D01*
X00013820Y00052521D01*
X00013813Y00052539D01*
X00013807Y00052558D01*
X00013801Y00052576D01*
X00013796Y00052594D01*
X00013791Y00052613D01*
X00013786Y00052631D01*
X00013782Y00052650D01*
X00013779Y00052669D01*
X00013776Y00052688D01*
X00013773Y00052707D01*
X00013771Y00052726D01*
X00013769Y00052745D01*
X00013768Y00052764D01*
X00013768Y00052783D01*
X00013767Y00052803D01*
X00013768Y00052822D01*
X00013768Y00052841D01*
X00013769Y00052860D01*
X00013771Y00052879D01*
X00013773Y00052898D01*
X00013776Y00052917D01*
X00013779Y00052936D01*
X00013782Y00052955D01*
X00013786Y00052974D01*
X00013791Y00052992D01*
X00013796Y00053011D01*
X00013801Y00053029D01*
X00013807Y00053048D01*
X00013813Y00053066D01*
X00013820Y00053084D01*
X00013827Y00053102D01*
X00013834Y00053119D01*
X00013842Y00053137D01*
X00013851Y00053154D01*
X00013860Y00053171D01*
X00013869Y00053188D01*
X00013878Y00053204D01*
X00013889Y00053220D01*
X00013899Y00053237D01*
X00013910Y00053252D01*
X00013921Y00053268D01*
X00013933Y00053283D01*
X00013945Y00053298D01*
X00013957Y00053313D01*
X00013970Y00053327D01*
X00013983Y00053341D01*
X00013996Y00053355D01*
X00014010Y00053368D01*
X00014024Y00053381D01*
X00014038Y00053394D01*
X00014053Y00053406D01*
X00014068Y00053418D01*
X00014083Y00053430D01*
X00014099Y00053441D01*
X00014115Y00053452D01*
X00014131Y00053463D01*
X00014147Y00053473D01*
X00014163Y00053482D01*
X00014180Y00053492D01*
X00014197Y00053500D01*
X00014215Y00053509D01*
X00014232Y00053517D01*
X00014250Y00053524D01*
X00014267Y00053531D01*
X00014285Y00053538D01*
X00014304Y00053544D01*
X00014322Y00053550D01*
X00014340Y00053555D01*
X00014359Y00053560D01*
X00014377Y00053565D01*
X00014396Y00053569D01*
X00014415Y00053572D01*
X00014434Y00053575D01*
X00014453Y00053578D01*
X00014472Y00053580D01*
X00014491Y00053582D01*
X00014510Y00053583D01*
X00014529Y00053584D01*
X00014549Y00053584D01*
X00014568Y00053584D01*
X00014587Y00053583D01*
X00014606Y00053582D01*
X00014625Y00053580D01*
X00014644Y00053578D01*
X00014663Y00053575D01*
X00014682Y00053572D01*
X00014701Y00053569D01*
X00014720Y00053565D01*
X00014738Y00053560D01*
X00014757Y00053555D01*
X00014775Y00053550D01*
X00014794Y00053544D01*
X00014812Y00053538D01*
X00014830Y00053531D01*
X00014848Y00053524D01*
X00014865Y00053517D01*
X00014883Y00053509D01*
X00014900Y00053500D01*
X00014917Y00053492D01*
X00014934Y00053482D01*
X00014950Y00053473D01*
X00014966Y00053463D01*
X00014983Y00053452D01*
X00014998Y00053441D01*
X00015014Y00053430D01*
X00015029Y00053418D01*
X00015044Y00053406D01*
X00015059Y00053394D01*
X00015073Y00053381D01*
X00015087Y00053368D01*
X00015101Y00053355D01*
X00015114Y00053341D01*
X00015127Y00053327D01*
X00015140Y00053313D01*
X00015152Y00053298D01*
X00015164Y00053283D01*
X00015176Y00053268D01*
X00015187Y00053252D01*
X00015198Y00053237D01*
X00015209Y00053220D01*
X00015219Y00053204D01*
X00015228Y00053188D01*
X00015238Y00053171D01*
X00015246Y00053154D01*
X00015255Y00053137D01*
X00015263Y00053119D01*
X00015270Y00053102D01*
X00015277Y00053084D01*
X00015284Y00053066D01*
X00015290Y00053048D01*
X00015296Y00053029D01*
X00015301Y00053011D01*
X00015306Y00052992D01*
X00015311Y00052974D01*
X00015315Y00052955D01*
X00015318Y00052936D01*
X00015321Y00052917D01*
X00015324Y00052898D01*
X00015326Y00052879D01*
X00015328Y00052860D01*
X00015329Y00052841D01*
X00015330Y00052822D01*
X00015330Y00052803D01*
X00002229Y00032315D02*
X00002229Y00032315D01*
X00002228Y00032296D01*
X00002228Y00032277D01*
X00002226Y00032257D01*
X00002225Y00032238D01*
X00002223Y00032219D01*
X00002220Y00032200D01*
X00002217Y00032181D01*
X00002214Y00032163D01*
X00002210Y00032144D01*
X00002205Y00032125D01*
X00002200Y00032107D01*
X00002195Y00032088D01*
X00002189Y00032070D01*
X00002183Y00032052D01*
X00002176Y00032034D01*
X00002169Y00032016D01*
X00002162Y00031998D01*
X00002154Y00031981D01*
X00002145Y00031964D01*
X00002136Y00031947D01*
X00002127Y00031930D01*
X00002117Y00031913D01*
X00002107Y00031897D01*
X00002097Y00031881D01*
X00002086Y00031865D01*
X00002075Y00031850D01*
X00002063Y00031834D01*
X00002051Y00031819D01*
X00002039Y00031805D01*
X00002026Y00031790D01*
X00002013Y00031776D01*
X00002000Y00031763D01*
X00001986Y00031749D01*
X00001972Y00031736D01*
X00001958Y00031723D01*
X00001943Y00031711D01*
X00001928Y00031699D01*
X00001913Y00031687D01*
X00001897Y00031676D01*
X00001881Y00031665D01*
X00001865Y00031655D01*
X00001849Y00031645D01*
X00001832Y00031635D01*
X00001816Y00031626D01*
X00001799Y00031617D01*
X00001781Y00031609D01*
X00001764Y00031601D01*
X00001746Y00031593D01*
X00001729Y00031586D01*
X00001711Y00031579D01*
X00001692Y00031573D01*
X00001674Y00031567D01*
X00001656Y00031562D01*
X00001637Y00031557D01*
X00001619Y00031553D01*
X00001600Y00031549D01*
X00001581Y00031545D01*
X00001562Y00031542D01*
X00001543Y00031540D01*
X00001524Y00031538D01*
X00001505Y00031536D01*
X00001486Y00031535D01*
X00001467Y00031534D01*
X00001447Y00031534D01*
X00001428Y00031534D01*
X00001409Y00031535D01*
X00001390Y00031536D01*
X00001371Y00031538D01*
X00001352Y00031540D01*
X00001333Y00031542D01*
X00001314Y00031545D01*
X00001295Y00031549D01*
X00001276Y00031553D01*
X00001258Y00031557D01*
X00001239Y00031562D01*
X00001221Y00031567D01*
X00001202Y00031573D01*
X00001184Y00031579D01*
X00001166Y00031586D01*
X00001148Y00031593D01*
X00001131Y00031601D01*
X00001113Y00031609D01*
X00001096Y00031617D01*
X00001079Y00031626D01*
X00001062Y00031635D01*
X00001046Y00031645D01*
X00001029Y00031655D01*
X00001013Y00031665D01*
X00000998Y00031676D01*
X00000982Y00031687D01*
X00000967Y00031699D01*
X00000952Y00031711D01*
X00000937Y00031723D01*
X00000923Y00031736D01*
X00000909Y00031749D01*
X00000895Y00031763D01*
X00000882Y00031776D01*
X00000869Y00031790D01*
X00000856Y00031805D01*
X00000843Y00031819D01*
X00000831Y00031834D01*
X00000820Y00031850D01*
X00000809Y00031865D01*
X00000798Y00031881D01*
X00000787Y00031897D01*
X00000777Y00031913D01*
X00000768Y00031930D01*
X00000758Y00031947D01*
X00000750Y00031964D01*
X00000741Y00031981D01*
X00000733Y00031998D01*
X00000726Y00032016D01*
X00000718Y00032034D01*
X00000712Y00032052D01*
X00000706Y00032070D01*
X00000700Y00032088D01*
X00000694Y00032107D01*
X00000690Y00032125D01*
X00000685Y00032144D01*
X00000681Y00032163D01*
X00000678Y00032181D01*
X00000675Y00032200D01*
X00000672Y00032219D01*
X00000670Y00032238D01*
X00000668Y00032257D01*
X00000667Y00032277D01*
X00000666Y00032296D01*
X00000666Y00032315D01*
X00000666Y00032334D01*
X00000667Y00032353D01*
X00000668Y00032372D01*
X00000670Y00032392D01*
X00000672Y00032411D01*
X00000675Y00032430D01*
X00000678Y00032449D01*
X00000681Y00032467D01*
X00000685Y00032486D01*
X00000690Y00032505D01*
X00000694Y00032523D01*
X00000700Y00032542D01*
X00000706Y00032560D01*
X00000712Y00032578D01*
X00000718Y00032596D01*
X00000726Y00032614D01*
X00000733Y00032632D01*
X00000741Y00032649D01*
X00000750Y00032666D01*
X00000758Y00032683D01*
X00000768Y00032700D01*
X00000777Y00032717D01*
X00000787Y00032733D01*
X00000798Y00032749D01*
X00000809Y00032765D01*
X00000820Y00032780D01*
X00000831Y00032796D01*
X00000843Y00032811D01*
X00000856Y00032825D01*
X00000869Y00032840D01*
X00000882Y00032854D01*
X00000895Y00032867D01*
X00000909Y00032881D01*
X00000923Y00032894D01*
X00000937Y00032906D01*
X00000952Y00032919D01*
X00000967Y00032931D01*
X00000982Y00032942D01*
X00000998Y00032954D01*
X00001013Y00032964D01*
X00001029Y00032975D01*
X00001046Y00032985D01*
X00001062Y00032995D01*
X00001079Y00033004D01*
X00001096Y00033013D01*
X00001113Y00033021D01*
X00001131Y00033029D01*
X00001148Y00033037D01*
X00001166Y00033044D01*
X00001184Y00033050D01*
X00001202Y00033057D01*
X00001221Y00033063D01*
X00001239Y00033068D01*
X00001258Y00033073D01*
X00001276Y00033077D01*
X00001295Y00033081D01*
X00001314Y00033085D01*
X00001333Y00033088D01*
X00001352Y00033090D01*
X00001371Y00033092D01*
X00001390Y00033094D01*
X00001409Y00033095D01*
X00001428Y00033096D01*
X00001447Y00033096D01*
X00001467Y00033096D01*
X00001486Y00033095D01*
X00001505Y00033094D01*
X00001524Y00033092D01*
X00001543Y00033090D01*
X00001562Y00033088D01*
X00001581Y00033085D01*
X00001600Y00033081D01*
X00001619Y00033077D01*
X00001637Y00033073D01*
X00001656Y00033068D01*
X00001674Y00033063D01*
X00001692Y00033057D01*
X00001711Y00033050D01*
X00001729Y00033044D01*
X00001746Y00033037D01*
X00001764Y00033029D01*
X00001781Y00033021D01*
X00001799Y00033013D01*
X00001816Y00033004D01*
X00001832Y00032995D01*
X00001849Y00032985D01*
X00001865Y00032975D01*
X00001881Y00032964D01*
X00001897Y00032954D01*
X00001913Y00032942D01*
X00001928Y00032931D01*
X00001943Y00032919D01*
X00001958Y00032906D01*
X00001972Y00032894D01*
X00001986Y00032881D01*
X00002000Y00032867D01*
X00002013Y00032854D01*
X00002026Y00032840D01*
X00002039Y00032825D01*
X00002051Y00032811D01*
X00002063Y00032796D01*
X00002075Y00032780D01*
X00002086Y00032765D01*
X00002097Y00032749D01*
X00002107Y00032733D01*
X00002117Y00032717D01*
X00002127Y00032700D01*
X00002136Y00032683D01*
X00002145Y00032666D01*
X00002154Y00032649D01*
X00002162Y00032632D01*
X00002169Y00032614D01*
X00002176Y00032596D01*
X00002183Y00032578D01*
X00002189Y00032560D01*
X00002195Y00032542D01*
X00002200Y00032523D01*
X00002205Y00032505D01*
X00002210Y00032486D01*
X00002214Y00032467D01*
X00002217Y00032449D01*
X00002220Y00032430D01*
X00002223Y00032411D01*
X00002225Y00032392D01*
X00002226Y00032372D01*
X00002228Y00032353D01*
X00002228Y00032334D01*
X00002229Y00032315D01*
X00030149Y00030321D02*
X00030149Y00030321D01*
X00030130Y00030321D01*
X00030111Y00030322D01*
X00030092Y00030323D01*
X00030073Y00030324D01*
X00030054Y00030326D01*
X00030035Y00030329D01*
X00030016Y00030332D01*
X00029997Y00030336D01*
X00029978Y00030340D01*
X00029960Y00030344D01*
X00029941Y00030349D01*
X00029923Y00030354D01*
X00029904Y00030360D01*
X00029886Y00030366D01*
X00029868Y00030373D01*
X00029850Y00030380D01*
X00029833Y00030388D01*
X00029815Y00030396D01*
X00029798Y00030404D01*
X00029781Y00030413D01*
X00029764Y00030422D01*
X00029748Y00030432D01*
X00029731Y00030442D01*
X00029715Y00030452D01*
X00029699Y00030463D01*
X00029684Y00030474D01*
X00029669Y00030486D01*
X00029654Y00030498D01*
X00029639Y00030510D01*
X00029625Y00030523D01*
X00029611Y00030536D01*
X00029597Y00030549D01*
X00029584Y00030563D01*
X00029570Y00030577D01*
X00029558Y00030592D01*
X00029545Y00030606D01*
X00029533Y00030621D01*
X00029522Y00030636D01*
X00029511Y00030652D01*
X00029500Y00030668D01*
X00029489Y00030684D01*
X00029479Y00030700D01*
X00029470Y00030717D01*
X00029460Y00030734D01*
X00029452Y00030751D01*
X00029443Y00030768D01*
X00029435Y00030785D01*
X00029428Y00030803D01*
X00029420Y00030821D01*
X00029414Y00030839D01*
X00029408Y00030857D01*
X00029402Y00030875D01*
X00029396Y00030893D01*
X00029392Y00030912D01*
X00029387Y00030931D01*
X00029383Y00030949D01*
X00029380Y00030968D01*
X00029377Y00030987D01*
X00029374Y00031006D01*
X00029372Y00031025D01*
X00029370Y00031044D01*
X00029369Y00031064D01*
X00029368Y00031083D01*
X00029368Y00031102D01*
X00029368Y00031121D01*
X00029369Y00031140D01*
X00029370Y00031159D01*
X00029372Y00031178D01*
X00029374Y00031197D01*
X00029377Y00031217D01*
X00029380Y00031235D01*
X00029383Y00031254D01*
X00029387Y00031273D01*
X00029392Y00031292D01*
X00029396Y00031310D01*
X00029402Y00031329D01*
X00029408Y00031347D01*
X00029414Y00031365D01*
X00029420Y00031383D01*
X00029428Y00031401D01*
X00029435Y00031418D01*
X00029443Y00031436D01*
X00029452Y00031453D01*
X00029460Y00031470D01*
X00029470Y00031487D01*
X00029479Y00031504D01*
X00029489Y00031520D01*
X00029500Y00031536D01*
X00029511Y00031552D01*
X00029522Y00031567D01*
X00029533Y00031583D01*
X00029545Y00031597D01*
X00029558Y00031612D01*
X00029570Y00031627D01*
X00029584Y00031641D01*
X00029597Y00031654D01*
X00029611Y00031668D01*
X00029625Y00031681D01*
X00029639Y00031693D01*
X00029654Y00031706D01*
X00029669Y00031718D01*
X00029684Y00031729D01*
X00029699Y00031741D01*
X00029715Y00031751D01*
X00029731Y00031762D01*
X00029748Y00031772D01*
X00029764Y00031782D01*
X00029781Y00031791D01*
X00029798Y00031800D01*
X00029815Y00031808D01*
X00029833Y00031816D01*
X00029850Y00031824D01*
X00029868Y00031831D01*
X00029886Y00031837D01*
X00029904Y00031844D01*
X00029923Y00031850D01*
X00029941Y00031855D01*
X00029960Y00031860D01*
X00029978Y00031864D01*
X00029997Y00031868D01*
X00030016Y00031872D01*
X00030035Y00031875D01*
X00030054Y00031877D01*
X00030073Y00031879D01*
X00030092Y00031881D01*
X00030111Y00031882D01*
X00030130Y00031883D01*
X00030149Y00031883D01*
X00030169Y00031883D01*
X00030188Y00031882D01*
X00030207Y00031881D01*
X00030226Y00031879D01*
X00030245Y00031877D01*
X00030264Y00031875D01*
X00030283Y00031872D01*
X00030302Y00031868D01*
X00030321Y00031864D01*
X00030339Y00031860D01*
X00030358Y00031855D01*
X00030376Y00031850D01*
X00030394Y00031844D01*
X00030413Y00031837D01*
X00030431Y00031831D01*
X00030448Y00031824D01*
X00030466Y00031816D01*
X00030483Y00031808D01*
X00030501Y00031800D01*
X00030518Y00031791D01*
X00030534Y00031782D01*
X00030551Y00031772D01*
X00030567Y00031762D01*
X00030583Y00031751D01*
X00030599Y00031741D01*
X00030615Y00031729D01*
X00030630Y00031718D01*
X00030645Y00031706D01*
X00030660Y00031693D01*
X00030674Y00031681D01*
X00030688Y00031668D01*
X00030702Y00031654D01*
X00030715Y00031641D01*
X00030728Y00031627D01*
X00030741Y00031612D01*
X00030753Y00031597D01*
X00030765Y00031583D01*
X00030777Y00031567D01*
X00030788Y00031552D01*
X00030799Y00031536D01*
X00030809Y00031520D01*
X00030819Y00031504D01*
X00030829Y00031487D01*
X00030838Y00031470D01*
X00030847Y00031453D01*
X00030856Y00031436D01*
X00030864Y00031418D01*
X00030871Y00031401D01*
X00030878Y00031383D01*
X00030885Y00031365D01*
X00030891Y00031347D01*
X00030897Y00031329D01*
X00030902Y00031310D01*
X00030907Y00031292D01*
X00030912Y00031273D01*
X00030916Y00031254D01*
X00030919Y00031235D01*
X00030922Y00031217D01*
X00030925Y00031197D01*
X00030927Y00031178D01*
X00030928Y00031159D01*
X00030930Y00031140D01*
X00030930Y00031121D01*
X00030931Y00031102D01*
X00030930Y00031083D01*
X00030930Y00031064D01*
X00030928Y00031044D01*
X00030927Y00031025D01*
X00030925Y00031006D01*
X00030922Y00030987D01*
X00030919Y00030968D01*
X00030916Y00030949D01*
X00030912Y00030931D01*
X00030907Y00030912D01*
X00030902Y00030893D01*
X00030897Y00030875D01*
X00030891Y00030857D01*
X00030885Y00030839D01*
X00030878Y00030821D01*
X00030871Y00030803D01*
X00030864Y00030785D01*
X00030856Y00030768D01*
X00030847Y00030751D01*
X00030838Y00030734D01*
X00030829Y00030717D01*
X00030819Y00030700D01*
X00030809Y00030684D01*
X00030799Y00030668D01*
X00030788Y00030652D01*
X00030777Y00030636D01*
X00030765Y00030621D01*
X00030753Y00030606D01*
X00030741Y00030592D01*
X00030728Y00030577D01*
X00030715Y00030563D01*
X00030702Y00030549D01*
X00030688Y00030536D01*
X00030674Y00030523D01*
X00030660Y00030510D01*
X00030645Y00030498D01*
X00030630Y00030486D01*
X00030615Y00030474D01*
X00030599Y00030463D01*
X00030583Y00030452D01*
X00030567Y00030442D01*
X00030551Y00030432D01*
X00030534Y00030422D01*
X00030518Y00030413D01*
X00030501Y00030404D01*
X00030483Y00030396D01*
X00030466Y00030388D01*
X00030448Y00030380D01*
X00030431Y00030373D01*
X00030413Y00030366D01*
X00030394Y00030360D01*
X00030376Y00030354D01*
X00030358Y00030349D01*
X00030339Y00030344D01*
X00030321Y00030340D01*
X00030302Y00030336D01*
X00030283Y00030332D01*
X00030264Y00030329D01*
X00030245Y00030326D01*
X00030226Y00030324D01*
X00030207Y00030323D01*
X00030188Y00030322D01*
X00030169Y00030321D01*
X00030149Y00030321D01*
X00017856Y00046145D02*
X00017856Y00046145D01*
X00017837Y00046145D01*
X00017817Y00046146D01*
X00017798Y00046147D01*
X00017779Y00046149D01*
X00017760Y00046151D01*
X00017741Y00046153D01*
X00017722Y00046156D01*
X00017703Y00046160D01*
X00017685Y00046164D01*
X00017666Y00046168D01*
X00017647Y00046173D01*
X00017629Y00046178D01*
X00017611Y00046184D01*
X00017593Y00046190D01*
X00017575Y00046197D01*
X00017557Y00046204D01*
X00017539Y00046212D01*
X00017522Y00046220D01*
X00017504Y00046228D01*
X00017487Y00046237D01*
X00017471Y00046246D01*
X00017454Y00046256D01*
X00017438Y00046266D01*
X00017422Y00046276D01*
X00017406Y00046287D01*
X00017390Y00046299D01*
X00017375Y00046310D01*
X00017360Y00046322D01*
X00017345Y00046335D01*
X00017331Y00046347D01*
X00017317Y00046360D01*
X00017303Y00046374D01*
X00017290Y00046387D01*
X00017277Y00046401D01*
X00017264Y00046416D01*
X00017252Y00046430D01*
X00017240Y00046445D01*
X00017228Y00046461D01*
X00017217Y00046476D01*
X00017206Y00046492D01*
X00017196Y00046508D01*
X00017186Y00046524D01*
X00017176Y00046541D01*
X00017167Y00046558D01*
X00017158Y00046575D01*
X00017149Y00046592D01*
X00017141Y00046609D01*
X00017134Y00046627D01*
X00017127Y00046645D01*
X00017120Y00046663D01*
X00017114Y00046681D01*
X00017108Y00046699D01*
X00017103Y00046718D01*
X00017098Y00046736D01*
X00017093Y00046755D01*
X00017089Y00046774D01*
X00017086Y00046792D01*
X00017083Y00046811D01*
X00017080Y00046830D01*
X00017078Y00046850D01*
X00017077Y00046869D01*
X00017075Y00046888D01*
X00017075Y00046907D01*
X00017074Y00046926D01*
X00017075Y00046945D01*
X00017075Y00046964D01*
X00017077Y00046984D01*
X00017078Y00047003D01*
X00017080Y00047022D01*
X00017083Y00047041D01*
X00017086Y00047060D01*
X00017089Y00047078D01*
X00017093Y00047097D01*
X00017098Y00047116D01*
X00017103Y00047134D01*
X00017108Y00047153D01*
X00017114Y00047171D01*
X00017120Y00047189D01*
X00017127Y00047207D01*
X00017134Y00047225D01*
X00017141Y00047243D01*
X00017149Y00047260D01*
X00017158Y00047277D01*
X00017167Y00047294D01*
X00017176Y00047311D01*
X00017186Y00047328D01*
X00017196Y00047344D01*
X00017206Y00047360D01*
X00017217Y00047376D01*
X00017228Y00047391D01*
X00017240Y00047407D01*
X00017252Y00047422D01*
X00017264Y00047436D01*
X00017277Y00047451D01*
X00017290Y00047465D01*
X00017303Y00047479D01*
X00017317Y00047492D01*
X00017331Y00047505D01*
X00017345Y00047518D01*
X00017360Y00047530D01*
X00017375Y00047542D01*
X00017390Y00047554D01*
X00017406Y00047565D01*
X00017422Y00047576D01*
X00017438Y00047586D01*
X00017454Y00047596D01*
X00017471Y00047606D01*
X00017487Y00047615D01*
X00017504Y00047624D01*
X00017522Y00047632D01*
X00017539Y00047640D01*
X00017557Y00047648D01*
X00017575Y00047655D01*
X00017593Y00047662D01*
X00017611Y00047668D01*
X00017629Y00047674D01*
X00017647Y00047679D01*
X00017666Y00047684D01*
X00017685Y00047688D01*
X00017703Y00047692D01*
X00017722Y00047696D01*
X00017741Y00047699D01*
X00017760Y00047701D01*
X00017779Y00047704D01*
X00017798Y00047705D01*
X00017817Y00047706D01*
X00017837Y00047707D01*
X00017856Y00047707D01*
X00017875Y00047707D01*
X00017894Y00047706D01*
X00017913Y00047705D01*
X00017932Y00047704D01*
X00017951Y00047701D01*
X00017970Y00047699D01*
X00017989Y00047696D01*
X00018008Y00047692D01*
X00018027Y00047688D01*
X00018046Y00047684D01*
X00018064Y00047679D01*
X00018082Y00047674D01*
X00018101Y00047668D01*
X00018119Y00047662D01*
X00018137Y00047655D01*
X00018155Y00047648D01*
X00018172Y00047640D01*
X00018190Y00047632D01*
X00018207Y00047624D01*
X00018224Y00047615D01*
X00018241Y00047606D01*
X00018257Y00047596D01*
X00018274Y00047586D01*
X00018290Y00047576D01*
X00018306Y00047565D01*
X00018321Y00047554D01*
X00018336Y00047542D01*
X00018351Y00047530D01*
X00018366Y00047518D01*
X00018380Y00047505D01*
X00018394Y00047492D01*
X00018408Y00047479D01*
X00018422Y00047465D01*
X00018435Y00047451D01*
X00018447Y00047436D01*
X00018460Y00047422D01*
X00018472Y00047407D01*
X00018483Y00047391D01*
X00018494Y00047376D01*
X00018505Y00047360D01*
X00018516Y00047344D01*
X00018526Y00047328D01*
X00018535Y00047311D01*
X00018545Y00047294D01*
X00018554Y00047277D01*
X00018562Y00047260D01*
X00018570Y00047243D01*
X00018577Y00047225D01*
X00018585Y00047207D01*
X00018591Y00047189D01*
X00018598Y00047171D01*
X00018603Y00047153D01*
X00018609Y00047134D01*
X00018614Y00047116D01*
X00018618Y00047097D01*
X00018622Y00047078D01*
X00018625Y00047060D01*
X00018629Y00047041D01*
X00018631Y00047022D01*
X00018633Y00047003D01*
X00018635Y00046984D01*
X00018636Y00046964D01*
X00018637Y00046945D01*
X00018637Y00046926D01*
X00018637Y00046907D01*
X00018636Y00046888D01*
X00018635Y00046869D01*
X00018633Y00046850D01*
X00018631Y00046830D01*
X00018629Y00046811D01*
X00018625Y00046792D01*
X00018622Y00046774D01*
X00018618Y00046755D01*
X00018614Y00046736D01*
X00018609Y00046718D01*
X00018603Y00046699D01*
X00018598Y00046681D01*
X00018591Y00046663D01*
X00018585Y00046645D01*
X00018577Y00046627D01*
X00018570Y00046609D01*
X00018562Y00046592D01*
X00018554Y00046575D01*
X00018545Y00046558D01*
X00018535Y00046541D01*
X00018526Y00046524D01*
X00018516Y00046508D01*
X00018505Y00046492D01*
X00018494Y00046476D01*
X00018483Y00046461D01*
X00018472Y00046445D01*
X00018460Y00046430D01*
X00018447Y00046416D01*
X00018435Y00046401D01*
X00018422Y00046387D01*
X00018408Y00046374D01*
X00018394Y00046360D01*
X00018380Y00046347D01*
X00018366Y00046335D01*
X00018351Y00046322D01*
X00018336Y00046310D01*
X00018321Y00046299D01*
X00018306Y00046287D01*
X00018290Y00046276D01*
X00018274Y00046266D01*
X00018257Y00046256D01*
X00018241Y00046246D01*
X00018224Y00046237D01*
X00018207Y00046228D01*
X00018190Y00046220D01*
X00018172Y00046212D01*
X00018155Y00046204D01*
X00018137Y00046197D01*
X00018119Y00046190D01*
X00018101Y00046184D01*
X00018082Y00046178D01*
X00018064Y00046173D01*
X00018046Y00046168D01*
X00018027Y00046164D01*
X00018008Y00046160D01*
X00017989Y00046156D01*
X00017970Y00046153D01*
X00017951Y00046151D01*
X00017932Y00046149D01*
X00017913Y00046147D01*
X00017894Y00046146D01*
X00017875Y00046145D01*
X00017856Y00046145D01*
X00061326Y00000754D02*
X00061326Y00000754D01*
X00061325Y00000739D01*
X00061324Y00000723D01*
X00061323Y00000707D01*
X00061322Y00000691D01*
X00061320Y00000675D01*
X00061317Y00000660D01*
X00061314Y00000644D01*
X00061311Y00000629D01*
X00061308Y00000613D01*
X00061304Y00000598D01*
X00061300Y00000583D01*
X00061295Y00000568D01*
X00061290Y00000553D01*
X00061284Y00000538D01*
X00061278Y00000523D01*
X00061272Y00000508D01*
X00061266Y00000494D01*
X00061259Y00000480D01*
X00061252Y00000466D01*
X00061244Y00000452D01*
X00061236Y00000438D01*
X00061228Y00000425D01*
X00061219Y00000411D01*
X00061210Y00000398D01*
X00061201Y00000386D01*
X00061191Y00000373D01*
X00061181Y00000361D01*
X00061171Y00000349D01*
X00061160Y00000337D01*
X00061149Y00000325D01*
X00061138Y00000314D01*
X00061127Y00000303D01*
X00061115Y00000292D01*
X00061103Y00000282D01*
X00061091Y00000272D01*
X00061079Y00000262D01*
X00061066Y00000253D01*
X00061053Y00000244D01*
X00061040Y00000235D01*
X00061027Y00000226D01*
X00061013Y00000218D01*
X00060999Y00000210D01*
X00060985Y00000203D01*
X00060971Y00000196D01*
X00060957Y00000189D01*
X00060942Y00000183D01*
X00060928Y00000177D01*
X00060913Y00000171D01*
X00060898Y00000166D01*
X00060883Y00000161D01*
X00060868Y00000156D01*
X00060852Y00000152D01*
X00060837Y00000148D01*
X00060822Y00000145D01*
X00060806Y00000142D01*
X00060790Y00000139D01*
X00060775Y00000137D01*
X00060759Y00000136D01*
X00060743Y00000134D01*
X00060727Y00000133D01*
X00060712Y00000133D01*
X00060696Y00000132D01*
X00060680Y00000133D01*
X00060664Y00000133D01*
X00060648Y00000134D01*
X00060633Y00000136D01*
X00060617Y00000137D01*
X00060601Y00000139D01*
X00060586Y00000142D01*
X00060570Y00000145D01*
X00060554Y00000148D01*
X00060539Y00000152D01*
X00060524Y00000156D01*
X00060509Y00000161D01*
X00060494Y00000166D01*
X00060479Y00000171D01*
X00060464Y00000177D01*
X00060449Y00000183D01*
X00060435Y00000189D01*
X00060420Y00000196D01*
X00060406Y00000203D01*
X00060392Y00000210D01*
X00060379Y00000218D01*
X00060365Y00000226D01*
X00060352Y00000235D01*
X00060338Y00000244D01*
X00060326Y00000253D01*
X00060313Y00000262D01*
X00060300Y00000272D01*
X00060288Y00000282D01*
X00060276Y00000292D01*
X00060265Y00000303D01*
X00060253Y00000314D01*
X00060242Y00000325D01*
X00060231Y00000337D01*
X00060221Y00000349D01*
X00060210Y00000361D01*
X00060200Y00000373D01*
X00060191Y00000386D01*
X00060182Y00000398D01*
X00060173Y00000411D01*
X00060164Y00000425D01*
X00060156Y00000438D01*
X00060148Y00000452D01*
X00060140Y00000466D01*
X00060133Y00000480D01*
X00060126Y00000494D01*
X00060119Y00000508D01*
X00060113Y00000523D01*
X00060107Y00000538D01*
X00060102Y00000553D01*
X00060097Y00000568D01*
X00060092Y00000583D01*
X00060088Y00000598D01*
X00060084Y00000613D01*
X00060080Y00000629D01*
X00060077Y00000644D01*
X00060074Y00000660D01*
X00060072Y00000675D01*
X00060070Y00000691D01*
X00060068Y00000707D01*
X00060067Y00000723D01*
X00060066Y00000739D01*
X00060066Y00000754D01*
X00060066Y00000770D01*
X00060066Y00000786D01*
X00060067Y00000802D01*
X00060068Y00000818D01*
X00060070Y00000833D01*
X00060072Y00000849D01*
X00060074Y00000865D01*
X00060077Y00000880D01*
X00060080Y00000896D01*
X00060084Y00000911D01*
X00060088Y00000927D01*
X00060092Y00000942D01*
X00060097Y00000957D01*
X00060102Y00000972D01*
X00060107Y00000987D01*
X00060113Y00001001D01*
X00060119Y00001016D01*
X00060126Y00001030D01*
X00060133Y00001045D01*
X00060140Y00001059D01*
X00060148Y00001073D01*
X00060156Y00001086D01*
X00060164Y00001100D01*
X00060173Y00001113D01*
X00060182Y00001126D01*
X00060191Y00001139D01*
X00060200Y00001151D01*
X00060210Y00001164D01*
X00060221Y00001176D01*
X00060231Y00001188D01*
X00060242Y00001199D01*
X00060253Y00001210D01*
X00060265Y00001221D01*
X00060276Y00001232D01*
X00060288Y00001243D01*
X00060300Y00001253D01*
X00060313Y00001262D01*
X00060326Y00001272D01*
X00060338Y00001281D01*
X00060352Y00001290D01*
X00060365Y00001298D01*
X00060379Y00001306D01*
X00060392Y00001314D01*
X00060406Y00001322D01*
X00060420Y00001329D01*
X00060435Y00001336D01*
X00060449Y00001342D01*
X00060464Y00001348D01*
X00060479Y00001354D01*
X00060494Y00001359D01*
X00060509Y00001364D01*
X00060524Y00001368D01*
X00060539Y00001372D01*
X00060554Y00001376D01*
X00060570Y00001379D01*
X00060586Y00001382D01*
X00060601Y00001385D01*
X00060617Y00001387D01*
X00060633Y00001389D01*
X00060648Y00001390D01*
X00060664Y00001391D01*
X00060680Y00001392D01*
X00060696Y00001392D01*
X00060712Y00001392D01*
X00060727Y00001391D01*
X00060743Y00001390D01*
X00060759Y00001389D01*
X00060775Y00001387D01*
X00060790Y00001385D01*
X00060806Y00001382D01*
X00060822Y00001379D01*
X00060837Y00001376D01*
X00060852Y00001372D01*
X00060868Y00001368D01*
X00060883Y00001364D01*
X00060898Y00001359D01*
X00060913Y00001354D01*
X00060928Y00001348D01*
X00060942Y00001342D01*
X00060957Y00001336D01*
X00060971Y00001329D01*
X00060985Y00001322D01*
X00060999Y00001314D01*
X00061013Y00001306D01*
X00061027Y00001298D01*
X00061040Y00001290D01*
X00061053Y00001281D01*
X00061066Y00001272D01*
X00061079Y00001262D01*
X00061091Y00001253D01*
X00061103Y00001243D01*
X00061115Y00001232D01*
X00061127Y00001221D01*
X00061138Y00001210D01*
X00061149Y00001199D01*
X00061160Y00001188D01*
X00061171Y00001176D01*
X00061181Y00001164D01*
X00061191Y00001151D01*
X00061201Y00001139D01*
X00061210Y00001126D01*
X00061219Y00001113D01*
X00061228Y00001100D01*
X00061236Y00001086D01*
X00061244Y00001073D01*
X00061252Y00001059D01*
X00061259Y00001045D01*
X00061266Y00001030D01*
X00061272Y00001016D01*
X00061278Y00001001D01*
X00061284Y00000987D01*
X00061290Y00000972D01*
X00061295Y00000957D01*
X00061300Y00000942D01*
X00061304Y00000927D01*
X00061308Y00000911D01*
X00061311Y00000896D01*
X00061314Y00000880D01*
X00061317Y00000865D01*
X00061320Y00000849D01*
X00061322Y00000833D01*
X00061323Y00000818D01*
X00061324Y00000802D01*
X00061325Y00000786D01*
X00061326Y00000770D01*
X00061326Y00000754D01*
X00056826Y00000754D02*
X00056826Y00000754D01*
X00056825Y00000739D01*
X00056824Y00000723D01*
X00056823Y00000707D01*
X00056822Y00000691D01*
X00056820Y00000675D01*
X00056817Y00000660D01*
X00056814Y00000644D01*
X00056811Y00000629D01*
X00056808Y00000613D01*
X00056804Y00000598D01*
X00056800Y00000583D01*
X00056795Y00000568D01*
X00056790Y00000553D01*
X00056784Y00000538D01*
X00056778Y00000523D01*
X00056772Y00000508D01*
X00056766Y00000494D01*
X00056759Y00000480D01*
X00056752Y00000466D01*
X00056744Y00000452D01*
X00056736Y00000438D01*
X00056728Y00000425D01*
X00056719Y00000411D01*
X00056710Y00000398D01*
X00056701Y00000386D01*
X00056691Y00000373D01*
X00056681Y00000361D01*
X00056671Y00000349D01*
X00056660Y00000337D01*
X00056649Y00000325D01*
X00056638Y00000314D01*
X00056627Y00000303D01*
X00056615Y00000292D01*
X00056603Y00000282D01*
X00056591Y00000272D01*
X00056579Y00000262D01*
X00056566Y00000253D01*
X00056553Y00000244D01*
X00056540Y00000235D01*
X00056527Y00000226D01*
X00056513Y00000218D01*
X00056499Y00000210D01*
X00056485Y00000203D01*
X00056471Y00000196D01*
X00056457Y00000189D01*
X00056442Y00000183D01*
X00056428Y00000177D01*
X00056413Y00000171D01*
X00056398Y00000166D01*
X00056383Y00000161D01*
X00056368Y00000156D01*
X00056352Y00000152D01*
X00056337Y00000148D01*
X00056322Y00000145D01*
X00056306Y00000142D01*
X00056290Y00000139D01*
X00056275Y00000137D01*
X00056259Y00000136D01*
X00056243Y00000134D01*
X00056227Y00000133D01*
X00056212Y00000133D01*
X00056196Y00000132D01*
X00056180Y00000133D01*
X00056164Y00000133D01*
X00056148Y00000134D01*
X00056133Y00000136D01*
X00056117Y00000137D01*
X00056101Y00000139D01*
X00056086Y00000142D01*
X00056070Y00000145D01*
X00056054Y00000148D01*
X00056039Y00000152D01*
X00056024Y00000156D01*
X00056009Y00000161D01*
X00055994Y00000166D01*
X00055979Y00000171D01*
X00055964Y00000177D01*
X00055949Y00000183D01*
X00055935Y00000189D01*
X00055920Y00000196D01*
X00055906Y00000203D01*
X00055892Y00000210D01*
X00055879Y00000218D01*
X00055865Y00000226D01*
X00055852Y00000235D01*
X00055838Y00000244D01*
X00055826Y00000253D01*
X00055813Y00000262D01*
X00055800Y00000272D01*
X00055788Y00000282D01*
X00055776Y00000292D01*
X00055765Y00000303D01*
X00055753Y00000314D01*
X00055742Y00000325D01*
X00055731Y00000337D01*
X00055721Y00000349D01*
X00055710Y00000361D01*
X00055700Y00000373D01*
X00055691Y00000386D01*
X00055682Y00000398D01*
X00055673Y00000411D01*
X00055664Y00000425D01*
X00055656Y00000438D01*
X00055648Y00000452D01*
X00055640Y00000466D01*
X00055633Y00000480D01*
X00055626Y00000494D01*
X00055619Y00000508D01*
X00055613Y00000523D01*
X00055607Y00000538D01*
X00055602Y00000553D01*
X00055597Y00000568D01*
X00055592Y00000583D01*
X00055588Y00000598D01*
X00055584Y00000613D01*
X00055580Y00000629D01*
X00055577Y00000644D01*
X00055574Y00000660D01*
X00055572Y00000675D01*
X00055570Y00000691D01*
X00055568Y00000707D01*
X00055567Y00000723D01*
X00055566Y00000739D01*
X00055566Y00000754D01*
X00055566Y00000770D01*
X00055566Y00000786D01*
X00055567Y00000802D01*
X00055568Y00000818D01*
X00055570Y00000833D01*
X00055572Y00000849D01*
X00055574Y00000865D01*
X00055577Y00000880D01*
X00055580Y00000896D01*
X00055584Y00000911D01*
X00055588Y00000927D01*
X00055592Y00000942D01*
X00055597Y00000957D01*
X00055602Y00000972D01*
X00055607Y00000987D01*
X00055613Y00001001D01*
X00055619Y00001016D01*
X00055626Y00001030D01*
X00055633Y00001045D01*
X00055640Y00001059D01*
X00055648Y00001073D01*
X00055656Y00001086D01*
X00055664Y00001100D01*
X00055673Y00001113D01*
X00055682Y00001126D01*
X00055691Y00001139D01*
X00055700Y00001151D01*
X00055710Y00001164D01*
X00055721Y00001176D01*
X00055731Y00001188D01*
X00055742Y00001199D01*
X00055753Y00001210D01*
X00055765Y00001221D01*
X00055776Y00001232D01*
X00055788Y00001243D01*
X00055800Y00001253D01*
X00055813Y00001262D01*
X00055826Y00001272D01*
X00055838Y00001281D01*
X00055852Y00001290D01*
X00055865Y00001298D01*
X00055879Y00001306D01*
X00055892Y00001314D01*
X00055906Y00001322D01*
X00055920Y00001329D01*
X00055935Y00001336D01*
X00055949Y00001342D01*
X00055964Y00001348D01*
X00055979Y00001354D01*
X00055994Y00001359D01*
X00056009Y00001364D01*
X00056024Y00001368D01*
X00056039Y00001372D01*
X00056054Y00001376D01*
X00056070Y00001379D01*
X00056086Y00001382D01*
X00056101Y00001385D01*
X00056117Y00001387D01*
X00056133Y00001389D01*
X00056148Y00001390D01*
X00056164Y00001391D01*
X00056180Y00001392D01*
X00056196Y00001392D01*
X00056212Y00001392D01*
X00056227Y00001391D01*
X00056243Y00001390D01*
X00056259Y00001389D01*
X00056275Y00001387D01*
X00056290Y00001385D01*
X00056306Y00001382D01*
X00056322Y00001379D01*
X00056337Y00001376D01*
X00056352Y00001372D01*
X00056368Y00001368D01*
X00056383Y00001364D01*
X00056398Y00001359D01*
X00056413Y00001354D01*
X00056428Y00001348D01*
X00056442Y00001342D01*
X00056457Y00001336D01*
X00056471Y00001329D01*
X00056485Y00001322D01*
X00056499Y00001314D01*
X00056513Y00001306D01*
X00056527Y00001298D01*
X00056540Y00001290D01*
X00056553Y00001281D01*
X00056566Y00001272D01*
X00056579Y00001262D01*
X00056591Y00001253D01*
X00056603Y00001243D01*
X00056615Y00001232D01*
X00056627Y00001221D01*
X00056638Y00001210D01*
X00056649Y00001199D01*
X00056660Y00001188D01*
X00056671Y00001176D01*
X00056681Y00001164D01*
X00056691Y00001151D01*
X00056701Y00001139D01*
X00056710Y00001126D01*
X00056719Y00001113D01*
X00056728Y00001100D01*
X00056736Y00001086D01*
X00056744Y00001073D01*
X00056752Y00001059D01*
X00056759Y00001045D01*
X00056766Y00001030D01*
X00056772Y00001016D01*
X00056778Y00001001D01*
X00056784Y00000987D01*
X00056790Y00000972D01*
X00056795Y00000957D01*
X00056800Y00000942D01*
X00056804Y00000927D01*
X00056808Y00000911D01*
X00056811Y00000896D01*
X00056814Y00000880D01*
X00056817Y00000865D01*
X00056820Y00000849D01*
X00056822Y00000833D01*
X00056823Y00000818D01*
X00056824Y00000802D01*
X00056825Y00000786D01*
X00056826Y00000770D01*
X00056826Y00000754D01*
X00054433Y00016122D02*
X00054433Y00016122D01*
X00054433Y00016110D01*
X00054432Y00016098D01*
X00054431Y00016086D01*
X00054430Y00016074D01*
X00054428Y00016063D01*
X00054426Y00016051D01*
X00054424Y00016039D01*
X00054421Y00016028D01*
X00054417Y00016017D01*
X00054414Y00016005D01*
X00054410Y00015994D01*
X00054405Y00015983D01*
X00054400Y00015972D01*
X00054395Y00015962D01*
X00054390Y00015951D01*
X00054384Y00015941D01*
X00054378Y00015931D01*
X00054371Y00015921D01*
X00054364Y00015911D01*
X00054357Y00015902D01*
X00054350Y00015893D01*
X00054342Y00015884D01*
X00054334Y00015875D01*
X00054325Y00015867D01*
X00054317Y00015859D01*
X00054308Y00015851D01*
X00054299Y00015843D01*
X00054289Y00015836D01*
X00054279Y00015829D01*
X00054270Y00015823D01*
X00054260Y00015817D01*
X00054249Y00015811D01*
X00054239Y00015805D01*
X00054228Y00015800D01*
X00054217Y00015795D01*
X00054206Y00015791D01*
X00054195Y00015787D01*
X00054184Y00015783D01*
X00054173Y00015780D01*
X00054161Y00015777D01*
X00054150Y00015774D01*
X00054138Y00015772D01*
X00054126Y00015770D01*
X00054114Y00015769D01*
X00054103Y00015768D01*
X00054091Y00015767D01*
X00054079Y00015767D01*
X00054067Y00015767D01*
X00054055Y00015768D01*
X00054043Y00015769D01*
X00054032Y00015770D01*
X00054020Y00015772D01*
X00054008Y00015774D01*
X00053997Y00015777D01*
X00053985Y00015780D01*
X00053974Y00015783D01*
X00053963Y00015787D01*
X00053952Y00015791D01*
X00053941Y00015795D01*
X00053930Y00015800D01*
X00053919Y00015805D01*
X00053909Y00015811D01*
X00053898Y00015817D01*
X00053888Y00015823D01*
X00053878Y00015829D01*
X00053869Y00015836D01*
X00053859Y00015843D01*
X00053850Y00015851D01*
X00053841Y00015859D01*
X00053833Y00015867D01*
X00053824Y00015875D01*
X00053816Y00015884D01*
X00053808Y00015893D01*
X00053801Y00015902D01*
X00053794Y00015911D01*
X00053787Y00015921D01*
X00053780Y00015931D01*
X00053774Y00015941D01*
X00053768Y00015951D01*
X00053763Y00015962D01*
X00053758Y00015972D01*
X00053753Y00015983D01*
X00053748Y00015994D01*
X00053744Y00016005D01*
X00053741Y00016017D01*
X00053737Y00016028D01*
X00053734Y00016039D01*
X00053732Y00016051D01*
X00053730Y00016063D01*
X00053728Y00016074D01*
X00053726Y00016086D01*
X00053725Y00016098D01*
X00053725Y00016110D01*
X00053725Y00016122D01*
X00053725Y00016133D01*
X00053725Y00016145D01*
X00053726Y00016157D01*
X00053728Y00016169D01*
X00053730Y00016180D01*
X00053732Y00016192D01*
X00053734Y00016204D01*
X00053737Y00016215D01*
X00053741Y00016227D01*
X00053744Y00016238D01*
X00053748Y00016249D01*
X00053753Y00016260D01*
X00053758Y00016271D01*
X00053763Y00016281D01*
X00053768Y00016292D01*
X00053774Y00016302D01*
X00053780Y00016312D01*
X00053787Y00016322D01*
X00053794Y00016332D01*
X00053801Y00016341D01*
X00053808Y00016350D01*
X00053816Y00016359D01*
X00053824Y00016368D01*
X00053833Y00016376D01*
X00053841Y00016384D01*
X00053850Y00016392D01*
X00053859Y00016400D01*
X00053869Y00016407D01*
X00053878Y00016414D01*
X00053888Y00016420D01*
X00053898Y00016426D01*
X00053909Y00016432D01*
X00053919Y00016438D01*
X00053930Y00016443D01*
X00053941Y00016448D01*
X00053952Y00016452D01*
X00053963Y00016456D01*
X00053974Y00016460D01*
X00053985Y00016463D01*
X00053997Y00016466D01*
X00054008Y00016469D01*
X00054020Y00016471D01*
X00054032Y00016473D01*
X00054043Y00016474D01*
X00054055Y00016475D01*
X00054067Y00016476D01*
X00054079Y00016476D01*
X00054091Y00016476D01*
X00054103Y00016475D01*
X00054114Y00016474D01*
X00054126Y00016473D01*
X00054138Y00016471D01*
X00054150Y00016469D01*
X00054161Y00016466D01*
X00054173Y00016463D01*
X00054184Y00016460D01*
X00054195Y00016456D01*
X00054206Y00016452D01*
X00054217Y00016448D01*
X00054228Y00016443D01*
X00054239Y00016438D01*
X00054249Y00016432D01*
X00054260Y00016426D01*
X00054270Y00016420D01*
X00054279Y00016414D01*
X00054289Y00016407D01*
X00054299Y00016400D01*
X00054308Y00016392D01*
X00054317Y00016384D01*
X00054325Y00016376D01*
X00054334Y00016368D01*
X00054342Y00016359D01*
X00054350Y00016350D01*
X00054357Y00016341D01*
X00054364Y00016332D01*
X00054371Y00016322D01*
X00054378Y00016312D01*
X00054384Y00016302D01*
X00054390Y00016292D01*
X00054395Y00016281D01*
X00054400Y00016271D01*
X00054405Y00016260D01*
X00054410Y00016249D01*
X00054414Y00016238D01*
X00054417Y00016227D01*
X00054421Y00016215D01*
X00054424Y00016204D01*
X00054426Y00016192D01*
X00054428Y00016180D01*
X00054430Y00016169D01*
X00054431Y00016157D01*
X00054432Y00016145D01*
X00054433Y00016133D01*
X00054433Y00016122D01*
X00054951Y00000754D02*
X00054951Y00000754D01*
X00054950Y00000739D01*
X00054949Y00000723D01*
X00054948Y00000707D01*
X00054947Y00000691D01*
X00054945Y00000675D01*
X00054942Y00000660D01*
X00054939Y00000644D01*
X00054936Y00000629D01*
X00054933Y00000613D01*
X00054929Y00000598D01*
X00054925Y00000583D01*
X00054920Y00000568D01*
X00054915Y00000553D01*
X00054909Y00000538D01*
X00054903Y00000523D01*
X00054897Y00000508D01*
X00054891Y00000494D01*
X00054884Y00000480D01*
X00054877Y00000466D01*
X00054869Y00000452D01*
X00054861Y00000438D01*
X00054853Y00000425D01*
X00054844Y00000411D01*
X00054835Y00000398D01*
X00054826Y00000386D01*
X00054816Y00000373D01*
X00054806Y00000361D01*
X00054796Y00000349D01*
X00054785Y00000337D01*
X00054774Y00000325D01*
X00054763Y00000314D01*
X00054752Y00000303D01*
X00054740Y00000292D01*
X00054728Y00000282D01*
X00054716Y00000272D01*
X00054704Y00000262D01*
X00054691Y00000253D01*
X00054678Y00000244D01*
X00054665Y00000235D01*
X00054652Y00000226D01*
X00054638Y00000218D01*
X00054624Y00000210D01*
X00054610Y00000203D01*
X00054596Y00000196D01*
X00054582Y00000189D01*
X00054567Y00000183D01*
X00054553Y00000177D01*
X00054538Y00000171D01*
X00054523Y00000166D01*
X00054508Y00000161D01*
X00054493Y00000156D01*
X00054477Y00000152D01*
X00054462Y00000148D01*
X00054447Y00000145D01*
X00054431Y00000142D01*
X00054415Y00000139D01*
X00054400Y00000137D01*
X00054384Y00000136D01*
X00054368Y00000134D01*
X00054352Y00000133D01*
X00054337Y00000133D01*
X00054321Y00000132D01*
X00054305Y00000133D01*
X00054289Y00000133D01*
X00054273Y00000134D01*
X00054258Y00000136D01*
X00054242Y00000137D01*
X00054226Y00000139D01*
X00054211Y00000142D01*
X00054195Y00000145D01*
X00054179Y00000148D01*
X00054164Y00000152D01*
X00054149Y00000156D01*
X00054134Y00000161D01*
X00054119Y00000166D01*
X00054104Y00000171D01*
X00054089Y00000177D01*
X00054074Y00000183D01*
X00054060Y00000189D01*
X00054045Y00000196D01*
X00054031Y00000203D01*
X00054017Y00000210D01*
X00054004Y00000218D01*
X00053990Y00000226D01*
X00053977Y00000235D01*
X00053963Y00000244D01*
X00053951Y00000253D01*
X00053938Y00000262D01*
X00053925Y00000272D01*
X00053913Y00000282D01*
X00053901Y00000292D01*
X00053890Y00000303D01*
X00053878Y00000314D01*
X00053867Y00000325D01*
X00053856Y00000337D01*
X00053846Y00000349D01*
X00053835Y00000361D01*
X00053825Y00000373D01*
X00053816Y00000386D01*
X00053807Y00000398D01*
X00053798Y00000411D01*
X00053789Y00000425D01*
X00053781Y00000438D01*
X00053773Y00000452D01*
X00053765Y00000466D01*
X00053758Y00000480D01*
X00053751Y00000494D01*
X00053744Y00000508D01*
X00053738Y00000523D01*
X00053732Y00000538D01*
X00053727Y00000553D01*
X00053722Y00000568D01*
X00053717Y00000583D01*
X00053713Y00000598D01*
X00053709Y00000613D01*
X00053705Y00000629D01*
X00053702Y00000644D01*
X00053699Y00000660D01*
X00053697Y00000675D01*
X00053695Y00000691D01*
X00053693Y00000707D01*
X00053692Y00000723D01*
X00053691Y00000739D01*
X00053691Y00000754D01*
X00053691Y00000770D01*
X00053691Y00000786D01*
X00053692Y00000802D01*
X00053693Y00000818D01*
X00053695Y00000833D01*
X00053697Y00000849D01*
X00053699Y00000865D01*
X00053702Y00000880D01*
X00053705Y00000896D01*
X00053709Y00000911D01*
X00053713Y00000927D01*
X00053717Y00000942D01*
X00053722Y00000957D01*
X00053727Y00000972D01*
X00053732Y00000987D01*
X00053738Y00001001D01*
X00053744Y00001016D01*
X00053751Y00001030D01*
X00053758Y00001045D01*
X00053765Y00001059D01*
X00053773Y00001073D01*
X00053781Y00001086D01*
X00053789Y00001100D01*
X00053798Y00001113D01*
X00053807Y00001126D01*
X00053816Y00001139D01*
X00053825Y00001151D01*
X00053835Y00001164D01*
X00053846Y00001176D01*
X00053856Y00001188D01*
X00053867Y00001199D01*
X00053878Y00001210D01*
X00053890Y00001221D01*
X00053901Y00001232D01*
X00053913Y00001243D01*
X00053925Y00001253D01*
X00053938Y00001262D01*
X00053951Y00001272D01*
X00053963Y00001281D01*
X00053977Y00001290D01*
X00053990Y00001298D01*
X00054004Y00001306D01*
X00054017Y00001314D01*
X00054031Y00001322D01*
X00054045Y00001329D01*
X00054060Y00001336D01*
X00054074Y00001342D01*
X00054089Y00001348D01*
X00054104Y00001354D01*
X00054119Y00001359D01*
X00054134Y00001364D01*
X00054149Y00001368D01*
X00054164Y00001372D01*
X00054179Y00001376D01*
X00054195Y00001379D01*
X00054211Y00001382D01*
X00054226Y00001385D01*
X00054242Y00001387D01*
X00054258Y00001389D01*
X00054273Y00001390D01*
X00054289Y00001391D01*
X00054305Y00001392D01*
X00054321Y00001392D01*
X00054337Y00001392D01*
X00054352Y00001391D01*
X00054368Y00001390D01*
X00054384Y00001389D01*
X00054400Y00001387D01*
X00054415Y00001385D01*
X00054431Y00001382D01*
X00054447Y00001379D01*
X00054462Y00001376D01*
X00054477Y00001372D01*
X00054493Y00001368D01*
X00054508Y00001364D01*
X00054523Y00001359D01*
X00054538Y00001354D01*
X00054553Y00001348D01*
X00054567Y00001342D01*
X00054582Y00001336D01*
X00054596Y00001329D01*
X00054610Y00001322D01*
X00054624Y00001314D01*
X00054638Y00001306D01*
X00054652Y00001298D01*
X00054665Y00001290D01*
X00054678Y00001281D01*
X00054691Y00001272D01*
X00054704Y00001262D01*
X00054716Y00001253D01*
X00054728Y00001243D01*
X00054740Y00001232D01*
X00054752Y00001221D01*
X00054763Y00001210D01*
X00054774Y00001199D01*
X00054785Y00001188D01*
X00054796Y00001176D01*
X00054806Y00001164D01*
X00054816Y00001151D01*
X00054826Y00001139D01*
X00054835Y00001126D01*
X00054844Y00001113D01*
X00054853Y00001100D01*
X00054861Y00001086D01*
X00054869Y00001073D01*
X00054877Y00001059D01*
X00054884Y00001045D01*
X00054891Y00001030D01*
X00054897Y00001016D01*
X00054903Y00001001D01*
X00054909Y00000987D01*
X00054915Y00000972D01*
X00054920Y00000957D01*
X00054925Y00000942D01*
X00054929Y00000927D01*
X00054933Y00000911D01*
X00054936Y00000896D01*
X00054939Y00000880D01*
X00054942Y00000865D01*
X00054945Y00000849D01*
X00054947Y00000833D01*
X00054948Y00000818D01*
X00054949Y00000802D01*
X00054950Y00000786D01*
X00054951Y00000770D01*
X00054951Y00000754D01*
X00052340Y00032547D02*
X00052340Y00032547D01*
X00052340Y00032527D01*
X00052339Y00032508D01*
X00052338Y00032489D01*
X00052336Y00032470D01*
X00052334Y00032451D01*
X00052332Y00032432D01*
X00052329Y00032413D01*
X00052325Y00032394D01*
X00052321Y00032375D01*
X00052317Y00032357D01*
X00052312Y00032338D01*
X00052307Y00032320D01*
X00052301Y00032302D01*
X00052294Y00032283D01*
X00052288Y00032265D01*
X00052281Y00032248D01*
X00052273Y00032230D01*
X00052265Y00032213D01*
X00052257Y00032195D01*
X00052248Y00032178D01*
X00052239Y00032161D01*
X00052229Y00032145D01*
X00052219Y00032129D01*
X00052208Y00032113D01*
X00052198Y00032097D01*
X00052186Y00032081D01*
X00052175Y00032066D01*
X00052163Y00032051D01*
X00052150Y00032036D01*
X00052138Y00032022D01*
X00052125Y00032008D01*
X00052111Y00031994D01*
X00052098Y00031981D01*
X00052084Y00031968D01*
X00052069Y00031955D01*
X00052055Y00031943D01*
X00052040Y00031931D01*
X00052024Y00031919D01*
X00052009Y00031908D01*
X00051993Y00031897D01*
X00051977Y00031887D01*
X00051961Y00031876D01*
X00051944Y00031867D01*
X00051927Y00031858D01*
X00051910Y00031849D01*
X00051893Y00031840D01*
X00051876Y00031832D01*
X00051858Y00031825D01*
X00051840Y00031818D01*
X00051822Y00031811D01*
X00051804Y00031805D01*
X00051786Y00031799D01*
X00051767Y00031794D01*
X00051749Y00031789D01*
X00051730Y00031784D01*
X00051711Y00031780D01*
X00051693Y00031777D01*
X00051674Y00031774D01*
X00051655Y00031771D01*
X00051636Y00031769D01*
X00051616Y00031767D01*
X00051597Y00031766D01*
X00051578Y00031766D01*
X00051559Y00031765D01*
X00051540Y00031766D01*
X00051521Y00031766D01*
X00051501Y00031767D01*
X00051482Y00031769D01*
X00051463Y00031771D01*
X00051444Y00031774D01*
X00051425Y00031777D01*
X00051407Y00031780D01*
X00051388Y00031784D01*
X00051369Y00031789D01*
X00051351Y00031794D01*
X00051332Y00031799D01*
X00051314Y00031805D01*
X00051296Y00031811D01*
X00051278Y00031818D01*
X00051260Y00031825D01*
X00051242Y00031832D01*
X00051225Y00031840D01*
X00051208Y00031849D01*
X00051191Y00031858D01*
X00051174Y00031867D01*
X00051157Y00031876D01*
X00051141Y00031887D01*
X00051125Y00031897D01*
X00051109Y00031908D01*
X00051094Y00031919D01*
X00051078Y00031931D01*
X00051063Y00031943D01*
X00051049Y00031955D01*
X00051034Y00031968D01*
X00051020Y00031981D01*
X00051007Y00031994D01*
X00050993Y00032008D01*
X00050980Y00032022D01*
X00050967Y00032036D01*
X00050955Y00032051D01*
X00050943Y00032066D01*
X00050931Y00032081D01*
X00050920Y00032097D01*
X00050909Y00032113D01*
X00050899Y00032129D01*
X00050889Y00032145D01*
X00050879Y00032161D01*
X00050870Y00032178D01*
X00050861Y00032195D01*
X00050853Y00032213D01*
X00050845Y00032230D01*
X00050837Y00032248D01*
X00050830Y00032265D01*
X00050823Y00032283D01*
X00050817Y00032302D01*
X00050811Y00032320D01*
X00050806Y00032338D01*
X00050801Y00032357D01*
X00050797Y00032375D01*
X00050793Y00032394D01*
X00050789Y00032413D01*
X00050786Y00032432D01*
X00050784Y00032451D01*
X00050782Y00032470D01*
X00050780Y00032489D01*
X00050779Y00032508D01*
X00050778Y00032527D01*
X00050778Y00032547D01*
X00050778Y00032566D01*
X00050779Y00032585D01*
X00050780Y00032604D01*
X00050782Y00032623D01*
X00050784Y00032642D01*
X00050786Y00032661D01*
X00050789Y00032680D01*
X00050793Y00032699D01*
X00050797Y00032718D01*
X00050801Y00032736D01*
X00050806Y00032755D01*
X00050811Y00032773D01*
X00050817Y00032792D01*
X00050823Y00032810D01*
X00050830Y00032828D01*
X00050837Y00032846D01*
X00050845Y00032863D01*
X00050853Y00032881D01*
X00050861Y00032898D01*
X00050870Y00032915D01*
X00050879Y00032932D01*
X00050889Y00032948D01*
X00050899Y00032964D01*
X00050909Y00032981D01*
X00050920Y00032996D01*
X00050931Y00033012D01*
X00050943Y00033027D01*
X00050955Y00033042D01*
X00050967Y00033057D01*
X00050980Y00033071D01*
X00050993Y00033085D01*
X00051007Y00033099D01*
X00051020Y00033112D01*
X00051034Y00033125D01*
X00051049Y00033138D01*
X00051063Y00033150D01*
X00051078Y00033162D01*
X00051094Y00033174D01*
X00051109Y00033185D01*
X00051125Y00033196D01*
X00051141Y00033207D01*
X00051157Y00033217D01*
X00051174Y00033226D01*
X00051191Y00033236D01*
X00051208Y00033244D01*
X00051225Y00033253D01*
X00051242Y00033261D01*
X00051260Y00033268D01*
X00051278Y00033275D01*
X00051296Y00033282D01*
X00051314Y00033288D01*
X00051332Y00033294D01*
X00051351Y00033299D01*
X00051369Y00033304D01*
X00051388Y00033309D01*
X00051407Y00033313D01*
X00051425Y00033316D01*
X00051444Y00033319D01*
X00051463Y00033322D01*
X00051482Y00033324D01*
X00051501Y00033326D01*
X00051521Y00033327D01*
X00051540Y00033328D01*
X00051559Y00033328D01*
X00051578Y00033328D01*
X00051597Y00033327D01*
X00051616Y00033326D01*
X00051636Y00033324D01*
X00051655Y00033322D01*
X00051674Y00033319D01*
X00051693Y00033316D01*
X00051711Y00033313D01*
X00051730Y00033309D01*
X00051749Y00033304D01*
X00051767Y00033299D01*
X00051786Y00033294D01*
X00051804Y00033288D01*
X00051822Y00033282D01*
X00051840Y00033275D01*
X00051858Y00033268D01*
X00051876Y00033261D01*
X00051893Y00033253D01*
X00051910Y00033244D01*
X00051927Y00033236D01*
X00051944Y00033226D01*
X00051961Y00033217D01*
X00051977Y00033207D01*
X00051993Y00033196D01*
X00052009Y00033185D01*
X00052024Y00033174D01*
X00052040Y00033162D01*
X00052055Y00033150D01*
X00052069Y00033138D01*
X00052084Y00033125D01*
X00052098Y00033112D01*
X00052111Y00033099D01*
X00052125Y00033085D01*
X00052138Y00033071D01*
X00052150Y00033057D01*
X00052163Y00033042D01*
X00052175Y00033027D01*
X00052186Y00033012D01*
X00052198Y00032996D01*
X00052208Y00032981D01*
X00052219Y00032964D01*
X00052229Y00032948D01*
X00052239Y00032932D01*
X00052248Y00032915D01*
X00052257Y00032898D01*
X00052265Y00032881D01*
X00052273Y00032863D01*
X00052281Y00032846D01*
X00052288Y00032828D01*
X00052294Y00032810D01*
X00052301Y00032792D01*
X00052307Y00032773D01*
X00052312Y00032755D01*
X00052317Y00032736D01*
X00052321Y00032718D01*
X00052325Y00032699D01*
X00052329Y00032680D01*
X00052332Y00032661D01*
X00052334Y00032642D01*
X00052336Y00032623D01*
X00052338Y00032604D01*
X00052339Y00032585D01*
X00052340Y00032566D01*
X00052340Y00032547D01*
X00050894Y00016122D02*
X00050894Y00016122D01*
X00050894Y00016110D01*
X00050893Y00016098D01*
X00050892Y00016086D01*
X00050891Y00016074D01*
X00050889Y00016063D01*
X00050887Y00016051D01*
X00050884Y00016039D01*
X00050881Y00016028D01*
X00050878Y00016016D01*
X00050874Y00016005D01*
X00050870Y00015994D01*
X00050866Y00015983D01*
X00050861Y00015972D01*
X00050856Y00015961D01*
X00050850Y00015951D01*
X00050844Y00015941D01*
X00050838Y00015931D01*
X00050832Y00015921D01*
X00050825Y00015911D01*
X00050818Y00015902D01*
X00050810Y00015892D01*
X00050802Y00015883D01*
X00050794Y00015875D01*
X00050786Y00015866D01*
X00050777Y00015858D01*
X00050768Y00015850D01*
X00050759Y00015843D01*
X00050750Y00015836D01*
X00050740Y00015829D01*
X00050730Y00015822D01*
X00050720Y00015816D01*
X00050710Y00015810D01*
X00050699Y00015805D01*
X00050688Y00015800D01*
X00050678Y00015795D01*
X00050667Y00015790D01*
X00050655Y00015786D01*
X00050644Y00015782D01*
X00050633Y00015779D01*
X00050621Y00015776D01*
X00050610Y00015774D01*
X00050598Y00015771D01*
X00050586Y00015770D01*
X00050574Y00015768D01*
X00050563Y00015767D01*
X00050551Y00015767D01*
X00050539Y00015767D01*
X00050527Y00015767D01*
X00050515Y00015767D01*
X00050503Y00015768D01*
X00050492Y00015770D01*
X00050480Y00015771D01*
X00050468Y00015774D01*
X00050457Y00015776D01*
X00050445Y00015779D01*
X00050434Y00015782D01*
X00050423Y00015786D01*
X00050411Y00015790D01*
X00050400Y00015795D01*
X00050390Y00015800D01*
X00050379Y00015805D01*
X00050368Y00015810D01*
X00050358Y00015816D01*
X00050348Y00015822D01*
X00050338Y00015829D01*
X00050328Y00015836D01*
X00050319Y00015843D01*
X00050310Y00015850D01*
X00050301Y00015858D01*
X00050292Y00015866D01*
X00050284Y00015875D01*
X00050276Y00015883D01*
X00050268Y00015892D01*
X00050260Y00015902D01*
X00050253Y00015911D01*
X00050246Y00015921D01*
X00050240Y00015931D01*
X00050234Y00015941D01*
X00050228Y00015951D01*
X00050222Y00015961D01*
X00050217Y00015972D01*
X00050212Y00015983D01*
X00050208Y00015994D01*
X00050204Y00016005D01*
X00050200Y00016016D01*
X00050197Y00016028D01*
X00050194Y00016039D01*
X00050191Y00016051D01*
X00050189Y00016063D01*
X00050187Y00016074D01*
X00050186Y00016086D01*
X00050185Y00016098D01*
X00050184Y00016110D01*
X00050184Y00016122D01*
X00050184Y00016133D01*
X00050185Y00016145D01*
X00050186Y00016157D01*
X00050187Y00016169D01*
X00050189Y00016181D01*
X00050191Y00016192D01*
X00050194Y00016204D01*
X00050197Y00016215D01*
X00050200Y00016227D01*
X00050204Y00016238D01*
X00050208Y00016249D01*
X00050212Y00016260D01*
X00050217Y00016271D01*
X00050222Y00016282D01*
X00050228Y00016292D01*
X00050234Y00016302D01*
X00050240Y00016313D01*
X00050246Y00016322D01*
X00050253Y00016332D01*
X00050260Y00016342D01*
X00050268Y00016351D01*
X00050276Y00016360D01*
X00050284Y00016368D01*
X00050292Y00016377D01*
X00050301Y00016385D01*
X00050310Y00016393D01*
X00050319Y00016400D01*
X00050328Y00016407D01*
X00050338Y00016414D01*
X00050348Y00016421D01*
X00050358Y00016427D01*
X00050368Y00016433D01*
X00050379Y00016438D01*
X00050390Y00016444D01*
X00050400Y00016448D01*
X00050411Y00016453D01*
X00050423Y00016457D01*
X00050434Y00016461D01*
X00050445Y00016464D01*
X00050457Y00016467D01*
X00050468Y00016469D01*
X00050480Y00016472D01*
X00050492Y00016473D01*
X00050503Y00016475D01*
X00050515Y00016476D01*
X00050527Y00016476D01*
X00050539Y00016477D01*
X00050551Y00016476D01*
X00050563Y00016476D01*
X00050574Y00016475D01*
X00050586Y00016473D01*
X00050598Y00016472D01*
X00050610Y00016469D01*
X00050621Y00016467D01*
X00050633Y00016464D01*
X00050644Y00016461D01*
X00050655Y00016457D01*
X00050667Y00016453D01*
X00050678Y00016448D01*
X00050688Y00016444D01*
X00050699Y00016438D01*
X00050710Y00016433D01*
X00050720Y00016427D01*
X00050730Y00016421D01*
X00050740Y00016414D01*
X00050750Y00016407D01*
X00050759Y00016400D01*
X00050768Y00016393D01*
X00050777Y00016385D01*
X00050786Y00016377D01*
X00050794Y00016368D01*
X00050802Y00016360D01*
X00050810Y00016351D01*
X00050818Y00016342D01*
X00050825Y00016332D01*
X00050832Y00016322D01*
X00050838Y00016313D01*
X00050844Y00016302D01*
X00050850Y00016292D01*
X00050856Y00016282D01*
X00050861Y00016271D01*
X00050866Y00016260D01*
X00050870Y00016249D01*
X00050874Y00016238D01*
X00050878Y00016227D01*
X00050881Y00016215D01*
X00050884Y00016204D01*
X00050887Y00016192D01*
X00050889Y00016181D01*
X00050891Y00016169D01*
X00050892Y00016157D01*
X00050893Y00016145D01*
X00050894Y00016133D01*
X00050894Y00016122D01*
X00050451Y00000754D02*
X00050451Y00000754D01*
X00050450Y00000739D01*
X00050449Y00000723D01*
X00050448Y00000707D01*
X00050447Y00000691D01*
X00050445Y00000675D01*
X00050442Y00000660D01*
X00050439Y00000644D01*
X00050436Y00000629D01*
X00050433Y00000613D01*
X00050429Y00000598D01*
X00050425Y00000583D01*
X00050420Y00000568D01*
X00050415Y00000553D01*
X00050409Y00000538D01*
X00050403Y00000523D01*
X00050397Y00000508D01*
X00050391Y00000494D01*
X00050384Y00000480D01*
X00050377Y00000466D01*
X00050369Y00000452D01*
X00050361Y00000438D01*
X00050353Y00000425D01*
X00050344Y00000411D01*
X00050335Y00000398D01*
X00050326Y00000386D01*
X00050316Y00000373D01*
X00050306Y00000361D01*
X00050296Y00000349D01*
X00050285Y00000337D01*
X00050274Y00000325D01*
X00050263Y00000314D01*
X00050252Y00000303D01*
X00050240Y00000292D01*
X00050228Y00000282D01*
X00050216Y00000272D01*
X00050204Y00000262D01*
X00050191Y00000253D01*
X00050178Y00000244D01*
X00050165Y00000235D01*
X00050152Y00000226D01*
X00050138Y00000218D01*
X00050124Y00000210D01*
X00050110Y00000203D01*
X00050096Y00000196D01*
X00050082Y00000189D01*
X00050067Y00000183D01*
X00050053Y00000177D01*
X00050038Y00000171D01*
X00050023Y00000166D01*
X00050008Y00000161D01*
X00049993Y00000156D01*
X00049977Y00000152D01*
X00049962Y00000148D01*
X00049947Y00000145D01*
X00049931Y00000142D01*
X00049915Y00000139D01*
X00049900Y00000137D01*
X00049884Y00000136D01*
X00049868Y00000134D01*
X00049852Y00000133D01*
X00049837Y00000133D01*
X00049821Y00000132D01*
X00049805Y00000133D01*
X00049789Y00000133D01*
X00049773Y00000134D01*
X00049758Y00000136D01*
X00049742Y00000137D01*
X00049726Y00000139D01*
X00049711Y00000142D01*
X00049695Y00000145D01*
X00049679Y00000148D01*
X00049664Y00000152D01*
X00049649Y00000156D01*
X00049634Y00000161D01*
X00049619Y00000166D01*
X00049604Y00000171D01*
X00049589Y00000177D01*
X00049574Y00000183D01*
X00049560Y00000189D01*
X00049545Y00000196D01*
X00049531Y00000203D01*
X00049517Y00000210D01*
X00049504Y00000218D01*
X00049490Y00000226D01*
X00049477Y00000235D01*
X00049463Y00000244D01*
X00049451Y00000253D01*
X00049438Y00000262D01*
X00049425Y00000272D01*
X00049413Y00000282D01*
X00049401Y00000292D01*
X00049390Y00000303D01*
X00049378Y00000314D01*
X00049367Y00000325D01*
X00049356Y00000337D01*
X00049346Y00000349D01*
X00049335Y00000361D01*
X00049325Y00000373D01*
X00049316Y00000386D01*
X00049307Y00000398D01*
X00049298Y00000411D01*
X00049289Y00000425D01*
X00049281Y00000438D01*
X00049273Y00000452D01*
X00049265Y00000466D01*
X00049258Y00000480D01*
X00049251Y00000494D01*
X00049244Y00000508D01*
X00049238Y00000523D01*
X00049232Y00000538D01*
X00049227Y00000553D01*
X00049222Y00000568D01*
X00049217Y00000583D01*
X00049213Y00000598D01*
X00049209Y00000613D01*
X00049205Y00000629D01*
X00049202Y00000644D01*
X00049199Y00000660D01*
X00049197Y00000675D01*
X00049195Y00000691D01*
X00049193Y00000707D01*
X00049192Y00000723D01*
X00049191Y00000739D01*
X00049191Y00000754D01*
X00049191Y00000770D01*
X00049191Y00000786D01*
X00049192Y00000802D01*
X00049193Y00000818D01*
X00049195Y00000833D01*
X00049197Y00000849D01*
X00049199Y00000865D01*
X00049202Y00000880D01*
X00049205Y00000896D01*
X00049209Y00000911D01*
X00049213Y00000927D01*
X00049217Y00000942D01*
X00049222Y00000957D01*
X00049227Y00000972D01*
X00049232Y00000987D01*
X00049238Y00001001D01*
X00049244Y00001016D01*
X00049251Y00001030D01*
X00049258Y00001045D01*
X00049265Y00001059D01*
X00049273Y00001073D01*
X00049281Y00001086D01*
X00049289Y00001100D01*
X00049298Y00001113D01*
X00049307Y00001126D01*
X00049316Y00001139D01*
X00049325Y00001151D01*
X00049335Y00001164D01*
X00049346Y00001176D01*
X00049356Y00001188D01*
X00049367Y00001199D01*
X00049378Y00001210D01*
X00049390Y00001221D01*
X00049401Y00001232D01*
X00049413Y00001243D01*
X00049425Y00001253D01*
X00049438Y00001262D01*
X00049451Y00001272D01*
X00049463Y00001281D01*
X00049477Y00001290D01*
X00049490Y00001298D01*
X00049504Y00001306D01*
X00049517Y00001314D01*
X00049531Y00001322D01*
X00049545Y00001329D01*
X00049560Y00001336D01*
X00049574Y00001342D01*
X00049589Y00001348D01*
X00049604Y00001354D01*
X00049619Y00001359D01*
X00049634Y00001364D01*
X00049649Y00001368D01*
X00049664Y00001372D01*
X00049679Y00001376D01*
X00049695Y00001379D01*
X00049711Y00001382D01*
X00049726Y00001385D01*
X00049742Y00001387D01*
X00049758Y00001389D01*
X00049773Y00001390D01*
X00049789Y00001391D01*
X00049805Y00001392D01*
X00049821Y00001392D01*
X00049837Y00001392D01*
X00049852Y00001391D01*
X00049868Y00001390D01*
X00049884Y00001389D01*
X00049900Y00001387D01*
X00049915Y00001385D01*
X00049931Y00001382D01*
X00049947Y00001379D01*
X00049962Y00001376D01*
X00049977Y00001372D01*
X00049993Y00001368D01*
X00050008Y00001364D01*
X00050023Y00001359D01*
X00050038Y00001354D01*
X00050053Y00001348D01*
X00050067Y00001342D01*
X00050082Y00001336D01*
X00050096Y00001329D01*
X00050110Y00001322D01*
X00050124Y00001314D01*
X00050138Y00001306D01*
X00050152Y00001298D01*
X00050165Y00001290D01*
X00050178Y00001281D01*
X00050191Y00001272D01*
X00050204Y00001262D01*
X00050216Y00001253D01*
X00050228Y00001243D01*
X00050240Y00001232D01*
X00050252Y00001221D01*
X00050263Y00001210D01*
X00050274Y00001199D01*
X00050285Y00001188D01*
X00050296Y00001176D01*
X00050306Y00001164D01*
X00050316Y00001151D01*
X00050326Y00001139D01*
X00050335Y00001126D01*
X00050344Y00001113D01*
X00050353Y00001100D01*
X00050361Y00001086D01*
X00050369Y00001073D01*
X00050377Y00001059D01*
X00050384Y00001045D01*
X00050391Y00001030D01*
X00050397Y00001016D01*
X00050403Y00001001D01*
X00050409Y00000987D01*
X00050415Y00000972D01*
X00050420Y00000957D01*
X00050425Y00000942D01*
X00050429Y00000927D01*
X00050433Y00000911D01*
X00050436Y00000896D01*
X00050439Y00000880D01*
X00050442Y00000865D01*
X00050445Y00000849D01*
X00050447Y00000833D01*
X00050448Y00000818D01*
X00050449Y00000802D01*
X00050450Y00000786D01*
X00050451Y00000770D01*
X00050451Y00000754D01*
X00044812Y00005898D02*
X00044812Y00005898D01*
X00044793Y00005899D01*
X00044773Y00005899D01*
X00044754Y00005900D01*
X00044735Y00005902D01*
X00044716Y00005904D01*
X00044697Y00005907D01*
X00044677Y00005910D01*
X00044658Y00005913D01*
X00044640Y00005917D01*
X00044621Y00005922D01*
X00044602Y00005927D01*
X00044583Y00005932D01*
X00044565Y00005938D01*
X00044547Y00005944D01*
X00044529Y00005951D01*
X00044511Y00005958D01*
X00044493Y00005966D01*
X00044475Y00005974D01*
X00044458Y00005982D01*
X00044441Y00005991D01*
X00044424Y00006001D01*
X00044407Y00006010D01*
X00044391Y00006021D01*
X00044375Y00006031D01*
X00044359Y00006042D01*
X00044343Y00006053D01*
X00044328Y00006065D01*
X00044313Y00006077D01*
X00044298Y00006090D01*
X00044283Y00006102D01*
X00044269Y00006115D01*
X00044255Y00006129D01*
X00044242Y00006143D01*
X00044229Y00006157D01*
X00044216Y00006171D01*
X00044203Y00006186D01*
X00044191Y00006201D01*
X00044180Y00006217D01*
X00044168Y00006232D01*
X00044157Y00006248D01*
X00044147Y00006264D01*
X00044137Y00006281D01*
X00044127Y00006298D01*
X00044118Y00006315D01*
X00044109Y00006332D01*
X00044100Y00006349D01*
X00044092Y00006367D01*
X00044085Y00006384D01*
X00044077Y00006402D01*
X00044071Y00006420D01*
X00044064Y00006439D01*
X00044059Y00006457D01*
X00044053Y00006476D01*
X00044048Y00006494D01*
X00044044Y00006513D01*
X00044040Y00006532D01*
X00044036Y00006551D01*
X00044033Y00006570D01*
X00044031Y00006589D01*
X00044028Y00006609D01*
X00044027Y00006628D01*
X00044026Y00006647D01*
X00044025Y00006666D01*
X00044025Y00006686D01*
X00044025Y00006705D01*
X00044026Y00006724D01*
X00044027Y00006744D01*
X00044028Y00006763D01*
X00044031Y00006782D01*
X00044033Y00006801D01*
X00044036Y00006820D01*
X00044040Y00006839D01*
X00044044Y00006858D01*
X00044048Y00006877D01*
X00044053Y00006896D01*
X00044059Y00006914D01*
X00044064Y00006933D01*
X00044071Y00006951D01*
X00044077Y00006969D01*
X00044085Y00006987D01*
X00044092Y00007005D01*
X00044100Y00007022D01*
X00044109Y00007040D01*
X00044118Y00007057D01*
X00044127Y00007074D01*
X00044137Y00007091D01*
X00044147Y00007107D01*
X00044157Y00007123D01*
X00044168Y00007139D01*
X00044180Y00007155D01*
X00044191Y00007170D01*
X00044203Y00007185D01*
X00044216Y00007200D01*
X00044229Y00007215D01*
X00044242Y00007229D01*
X00044255Y00007243D01*
X00044269Y00007256D01*
X00044283Y00007269D01*
X00044298Y00007282D01*
X00044313Y00007294D01*
X00044328Y00007306D01*
X00044343Y00007318D01*
X00044359Y00007330D01*
X00044375Y00007340D01*
X00044391Y00007351D01*
X00044407Y00007361D01*
X00044424Y00007371D01*
X00044441Y00007380D01*
X00044458Y00007389D01*
X00044475Y00007398D01*
X00044493Y00007406D01*
X00044511Y00007413D01*
X00044529Y00007420D01*
X00044547Y00007427D01*
X00044565Y00007433D01*
X00044583Y00007439D01*
X00044602Y00007445D01*
X00044621Y00007450D01*
X00044640Y00007454D01*
X00044658Y00007458D01*
X00044677Y00007462D01*
X00044697Y00007465D01*
X00044716Y00007467D01*
X00044735Y00007469D01*
X00044754Y00007471D01*
X00044773Y00007472D01*
X00044793Y00007473D01*
X00044812Y00007473D01*
X00044831Y00007473D01*
X00044851Y00007472D01*
X00044870Y00007471D01*
X00044889Y00007469D01*
X00044908Y00007467D01*
X00044928Y00007465D01*
X00044947Y00007462D01*
X00044966Y00007458D01*
X00044985Y00007454D01*
X00045003Y00007450D01*
X00045022Y00007445D01*
X00045041Y00007439D01*
X00045059Y00007433D01*
X00045077Y00007427D01*
X00045095Y00007420D01*
X00045113Y00007413D01*
X00045131Y00007406D01*
X00045149Y00007398D01*
X00045166Y00007389D01*
X00045183Y00007380D01*
X00045200Y00007371D01*
X00045217Y00007361D01*
X00045233Y00007351D01*
X00045250Y00007340D01*
X00045265Y00007330D01*
X00045281Y00007318D01*
X00045296Y00007306D01*
X00045312Y00007294D01*
X00045326Y00007282D01*
X00045341Y00007269D01*
X00045355Y00007256D01*
X00045369Y00007243D01*
X00045382Y00007229D01*
X00045395Y00007215D01*
X00045408Y00007200D01*
X00045421Y00007185D01*
X00045433Y00007170D01*
X00045444Y00007155D01*
X00045456Y00007139D01*
X00045467Y00007123D01*
X00045477Y00007107D01*
X00045487Y00007091D01*
X00045497Y00007074D01*
X00045506Y00007057D01*
X00045515Y00007040D01*
X00045524Y00007022D01*
X00045532Y00007005D01*
X00045540Y00006987D01*
X00045547Y00006969D01*
X00045553Y00006951D01*
X00045560Y00006933D01*
X00045566Y00006914D01*
X00045571Y00006896D01*
X00045576Y00006877D01*
X00045580Y00006858D01*
X00045584Y00006839D01*
X00045588Y00006820D01*
X00045591Y00006801D01*
X00045594Y00006782D01*
X00045596Y00006763D01*
X00045597Y00006744D01*
X00045599Y00006724D01*
X00045599Y00006705D01*
X00045599Y00006686D01*
X00045599Y00006666D01*
X00045599Y00006647D01*
X00045597Y00006628D01*
X00045596Y00006609D01*
X00045594Y00006589D01*
X00045591Y00006570D01*
X00045588Y00006551D01*
X00045584Y00006532D01*
X00045580Y00006513D01*
X00045576Y00006494D01*
X00045571Y00006476D01*
X00045566Y00006457D01*
X00045560Y00006439D01*
X00045553Y00006420D01*
X00045547Y00006402D01*
X00045540Y00006384D01*
X00045532Y00006367D01*
X00045524Y00006349D01*
X00045515Y00006332D01*
X00045506Y00006315D01*
X00045497Y00006298D01*
X00045487Y00006281D01*
X00045477Y00006264D01*
X00045467Y00006248D01*
X00045456Y00006232D01*
X00045444Y00006217D01*
X00045433Y00006201D01*
X00045421Y00006186D01*
X00045408Y00006171D01*
X00045395Y00006157D01*
X00045382Y00006143D01*
X00045369Y00006129D01*
X00045355Y00006115D01*
X00045341Y00006102D01*
X00045326Y00006090D01*
X00045312Y00006077D01*
X00045296Y00006065D01*
X00045281Y00006053D01*
X00045265Y00006042D01*
X00045250Y00006031D01*
X00045233Y00006021D01*
X00045217Y00006010D01*
X00045200Y00006001D01*
X00045183Y00005991D01*
X00045166Y00005982D01*
X00045149Y00005974D01*
X00045131Y00005966D01*
X00045113Y00005958D01*
X00045095Y00005951D01*
X00045077Y00005944D01*
X00045059Y00005938D01*
X00045041Y00005932D01*
X00045022Y00005927D01*
X00045003Y00005922D01*
X00044985Y00005917D01*
X00044966Y00005913D01*
X00044947Y00005910D01*
X00044928Y00005907D01*
X00044908Y00005904D01*
X00044889Y00005902D01*
X00044870Y00005900D01*
X00044851Y00005899D01*
X00044831Y00005899D01*
X00044812Y00005898D01*
X00002686Y00005898D02*
X00002686Y00005898D01*
X00002667Y00005899D01*
X00002647Y00005899D01*
X00002628Y00005900D01*
X00002609Y00005902D01*
X00002590Y00005904D01*
X00002571Y00005907D01*
X00002551Y00005910D01*
X00002532Y00005913D01*
X00002514Y00005917D01*
X00002495Y00005922D01*
X00002476Y00005927D01*
X00002457Y00005932D01*
X00002439Y00005938D01*
X00002421Y00005944D01*
X00002403Y00005951D01*
X00002385Y00005958D01*
X00002367Y00005966D01*
X00002349Y00005974D01*
X00002332Y00005982D01*
X00002315Y00005991D01*
X00002298Y00006001D01*
X00002281Y00006010D01*
X00002265Y00006021D01*
X00002249Y00006031D01*
X00002233Y00006042D01*
X00002217Y00006053D01*
X00002202Y00006065D01*
X00002187Y00006077D01*
X00002172Y00006090D01*
X00002157Y00006102D01*
X00002143Y00006115D01*
X00002129Y00006129D01*
X00002116Y00006143D01*
X00002103Y00006157D01*
X00002090Y00006171D01*
X00002077Y00006186D01*
X00002065Y00006201D01*
X00002054Y00006217D01*
X00002042Y00006232D01*
X00002031Y00006248D01*
X00002021Y00006264D01*
X00002011Y00006281D01*
X00002001Y00006298D01*
X00001992Y00006315D01*
X00001983Y00006332D01*
X00001974Y00006349D01*
X00001966Y00006367D01*
X00001959Y00006384D01*
X00001951Y00006402D01*
X00001945Y00006420D01*
X00001938Y00006439D01*
X00001933Y00006457D01*
X00001927Y00006476D01*
X00001922Y00006494D01*
X00001918Y00006513D01*
X00001914Y00006532D01*
X00001910Y00006551D01*
X00001907Y00006570D01*
X00001905Y00006589D01*
X00001902Y00006609D01*
X00001901Y00006628D01*
X00001900Y00006647D01*
X00001899Y00006666D01*
X00001899Y00006686D01*
X00001899Y00006705D01*
X00001900Y00006724D01*
X00001901Y00006744D01*
X00001902Y00006763D01*
X00001905Y00006782D01*
X00001907Y00006801D01*
X00001910Y00006820D01*
X00001914Y00006839D01*
X00001918Y00006858D01*
X00001922Y00006877D01*
X00001927Y00006896D01*
X00001933Y00006914D01*
X00001938Y00006933D01*
X00001945Y00006951D01*
X00001951Y00006969D01*
X00001959Y00006987D01*
X00001966Y00007005D01*
X00001974Y00007022D01*
X00001983Y00007040D01*
X00001992Y00007057D01*
X00002001Y00007074D01*
X00002011Y00007091D01*
X00002021Y00007107D01*
X00002031Y00007123D01*
X00002042Y00007139D01*
X00002054Y00007155D01*
X00002065Y00007170D01*
X00002077Y00007185D01*
X00002090Y00007200D01*
X00002103Y00007215D01*
X00002116Y00007229D01*
X00002129Y00007243D01*
X00002143Y00007256D01*
X00002157Y00007269D01*
X00002172Y00007282D01*
X00002187Y00007294D01*
X00002202Y00007306D01*
X00002217Y00007318D01*
X00002233Y00007330D01*
X00002249Y00007340D01*
X00002265Y00007351D01*
X00002281Y00007361D01*
X00002298Y00007371D01*
X00002315Y00007380D01*
X00002332Y00007389D01*
X00002349Y00007398D01*
X00002367Y00007406D01*
X00002385Y00007413D01*
X00002403Y00007420D01*
X00002421Y00007427D01*
X00002439Y00007433D01*
X00002457Y00007439D01*
X00002476Y00007445D01*
X00002495Y00007450D01*
X00002514Y00007454D01*
X00002532Y00007458D01*
X00002551Y00007462D01*
X00002571Y00007465D01*
X00002590Y00007467D01*
X00002609Y00007469D01*
X00002628Y00007471D01*
X00002647Y00007472D01*
X00002667Y00007473D01*
X00002686Y00007473D01*
X00002705Y00007473D01*
X00002725Y00007472D01*
X00002744Y00007471D01*
X00002763Y00007469D01*
X00002782Y00007467D01*
X00002802Y00007465D01*
X00002821Y00007462D01*
X00002840Y00007458D01*
X00002859Y00007454D01*
X00002877Y00007450D01*
X00002896Y00007445D01*
X00002915Y00007439D01*
X00002933Y00007433D01*
X00002951Y00007427D01*
X00002969Y00007420D01*
X00002987Y00007413D01*
X00003005Y00007406D01*
X00003023Y00007398D01*
X00003040Y00007389D01*
X00003057Y00007380D01*
X00003074Y00007371D01*
X00003091Y00007361D01*
X00003107Y00007351D01*
X00003124Y00007340D01*
X00003139Y00007330D01*
X00003155Y00007318D01*
X00003170Y00007306D01*
X00003186Y00007294D01*
X00003200Y00007282D01*
X00003215Y00007269D01*
X00003229Y00007256D01*
X00003243Y00007243D01*
X00003256Y00007229D01*
X00003269Y00007215D01*
X00003282Y00007200D01*
X00003295Y00007185D01*
X00003307Y00007170D01*
X00003318Y00007155D01*
X00003330Y00007139D01*
X00003341Y00007123D01*
X00003351Y00007107D01*
X00003361Y00007091D01*
X00003371Y00007074D01*
X00003380Y00007057D01*
X00003389Y00007040D01*
X00003398Y00007022D01*
X00003406Y00007005D01*
X00003414Y00006987D01*
X00003421Y00006969D01*
X00003427Y00006951D01*
X00003434Y00006933D01*
X00003440Y00006914D01*
X00003445Y00006896D01*
X00003450Y00006877D01*
X00003454Y00006858D01*
X00003458Y00006839D01*
X00003462Y00006820D01*
X00003465Y00006801D01*
X00003468Y00006782D01*
X00003470Y00006763D01*
X00003471Y00006744D01*
X00003473Y00006724D01*
X00003473Y00006705D01*
X00003473Y00006686D01*
X00003473Y00006666D01*
X00003473Y00006647D01*
X00003471Y00006628D01*
X00003470Y00006609D01*
X00003468Y00006589D01*
X00003465Y00006570D01*
X00003462Y00006551D01*
X00003458Y00006532D01*
X00003454Y00006513D01*
X00003450Y00006494D01*
X00003445Y00006476D01*
X00003440Y00006457D01*
X00003434Y00006439D01*
X00003427Y00006420D01*
X00003421Y00006402D01*
X00003414Y00006384D01*
X00003406Y00006367D01*
X00003398Y00006349D01*
X00003389Y00006332D01*
X00003380Y00006315D01*
X00003371Y00006298D01*
X00003361Y00006281D01*
X00003351Y00006264D01*
X00003341Y00006248D01*
X00003330Y00006232D01*
X00003318Y00006217D01*
X00003307Y00006201D01*
X00003295Y00006186D01*
X00003282Y00006171D01*
X00003269Y00006157D01*
X00003256Y00006143D01*
X00003243Y00006129D01*
X00003229Y00006115D01*
X00003215Y00006102D01*
X00003200Y00006090D01*
X00003186Y00006077D01*
X00003170Y00006065D01*
X00003155Y00006053D01*
X00003139Y00006042D01*
X00003124Y00006031D01*
X00003107Y00006021D01*
X00003091Y00006010D01*
X00003074Y00006001D01*
X00003057Y00005991D01*
X00003040Y00005982D01*
X00003023Y00005974D01*
X00003005Y00005966D01*
X00002987Y00005958D01*
X00002969Y00005951D01*
X00002951Y00005944D01*
X00002933Y00005938D01*
X00002915Y00005932D01*
X00002896Y00005927D01*
X00002877Y00005922D01*
X00002859Y00005917D01*
X00002840Y00005913D01*
X00002821Y00005910D01*
X00002802Y00005907D01*
X00002782Y00005904D01*
X00002763Y00005902D01*
X00002744Y00005900D01*
X00002725Y00005899D01*
X00002705Y00005899D01*
X00002686Y00005898D01*
X00001542Y00011414D02*
X00001542Y00011414D01*
X00001526Y00011414D01*
X00001510Y00011415D01*
X00001494Y00011416D01*
X00001479Y00011418D01*
X00001463Y00011420D01*
X00001447Y00011422D01*
X00001432Y00011425D01*
X00001416Y00011428D01*
X00001401Y00011432D01*
X00001385Y00011436D01*
X00001370Y00011440D01*
X00001355Y00011445D01*
X00001340Y00011450D01*
X00001325Y00011455D01*
X00001310Y00011461D01*
X00001296Y00011467D01*
X00001281Y00011474D01*
X00001267Y00011481D01*
X00001253Y00011488D01*
X00001239Y00011496D01*
X00001226Y00011504D01*
X00001212Y00011512D01*
X00001199Y00011521D01*
X00001186Y00011530D01*
X00001173Y00011539D01*
X00001160Y00011549D01*
X00001148Y00011559D01*
X00001136Y00011569D01*
X00001124Y00011579D01*
X00001113Y00011590D01*
X00001101Y00011601D01*
X00001090Y00011613D01*
X00001080Y00011624D01*
X00001069Y00011636D01*
X00001059Y00011649D01*
X00001050Y00011661D01*
X00001040Y00011674D01*
X00001031Y00011687D01*
X00001022Y00011700D01*
X00001014Y00011713D01*
X00001005Y00011727D01*
X00000998Y00011740D01*
X00000990Y00011754D01*
X00000983Y00011769D01*
X00000976Y00011783D01*
X00000970Y00011797D01*
X00000964Y00011812D01*
X00000958Y00011827D01*
X00000953Y00011842D01*
X00000948Y00011857D01*
X00000944Y00011872D01*
X00000940Y00011887D01*
X00000936Y00011903D01*
X00000932Y00011918D01*
X00000929Y00011934D01*
X00000927Y00011949D01*
X00000925Y00011965D01*
X00000923Y00011981D01*
X00000922Y00011997D01*
X00000921Y00012012D01*
X00000920Y00012028D01*
X00000920Y00012044D01*
X00000920Y00012060D01*
X00000921Y00012076D01*
X00000922Y00012091D01*
X00000923Y00012107D01*
X00000925Y00012123D01*
X00000927Y00012139D01*
X00000929Y00012154D01*
X00000932Y00012170D01*
X00000936Y00012185D01*
X00000940Y00012201D01*
X00000944Y00012216D01*
X00000948Y00012231D01*
X00000953Y00012246D01*
X00000958Y00012261D01*
X00000964Y00012276D01*
X00000970Y00012290D01*
X00000976Y00012305D01*
X00000983Y00012319D01*
X00000990Y00012333D01*
X00000998Y00012347D01*
X00001005Y00012361D01*
X00001014Y00012375D01*
X00001022Y00012388D01*
X00001031Y00012401D01*
X00001040Y00012414D01*
X00001050Y00012427D01*
X00001059Y00012439D01*
X00001069Y00012452D01*
X00001080Y00012463D01*
X00001090Y00012475D01*
X00001101Y00012487D01*
X00001113Y00012498D01*
X00001124Y00012509D01*
X00001136Y00012519D01*
X00001148Y00012529D01*
X00001160Y00012539D01*
X00001173Y00012549D01*
X00001186Y00012558D01*
X00001199Y00012567D01*
X00001212Y00012576D01*
X00001226Y00012584D01*
X00001239Y00012592D01*
X00001253Y00012600D01*
X00001267Y00012607D01*
X00001281Y00012614D01*
X00001296Y00012620D01*
X00001310Y00012627D01*
X00001325Y00012632D01*
X00001340Y00012638D01*
X00001355Y00012643D01*
X00001370Y00012648D01*
X00001385Y00012652D01*
X00001401Y00012656D01*
X00001416Y00012660D01*
X00001432Y00012663D01*
X00001447Y00012665D01*
X00001463Y00012668D01*
X00001479Y00012670D01*
X00001494Y00012671D01*
X00001510Y00012673D01*
X00001526Y00012673D01*
X00001542Y00012674D01*
X00001558Y00012674D01*
X00001573Y00012673D01*
X00001589Y00012673D01*
X00001605Y00012671D01*
X00001621Y00012670D01*
X00001636Y00012668D01*
X00001652Y00012665D01*
X00001668Y00012663D01*
X00001683Y00012660D01*
X00001699Y00012656D01*
X00001714Y00012652D01*
X00001729Y00012648D01*
X00001744Y00012643D01*
X00001759Y00012638D01*
X00001774Y00012632D01*
X00001789Y00012627D01*
X00001803Y00012620D01*
X00001818Y00012614D01*
X00001832Y00012607D01*
X00001846Y00012600D01*
X00001860Y00012592D01*
X00001874Y00012584D01*
X00001887Y00012576D01*
X00001900Y00012567D01*
X00001913Y00012558D01*
X00001926Y00012549D01*
X00001939Y00012539D01*
X00001951Y00012529D01*
X00001963Y00012519D01*
X00001975Y00012509D01*
X00001987Y00012498D01*
X00001998Y00012487D01*
X00002009Y00012475D01*
X00002020Y00012463D01*
X00002030Y00012452D01*
X00002040Y00012439D01*
X00002050Y00012427D01*
X00002059Y00012414D01*
X00002068Y00012401D01*
X00002077Y00012388D01*
X00002086Y00012375D01*
X00002094Y00012361D01*
X00002102Y00012347D01*
X00002109Y00012333D01*
X00002116Y00012319D01*
X00002123Y00012305D01*
X00002129Y00012290D01*
X00002135Y00012276D01*
X00002141Y00012261D01*
X00002146Y00012246D01*
X00002151Y00012231D01*
X00002156Y00012216D01*
X00002160Y00012201D01*
X00002164Y00012185D01*
X00002167Y00012170D01*
X00002170Y00012154D01*
X00002172Y00012139D01*
X00002175Y00012123D01*
X00002176Y00012107D01*
X00002178Y00012091D01*
X00002179Y00012076D01*
X00002179Y00012060D01*
X00002180Y00012044D01*
X00002179Y00012028D01*
X00002179Y00012012D01*
X00002178Y00011997D01*
X00002176Y00011981D01*
X00002175Y00011965D01*
X00002172Y00011949D01*
X00002170Y00011934D01*
X00002167Y00011918D01*
X00002164Y00011903D01*
X00002160Y00011887D01*
X00002156Y00011872D01*
X00002151Y00011857D01*
X00002146Y00011842D01*
X00002141Y00011827D01*
X00002135Y00011812D01*
X00002129Y00011797D01*
X00002123Y00011783D01*
X00002116Y00011769D01*
X00002109Y00011754D01*
X00002102Y00011740D01*
X00002094Y00011727D01*
X00002086Y00011713D01*
X00002077Y00011700D01*
X00002068Y00011687D01*
X00002059Y00011674D01*
X00002050Y00011661D01*
X00002040Y00011649D01*
X00002030Y00011636D01*
X00002020Y00011624D01*
X00002009Y00011613D01*
X00001998Y00011601D01*
X00001987Y00011590D01*
X00001975Y00011579D01*
X00001963Y00011569D01*
X00001951Y00011559D01*
X00001939Y00011549D01*
X00001926Y00011539D01*
X00001913Y00011530D01*
X00001900Y00011521D01*
X00001887Y00011512D01*
X00001874Y00011504D01*
X00001860Y00011496D01*
X00001846Y00011488D01*
X00001832Y00011481D01*
X00001818Y00011474D01*
X00001803Y00011467D01*
X00001789Y00011461D01*
X00001774Y00011455D01*
X00001759Y00011450D01*
X00001744Y00011445D01*
X00001729Y00011440D01*
X00001714Y00011436D01*
X00001699Y00011432D01*
X00001683Y00011428D01*
X00001668Y00011425D01*
X00001652Y00011422D01*
X00001636Y00011420D01*
X00001621Y00011418D01*
X00001605Y00011416D01*
X00001589Y00011415D01*
X00001573Y00011414D01*
X00001558Y00011414D01*
X00001542Y00011414D01*
X00001542Y00015914D02*
X00001542Y00015914D01*
X00001526Y00015914D01*
X00001510Y00015915D01*
X00001494Y00015916D01*
X00001479Y00015918D01*
X00001463Y00015920D01*
X00001447Y00015922D01*
X00001432Y00015925D01*
X00001416Y00015928D01*
X00001401Y00015932D01*
X00001385Y00015936D01*
X00001370Y00015940D01*
X00001355Y00015945D01*
X00001340Y00015950D01*
X00001325Y00015955D01*
X00001310Y00015961D01*
X00001296Y00015967D01*
X00001281Y00015974D01*
X00001267Y00015981D01*
X00001253Y00015988D01*
X00001239Y00015996D01*
X00001226Y00016004D01*
X00001212Y00016012D01*
X00001199Y00016021D01*
X00001186Y00016030D01*
X00001173Y00016039D01*
X00001160Y00016049D01*
X00001148Y00016059D01*
X00001136Y00016069D01*
X00001124Y00016079D01*
X00001113Y00016090D01*
X00001101Y00016101D01*
X00001090Y00016113D01*
X00001080Y00016124D01*
X00001069Y00016136D01*
X00001059Y00016149D01*
X00001050Y00016161D01*
X00001040Y00016174D01*
X00001031Y00016187D01*
X00001022Y00016200D01*
X00001014Y00016213D01*
X00001005Y00016227D01*
X00000998Y00016240D01*
X00000990Y00016254D01*
X00000983Y00016269D01*
X00000976Y00016283D01*
X00000970Y00016297D01*
X00000964Y00016312D01*
X00000958Y00016327D01*
X00000953Y00016342D01*
X00000948Y00016357D01*
X00000944Y00016372D01*
X00000940Y00016387D01*
X00000936Y00016403D01*
X00000932Y00016418D01*
X00000929Y00016434D01*
X00000927Y00016449D01*
X00000925Y00016465D01*
X00000923Y00016481D01*
X00000922Y00016497D01*
X00000921Y00016512D01*
X00000920Y00016528D01*
X00000920Y00016544D01*
X00000920Y00016560D01*
X00000921Y00016576D01*
X00000922Y00016591D01*
X00000923Y00016607D01*
X00000925Y00016623D01*
X00000927Y00016639D01*
X00000929Y00016654D01*
X00000932Y00016670D01*
X00000936Y00016685D01*
X00000940Y00016701D01*
X00000944Y00016716D01*
X00000948Y00016731D01*
X00000953Y00016746D01*
X00000958Y00016761D01*
X00000964Y00016776D01*
X00000970Y00016790D01*
X00000976Y00016805D01*
X00000983Y00016819D01*
X00000990Y00016833D01*
X00000998Y00016847D01*
X00001005Y00016861D01*
X00001014Y00016875D01*
X00001022Y00016888D01*
X00001031Y00016901D01*
X00001040Y00016914D01*
X00001050Y00016927D01*
X00001059Y00016939D01*
X00001069Y00016952D01*
X00001080Y00016963D01*
X00001090Y00016975D01*
X00001101Y00016987D01*
X00001113Y00016998D01*
X00001124Y00017009D01*
X00001136Y00017019D01*
X00001148Y00017029D01*
X00001160Y00017039D01*
X00001173Y00017049D01*
X00001186Y00017058D01*
X00001199Y00017067D01*
X00001212Y00017076D01*
X00001226Y00017084D01*
X00001239Y00017092D01*
X00001253Y00017100D01*
X00001267Y00017107D01*
X00001281Y00017114D01*
X00001296Y00017120D01*
X00001310Y00017127D01*
X00001325Y00017132D01*
X00001340Y00017138D01*
X00001355Y00017143D01*
X00001370Y00017148D01*
X00001385Y00017152D01*
X00001401Y00017156D01*
X00001416Y00017160D01*
X00001432Y00017163D01*
X00001447Y00017165D01*
X00001463Y00017168D01*
X00001479Y00017170D01*
X00001494Y00017171D01*
X00001510Y00017173D01*
X00001526Y00017173D01*
X00001542Y00017174D01*
X00001558Y00017174D01*
X00001573Y00017173D01*
X00001589Y00017173D01*
X00001605Y00017171D01*
X00001621Y00017170D01*
X00001636Y00017168D01*
X00001652Y00017165D01*
X00001668Y00017163D01*
X00001683Y00017160D01*
X00001699Y00017156D01*
X00001714Y00017152D01*
X00001729Y00017148D01*
X00001744Y00017143D01*
X00001759Y00017138D01*
X00001774Y00017132D01*
X00001789Y00017127D01*
X00001803Y00017120D01*
X00001818Y00017114D01*
X00001832Y00017107D01*
X00001846Y00017100D01*
X00001860Y00017092D01*
X00001874Y00017084D01*
X00001887Y00017076D01*
X00001900Y00017067D01*
X00001913Y00017058D01*
X00001926Y00017049D01*
X00001939Y00017039D01*
X00001951Y00017029D01*
X00001963Y00017019D01*
X00001975Y00017009D01*
X00001987Y00016998D01*
X00001998Y00016987D01*
X00002009Y00016975D01*
X00002020Y00016963D01*
X00002030Y00016952D01*
X00002040Y00016939D01*
X00002050Y00016927D01*
X00002059Y00016914D01*
X00002068Y00016901D01*
X00002077Y00016888D01*
X00002086Y00016875D01*
X00002094Y00016861D01*
X00002102Y00016847D01*
X00002109Y00016833D01*
X00002116Y00016819D01*
X00002123Y00016805D01*
X00002129Y00016790D01*
X00002135Y00016776D01*
X00002141Y00016761D01*
X00002146Y00016746D01*
X00002151Y00016731D01*
X00002156Y00016716D01*
X00002160Y00016701D01*
X00002164Y00016685D01*
X00002167Y00016670D01*
X00002170Y00016654D01*
X00002172Y00016639D01*
X00002175Y00016623D01*
X00002176Y00016607D01*
X00002178Y00016591D01*
X00002179Y00016576D01*
X00002179Y00016560D01*
X00002180Y00016544D01*
X00002179Y00016528D01*
X00002179Y00016512D01*
X00002178Y00016497D01*
X00002176Y00016481D01*
X00002175Y00016465D01*
X00002172Y00016449D01*
X00002170Y00016434D01*
X00002167Y00016418D01*
X00002164Y00016403D01*
X00002160Y00016387D01*
X00002156Y00016372D01*
X00002151Y00016357D01*
X00002146Y00016342D01*
X00002141Y00016327D01*
X00002135Y00016312D01*
X00002129Y00016297D01*
X00002123Y00016283D01*
X00002116Y00016269D01*
X00002109Y00016254D01*
X00002102Y00016240D01*
X00002094Y00016227D01*
X00002086Y00016213D01*
X00002077Y00016200D01*
X00002068Y00016187D01*
X00002059Y00016174D01*
X00002050Y00016161D01*
X00002040Y00016149D01*
X00002030Y00016136D01*
X00002020Y00016124D01*
X00002009Y00016113D01*
X00001998Y00016101D01*
X00001987Y00016090D01*
X00001975Y00016079D01*
X00001963Y00016069D01*
X00001951Y00016059D01*
X00001939Y00016049D01*
X00001926Y00016039D01*
X00001913Y00016030D01*
X00001900Y00016021D01*
X00001887Y00016012D01*
X00001874Y00016004D01*
X00001860Y00015996D01*
X00001846Y00015988D01*
X00001832Y00015981D01*
X00001818Y00015974D01*
X00001803Y00015967D01*
X00001789Y00015961D01*
X00001774Y00015955D01*
X00001759Y00015950D01*
X00001744Y00015945D01*
X00001729Y00015940D01*
X00001714Y00015936D01*
X00001699Y00015932D01*
X00001683Y00015928D01*
X00001668Y00015925D01*
X00001652Y00015922D01*
X00001636Y00015920D01*
X00001621Y00015918D01*
X00001605Y00015916D01*
X00001589Y00015915D01*
X00001573Y00015914D01*
X00001558Y00015914D01*
X00001542Y00015914D01*
X00044812Y00021638D02*
X00044812Y00021638D01*
X00044793Y00021639D01*
X00044773Y00021639D01*
X00044754Y00021640D01*
X00044735Y00021642D01*
X00044716Y00021644D01*
X00044697Y00021647D01*
X00044677Y00021650D01*
X00044658Y00021653D01*
X00044640Y00021657D01*
X00044621Y00021662D01*
X00044602Y00021667D01*
X00044583Y00021672D01*
X00044565Y00021678D01*
X00044547Y00021684D01*
X00044529Y00021691D01*
X00044511Y00021698D01*
X00044493Y00021706D01*
X00044475Y00021714D01*
X00044458Y00021722D01*
X00044441Y00021731D01*
X00044424Y00021741D01*
X00044407Y00021750D01*
X00044391Y00021761D01*
X00044375Y00021771D01*
X00044359Y00021782D01*
X00044343Y00021793D01*
X00044328Y00021805D01*
X00044313Y00021817D01*
X00044298Y00021830D01*
X00044283Y00021842D01*
X00044269Y00021855D01*
X00044255Y00021869D01*
X00044242Y00021883D01*
X00044229Y00021897D01*
X00044216Y00021911D01*
X00044203Y00021926D01*
X00044191Y00021941D01*
X00044180Y00021957D01*
X00044168Y00021972D01*
X00044157Y00021988D01*
X00044147Y00022004D01*
X00044137Y00022021D01*
X00044127Y00022038D01*
X00044118Y00022055D01*
X00044109Y00022072D01*
X00044100Y00022089D01*
X00044092Y00022107D01*
X00044085Y00022124D01*
X00044077Y00022142D01*
X00044071Y00022160D01*
X00044064Y00022179D01*
X00044059Y00022197D01*
X00044053Y00022216D01*
X00044048Y00022234D01*
X00044044Y00022253D01*
X00044040Y00022272D01*
X00044036Y00022291D01*
X00044033Y00022310D01*
X00044031Y00022329D01*
X00044028Y00022349D01*
X00044027Y00022368D01*
X00044026Y00022387D01*
X00044025Y00022406D01*
X00044025Y00022426D01*
X00044025Y00022445D01*
X00044026Y00022464D01*
X00044027Y00022484D01*
X00044028Y00022503D01*
X00044031Y00022522D01*
X00044033Y00022541D01*
X00044036Y00022560D01*
X00044040Y00022579D01*
X00044044Y00022598D01*
X00044048Y00022617D01*
X00044053Y00022636D01*
X00044059Y00022654D01*
X00044064Y00022673D01*
X00044071Y00022691D01*
X00044077Y00022709D01*
X00044085Y00022727D01*
X00044092Y00022745D01*
X00044100Y00022762D01*
X00044109Y00022780D01*
X00044118Y00022797D01*
X00044127Y00022814D01*
X00044137Y00022831D01*
X00044147Y00022847D01*
X00044157Y00022863D01*
X00044168Y00022879D01*
X00044180Y00022895D01*
X00044191Y00022910D01*
X00044203Y00022925D01*
X00044216Y00022940D01*
X00044229Y00022955D01*
X00044242Y00022969D01*
X00044255Y00022983D01*
X00044269Y00022996D01*
X00044283Y00023009D01*
X00044298Y00023022D01*
X00044313Y00023034D01*
X00044328Y00023046D01*
X00044343Y00023058D01*
X00044359Y00023070D01*
X00044375Y00023080D01*
X00044391Y00023091D01*
X00044407Y00023101D01*
X00044424Y00023111D01*
X00044441Y00023120D01*
X00044458Y00023129D01*
X00044475Y00023138D01*
X00044493Y00023146D01*
X00044511Y00023153D01*
X00044529Y00023160D01*
X00044547Y00023167D01*
X00044565Y00023173D01*
X00044583Y00023179D01*
X00044602Y00023185D01*
X00044621Y00023190D01*
X00044640Y00023194D01*
X00044658Y00023198D01*
X00044677Y00023202D01*
X00044697Y00023205D01*
X00044716Y00023207D01*
X00044735Y00023209D01*
X00044754Y00023211D01*
X00044773Y00023212D01*
X00044793Y00023213D01*
X00044812Y00023213D01*
X00044831Y00023213D01*
X00044851Y00023212D01*
X00044870Y00023211D01*
X00044889Y00023209D01*
X00044908Y00023207D01*
X00044928Y00023205D01*
X00044947Y00023202D01*
X00044966Y00023198D01*
X00044985Y00023194D01*
X00045003Y00023190D01*
X00045022Y00023185D01*
X00045041Y00023179D01*
X00045059Y00023173D01*
X00045077Y00023167D01*
X00045095Y00023160D01*
X00045113Y00023153D01*
X00045131Y00023146D01*
X00045149Y00023138D01*
X00045166Y00023129D01*
X00045183Y00023120D01*
X00045200Y00023111D01*
X00045217Y00023101D01*
X00045233Y00023091D01*
X00045250Y00023080D01*
X00045265Y00023070D01*
X00045281Y00023058D01*
X00045296Y00023046D01*
X00045312Y00023034D01*
X00045326Y00023022D01*
X00045341Y00023009D01*
X00045355Y00022996D01*
X00045369Y00022983D01*
X00045382Y00022969D01*
X00045395Y00022955D01*
X00045408Y00022940D01*
X00045421Y00022925D01*
X00045433Y00022910D01*
X00045444Y00022895D01*
X00045456Y00022879D01*
X00045467Y00022863D01*
X00045477Y00022847D01*
X00045487Y00022831D01*
X00045497Y00022814D01*
X00045506Y00022797D01*
X00045515Y00022780D01*
X00045524Y00022762D01*
X00045532Y00022745D01*
X00045540Y00022727D01*
X00045547Y00022709D01*
X00045553Y00022691D01*
X00045560Y00022673D01*
X00045566Y00022654D01*
X00045571Y00022636D01*
X00045576Y00022617D01*
X00045580Y00022598D01*
X00045584Y00022579D01*
X00045588Y00022560D01*
X00045591Y00022541D01*
X00045594Y00022522D01*
X00045596Y00022503D01*
X00045597Y00022484D01*
X00045599Y00022464D01*
X00045599Y00022445D01*
X00045599Y00022426D01*
X00045599Y00022406D01*
X00045599Y00022387D01*
X00045597Y00022368D01*
X00045596Y00022349D01*
X00045594Y00022329D01*
X00045591Y00022310D01*
X00045588Y00022291D01*
X00045584Y00022272D01*
X00045580Y00022253D01*
X00045576Y00022234D01*
X00045571Y00022216D01*
X00045566Y00022197D01*
X00045560Y00022179D01*
X00045553Y00022160D01*
X00045547Y00022142D01*
X00045540Y00022124D01*
X00045532Y00022107D01*
X00045524Y00022089D01*
X00045515Y00022072D01*
X00045506Y00022055D01*
X00045497Y00022038D01*
X00045487Y00022021D01*
X00045477Y00022004D01*
X00045467Y00021988D01*
X00045456Y00021972D01*
X00045444Y00021957D01*
X00045433Y00021941D01*
X00045421Y00021926D01*
X00045408Y00021911D01*
X00045395Y00021897D01*
X00045382Y00021883D01*
X00045369Y00021869D01*
X00045355Y00021855D01*
X00045341Y00021842D01*
X00045326Y00021830D01*
X00045312Y00021817D01*
X00045296Y00021805D01*
X00045281Y00021793D01*
X00045265Y00021782D01*
X00045250Y00021771D01*
X00045233Y00021761D01*
X00045217Y00021750D01*
X00045200Y00021741D01*
X00045183Y00021731D01*
X00045166Y00021722D01*
X00045149Y00021714D01*
X00045131Y00021706D01*
X00045113Y00021698D01*
X00045095Y00021691D01*
X00045077Y00021684D01*
X00045059Y00021678D01*
X00045041Y00021672D01*
X00045022Y00021667D01*
X00045003Y00021662D01*
X00044985Y00021657D01*
X00044966Y00021653D01*
X00044947Y00021650D01*
X00044928Y00021647D01*
X00044908Y00021644D01*
X00044889Y00021642D01*
X00044870Y00021640D01*
X00044851Y00021639D01*
X00044831Y00021639D01*
X00044812Y00021638D01*
X00002686Y00021638D02*
X00002686Y00021638D01*
X00002667Y00021639D01*
X00002647Y00021639D01*
X00002628Y00021640D01*
X00002609Y00021642D01*
X00002590Y00021644D01*
X00002571Y00021647D01*
X00002551Y00021650D01*
X00002532Y00021653D01*
X00002514Y00021657D01*
X00002495Y00021662D01*
X00002476Y00021667D01*
X00002457Y00021672D01*
X00002439Y00021678D01*
X00002421Y00021684D01*
X00002403Y00021691D01*
X00002385Y00021698D01*
X00002367Y00021706D01*
X00002349Y00021714D01*
X00002332Y00021722D01*
X00002315Y00021731D01*
X00002298Y00021741D01*
X00002281Y00021750D01*
X00002265Y00021761D01*
X00002249Y00021771D01*
X00002233Y00021782D01*
X00002217Y00021793D01*
X00002202Y00021805D01*
X00002187Y00021817D01*
X00002172Y00021830D01*
X00002157Y00021842D01*
X00002143Y00021855D01*
X00002129Y00021869D01*
X00002116Y00021883D01*
X00002103Y00021897D01*
X00002090Y00021911D01*
X00002077Y00021926D01*
X00002065Y00021941D01*
X00002054Y00021957D01*
X00002042Y00021972D01*
X00002031Y00021988D01*
X00002021Y00022004D01*
X00002011Y00022021D01*
X00002001Y00022038D01*
X00001992Y00022055D01*
X00001983Y00022072D01*
X00001974Y00022089D01*
X00001966Y00022107D01*
X00001959Y00022124D01*
X00001951Y00022142D01*
X00001945Y00022160D01*
X00001938Y00022179D01*
X00001933Y00022197D01*
X00001927Y00022216D01*
X00001922Y00022234D01*
X00001918Y00022253D01*
X00001914Y00022272D01*
X00001910Y00022291D01*
X00001907Y00022310D01*
X00001905Y00022329D01*
X00001902Y00022349D01*
X00001901Y00022368D01*
X00001900Y00022387D01*
X00001899Y00022406D01*
X00001899Y00022426D01*
X00001899Y00022445D01*
X00001900Y00022464D01*
X00001901Y00022484D01*
X00001902Y00022503D01*
X00001905Y00022522D01*
X00001907Y00022541D01*
X00001910Y00022560D01*
X00001914Y00022579D01*
X00001918Y00022598D01*
X00001922Y00022617D01*
X00001927Y00022636D01*
X00001933Y00022654D01*
X00001938Y00022673D01*
X00001945Y00022691D01*
X00001951Y00022709D01*
X00001959Y00022727D01*
X00001966Y00022745D01*
X00001974Y00022762D01*
X00001983Y00022780D01*
X00001992Y00022797D01*
X00002001Y00022814D01*
X00002011Y00022831D01*
X00002021Y00022847D01*
X00002031Y00022863D01*
X00002042Y00022879D01*
X00002054Y00022895D01*
X00002065Y00022910D01*
X00002077Y00022925D01*
X00002090Y00022940D01*
X00002103Y00022955D01*
X00002116Y00022969D01*
X00002129Y00022983D01*
X00002143Y00022996D01*
X00002157Y00023009D01*
X00002172Y00023022D01*
X00002187Y00023034D01*
X00002202Y00023046D01*
X00002217Y00023058D01*
X00002233Y00023070D01*
X00002249Y00023080D01*
X00002265Y00023091D01*
X00002281Y00023101D01*
X00002298Y00023111D01*
X00002315Y00023120D01*
X00002332Y00023129D01*
X00002349Y00023138D01*
X00002367Y00023146D01*
X00002385Y00023153D01*
X00002403Y00023160D01*
X00002421Y00023167D01*
X00002439Y00023173D01*
X00002457Y00023179D01*
X00002476Y00023185D01*
X00002495Y00023190D01*
X00002514Y00023194D01*
X00002532Y00023198D01*
X00002551Y00023202D01*
X00002571Y00023205D01*
X00002590Y00023207D01*
X00002609Y00023209D01*
X00002628Y00023211D01*
X00002647Y00023212D01*
X00002667Y00023213D01*
X00002686Y00023213D01*
X00002705Y00023213D01*
X00002725Y00023212D01*
X00002744Y00023211D01*
X00002763Y00023209D01*
X00002782Y00023207D01*
X00002802Y00023205D01*
X00002821Y00023202D01*
X00002840Y00023198D01*
X00002859Y00023194D01*
X00002877Y00023190D01*
X00002896Y00023185D01*
X00002915Y00023179D01*
X00002933Y00023173D01*
X00002951Y00023167D01*
X00002969Y00023160D01*
X00002987Y00023153D01*
X00003005Y00023146D01*
X00003023Y00023138D01*
X00003040Y00023129D01*
X00003057Y00023120D01*
X00003074Y00023111D01*
X00003091Y00023101D01*
X00003107Y00023091D01*
X00003124Y00023080D01*
X00003139Y00023070D01*
X00003155Y00023058D01*
X00003170Y00023046D01*
X00003186Y00023034D01*
X00003200Y00023022D01*
X00003215Y00023009D01*
X00003229Y00022996D01*
X00003243Y00022983D01*
X00003256Y00022969D01*
X00003269Y00022955D01*
X00003282Y00022940D01*
X00003295Y00022925D01*
X00003307Y00022910D01*
X00003318Y00022895D01*
X00003330Y00022879D01*
X00003341Y00022863D01*
X00003351Y00022847D01*
X00003361Y00022831D01*
X00003371Y00022814D01*
X00003380Y00022797D01*
X00003389Y00022780D01*
X00003398Y00022762D01*
X00003406Y00022745D01*
X00003414Y00022727D01*
X00003421Y00022709D01*
X00003427Y00022691D01*
X00003434Y00022673D01*
X00003440Y00022654D01*
X00003445Y00022636D01*
X00003450Y00022617D01*
X00003454Y00022598D01*
X00003458Y00022579D01*
X00003462Y00022560D01*
X00003465Y00022541D01*
X00003468Y00022522D01*
X00003470Y00022503D01*
X00003471Y00022484D01*
X00003473Y00022464D01*
X00003473Y00022445D01*
X00003473Y00022426D01*
X00003473Y00022406D01*
X00003473Y00022387D01*
X00003471Y00022368D01*
X00003470Y00022349D01*
X00003468Y00022329D01*
X00003465Y00022310D01*
X00003462Y00022291D01*
X00003458Y00022272D01*
X00003454Y00022253D01*
X00003450Y00022234D01*
X00003445Y00022216D01*
X00003440Y00022197D01*
X00003434Y00022179D01*
X00003427Y00022160D01*
X00003421Y00022142D01*
X00003414Y00022124D01*
X00003406Y00022107D01*
X00003398Y00022089D01*
X00003389Y00022072D01*
X00003380Y00022055D01*
X00003371Y00022038D01*
X00003361Y00022021D01*
X00003351Y00022004D01*
X00003341Y00021988D01*
X00003330Y00021972D01*
X00003318Y00021957D01*
X00003307Y00021941D01*
X00003295Y00021926D01*
X00003282Y00021911D01*
X00003269Y00021897D01*
X00003256Y00021883D01*
X00003243Y00021869D01*
X00003229Y00021855D01*
X00003215Y00021842D01*
X00003200Y00021830D01*
X00003186Y00021817D01*
X00003170Y00021805D01*
X00003155Y00021793D01*
X00003139Y00021782D01*
X00003124Y00021771D01*
X00003107Y00021761D01*
X00003091Y00021750D01*
X00003074Y00021741D01*
X00003057Y00021731D01*
X00003040Y00021722D01*
X00003023Y00021714D01*
X00003005Y00021706D01*
X00002987Y00021698D01*
X00002969Y00021691D01*
X00002951Y00021684D01*
X00002933Y00021678D01*
X00002915Y00021672D01*
X00002896Y00021667D01*
X00002877Y00021662D01*
X00002859Y00021657D01*
X00002840Y00021653D01*
X00002821Y00021650D01*
X00002802Y00021647D01*
X00002782Y00021644D01*
X00002763Y00021642D01*
X00002744Y00021640D01*
X00002725Y00021639D01*
X00002705Y00021639D01*
X00002686Y00021638D01*
X00045122Y00049721D02*
X00045122Y00049721D01*
X00045110Y00049722D01*
X00045098Y00049722D01*
X00045086Y00049723D01*
X00045074Y00049725D01*
X00045063Y00049726D01*
X00045051Y00049729D01*
X00045039Y00049731D01*
X00045028Y00049734D01*
X00045017Y00049737D01*
X00045005Y00049741D01*
X00044994Y00049745D01*
X00044983Y00049750D01*
X00044972Y00049754D01*
X00044962Y00049760D01*
X00044951Y00049765D01*
X00044941Y00049771D01*
X00044931Y00049777D01*
X00044921Y00049784D01*
X00044911Y00049791D01*
X00044902Y00049798D01*
X00044893Y00049805D01*
X00044884Y00049813D01*
X00044875Y00049821D01*
X00044867Y00049829D01*
X00044859Y00049838D01*
X00044851Y00049847D01*
X00044843Y00049856D01*
X00044836Y00049866D01*
X00044829Y00049875D01*
X00044823Y00049885D01*
X00044817Y00049895D01*
X00044811Y00049905D01*
X00044805Y00049916D01*
X00044800Y00049927D01*
X00044795Y00049937D01*
X00044791Y00049948D01*
X00044787Y00049960D01*
X00044783Y00049971D01*
X00044780Y00049982D01*
X00044777Y00049994D01*
X00044774Y00050005D01*
X00044772Y00050017D01*
X00044770Y00050029D01*
X00044769Y00050040D01*
X00044768Y00050052D01*
X00044767Y00050064D01*
X00044767Y00050076D01*
X00044767Y00050088D01*
X00044768Y00050099D01*
X00044769Y00050111D01*
X00044770Y00050123D01*
X00044772Y00050135D01*
X00044774Y00050146D01*
X00044777Y00050158D01*
X00044780Y00050169D01*
X00044783Y00050181D01*
X00044787Y00050192D01*
X00044791Y00050203D01*
X00044795Y00050214D01*
X00044800Y00050225D01*
X00044805Y00050236D01*
X00044811Y00050246D01*
X00044817Y00050256D01*
X00044823Y00050266D01*
X00044829Y00050276D01*
X00044836Y00050286D01*
X00044843Y00050295D01*
X00044851Y00050304D01*
X00044859Y00050313D01*
X00044867Y00050322D01*
X00044875Y00050330D01*
X00044884Y00050339D01*
X00044893Y00050346D01*
X00044902Y00050354D01*
X00044911Y00050361D01*
X00044921Y00050368D01*
X00044931Y00050374D01*
X00044941Y00050381D01*
X00044951Y00050386D01*
X00044962Y00050392D01*
X00044972Y00050397D01*
X00044983Y00050402D01*
X00044994Y00050406D01*
X00045005Y00050410D01*
X00045017Y00050414D01*
X00045028Y00050417D01*
X00045039Y00050420D01*
X00045051Y00050423D01*
X00045063Y00050425D01*
X00045074Y00050427D01*
X00045086Y00050428D01*
X00045098Y00050429D01*
X00045110Y00050430D01*
X00045122Y00050430D01*
X00045133Y00050430D01*
X00045145Y00050429D01*
X00045157Y00050428D01*
X00045169Y00050427D01*
X00045180Y00050425D01*
X00045192Y00050423D01*
X00045204Y00050420D01*
X00045215Y00050417D01*
X00045227Y00050414D01*
X00045238Y00050410D01*
X00045249Y00050406D01*
X00045260Y00050402D01*
X00045271Y00050397D01*
X00045281Y00050392D01*
X00045292Y00050386D01*
X00045302Y00050381D01*
X00045312Y00050374D01*
X00045322Y00050368D01*
X00045332Y00050361D01*
X00045341Y00050354D01*
X00045350Y00050346D01*
X00045359Y00050339D01*
X00045368Y00050330D01*
X00045376Y00050322D01*
X00045384Y00050313D01*
X00045392Y00050304D01*
X00045400Y00050295D01*
X00045407Y00050286D01*
X00045414Y00050276D01*
X00045420Y00050266D01*
X00045426Y00050256D01*
X00045432Y00050246D01*
X00045438Y00050236D01*
X00045443Y00050225D01*
X00045448Y00050214D01*
X00045452Y00050203D01*
X00045456Y00050192D01*
X00045460Y00050181D01*
X00045463Y00050169D01*
X00045466Y00050158D01*
X00045469Y00050146D01*
X00045471Y00050135D01*
X00045473Y00050123D01*
X00045474Y00050111D01*
X00045475Y00050099D01*
X00045476Y00050088D01*
X00045476Y00050076D01*
X00045476Y00050064D01*
X00045475Y00050052D01*
X00045474Y00050040D01*
X00045473Y00050029D01*
X00045471Y00050017D01*
X00045469Y00050005D01*
X00045466Y00049994D01*
X00045463Y00049982D01*
X00045460Y00049971D01*
X00045456Y00049960D01*
X00045452Y00049948D01*
X00045448Y00049937D01*
X00045443Y00049927D01*
X00045438Y00049916D01*
X00045432Y00049905D01*
X00045426Y00049895D01*
X00045420Y00049885D01*
X00045414Y00049875D01*
X00045407Y00049866D01*
X00045400Y00049856D01*
X00045392Y00049847D01*
X00045384Y00049838D01*
X00045376Y00049829D01*
X00045368Y00049821D01*
X00045359Y00049813D01*
X00045350Y00049805D01*
X00045341Y00049798D01*
X00045332Y00049791D01*
X00045322Y00049784D01*
X00045312Y00049777D01*
X00045302Y00049771D01*
X00045292Y00049765D01*
X00045281Y00049760D01*
X00045271Y00049754D01*
X00045260Y00049750D01*
X00045249Y00049745D01*
X00045238Y00049741D01*
X00045227Y00049737D01*
X00045215Y00049734D01*
X00045204Y00049731D01*
X00045192Y00049729D01*
X00045180Y00049726D01*
X00045169Y00049725D01*
X00045157Y00049723D01*
X00045145Y00049722D01*
X00045133Y00049722D01*
X00045122Y00049721D01*
X00037121Y00049721D02*
X00037121Y00049721D01*
X00037109Y00049722D01*
X00037097Y00049722D01*
X00037086Y00049723D01*
X00037074Y00049725D01*
X00037062Y00049726D01*
X00037050Y00049729D01*
X00037039Y00049731D01*
X00037027Y00049734D01*
X00037016Y00049737D01*
X00037005Y00049741D01*
X00036994Y00049745D01*
X00036983Y00049750D01*
X00036972Y00049754D01*
X00036961Y00049760D01*
X00036951Y00049765D01*
X00036940Y00049771D01*
X00036930Y00049777D01*
X00036921Y00049784D01*
X00036911Y00049791D01*
X00036901Y00049798D01*
X00036892Y00049805D01*
X00036883Y00049813D01*
X00036875Y00049821D01*
X00036866Y00049829D01*
X00036858Y00049838D01*
X00036850Y00049847D01*
X00036843Y00049856D01*
X00036836Y00049866D01*
X00036829Y00049875D01*
X00036822Y00049885D01*
X00036816Y00049895D01*
X00036810Y00049905D01*
X00036805Y00049916D01*
X00036800Y00049927D01*
X00036795Y00049937D01*
X00036790Y00049948D01*
X00036786Y00049960D01*
X00036783Y00049971D01*
X00036779Y00049982D01*
X00036776Y00049994D01*
X00036774Y00050005D01*
X00036772Y00050017D01*
X00036770Y00050029D01*
X00036769Y00050040D01*
X00036768Y00050052D01*
X00036767Y00050064D01*
X00036767Y00050076D01*
X00036767Y00050088D01*
X00036768Y00050099D01*
X00036769Y00050111D01*
X00036770Y00050123D01*
X00036772Y00050135D01*
X00036774Y00050146D01*
X00036776Y00050158D01*
X00036779Y00050169D01*
X00036783Y00050181D01*
X00036786Y00050192D01*
X00036790Y00050203D01*
X00036795Y00050214D01*
X00036800Y00050225D01*
X00036805Y00050236D01*
X00036810Y00050246D01*
X00036816Y00050256D01*
X00036822Y00050266D01*
X00036829Y00050276D01*
X00036836Y00050286D01*
X00036843Y00050295D01*
X00036850Y00050304D01*
X00036858Y00050313D01*
X00036866Y00050322D01*
X00036875Y00050330D01*
X00036883Y00050339D01*
X00036892Y00050346D01*
X00036901Y00050354D01*
X00036911Y00050361D01*
X00036921Y00050368D01*
X00036930Y00050374D01*
X00036940Y00050381D01*
X00036951Y00050386D01*
X00036961Y00050392D01*
X00036972Y00050397D01*
X00036983Y00050402D01*
X00036994Y00050406D01*
X00037005Y00050410D01*
X00037016Y00050414D01*
X00037027Y00050417D01*
X00037039Y00050420D01*
X00037050Y00050423D01*
X00037062Y00050425D01*
X00037074Y00050427D01*
X00037086Y00050428D01*
X00037097Y00050429D01*
X00037109Y00050430D01*
X00037121Y00050430D01*
X00037133Y00050430D01*
X00037145Y00050429D01*
X00037157Y00050428D01*
X00037168Y00050427D01*
X00037180Y00050425D01*
X00037192Y00050423D01*
X00037203Y00050420D01*
X00037215Y00050417D01*
X00037226Y00050414D01*
X00037237Y00050410D01*
X00037248Y00050406D01*
X00037259Y00050402D01*
X00037270Y00050397D01*
X00037281Y00050392D01*
X00037291Y00050386D01*
X00037302Y00050381D01*
X00037312Y00050374D01*
X00037322Y00050368D01*
X00037331Y00050361D01*
X00037341Y00050354D01*
X00037350Y00050346D01*
X00037359Y00050339D01*
X00037367Y00050330D01*
X00037376Y00050322D01*
X00037384Y00050313D01*
X00037392Y00050304D01*
X00037399Y00050295D01*
X00037406Y00050286D01*
X00037413Y00050276D01*
X00037420Y00050266D01*
X00037426Y00050256D01*
X00037432Y00050246D01*
X00037437Y00050236D01*
X00037442Y00050225D01*
X00037447Y00050214D01*
X00037452Y00050203D01*
X00037456Y00050192D01*
X00037459Y00050181D01*
X00037463Y00050169D01*
X00037466Y00050158D01*
X00037468Y00050146D01*
X00037470Y00050135D01*
X00037472Y00050123D01*
X00037474Y00050111D01*
X00037475Y00050099D01*
X00037475Y00050088D01*
X00037475Y00050076D01*
X00037475Y00050064D01*
X00037475Y00050052D01*
X00037474Y00050040D01*
X00037472Y00050029D01*
X00037470Y00050017D01*
X00037468Y00050005D01*
X00037466Y00049994D01*
X00037463Y00049982D01*
X00037459Y00049971D01*
X00037456Y00049960D01*
X00037452Y00049948D01*
X00037447Y00049937D01*
X00037442Y00049927D01*
X00037437Y00049916D01*
X00037432Y00049905D01*
X00037426Y00049895D01*
X00037420Y00049885D01*
X00037413Y00049875D01*
X00037406Y00049866D01*
X00037399Y00049856D01*
X00037392Y00049847D01*
X00037384Y00049838D01*
X00037376Y00049829D01*
X00037367Y00049821D01*
X00037359Y00049813D01*
X00037350Y00049805D01*
X00037341Y00049798D01*
X00037331Y00049791D01*
X00037322Y00049784D01*
X00037312Y00049777D01*
X00037302Y00049771D01*
X00037291Y00049765D01*
X00037281Y00049760D01*
X00037270Y00049754D01*
X00037259Y00049750D01*
X00037248Y00049745D01*
X00037237Y00049741D01*
X00037226Y00049737D01*
X00037215Y00049734D01*
X00037203Y00049731D01*
X00037192Y00049729D01*
X00037180Y00049726D01*
X00037168Y00049725D01*
X00037157Y00049723D01*
X00037145Y00049722D01*
X00037133Y00049722D01*
X00037121Y00049721D01*
X00029121Y00049721D02*
X00029121Y00049721D01*
X00029110Y00049722D01*
X00029098Y00049722D01*
X00029086Y00049723D01*
X00029074Y00049725D01*
X00029062Y00049726D01*
X00029051Y00049729D01*
X00029039Y00049731D01*
X00029028Y00049734D01*
X00029016Y00049737D01*
X00029005Y00049741D01*
X00028994Y00049745D01*
X00028983Y00049750D01*
X00028972Y00049754D01*
X00028962Y00049760D01*
X00028951Y00049765D01*
X00028941Y00049771D01*
X00028931Y00049777D01*
X00028921Y00049784D01*
X00028911Y00049791D01*
X00028902Y00049798D01*
X00028893Y00049805D01*
X00028884Y00049813D01*
X00028875Y00049821D01*
X00028867Y00049829D01*
X00028859Y00049838D01*
X00028851Y00049847D01*
X00028843Y00049856D01*
X00028836Y00049866D01*
X00028829Y00049875D01*
X00028823Y00049885D01*
X00028817Y00049895D01*
X00028811Y00049905D01*
X00028805Y00049916D01*
X00028800Y00049927D01*
X00028795Y00049937D01*
X00028791Y00049948D01*
X00028787Y00049960D01*
X00028783Y00049971D01*
X00028780Y00049982D01*
X00028777Y00049994D01*
X00028774Y00050005D01*
X00028772Y00050017D01*
X00028770Y00050029D01*
X00028769Y00050040D01*
X00028768Y00050052D01*
X00028767Y00050064D01*
X00028767Y00050076D01*
X00028767Y00050088D01*
X00028768Y00050099D01*
X00028769Y00050111D01*
X00028770Y00050123D01*
X00028772Y00050135D01*
X00028774Y00050146D01*
X00028777Y00050158D01*
X00028780Y00050169D01*
X00028783Y00050181D01*
X00028787Y00050192D01*
X00028791Y00050203D01*
X00028795Y00050214D01*
X00028800Y00050225D01*
X00028805Y00050236D01*
X00028811Y00050246D01*
X00028817Y00050256D01*
X00028823Y00050266D01*
X00028829Y00050276D01*
X00028836Y00050286D01*
X00028843Y00050295D01*
X00028851Y00050304D01*
X00028859Y00050313D01*
X00028867Y00050322D01*
X00028875Y00050330D01*
X00028884Y00050339D01*
X00028893Y00050346D01*
X00028902Y00050354D01*
X00028911Y00050361D01*
X00028921Y00050368D01*
X00028931Y00050374D01*
X00028941Y00050381D01*
X00028951Y00050386D01*
X00028962Y00050392D01*
X00028972Y00050397D01*
X00028983Y00050402D01*
X00028994Y00050406D01*
X00029005Y00050410D01*
X00029016Y00050414D01*
X00029028Y00050417D01*
X00029039Y00050420D01*
X00029051Y00050423D01*
X00029062Y00050425D01*
X00029074Y00050427D01*
X00029086Y00050428D01*
X00029098Y00050429D01*
X00029110Y00050430D01*
X00029121Y00050430D01*
X00029133Y00050430D01*
X00029145Y00050429D01*
X00029157Y00050428D01*
X00029169Y00050427D01*
X00029180Y00050425D01*
X00029192Y00050423D01*
X00029203Y00050420D01*
X00029215Y00050417D01*
X00029226Y00050414D01*
X00029238Y00050410D01*
X00029249Y00050406D01*
X00029260Y00050402D01*
X00029270Y00050397D01*
X00029281Y00050392D01*
X00029292Y00050386D01*
X00029302Y00050381D01*
X00029312Y00050374D01*
X00029322Y00050368D01*
X00029332Y00050361D01*
X00029341Y00050354D01*
X00029350Y00050346D01*
X00029359Y00050339D01*
X00029368Y00050330D01*
X00029376Y00050322D01*
X00029384Y00050313D01*
X00029392Y00050304D01*
X00029399Y00050295D01*
X00029407Y00050286D01*
X00029413Y00050276D01*
X00029420Y00050266D01*
X00029426Y00050256D01*
X00029432Y00050246D01*
X00029438Y00050236D01*
X00029443Y00050225D01*
X00029448Y00050214D01*
X00029452Y00050203D01*
X00029456Y00050192D01*
X00029460Y00050181D01*
X00029463Y00050169D01*
X00029466Y00050158D01*
X00029469Y00050146D01*
X00029471Y00050135D01*
X00029472Y00050123D01*
X00029474Y00050111D01*
X00029475Y00050099D01*
X00029475Y00050088D01*
X00029476Y00050076D01*
X00029475Y00050064D01*
X00029475Y00050052D01*
X00029474Y00050040D01*
X00029472Y00050029D01*
X00029471Y00050017D01*
X00029469Y00050005D01*
X00029466Y00049994D01*
X00029463Y00049982D01*
X00029460Y00049971D01*
X00029456Y00049960D01*
X00029452Y00049948D01*
X00029448Y00049937D01*
X00029443Y00049927D01*
X00029438Y00049916D01*
X00029432Y00049905D01*
X00029426Y00049895D01*
X00029420Y00049885D01*
X00029413Y00049875D01*
X00029407Y00049866D01*
X00029399Y00049856D01*
X00029392Y00049847D01*
X00029384Y00049838D01*
X00029376Y00049829D01*
X00029368Y00049821D01*
X00029359Y00049813D01*
X00029350Y00049805D01*
X00029341Y00049798D01*
X00029332Y00049791D01*
X00029322Y00049784D01*
X00029312Y00049777D01*
X00029302Y00049771D01*
X00029292Y00049765D01*
X00029281Y00049760D01*
X00029270Y00049754D01*
X00029260Y00049750D01*
X00029249Y00049745D01*
X00029238Y00049741D01*
X00029226Y00049737D01*
X00029215Y00049734D01*
X00029203Y00049731D01*
X00029192Y00049729D01*
X00029180Y00049726D01*
X00029169Y00049725D01*
X00029157Y00049723D01*
X00029145Y00049722D01*
X00029133Y00049722D01*
X00029121Y00049721D01*
X00021122Y00049721D02*
X00021122Y00049721D01*
X00021110Y00049722D01*
X00021098Y00049722D01*
X00021086Y00049723D01*
X00021074Y00049725D01*
X00021063Y00049726D01*
X00021051Y00049729D01*
X00021039Y00049731D01*
X00021028Y00049734D01*
X00021017Y00049737D01*
X00021005Y00049741D01*
X00020994Y00049745D01*
X00020983Y00049750D01*
X00020972Y00049754D01*
X00020962Y00049760D01*
X00020951Y00049765D01*
X00020941Y00049771D01*
X00020931Y00049777D01*
X00020921Y00049784D01*
X00020911Y00049791D01*
X00020902Y00049798D01*
X00020893Y00049805D01*
X00020884Y00049813D01*
X00020875Y00049821D01*
X00020867Y00049829D01*
X00020859Y00049838D01*
X00020851Y00049847D01*
X00020843Y00049856D01*
X00020836Y00049866D01*
X00020829Y00049875D01*
X00020823Y00049885D01*
X00020817Y00049895D01*
X00020811Y00049905D01*
X00020805Y00049916D01*
X00020800Y00049927D01*
X00020795Y00049937D01*
X00020791Y00049948D01*
X00020787Y00049960D01*
X00020783Y00049971D01*
X00020780Y00049982D01*
X00020777Y00049994D01*
X00020774Y00050005D01*
X00020772Y00050017D01*
X00020770Y00050029D01*
X00020769Y00050040D01*
X00020768Y00050052D01*
X00020767Y00050064D01*
X00020767Y00050076D01*
X00020767Y00050088D01*
X00020768Y00050099D01*
X00020769Y00050111D01*
X00020770Y00050123D01*
X00020772Y00050135D01*
X00020774Y00050146D01*
X00020777Y00050158D01*
X00020780Y00050169D01*
X00020783Y00050181D01*
X00020787Y00050192D01*
X00020791Y00050203D01*
X00020795Y00050214D01*
X00020800Y00050225D01*
X00020805Y00050236D01*
X00020811Y00050246D01*
X00020817Y00050256D01*
X00020823Y00050266D01*
X00020829Y00050276D01*
X00020836Y00050286D01*
X00020843Y00050295D01*
X00020851Y00050304D01*
X00020859Y00050313D01*
X00020867Y00050322D01*
X00020875Y00050330D01*
X00020884Y00050339D01*
X00020893Y00050346D01*
X00020902Y00050354D01*
X00020911Y00050361D01*
X00020921Y00050368D01*
X00020931Y00050374D01*
X00020941Y00050381D01*
X00020951Y00050386D01*
X00020962Y00050392D01*
X00020972Y00050397D01*
X00020983Y00050402D01*
X00020994Y00050406D01*
X00021005Y00050410D01*
X00021017Y00050414D01*
X00021028Y00050417D01*
X00021039Y00050420D01*
X00021051Y00050423D01*
X00021063Y00050425D01*
X00021074Y00050427D01*
X00021086Y00050428D01*
X00021098Y00050429D01*
X00021110Y00050430D01*
X00021122Y00050430D01*
X00021133Y00050430D01*
X00021145Y00050429D01*
X00021157Y00050428D01*
X00021169Y00050427D01*
X00021180Y00050425D01*
X00021192Y00050423D01*
X00021204Y00050420D01*
X00021215Y00050417D01*
X00021227Y00050414D01*
X00021238Y00050410D01*
X00021249Y00050406D01*
X00021260Y00050402D01*
X00021271Y00050397D01*
X00021281Y00050392D01*
X00021292Y00050386D01*
X00021302Y00050381D01*
X00021312Y00050374D01*
X00021322Y00050368D01*
X00021332Y00050361D01*
X00021341Y00050354D01*
X00021350Y00050346D01*
X00021359Y00050339D01*
X00021368Y00050330D01*
X00021376Y00050322D01*
X00021384Y00050313D01*
X00021392Y00050304D01*
X00021400Y00050295D01*
X00021407Y00050286D01*
X00021414Y00050276D01*
X00021420Y00050266D01*
X00021426Y00050256D01*
X00021432Y00050246D01*
X00021438Y00050236D01*
X00021443Y00050225D01*
X00021448Y00050214D01*
X00021452Y00050203D01*
X00021456Y00050192D01*
X00021460Y00050181D01*
X00021463Y00050169D01*
X00021466Y00050158D01*
X00021469Y00050146D01*
X00021471Y00050135D01*
X00021473Y00050123D01*
X00021474Y00050111D01*
X00021475Y00050099D01*
X00021476Y00050088D01*
X00021476Y00050076D01*
X00021476Y00050064D01*
X00021475Y00050052D01*
X00021474Y00050040D01*
X00021473Y00050029D01*
X00021471Y00050017D01*
X00021469Y00050005D01*
X00021466Y00049994D01*
X00021463Y00049982D01*
X00021460Y00049971D01*
X00021456Y00049960D01*
X00021452Y00049948D01*
X00021448Y00049937D01*
X00021443Y00049927D01*
X00021438Y00049916D01*
X00021432Y00049905D01*
X00021426Y00049895D01*
X00021420Y00049885D01*
X00021414Y00049875D01*
X00021407Y00049866D01*
X00021400Y00049856D01*
X00021392Y00049847D01*
X00021384Y00049838D01*
X00021376Y00049829D01*
X00021368Y00049821D01*
X00021359Y00049813D01*
X00021350Y00049805D01*
X00021341Y00049798D01*
X00021332Y00049791D01*
X00021322Y00049784D01*
X00021312Y00049777D01*
X00021302Y00049771D01*
X00021292Y00049765D01*
X00021281Y00049760D01*
X00021271Y00049754D01*
X00021260Y00049750D01*
X00021249Y00049745D01*
X00021238Y00049741D01*
X00021227Y00049737D01*
X00021215Y00049734D01*
X00021204Y00049731D01*
X00021192Y00049729D01*
X00021180Y00049726D01*
X00021169Y00049725D01*
X00021157Y00049723D01*
X00021145Y00049722D01*
X00021133Y00049722D01*
X00021122Y00049721D01*
X00021122Y00053261D02*
X00021122Y00053261D01*
X00021110Y00053261D01*
X00021098Y00053262D01*
X00021086Y00053263D01*
X00021074Y00053264D01*
X00021063Y00053266D01*
X00021051Y00053268D01*
X00021039Y00053270D01*
X00021028Y00053273D01*
X00021016Y00053277D01*
X00021005Y00053280D01*
X00020994Y00053284D01*
X00020983Y00053289D01*
X00020972Y00053294D01*
X00020961Y00053299D01*
X00020951Y00053304D01*
X00020941Y00053310D01*
X00020931Y00053317D01*
X00020921Y00053323D01*
X00020911Y00053330D01*
X00020902Y00053337D01*
X00020892Y00053345D01*
X00020883Y00053352D01*
X00020875Y00053361D01*
X00020866Y00053369D01*
X00020858Y00053378D01*
X00020850Y00053387D01*
X00020843Y00053396D01*
X00020836Y00053405D01*
X00020829Y00053415D01*
X00020822Y00053425D01*
X00020816Y00053435D01*
X00020810Y00053445D01*
X00020805Y00053456D01*
X00020800Y00053466D01*
X00020795Y00053477D01*
X00020790Y00053488D01*
X00020786Y00053499D01*
X00020782Y00053511D01*
X00020779Y00053522D01*
X00020776Y00053533D01*
X00020774Y00053545D01*
X00020771Y00053557D01*
X00020770Y00053568D01*
X00020768Y00053580D01*
X00020767Y00053592D01*
X00020767Y00053604D01*
X00020767Y00053616D01*
X00020767Y00053628D01*
X00020767Y00053639D01*
X00020768Y00053651D01*
X00020770Y00053663D01*
X00020771Y00053675D01*
X00020774Y00053686D01*
X00020776Y00053698D01*
X00020779Y00053710D01*
X00020782Y00053721D01*
X00020786Y00053732D01*
X00020790Y00053743D01*
X00020795Y00053754D01*
X00020800Y00053765D01*
X00020805Y00053776D01*
X00020810Y00053786D01*
X00020816Y00053797D01*
X00020822Y00053807D01*
X00020829Y00053817D01*
X00020836Y00053826D01*
X00020843Y00053836D01*
X00020850Y00053845D01*
X00020858Y00053854D01*
X00020866Y00053863D01*
X00020875Y00053871D01*
X00020883Y00053879D01*
X00020892Y00053887D01*
X00020902Y00053894D01*
X00020911Y00053902D01*
X00020921Y00053908D01*
X00020931Y00053915D01*
X00020941Y00053921D01*
X00020951Y00053927D01*
X00020961Y00053933D01*
X00020972Y00053938D01*
X00020983Y00053943D01*
X00020994Y00053947D01*
X00021005Y00053951D01*
X00021016Y00053955D01*
X00021028Y00053958D01*
X00021039Y00053961D01*
X00021051Y00053964D01*
X00021063Y00053966D01*
X00021074Y00053968D01*
X00021086Y00053969D01*
X00021098Y00053970D01*
X00021110Y00053971D01*
X00021122Y00053971D01*
X00021133Y00053971D01*
X00021145Y00053970D01*
X00021157Y00053969D01*
X00021169Y00053968D01*
X00021181Y00053966D01*
X00021192Y00053964D01*
X00021204Y00053961D01*
X00021215Y00053958D01*
X00021227Y00053955D01*
X00021238Y00053951D01*
X00021249Y00053947D01*
X00021260Y00053943D01*
X00021271Y00053938D01*
X00021282Y00053933D01*
X00021292Y00053927D01*
X00021302Y00053921D01*
X00021313Y00053915D01*
X00021322Y00053908D01*
X00021332Y00053902D01*
X00021342Y00053894D01*
X00021351Y00053887D01*
X00021360Y00053879D01*
X00021368Y00053871D01*
X00021377Y00053863D01*
X00021385Y00053854D01*
X00021393Y00053845D01*
X00021400Y00053836D01*
X00021407Y00053826D01*
X00021414Y00053817D01*
X00021421Y00053807D01*
X00021427Y00053797D01*
X00021433Y00053786D01*
X00021438Y00053776D01*
X00021444Y00053765D01*
X00021448Y00053754D01*
X00021453Y00053743D01*
X00021457Y00053732D01*
X00021461Y00053721D01*
X00021464Y00053710D01*
X00021467Y00053698D01*
X00021469Y00053686D01*
X00021472Y00053675D01*
X00021473Y00053663D01*
X00021475Y00053651D01*
X00021476Y00053639D01*
X00021476Y00053628D01*
X00021477Y00053616D01*
X00021476Y00053604D01*
X00021476Y00053592D01*
X00021475Y00053580D01*
X00021473Y00053568D01*
X00021472Y00053557D01*
X00021469Y00053545D01*
X00021467Y00053533D01*
X00021464Y00053522D01*
X00021461Y00053511D01*
X00021457Y00053499D01*
X00021453Y00053488D01*
X00021448Y00053477D01*
X00021444Y00053466D01*
X00021438Y00053456D01*
X00021433Y00053445D01*
X00021427Y00053435D01*
X00021421Y00053425D01*
X00021414Y00053415D01*
X00021407Y00053405D01*
X00021400Y00053396D01*
X00021393Y00053387D01*
X00021385Y00053378D01*
X00021377Y00053369D01*
X00021368Y00053361D01*
X00021360Y00053352D01*
X00021351Y00053345D01*
X00021342Y00053337D01*
X00021332Y00053330D01*
X00021322Y00053323D01*
X00021313Y00053317D01*
X00021302Y00053310D01*
X00021292Y00053304D01*
X00021282Y00053299D01*
X00021271Y00053294D01*
X00021260Y00053289D01*
X00021249Y00053284D01*
X00021238Y00053280D01*
X00021227Y00053277D01*
X00021215Y00053273D01*
X00021204Y00053270D01*
X00021192Y00053268D01*
X00021181Y00053266D01*
X00021169Y00053264D01*
X00021157Y00053263D01*
X00021145Y00053262D01*
X00021133Y00053261D01*
X00021122Y00053261D01*
X00029121Y00053261D02*
X00029121Y00053261D01*
X00029109Y00053261D01*
X00029098Y00053262D01*
X00029086Y00053263D01*
X00029074Y00053264D01*
X00029062Y00053266D01*
X00029051Y00053268D01*
X00029039Y00053270D01*
X00029028Y00053273D01*
X00029016Y00053277D01*
X00029005Y00053280D01*
X00028994Y00053284D01*
X00028983Y00053289D01*
X00028972Y00053294D01*
X00028961Y00053299D01*
X00028951Y00053304D01*
X00028940Y00053310D01*
X00028930Y00053317D01*
X00028920Y00053323D01*
X00028911Y00053330D01*
X00028901Y00053337D01*
X00028892Y00053345D01*
X00028883Y00053352D01*
X00028875Y00053361D01*
X00028866Y00053369D01*
X00028858Y00053378D01*
X00028850Y00053387D01*
X00028843Y00053396D01*
X00028836Y00053405D01*
X00028829Y00053415D01*
X00028822Y00053425D01*
X00028816Y00053435D01*
X00028810Y00053445D01*
X00028805Y00053456D01*
X00028799Y00053466D01*
X00028795Y00053477D01*
X00028790Y00053488D01*
X00028786Y00053499D01*
X00028782Y00053511D01*
X00028779Y00053522D01*
X00028776Y00053533D01*
X00028773Y00053545D01*
X00028771Y00053557D01*
X00028770Y00053568D01*
X00028768Y00053580D01*
X00028767Y00053592D01*
X00028767Y00053604D01*
X00028766Y00053616D01*
X00028767Y00053628D01*
X00028767Y00053639D01*
X00028768Y00053651D01*
X00028770Y00053663D01*
X00028771Y00053675D01*
X00028773Y00053686D01*
X00028776Y00053698D01*
X00028779Y00053710D01*
X00028782Y00053721D01*
X00028786Y00053732D01*
X00028790Y00053743D01*
X00028795Y00053754D01*
X00028799Y00053765D01*
X00028805Y00053776D01*
X00028810Y00053786D01*
X00028816Y00053797D01*
X00028822Y00053807D01*
X00028829Y00053817D01*
X00028836Y00053826D01*
X00028843Y00053836D01*
X00028850Y00053845D01*
X00028858Y00053854D01*
X00028866Y00053863D01*
X00028875Y00053871D01*
X00028883Y00053879D01*
X00028892Y00053887D01*
X00028901Y00053894D01*
X00028911Y00053902D01*
X00028920Y00053908D01*
X00028930Y00053915D01*
X00028940Y00053921D01*
X00028951Y00053927D01*
X00028961Y00053933D01*
X00028972Y00053938D01*
X00028983Y00053943D01*
X00028994Y00053947D01*
X00029005Y00053951D01*
X00029016Y00053955D01*
X00029028Y00053958D01*
X00029039Y00053961D01*
X00029051Y00053964D01*
X00029062Y00053966D01*
X00029074Y00053968D01*
X00029086Y00053969D01*
X00029098Y00053970D01*
X00029109Y00053971D01*
X00029121Y00053971D01*
X00029133Y00053971D01*
X00029145Y00053970D01*
X00029157Y00053969D01*
X00029169Y00053968D01*
X00029180Y00053966D01*
X00029192Y00053964D01*
X00029204Y00053961D01*
X00029215Y00053958D01*
X00029227Y00053955D01*
X00029238Y00053951D01*
X00029249Y00053947D01*
X00029260Y00053943D01*
X00029271Y00053938D01*
X00029281Y00053933D01*
X00029292Y00053927D01*
X00029302Y00053921D01*
X00029312Y00053915D01*
X00029322Y00053908D01*
X00029332Y00053902D01*
X00029341Y00053894D01*
X00029351Y00053887D01*
X00029359Y00053879D01*
X00029368Y00053871D01*
X00029377Y00053863D01*
X00029385Y00053854D01*
X00029392Y00053845D01*
X00029400Y00053836D01*
X00029407Y00053826D01*
X00029414Y00053817D01*
X00029421Y00053807D01*
X00029427Y00053797D01*
X00029433Y00053786D01*
X00029438Y00053776D01*
X00029443Y00053765D01*
X00029448Y00053754D01*
X00029453Y00053743D01*
X00029457Y00053732D01*
X00029460Y00053721D01*
X00029464Y00053710D01*
X00029467Y00053698D01*
X00029469Y00053686D01*
X00029471Y00053675D01*
X00029473Y00053663D01*
X00029475Y00053651D01*
X00029476Y00053639D01*
X00029476Y00053628D01*
X00029476Y00053616D01*
X00029476Y00053604D01*
X00029476Y00053592D01*
X00029475Y00053580D01*
X00029473Y00053568D01*
X00029471Y00053557D01*
X00029469Y00053545D01*
X00029467Y00053533D01*
X00029464Y00053522D01*
X00029460Y00053511D01*
X00029457Y00053499D01*
X00029453Y00053488D01*
X00029448Y00053477D01*
X00029443Y00053466D01*
X00029438Y00053456D01*
X00029433Y00053445D01*
X00029427Y00053435D01*
X00029421Y00053425D01*
X00029414Y00053415D01*
X00029407Y00053405D01*
X00029400Y00053396D01*
X00029392Y00053387D01*
X00029385Y00053378D01*
X00029377Y00053369D01*
X00029368Y00053361D01*
X00029359Y00053352D01*
X00029351Y00053345D01*
X00029341Y00053337D01*
X00029332Y00053330D01*
X00029322Y00053323D01*
X00029312Y00053317D01*
X00029302Y00053310D01*
X00029292Y00053304D01*
X00029281Y00053299D01*
X00029271Y00053294D01*
X00029260Y00053289D01*
X00029249Y00053284D01*
X00029238Y00053280D01*
X00029227Y00053277D01*
X00029215Y00053273D01*
X00029204Y00053270D01*
X00029192Y00053268D01*
X00029180Y00053266D01*
X00029169Y00053264D01*
X00029157Y00053263D01*
X00029145Y00053262D01*
X00029133Y00053261D01*
X00029121Y00053261D01*
X00037121Y00053261D02*
X00037121Y00053261D01*
X00037109Y00053261D01*
X00037097Y00053262D01*
X00037086Y00053263D01*
X00037074Y00053264D01*
X00037062Y00053266D01*
X00037050Y00053268D01*
X00037039Y00053270D01*
X00037027Y00053273D01*
X00037016Y00053277D01*
X00037005Y00053280D01*
X00036993Y00053284D01*
X00036982Y00053289D01*
X00036972Y00053294D01*
X00036961Y00053299D01*
X00036950Y00053304D01*
X00036940Y00053310D01*
X00036930Y00053317D01*
X00036920Y00053323D01*
X00036910Y00053330D01*
X00036901Y00053337D01*
X00036892Y00053345D01*
X00036883Y00053352D01*
X00036874Y00053361D01*
X00036866Y00053369D01*
X00036858Y00053378D01*
X00036850Y00053387D01*
X00036842Y00053396D01*
X00036835Y00053405D01*
X00036828Y00053415D01*
X00036822Y00053425D01*
X00036816Y00053435D01*
X00036810Y00053445D01*
X00036804Y00053456D01*
X00036799Y00053466D01*
X00036794Y00053477D01*
X00036790Y00053488D01*
X00036786Y00053499D01*
X00036782Y00053511D01*
X00036779Y00053522D01*
X00036776Y00053533D01*
X00036773Y00053545D01*
X00036771Y00053557D01*
X00036769Y00053568D01*
X00036768Y00053580D01*
X00036767Y00053592D01*
X00036766Y00053604D01*
X00036766Y00053616D01*
X00036766Y00053628D01*
X00036767Y00053639D01*
X00036768Y00053651D01*
X00036769Y00053663D01*
X00036771Y00053675D01*
X00036773Y00053686D01*
X00036776Y00053698D01*
X00036779Y00053710D01*
X00036782Y00053721D01*
X00036786Y00053732D01*
X00036790Y00053743D01*
X00036794Y00053754D01*
X00036799Y00053765D01*
X00036804Y00053776D01*
X00036810Y00053786D01*
X00036816Y00053797D01*
X00036822Y00053807D01*
X00036828Y00053817D01*
X00036835Y00053826D01*
X00036842Y00053836D01*
X00036850Y00053845D01*
X00036858Y00053854D01*
X00036866Y00053863D01*
X00036874Y00053871D01*
X00036883Y00053879D01*
X00036892Y00053887D01*
X00036901Y00053894D01*
X00036910Y00053902D01*
X00036920Y00053908D01*
X00036930Y00053915D01*
X00036940Y00053921D01*
X00036950Y00053927D01*
X00036961Y00053933D01*
X00036972Y00053938D01*
X00036982Y00053943D01*
X00036993Y00053947D01*
X00037005Y00053951D01*
X00037016Y00053955D01*
X00037027Y00053958D01*
X00037039Y00053961D01*
X00037050Y00053964D01*
X00037062Y00053966D01*
X00037074Y00053968D01*
X00037086Y00053969D01*
X00037097Y00053970D01*
X00037109Y00053971D01*
X00037121Y00053971D01*
X00037133Y00053971D01*
X00037145Y00053970D01*
X00037157Y00053969D01*
X00037168Y00053968D01*
X00037180Y00053966D01*
X00037192Y00053964D01*
X00037203Y00053961D01*
X00037215Y00053958D01*
X00037226Y00053955D01*
X00037237Y00053951D01*
X00037249Y00053947D01*
X00037260Y00053943D01*
X00037270Y00053938D01*
X00037281Y00053933D01*
X00037292Y00053927D01*
X00037302Y00053921D01*
X00037312Y00053915D01*
X00037322Y00053908D01*
X00037332Y00053902D01*
X00037341Y00053894D01*
X00037350Y00053887D01*
X00037359Y00053879D01*
X00037368Y00053871D01*
X00037376Y00053863D01*
X00037384Y00053854D01*
X00037392Y00053845D01*
X00037400Y00053836D01*
X00037407Y00053826D01*
X00037414Y00053817D01*
X00037420Y00053807D01*
X00037426Y00053797D01*
X00037432Y00053786D01*
X00037438Y00053776D01*
X00037443Y00053765D01*
X00037448Y00053754D01*
X00037452Y00053743D01*
X00037456Y00053732D01*
X00037460Y00053721D01*
X00037463Y00053710D01*
X00037466Y00053698D01*
X00037469Y00053686D01*
X00037471Y00053675D01*
X00037473Y00053663D01*
X00037474Y00053651D01*
X00037475Y00053639D01*
X00037476Y00053628D01*
X00037476Y00053616D01*
X00037476Y00053604D01*
X00037475Y00053592D01*
X00037474Y00053580D01*
X00037473Y00053568D01*
X00037471Y00053557D01*
X00037469Y00053545D01*
X00037466Y00053533D01*
X00037463Y00053522D01*
X00037460Y00053511D01*
X00037456Y00053499D01*
X00037452Y00053488D01*
X00037448Y00053477D01*
X00037443Y00053466D01*
X00037438Y00053456D01*
X00037432Y00053445D01*
X00037426Y00053435D01*
X00037420Y00053425D01*
X00037414Y00053415D01*
X00037407Y00053405D01*
X00037400Y00053396D01*
X00037392Y00053387D01*
X00037384Y00053378D01*
X00037376Y00053369D01*
X00037368Y00053361D01*
X00037359Y00053352D01*
X00037350Y00053345D01*
X00037341Y00053337D01*
X00037332Y00053330D01*
X00037322Y00053323D01*
X00037312Y00053317D01*
X00037302Y00053310D01*
X00037292Y00053304D01*
X00037281Y00053299D01*
X00037270Y00053294D01*
X00037260Y00053289D01*
X00037249Y00053284D01*
X00037237Y00053280D01*
X00037226Y00053277D01*
X00037215Y00053273D01*
X00037203Y00053270D01*
X00037192Y00053268D01*
X00037180Y00053266D01*
X00037168Y00053264D01*
X00037157Y00053263D01*
X00037145Y00053262D01*
X00037133Y00053261D01*
X00037121Y00053261D01*
X00045122Y00053261D02*
X00045122Y00053261D01*
X00045110Y00053261D01*
X00045098Y00053262D01*
X00045086Y00053263D01*
X00045074Y00053264D01*
X00045063Y00053266D01*
X00045051Y00053268D01*
X00045039Y00053270D01*
X00045028Y00053273D01*
X00045016Y00053277D01*
X00045005Y00053280D01*
X00044994Y00053284D01*
X00044983Y00053289D01*
X00044972Y00053294D01*
X00044961Y00053299D01*
X00044951Y00053304D01*
X00044941Y00053310D01*
X00044931Y00053317D01*
X00044921Y00053323D01*
X00044911Y00053330D01*
X00044902Y00053337D01*
X00044892Y00053345D01*
X00044883Y00053352D01*
X00044875Y00053361D01*
X00044866Y00053369D01*
X00044858Y00053378D01*
X00044850Y00053387D01*
X00044843Y00053396D01*
X00044836Y00053405D01*
X00044829Y00053415D01*
X00044822Y00053425D01*
X00044816Y00053435D01*
X00044810Y00053445D01*
X00044805Y00053456D01*
X00044800Y00053466D01*
X00044795Y00053477D01*
X00044790Y00053488D01*
X00044786Y00053499D01*
X00044782Y00053511D01*
X00044779Y00053522D01*
X00044776Y00053533D01*
X00044774Y00053545D01*
X00044771Y00053557D01*
X00044770Y00053568D01*
X00044768Y00053580D01*
X00044767Y00053592D01*
X00044767Y00053604D01*
X00044767Y00053616D01*
X00044767Y00053628D01*
X00044767Y00053639D01*
X00044768Y00053651D01*
X00044770Y00053663D01*
X00044771Y00053675D01*
X00044774Y00053686D01*
X00044776Y00053698D01*
X00044779Y00053710D01*
X00044782Y00053721D01*
X00044786Y00053732D01*
X00044790Y00053743D01*
X00044795Y00053754D01*
X00044800Y00053765D01*
X00044805Y00053776D01*
X00044810Y00053786D01*
X00044816Y00053797D01*
X00044822Y00053807D01*
X00044829Y00053817D01*
X00044836Y00053826D01*
X00044843Y00053836D01*
X00044850Y00053845D01*
X00044858Y00053854D01*
X00044866Y00053863D01*
X00044875Y00053871D01*
X00044883Y00053879D01*
X00044892Y00053887D01*
X00044902Y00053894D01*
X00044911Y00053902D01*
X00044921Y00053908D01*
X00044931Y00053915D01*
X00044941Y00053921D01*
X00044951Y00053927D01*
X00044961Y00053933D01*
X00044972Y00053938D01*
X00044983Y00053943D01*
X00044994Y00053947D01*
X00045005Y00053951D01*
X00045016Y00053955D01*
X00045028Y00053958D01*
X00045039Y00053961D01*
X00045051Y00053964D01*
X00045063Y00053966D01*
X00045074Y00053968D01*
X00045086Y00053969D01*
X00045098Y00053970D01*
X00045110Y00053971D01*
X00045122Y00053971D01*
X00045133Y00053971D01*
X00045145Y00053970D01*
X00045157Y00053969D01*
X00045169Y00053968D01*
X00045181Y00053966D01*
X00045192Y00053964D01*
X00045204Y00053961D01*
X00045215Y00053958D01*
X00045227Y00053955D01*
X00045238Y00053951D01*
X00045249Y00053947D01*
X00045260Y00053943D01*
X00045271Y00053938D01*
X00045282Y00053933D01*
X00045292Y00053927D01*
X00045302Y00053921D01*
X00045313Y00053915D01*
X00045322Y00053908D01*
X00045332Y00053902D01*
X00045342Y00053894D01*
X00045351Y00053887D01*
X00045360Y00053879D01*
X00045368Y00053871D01*
X00045377Y00053863D01*
X00045385Y00053854D01*
X00045393Y00053845D01*
X00045400Y00053836D01*
X00045407Y00053826D01*
X00045414Y00053817D01*
X00045421Y00053807D01*
X00045427Y00053797D01*
X00045433Y00053786D01*
X00045438Y00053776D01*
X00045444Y00053765D01*
X00045448Y00053754D01*
X00045453Y00053743D01*
X00045457Y00053732D01*
X00045461Y00053721D01*
X00045464Y00053710D01*
X00045467Y00053698D01*
X00045469Y00053686D01*
X00045472Y00053675D01*
X00045473Y00053663D01*
X00045475Y00053651D01*
X00045476Y00053639D01*
X00045476Y00053628D01*
X00045477Y00053616D01*
X00045476Y00053604D01*
X00045476Y00053592D01*
X00045475Y00053580D01*
X00045473Y00053568D01*
X00045472Y00053557D01*
X00045469Y00053545D01*
X00045467Y00053533D01*
X00045464Y00053522D01*
X00045461Y00053511D01*
X00045457Y00053499D01*
X00045453Y00053488D01*
X00045448Y00053477D01*
X00045444Y00053466D01*
X00045438Y00053456D01*
X00045433Y00053445D01*
X00045427Y00053435D01*
X00045421Y00053425D01*
X00045414Y00053415D01*
X00045407Y00053405D01*
X00045400Y00053396D01*
X00045393Y00053387D01*
X00045385Y00053378D01*
X00045377Y00053369D01*
X00045368Y00053361D01*
X00045360Y00053352D01*
X00045351Y00053345D01*
X00045342Y00053337D01*
X00045332Y00053330D01*
X00045322Y00053323D01*
X00045313Y00053317D01*
X00045302Y00053310D01*
X00045292Y00053304D01*
X00045282Y00053299D01*
X00045271Y00053294D01*
X00045260Y00053289D01*
X00045249Y00053284D01*
X00045238Y00053280D01*
X00045227Y00053277D01*
X00045215Y00053273D01*
X00045204Y00053270D01*
X00045192Y00053268D01*
X00045181Y00053266D01*
X00045169Y00053264D01*
X00045157Y00053263D01*
X00045145Y00053262D01*
X00045133Y00053261D01*
X00045122Y00053261D01*
X00006057Y00055562D02*
X00006057Y00055562D01*
X00037488Y00055562D01*
X00037512Y00055562D01*
X00037537Y00055559D01*
X00037561Y00055556D01*
X00037584Y00055551D01*
X00037608Y00055544D01*
X00037630Y00055536D01*
X00037653Y00055526D01*
X00037675Y00055516D01*
X00037696Y00055503D01*
X00037716Y00055490D01*
X00037735Y00055475D01*
X00037754Y00055459D01*
X00037771Y00055443D01*
X00037787Y00055425D01*
X00037803Y00055406D01*
X00037817Y00055386D01*
X00037829Y00055365D01*
X00037841Y00055344D01*
X00037851Y00055322D01*
X00037860Y00055299D01*
X00037967Y00054992D01*
X00037978Y00054956D01*
X00037985Y00054919D01*
X00037989Y00054882D01*
X00037989Y00054845D01*
X00037985Y00054807D01*
X00037978Y00054770D01*
X00037968Y00054734D01*
X00037954Y00054699D01*
X00037937Y00054666D01*
X00037917Y00054634D01*
X00037893Y00054605D01*
X00037868Y00054578D01*
X00037839Y00054553D01*
X00037809Y00054531D01*
X00037776Y00054512D01*
X00037742Y00054497D01*
X00037707Y00054484D01*
X00037670Y00054476D01*
X00037633Y00054470D01*
X00037596Y00054468D01*
X00017085Y00054468D01*
X00017074Y00054468D01*
X00017064Y00054468D01*
X00017053Y00054467D01*
X00017042Y00054465D01*
X00017032Y00054464D01*
X00017021Y00054461D01*
X00017011Y00054459D01*
X00017000Y00054456D01*
X00016990Y00054453D01*
X00016980Y00054449D01*
X00016970Y00054446D01*
X00016960Y00054441D01*
X00016951Y00054437D01*
X00016941Y00054432D01*
X00016932Y00054426D01*
X00016923Y00054421D01*
X00016914Y00054415D01*
X00016905Y00054409D01*
X00016897Y00054402D01*
X00016888Y00054395D01*
X00016881Y00054388D01*
X00016873Y00054380D01*
X00016865Y00054373D01*
X00016858Y00054365D01*
X00016851Y00054357D01*
X00016845Y00054348D01*
X00016839Y00054339D01*
X00016833Y00054331D01*
X00016827Y00054321D01*
X00016822Y00054312D01*
X00016817Y00054303D01*
X00016812Y00054293D01*
X00016808Y00054283D01*
X00016804Y00054273D01*
X00016800Y00054263D01*
X00016797Y00054253D01*
X00016794Y00054243D01*
X00016792Y00054232D01*
X00016790Y00054222D01*
X00016788Y00054211D01*
X00016787Y00054200D01*
X00016786Y00054190D01*
X00016785Y00054179D01*
X00016785Y00054168D01*
X00016785Y00052171D01*
X00016783Y00052135D01*
X00016779Y00052100D01*
X00016771Y00052066D01*
X00016760Y00052032D01*
X00016746Y00051999D01*
X00016729Y00051968D01*
X00016709Y00051939D01*
X00016687Y00051911D01*
X00016662Y00051885D01*
X00016636Y00051862D01*
X00016607Y00051841D01*
X00016576Y00051823D01*
X00016544Y00051808D01*
X00016511Y00051796D01*
X00016477Y00051787D01*
X00016442Y00051780D01*
X00016406Y00051777D01*
X00016371Y00051778D01*
X00016336Y00051781D01*
X00016301Y00051788D01*
X00015951Y00051870D01*
X00015925Y00051877D01*
X00015900Y00051886D01*
X00015876Y00051896D01*
X00015853Y00051908D01*
X00015830Y00051921D01*
X00015808Y00051936D01*
X00015787Y00051953D01*
X00015768Y00051970D01*
X00015750Y00051989D01*
X00015732Y00052009D01*
X00015717Y00052030D01*
X00015703Y00052053D01*
X00015690Y00052076D01*
X00015679Y00052100D01*
X00015669Y00052124D01*
X00015662Y00052149D01*
X00015655Y00052175D01*
X00015651Y00052201D01*
X00015648Y00052227D01*
X00015648Y00052254D01*
X00015648Y00054036D01*
X00006141Y00054036D01*
X00006112Y00054038D01*
X00006084Y00054041D01*
X00006055Y00054046D01*
X00006028Y00054053D01*
X00006000Y00054062D01*
X00005974Y00054074D01*
X00005948Y00054087D01*
X00005924Y00054102D01*
X00005901Y00054118D01*
X00005879Y00054136D01*
X00005858Y00054156D01*
X00005839Y00054178D01*
X00005821Y00054200D01*
X00005805Y00054224D01*
X00005791Y00054249D01*
X00005779Y00054275D01*
X00005769Y00054302D01*
X00005760Y00054329D01*
X00005754Y00054357D01*
X00005750Y00054386D01*
X00005666Y00055124D01*
X00005663Y00055157D01*
X00005664Y00055191D01*
X00005667Y00055224D01*
X00005673Y00055256D01*
X00005682Y00055288D01*
X00005693Y00055319D01*
X00005707Y00055349D01*
X00005723Y00055378D01*
X00005742Y00055405D01*
X00005763Y00055431D01*
X00005786Y00055455D01*
X00005811Y00055477D01*
X00005838Y00055496D01*
X00005866Y00055513D01*
X00005896Y00055528D01*
X00005927Y00055540D01*
X00005958Y00055550D01*
X00005991Y00055557D01*
X00006024Y00055561D01*
X00006057Y00055562D01*
X00043224Y00029246D02*
X00043224Y00029246D01*
X00040123Y00029246D01*
X00040115Y00029246D01*
X00040108Y00029246D01*
X00040100Y00029246D01*
X00040093Y00029247D01*
X00040086Y00029248D01*
X00040078Y00029248D01*
X00040071Y00029249D01*
X00040063Y00029250D01*
X00040056Y00029252D01*
X00040048Y00029253D01*
X00040041Y00029254D01*
X00040034Y00029256D01*
X00040026Y00029258D01*
X00040019Y00029260D01*
X00040012Y00029262D01*
X00040005Y00029264D01*
X00039998Y00029266D01*
X00039990Y00029269D01*
X00039983Y00029271D01*
X00039976Y00029274D01*
X00039876Y00029314D01*
X00039828Y00029338D01*
X00039782Y00029368D01*
X00039742Y00029404D01*
X00039707Y00029445D01*
X00039677Y00029491D01*
X00039655Y00029540D01*
X00039639Y00029592D01*
X00039631Y00029646D01*
X00039630Y00029700D01*
X00039637Y00029754D01*
X00039650Y00029807D01*
X00039672Y00029857D01*
X00039699Y00029903D01*
X00039733Y00029946D01*
X00039772Y00029983D01*
X00039817Y00030015D01*
X00039865Y00030040D01*
X00039916Y00030058D01*
X00039969Y00030070D01*
X00040023Y00030073D01*
X00047500Y00030073D01*
X00047516Y00041456D01*
X00047517Y00041487D01*
X00047521Y00041517D01*
X00047527Y00041547D01*
X00047535Y00041576D01*
X00047545Y00041604D01*
X00047558Y00041632D01*
X00047572Y00041659D01*
X00047589Y00041684D01*
X00047607Y00041708D01*
X00047628Y00041731D01*
X00047650Y00041751D01*
X00047673Y00041771D01*
X00047698Y00041788D01*
X00047724Y00041803D01*
X00047752Y00041816D01*
X00047780Y00041827D01*
X00047809Y00041836D01*
X00047839Y00041843D01*
X00047869Y00041847D01*
X00047899Y00041849D01*
X00048155Y00041856D01*
X00048186Y00041856D01*
X00048217Y00041853D01*
X00048248Y00041847D01*
X00048279Y00041840D01*
X00048308Y00041829D01*
X00048337Y00041817D01*
X00048365Y00041802D01*
X00048391Y00041785D01*
X00048416Y00041766D01*
X00048440Y00041745D01*
X00048461Y00041722D01*
X00048481Y00041698D01*
X00048499Y00041672D01*
X00048515Y00041644D01*
X00048528Y00041616D01*
X00048539Y00041586D01*
X00048548Y00041556D01*
X00048554Y00041525D01*
X00048558Y00041494D01*
X00048559Y00041463D01*
X00048559Y00023324D01*
X00048557Y00023285D01*
X00048551Y00023246D01*
X00048542Y00023208D01*
X00048528Y00023171D01*
X00048511Y00023136D01*
X00048491Y00023103D01*
X00048467Y00023071D01*
X00048441Y00023043D01*
X00048412Y00023017D01*
X00048380Y00022994D01*
X00048346Y00022974D01*
X00048311Y00022958D01*
X00048274Y00022945D01*
X00048235Y00022936D01*
X00048197Y00022931D01*
X00048158Y00022930D01*
X00048119Y00022933D01*
X00048080Y00022939D01*
X00048042Y00022950D01*
X00048006Y00022964D01*
X00047458Y00023206D01*
X00047438Y00023216D01*
X00047418Y00023227D01*
X00047399Y00023239D01*
X00047380Y00023252D01*
X00047362Y00023267D01*
X00047346Y00023282D01*
X00047330Y00023298D01*
X00047315Y00023315D01*
X00047301Y00023333D01*
X00047288Y00023352D01*
X00047276Y00023371D01*
X00047265Y00023391D01*
X00047256Y00023412D01*
X00047247Y00023433D01*
X00047240Y00023454D01*
X00047234Y00023476D01*
X00047230Y00023499D01*
X00047227Y00023521D01*
X00047225Y00023544D01*
X00047224Y00023566D01*
X00047224Y00025246D01*
X00043224Y00025246D01*
X00043224Y00029246D01*
X00048559Y00008963D02*
X00048559Y00008963D01*
X00048558Y00008937D01*
X00048555Y00008911D01*
X00048551Y00008885D01*
X00048545Y00008860D01*
X00048537Y00008834D01*
X00048528Y00008810D01*
X00048517Y00008786D01*
X00048504Y00008763D01*
X00048490Y00008741D01*
X00048474Y00008720D01*
X00048457Y00008700D01*
X00048439Y00008681D01*
X00048420Y00008663D01*
X00048399Y00008647D01*
X00048377Y00008632D01*
X00048355Y00008618D01*
X00048331Y00008607D01*
X00048307Y00008596D01*
X00048282Y00008588D01*
X00048257Y00008581D01*
X00047710Y00008449D01*
X00047675Y00008443D01*
X00047639Y00008439D01*
X00047604Y00008439D01*
X00047568Y00008442D01*
X00047533Y00008448D01*
X00047499Y00008457D01*
X00047466Y00008469D01*
X00047433Y00008484D01*
X00047403Y00008502D01*
X00047374Y00008523D01*
X00047347Y00008546D01*
X00047322Y00008572D01*
X00047300Y00008599D01*
X00047280Y00008629D01*
X00047263Y00008660D01*
X00047249Y00008693D01*
X00047238Y00008727D01*
X00047230Y00008761D01*
X00047226Y00008797D01*
X00047224Y00008832D01*
X00047224Y00020527D01*
X00047225Y00020550D01*
X00047227Y00020572D01*
X00047230Y00020595D01*
X00047234Y00020617D01*
X00047240Y00020639D01*
X00047247Y00020661D01*
X00047256Y00020682D01*
X00047265Y00020702D01*
X00047276Y00020722D01*
X00047288Y00020742D01*
X00047301Y00020761D01*
X00047315Y00020778D01*
X00047330Y00020795D01*
X00047346Y00020812D01*
X00047362Y00020827D01*
X00047380Y00020841D01*
X00047399Y00020854D01*
X00047418Y00020866D01*
X00047438Y00020877D01*
X00047458Y00020887D01*
X00048006Y00021130D01*
X00048042Y00021144D01*
X00048080Y00021154D01*
X00048119Y00021161D01*
X00048158Y00021163D01*
X00048197Y00021162D01*
X00048235Y00021157D01*
X00048274Y00021148D01*
X00048311Y00021136D01*
X00048346Y00021119D01*
X00048380Y00021100D01*
X00048412Y00021077D01*
X00048441Y00021051D01*
X00048467Y00021022D01*
X00048491Y00020991D01*
X00048511Y00020958D01*
X00048528Y00020922D01*
X00048542Y00020885D01*
X00048551Y00020848D01*
X00048557Y00020809D01*
X00048559Y00020770D01*
X00048559Y00008963D01*
X00009423Y00029246D02*
X00009423Y00029246D01*
X00009403Y00029246D01*
X00009384Y00029248D01*
X00009365Y00029250D01*
X00009345Y00029254D01*
X00009326Y00029258D01*
X00009307Y00029263D01*
X00009289Y00029269D01*
X00009271Y00029276D01*
X00009253Y00029284D01*
X00009235Y00029293D01*
X00009218Y00029303D01*
X00009202Y00029314D01*
X00009186Y00029325D01*
X00009171Y00029337D01*
X00009156Y00029350D01*
X00009142Y00029364D01*
X00009129Y00029378D01*
X00009116Y00029393D01*
X00009104Y00029408D01*
X00009093Y00029425D01*
X00008845Y00029806D01*
X00008824Y00029842D01*
X00008806Y00029881D01*
X00008794Y00029921D01*
X00008785Y00029963D01*
X00008781Y00030005D01*
X00008782Y00030047D01*
X00008787Y00030089D01*
X00008796Y00030130D01*
X00008810Y00030170D01*
X00008828Y00030208D01*
X00008850Y00030244D01*
X00008876Y00030278D01*
X00008906Y00030308D01*
X00008938Y00030335D01*
X00008973Y00030359D01*
X00009010Y00030379D01*
X00009050Y00030394D01*
X00009091Y00030405D01*
X00009132Y00030412D01*
X00009174Y00030414D01*
X00015648Y00030414D01*
X00015648Y00033966D01*
X00015649Y00034000D01*
X00015653Y00034034D01*
X00015661Y00034067D01*
X00015671Y00034099D01*
X00015684Y00034131D01*
X00015699Y00034161D01*
X00015717Y00034190D01*
X00015738Y00034217D01*
X00015761Y00034242D01*
X00015785Y00034265D01*
X00015812Y00034286D01*
X00015841Y00034305D01*
X00015871Y00034321D01*
X00015902Y00034334D01*
X00015934Y00034345D01*
X00015967Y00034353D01*
X00016001Y00034358D01*
X00016035Y00034360D01*
X00016069Y00034359D01*
X00016102Y00034355D01*
X00016248Y00034332D01*
X00016275Y00034327D01*
X00016302Y00034319D01*
X00016329Y00034310D01*
X00016354Y00034299D01*
X00016379Y00034287D01*
X00016403Y00034272D01*
X00016426Y00034256D01*
X00016447Y00034238D01*
X00016467Y00034219D01*
X00016486Y00034199D01*
X00016503Y00034177D01*
X00016519Y00034154D01*
X00016533Y00034130D01*
X00016546Y00034105D01*
X00016556Y00034079D01*
X00016565Y00034052D01*
X00016572Y00034025D01*
X00016577Y00033998D01*
X00016579Y00033970D01*
X00016580Y00033942D01*
X00016575Y00030073D01*
X00037929Y00030073D01*
X00037983Y00030070D01*
X00038036Y00030058D01*
X00038087Y00030040D01*
X00038135Y00030015D01*
X00038179Y00029983D01*
X00038219Y00029946D01*
X00038253Y00029903D01*
X00038280Y00029857D01*
X00038301Y00029807D01*
X00038315Y00029754D01*
X00038322Y00029700D01*
X00038321Y00029646D01*
X00038313Y00029592D01*
X00038297Y00029540D01*
X00038274Y00029491D01*
X00038245Y00029445D01*
X00038210Y00029404D01*
X00038169Y00029368D01*
X00038124Y00029338D01*
X00038075Y00029314D01*
X00037975Y00029274D01*
X00037968Y00029271D01*
X00037961Y00029269D01*
X00037954Y00029266D01*
X00037947Y00029264D01*
X00037940Y00029262D01*
X00037933Y00029260D01*
X00037925Y00029258D01*
X00037918Y00029256D01*
X00037911Y00029254D01*
X00037903Y00029253D01*
X00037896Y00029252D01*
X00037889Y00029250D01*
X00037881Y00029249D01*
X00037874Y00029248D01*
X00037866Y00029248D01*
X00037859Y00029247D01*
X00037851Y00029246D01*
X00037844Y00029246D01*
X00037836Y00029246D01*
X00037829Y00029246D01*
X00009423Y00029246D01*
X00015648Y00050108D02*
X00015648Y00050108D01*
X00015648Y00050134D01*
X00015651Y00050160D01*
X00015655Y00050186D01*
X00015662Y00050212D01*
X00015669Y00050237D01*
X00015679Y00050262D01*
X00015690Y00050285D01*
X00015703Y00050309D01*
X00015717Y00050331D01*
X00015732Y00050352D01*
X00015750Y00050372D01*
X00015768Y00050391D01*
X00015787Y00050409D01*
X00015808Y00050425D01*
X00015830Y00050440D01*
X00015853Y00050453D01*
X00015876Y00050465D01*
X00015900Y00050475D01*
X00015925Y00050484D01*
X00015951Y00050491D01*
X00016301Y00050573D01*
X00016336Y00050580D01*
X00016371Y00050583D01*
X00016406Y00050584D01*
X00016442Y00050581D01*
X00016477Y00050575D01*
X00016511Y00050565D01*
X00016544Y00050553D01*
X00016576Y00050538D01*
X00016607Y00050520D01*
X00016636Y00050499D01*
X00016662Y00050476D01*
X00016687Y00050450D01*
X00016709Y00050423D01*
X00016729Y00050393D01*
X00016746Y00050362D01*
X00016760Y00050329D01*
X00016771Y00050295D01*
X00016779Y00050261D01*
X00016783Y00050226D01*
X00016785Y00050190D01*
X00016785Y00049368D01*
X00016785Y00049358D01*
X00016786Y00049347D01*
X00016787Y00049336D01*
X00016788Y00049326D01*
X00016790Y00049315D01*
X00016792Y00049305D01*
X00016794Y00049294D01*
X00016797Y00049284D01*
X00016800Y00049274D01*
X00016804Y00049264D01*
X00016808Y00049254D01*
X00016812Y00049244D01*
X00016817Y00049234D01*
X00016822Y00049225D01*
X00016827Y00049215D01*
X00016833Y00049206D01*
X00016839Y00049197D01*
X00016845Y00049189D01*
X00016851Y00049180D01*
X00016858Y00049172D01*
X00016865Y00049164D01*
X00016873Y00049156D01*
X00016881Y00049149D01*
X00016888Y00049142D01*
X00016897Y00049135D01*
X00016905Y00049128D01*
X00016914Y00049122D01*
X00016923Y00049116D01*
X00016932Y00049110D01*
X00016941Y00049105D01*
X00016951Y00049100D01*
X00016960Y00049095D01*
X00016970Y00049091D01*
X00016980Y00049087D01*
X00016990Y00049084D01*
X00017000Y00049081D01*
X00017011Y00049078D01*
X00017021Y00049075D01*
X00017032Y00049073D01*
X00017042Y00049071D01*
X00017053Y00049070D01*
X00017064Y00049069D01*
X00017074Y00049069D01*
X00017085Y00049068D01*
X00030505Y00049068D01*
X00030549Y00049066D01*
X00030593Y00049059D01*
X00030635Y00049046D01*
X00030676Y00049030D01*
X00030714Y00049008D01*
X00030750Y00048983D01*
X00030783Y00048954D01*
X00030813Y00048921D01*
X00030838Y00048885D01*
X00030860Y00048846D01*
X00030877Y00048806D01*
X00030889Y00048763D01*
X00030896Y00048720D01*
X00030899Y00048676D01*
X00030897Y00048632D01*
X00030889Y00048588D01*
X00030877Y00048546D01*
X00030861Y00048505D01*
X00030840Y00048467D01*
X00030814Y00048431D01*
X00030670Y00048248D01*
X00030658Y00048234D01*
X00030646Y00048221D01*
X00030634Y00048208D01*
X00030621Y00048196D01*
X00030607Y00048185D01*
X00030593Y00048174D01*
X00030579Y00048164D01*
X00030564Y00048154D01*
X00030548Y00048146D01*
X00030532Y00048137D01*
X00030516Y00048130D01*
X00030500Y00048123D01*
X00030483Y00048118D01*
X00030466Y00048112D01*
X00030449Y00048108D01*
X00030431Y00048105D01*
X00030414Y00048102D01*
X00030396Y00048100D01*
X00030378Y00048099D01*
X00030360Y00048098D01*
X00016600Y00048109D01*
X00016583Y00036134D01*
X00016582Y00036106D01*
X00016579Y00036078D01*
X00016574Y00036051D01*
X00016568Y00036024D01*
X00016559Y00035997D01*
X00016548Y00035972D01*
X00016536Y00035947D01*
X00016522Y00035923D01*
X00016506Y00035900D01*
X00016488Y00035878D01*
X00016469Y00035857D01*
X00016449Y00035838D01*
X00016427Y00035821D01*
X00016405Y00035805D01*
X00016381Y00035790D01*
X00016356Y00035778D01*
X00016330Y00035767D01*
X00016304Y00035758D01*
X00016277Y00035751D01*
X00016249Y00035745D01*
X00016101Y00035723D01*
X00016067Y00035719D01*
X00016033Y00035718D01*
X00015999Y00035720D01*
X00015966Y00035725D01*
X00015933Y00035733D01*
X00015901Y00035744D01*
X00015870Y00035757D01*
X00015840Y00035774D01*
X00015811Y00035792D01*
X00015785Y00035813D01*
X00015760Y00035836D01*
X00015737Y00035861D01*
X00015717Y00035889D01*
X00015699Y00035917D01*
X00015683Y00035947D01*
X00015671Y00035979D01*
X00015661Y00036011D01*
X00015653Y00036044D01*
X00015649Y00036078D01*
X00015648Y00036112D01*
X00015648Y00050108D01*
X00003391Y00055562D02*
X00003391Y00055562D01*
X00003424Y00055561D01*
X00003457Y00055557D01*
X00003489Y00055550D01*
X00003521Y00055540D01*
X00003552Y00055528D01*
X00003581Y00055513D01*
X00003610Y00055496D01*
X00003637Y00055477D01*
X00003662Y00055455D01*
X00003685Y00055431D01*
X00003706Y00055405D01*
X00003724Y00055378D01*
X00003741Y00055349D01*
X00003755Y00055319D01*
X00003766Y00055288D01*
X00003775Y00055256D01*
X00003781Y00055224D01*
X00003784Y00055191D01*
X00003784Y00055157D01*
X00003782Y00055124D01*
X00003698Y00054386D01*
X00003694Y00054357D01*
X00003688Y00054329D01*
X00003679Y00054302D01*
X00003669Y00054275D01*
X00003657Y00054249D01*
X00003643Y00054224D01*
X00003627Y00054200D01*
X00003609Y00054178D01*
X00003590Y00054156D01*
X00003569Y00054136D01*
X00003547Y00054118D01*
X00003524Y00054102D01*
X00003499Y00054087D01*
X00003474Y00054074D01*
X00003447Y00054062D01*
X00003420Y00054053D01*
X00003392Y00054046D01*
X00003364Y00054041D01*
X00003336Y00054038D01*
X00003307Y00054036D01*
X-00000099Y00054036D01*
X-00000099Y00030414D01*
X00006573Y00030414D01*
X00006615Y00030412D01*
X00006656Y00030405D01*
X00006697Y00030394D01*
X00006737Y00030379D01*
X00006774Y00030359D01*
X00006809Y00030335D01*
X00006841Y00030308D01*
X00006871Y00030278D01*
X00006897Y00030244D01*
X00006919Y00030208D01*
X00006937Y00030170D01*
X00006951Y00030130D01*
X00006960Y00030089D01*
X00006965Y00030047D01*
X00006966Y00030005D01*
X00006962Y00029963D01*
X00006953Y00029921D01*
X00006941Y00029881D01*
X00006924Y00029842D01*
X00006902Y00029806D01*
X00006654Y00029425D01*
X00006643Y00029408D01*
X00006631Y00029393D01*
X00006618Y00029378D01*
X00006605Y00029364D01*
X00006591Y00029350D01*
X00006576Y00029337D01*
X00006561Y00029325D01*
X00006545Y00029314D01*
X00006529Y00029303D01*
X00006512Y00029293D01*
X00006494Y00029284D01*
X00006476Y00029276D01*
X00006458Y00029269D01*
X00006440Y00029263D01*
X00006421Y00029258D01*
X00006402Y00029254D01*
X00006382Y00029250D01*
X00006363Y00029248D01*
X00006344Y00029246D01*
X00006324Y00029246D01*
X00004274Y00029246D01*
X00004274Y00025246D01*
X00000274Y00025246D01*
X00000274Y00003796D01*
X00004274Y00003796D01*
X00004274Y-00000203D01*
X00043224Y-00000203D01*
X00043224Y00003796D01*
X00047224Y00003796D01*
X00047224Y00006128D01*
X00047226Y00006163D01*
X00047230Y00006198D01*
X00047238Y00006233D01*
X00047249Y00006267D01*
X00047263Y00006299D01*
X00047280Y00006331D01*
X00047300Y00006360D01*
X00047322Y00006388D01*
X00047347Y00006413D01*
X00047374Y00006437D01*
X00047403Y00006457D01*
X00047433Y00006475D01*
X00047466Y00006491D01*
X00047499Y00006503D01*
X00047533Y00006512D01*
X00047568Y00006518D01*
X00047604Y00006521D01*
X00047639Y00006521D01*
X00047675Y00006517D01*
X00047710Y00006510D01*
X00048257Y00006379D01*
X00048282Y00006372D01*
X00048307Y00006363D01*
X00048331Y00006353D01*
X00048355Y00006341D01*
X00048377Y00006328D01*
X00048399Y00006313D01*
X00048420Y00006297D01*
X00048439Y00006279D01*
X00048457Y00006260D01*
X00048474Y00006240D01*
X00048490Y00006219D01*
X00048504Y00006197D01*
X00048517Y00006174D01*
X00048528Y00006150D01*
X00048537Y00006125D01*
X00048545Y00006100D01*
X00048551Y00006074D01*
X00048555Y00006049D01*
X00048558Y00006022D01*
X00048559Y00005996D01*
X00048559Y-00000252D01*
X00072559Y-00000252D01*
X00072559Y00046747D01*
X00048559Y00046747D01*
X00048559Y00043576D01*
X00048558Y00043544D01*
X00048554Y00043513D01*
X00048548Y00043482D01*
X00048539Y00043452D01*
X00048528Y00043422D01*
X00048514Y00043394D01*
X00048499Y00043367D01*
X00048481Y00043341D01*
X00048461Y00043316D01*
X00048440Y00043293D01*
X00048416Y00043272D01*
X00048391Y00043253D01*
X00048365Y00043236D01*
X00048337Y00043221D01*
X00048308Y00043209D01*
X00048278Y00043199D01*
X00048248Y00043191D01*
X00048217Y00043185D01*
X00048185Y00043183D01*
X00048154Y00043182D01*
X00047901Y00043189D01*
X00047871Y00043191D01*
X00047841Y00043196D01*
X00047811Y00043203D01*
X00047782Y00043211D01*
X00047754Y00043223D01*
X00047727Y00043236D01*
X00047701Y00043251D01*
X00047676Y00043269D01*
X00047652Y00043288D01*
X00047630Y00043309D01*
X00047610Y00043331D01*
X00047591Y00043356D01*
X00047575Y00043381D01*
X00047560Y00043408D01*
X00047548Y00043435D01*
X00047537Y00043464D01*
X00047529Y00043493D01*
X00047524Y00043523D01*
X00047520Y00043553D01*
X00047519Y00043584D01*
X00047525Y00048084D01*
X00032630Y00048096D01*
X00032612Y00048097D01*
X00032594Y00048098D01*
X00032577Y00048100D01*
X00032559Y00048103D01*
X00032542Y00048106D01*
X00032524Y00048111D01*
X00032507Y00048116D01*
X00032491Y00048122D01*
X00032474Y00048129D01*
X00032458Y00048136D01*
X00032442Y00048144D01*
X00032427Y00048153D01*
X00032412Y00048163D01*
X00032397Y00048173D01*
X00032383Y00048184D01*
X00032369Y00048195D01*
X00032356Y00048208D01*
X00032344Y00048220D01*
X00032332Y00048234D01*
X00032320Y00048247D01*
X00032176Y00048432D01*
X00032151Y00048468D01*
X00032130Y00048507D01*
X00032113Y00048548D01*
X00032101Y00048590D01*
X00032094Y00048633D01*
X00032092Y00048677D01*
X00032095Y00048721D01*
X00032102Y00048764D01*
X00032115Y00048807D01*
X00032132Y00048847D01*
X00032153Y00048886D01*
X00032179Y00048921D01*
X00032208Y00048954D01*
X00032241Y00048983D01*
X00032277Y00049009D01*
X00032316Y00049030D01*
X00032356Y00049046D01*
X00032399Y00049059D01*
X00032442Y00049066D01*
X00032486Y00049068D01*
X00049085Y00049068D01*
X00049096Y00049069D01*
X00049106Y00049069D01*
X00049117Y00049070D01*
X00049128Y00049071D01*
X00049138Y00049073D01*
X00049149Y00049075D01*
X00049159Y00049078D01*
X00049169Y00049081D01*
X00049180Y00049084D01*
X00049190Y00049087D01*
X00049200Y00049091D01*
X00049210Y00049095D01*
X00049219Y00049100D01*
X00049229Y00049105D01*
X00049238Y00049110D01*
X00049247Y00049116D01*
X00049256Y00049122D01*
X00049265Y00049128D01*
X00049273Y00049135D01*
X00049281Y00049142D01*
X00049289Y00049149D01*
X00049297Y00049156D01*
X00049305Y00049164D01*
X00049312Y00049172D01*
X00049319Y00049180D01*
X00049325Y00049189D01*
X00049331Y00049197D01*
X00049337Y00049206D01*
X00049343Y00049215D01*
X00049348Y00049225D01*
X00049353Y00049234D01*
X00049358Y00049244D01*
X00049362Y00049254D01*
X00049366Y00049264D01*
X00049370Y00049274D01*
X00049373Y00049284D01*
X00049376Y00049294D01*
X00049378Y00049305D01*
X00049380Y00049315D01*
X00049382Y00049326D01*
X00049383Y00049336D01*
X00049384Y00049347D01*
X00049385Y00049358D01*
X00049385Y00049368D01*
X00049385Y00054168D01*
X00049385Y00054179D01*
X00049384Y00054190D01*
X00049383Y00054200D01*
X00049382Y00054211D01*
X00049380Y00054222D01*
X00049378Y00054232D01*
X00049376Y00054243D01*
X00049373Y00054253D01*
X00049370Y00054263D01*
X00049366Y00054273D01*
X00049362Y00054283D01*
X00049358Y00054293D01*
X00049353Y00054303D01*
X00049348Y00054312D01*
X00049343Y00054321D01*
X00049337Y00054331D01*
X00049331Y00054339D01*
X00049325Y00054348D01*
X00049319Y00054357D01*
X00049312Y00054365D01*
X00049305Y00054373D01*
X00049297Y00054380D01*
X00049289Y00054388D01*
X00049281Y00054395D01*
X00049273Y00054402D01*
X00049265Y00054409D01*
X00049256Y00054415D01*
X00049247Y00054421D01*
X00049238Y00054426D01*
X00049229Y00054432D01*
X00049219Y00054437D01*
X00049210Y00054441D01*
X00049200Y00054446D01*
X00049190Y00054449D01*
X00049180Y00054453D01*
X00049169Y00054456D01*
X00049159Y00054459D01*
X00049149Y00054461D01*
X00049138Y00054464D01*
X00049128Y00054465D01*
X00049117Y00054467D01*
X00049106Y00054468D01*
X00049096Y00054468D01*
X00049085Y00054468D01*
X00039569Y00054468D01*
X00039531Y00054470D01*
X00039494Y00054476D01*
X00039458Y00054484D01*
X00039422Y00054497D01*
X00039388Y00054512D01*
X00039356Y00054531D01*
X00039325Y00054553D01*
X00039297Y00054578D01*
X00039271Y00054605D01*
X00039248Y00054634D01*
X00039227Y00054666D01*
X00039210Y00054699D01*
X00039196Y00054734D01*
X00039186Y00054770D01*
X00039179Y00054807D01*
X00039176Y00054845D01*
X00039176Y00054882D01*
X00039179Y00054919D01*
X00039187Y00054956D01*
X00039197Y00054992D01*
X00039305Y00055299D01*
X00039313Y00055322D01*
X00039324Y00055344D01*
X00039335Y00055365D01*
X00039348Y00055386D01*
X00039362Y00055406D01*
X00039377Y00055425D01*
X00039393Y00055443D01*
X00039411Y00055459D01*
X00039429Y00055475D01*
X00039449Y00055490D01*
X00039469Y00055503D01*
X00039490Y00055516D01*
X00039512Y00055526D01*
X00039534Y00055536D01*
X00039557Y00055544D01*
X00039580Y00055551D01*
X00039604Y00055556D01*
X00039628Y00055559D01*
X00039652Y00055562D01*
X00039676Y00055562D01*
X00052196Y00055562D01*
X00052896Y00056262D01*
X00052896Y00074662D01*
X00052196Y00075362D01*
X00000876Y00075362D01*
X00000176Y00074662D01*
X00000176Y00056162D01*
X00000776Y00055562D01*
X00003391Y00055562D01*
M02*