M48
;GenerationSoftware,Autodesk,EAGLE,9.2.2*%
;CreationDate,2019-03-14T20:34:33Z*%
FMAT,2
ICI,OFF
METRIC,TZ,000.000
T6C0.700
T5C0.813
T4C1.000
T3C1.000
T2C1.016
T1C3.969
%
G90
M71
T1
X34581Y-18000
X3355Y22194
T2
X11956Y18387
X65161Y14194
X65161Y-2315
X65161Y-4855
X65161Y-7395
X65161Y-9935
X65161Y-12475
X65161Y-15015
X65161Y-17555
X6387Y-17677
X48822Y15742
X46282Y15742
X43742Y15742
X41202Y15742
X38662Y15742
X14496Y18387
T3
X32240Y4407
X32240Y1867
T4
X32240Y-673
T5
X41182Y-13851
X38081Y-9537
X41206Y-1939
X41206Y-9559
X30655Y14060
X28115Y14060
X34832Y-13851
X37372Y-13851
X47482Y-13851
X50022Y-13851
X53832Y-13851
X56372Y-13851
X43722Y-13851
X44215Y-1920
X44215Y-9540
X72786Y10762
X70246Y10762
X57546Y10762
X55006Y10762
X67706Y10762
X65166Y10762
X60086Y10762
X62626Y10762
X52466Y10762
X49926Y10762
X47386Y10762
X44846Y10762
X42306Y10762
X39766Y10762
X39766Y3142
X42306Y3142
X44846Y3142
X47386Y3142
X49926Y3142
X52466Y3142
X55006Y3142
X57546Y3142
X60086Y3142
X62626Y3142
X65166Y3142
X67706Y3142
X70246Y3142
X72786Y3142
X74675Y-975
X69287Y-6363
X17042Y14622
X38081Y-1917
X24434Y367
X22434Y367
X20434Y367
X18434Y367
X16434Y367
X14434Y367
X12434Y367
X10434Y367
X24434Y-13633
X22434Y-13633
X20434Y-13633
X18434Y-13633
X16434Y-13633
X14434Y-13633
X12434Y-13633
X10434Y-13633
X25239Y-1698
X25239Y-3698
X25239Y-5698
X25239Y-7698
X25239Y-9698
X25239Y-11698
X47211Y-1922
X47211Y-9542
X28079Y10542
X30619Y10542
X6882Y7002
X9422Y7002
X14502Y14622
X11962Y14622
X11962Y7002
X14502Y7002
X17042Y7002
X9422Y14622
X6882Y14622
X24682Y6336
X21022Y13020
X30207Y-17299
X30207Y-9679
X69370Y-13855
X74758Y-12274
X69370Y-17662
X74758Y-4661
X69370Y-10049
X74758Y-8467
T6
X18387Y3742
X22452Y3677
X27613Y-15032
X24645Y3677
X34323Y15419
X10452Y-17677
X14387Y-17677
X34323Y8774
X13613Y3742
X36774Y12774
X36774Y5548
X60645Y15677
X52387Y15742
X59613Y-6194
X59613Y-15613
X69419Y-1548
X55032Y13613
X58710Y-18194
X43742Y18774
X10452Y3742
M30