G04 EAGLE Gerber RS-274X export*
G75*
%MOMM*%
%FSLAX34Y34*%
%LPD*%
%INTop solder mask*%
%IPPOS*%
%AMOC8*
5,1,8,0,0,1.08239X$1,22.5*%
G01*
%ADD10C,0.762000*%
%ADD11C,0.000000*%
%ADD12C,4.171950*%
%ADD13P,1.649562X8X292.500000*%
%ADD14P,1.649562X8X202.500000*%
%ADD15C,1.524000*%
%ADD16P,1.649562X8X247.500000*%
%ADD17P,1.649562X8X112.500000*%
%ADD18P,1.649562X8X22.500000*%
%ADD19P,1.649562X8X141.200000*%
%ADD20C,1.711197*%
%ADD21C,1.711200*%
%ADD22C,1.727200*%
%ADD23P,1.869504X8X22.500000*%
%ADD24R,1.879600X1.879600*%


D10*
X1016Y-206126D02*
X786511Y-206126D01*
X787156Y251348D01*
X1661Y251993D01*
X1016Y-206126D01*
D11*
X13704Y221935D02*
X13710Y222422D01*
X13728Y222909D01*
X13758Y223395D01*
X13800Y223880D01*
X13853Y224364D01*
X13919Y224847D01*
X13996Y225328D01*
X14085Y225806D01*
X14186Y226283D01*
X14299Y226757D01*
X14423Y227228D01*
X14558Y227695D01*
X14706Y228160D01*
X14864Y228620D01*
X15034Y229077D01*
X15215Y229529D01*
X15406Y229977D01*
X15609Y230419D01*
X15823Y230857D01*
X16047Y231289D01*
X16282Y231716D01*
X16527Y232137D01*
X16783Y232551D01*
X17048Y232960D01*
X17324Y233361D01*
X17609Y233756D01*
X17904Y234144D01*
X18208Y234524D01*
X18522Y234897D01*
X18845Y235261D01*
X19176Y235618D01*
X19516Y235967D01*
X19865Y236307D01*
X20222Y236638D01*
X20586Y236961D01*
X20959Y237275D01*
X21339Y237579D01*
X21727Y237874D01*
X22122Y238159D01*
X22523Y238435D01*
X22932Y238700D01*
X23346Y238956D01*
X23767Y239201D01*
X24194Y239436D01*
X24626Y239660D01*
X25064Y239874D01*
X25506Y240077D01*
X25954Y240268D01*
X26406Y240449D01*
X26863Y240619D01*
X27323Y240777D01*
X27788Y240925D01*
X28255Y241060D01*
X28726Y241184D01*
X29200Y241297D01*
X29677Y241398D01*
X30155Y241487D01*
X30636Y241564D01*
X31119Y241630D01*
X31603Y241683D01*
X32088Y241725D01*
X32574Y241755D01*
X33061Y241773D01*
X33548Y241779D01*
X34035Y241773D01*
X34522Y241755D01*
X35008Y241725D01*
X35493Y241683D01*
X35977Y241630D01*
X36460Y241564D01*
X36941Y241487D01*
X37419Y241398D01*
X37896Y241297D01*
X38370Y241184D01*
X38841Y241060D01*
X39308Y240925D01*
X39773Y240777D01*
X40233Y240619D01*
X40690Y240449D01*
X41142Y240268D01*
X41590Y240077D01*
X42032Y239874D01*
X42470Y239660D01*
X42902Y239436D01*
X43329Y239201D01*
X43750Y238956D01*
X44164Y238700D01*
X44573Y238435D01*
X44974Y238159D01*
X45369Y237874D01*
X45757Y237579D01*
X46137Y237275D01*
X46510Y236961D01*
X46874Y236638D01*
X47231Y236307D01*
X47580Y235967D01*
X47920Y235618D01*
X48251Y235261D01*
X48574Y234897D01*
X48888Y234524D01*
X49192Y234144D01*
X49487Y233756D01*
X49772Y233361D01*
X50048Y232960D01*
X50313Y232551D01*
X50569Y232137D01*
X50814Y231716D01*
X51049Y231289D01*
X51273Y230857D01*
X51487Y230419D01*
X51690Y229977D01*
X51881Y229529D01*
X52062Y229077D01*
X52232Y228620D01*
X52390Y228160D01*
X52538Y227695D01*
X52673Y227228D01*
X52797Y226757D01*
X52910Y226283D01*
X53011Y225806D01*
X53100Y225328D01*
X53177Y224847D01*
X53243Y224364D01*
X53296Y223880D01*
X53338Y223395D01*
X53368Y222909D01*
X53386Y222422D01*
X53392Y221935D01*
X53386Y221448D01*
X53368Y220961D01*
X53338Y220475D01*
X53296Y219990D01*
X53243Y219506D01*
X53177Y219023D01*
X53100Y218542D01*
X53011Y218064D01*
X52910Y217587D01*
X52797Y217113D01*
X52673Y216642D01*
X52538Y216175D01*
X52390Y215710D01*
X52232Y215250D01*
X52062Y214793D01*
X51881Y214341D01*
X51690Y213893D01*
X51487Y213451D01*
X51273Y213013D01*
X51049Y212581D01*
X50814Y212154D01*
X50569Y211733D01*
X50313Y211319D01*
X50048Y210910D01*
X49772Y210509D01*
X49487Y210114D01*
X49192Y209726D01*
X48888Y209346D01*
X48574Y208973D01*
X48251Y208609D01*
X47920Y208252D01*
X47580Y207903D01*
X47231Y207563D01*
X46874Y207232D01*
X46510Y206909D01*
X46137Y206595D01*
X45757Y206291D01*
X45369Y205996D01*
X44974Y205711D01*
X44573Y205435D01*
X44164Y205170D01*
X43750Y204914D01*
X43329Y204669D01*
X42902Y204434D01*
X42470Y204210D01*
X42032Y203996D01*
X41590Y203793D01*
X41142Y203602D01*
X40690Y203421D01*
X40233Y203251D01*
X39773Y203093D01*
X39308Y202945D01*
X38841Y202810D01*
X38370Y202686D01*
X37896Y202573D01*
X37419Y202472D01*
X36941Y202383D01*
X36460Y202306D01*
X35977Y202240D01*
X35493Y202187D01*
X35008Y202145D01*
X34522Y202115D01*
X34035Y202097D01*
X33548Y202091D01*
X33061Y202097D01*
X32574Y202115D01*
X32088Y202145D01*
X31603Y202187D01*
X31119Y202240D01*
X30636Y202306D01*
X30155Y202383D01*
X29677Y202472D01*
X29200Y202573D01*
X28726Y202686D01*
X28255Y202810D01*
X27788Y202945D01*
X27323Y203093D01*
X26863Y203251D01*
X26406Y203421D01*
X25954Y203602D01*
X25506Y203793D01*
X25064Y203996D01*
X24626Y204210D01*
X24194Y204434D01*
X23767Y204669D01*
X23346Y204914D01*
X22932Y205170D01*
X22523Y205435D01*
X22122Y205711D01*
X21727Y205996D01*
X21339Y206291D01*
X20959Y206595D01*
X20586Y206909D01*
X20222Y207232D01*
X19865Y207563D01*
X19516Y207903D01*
X19176Y208252D01*
X18845Y208609D01*
X18522Y208973D01*
X18208Y209346D01*
X17904Y209726D01*
X17609Y210114D01*
X17324Y210509D01*
X17048Y210910D01*
X16783Y211319D01*
X16527Y211733D01*
X16282Y212154D01*
X16047Y212581D01*
X15823Y213013D01*
X15609Y213451D01*
X15406Y213893D01*
X15215Y214341D01*
X15034Y214793D01*
X14864Y215250D01*
X14706Y215710D01*
X14558Y216175D01*
X14423Y216642D01*
X14299Y217113D01*
X14186Y217587D01*
X14085Y218064D01*
X13996Y218542D01*
X13919Y219023D01*
X13853Y219506D01*
X13800Y219990D01*
X13758Y220475D01*
X13728Y220961D01*
X13710Y221448D01*
X13704Y221935D01*
D12*
X33548Y221935D03*
D11*
X325962Y-180000D02*
X325968Y-179513D01*
X325986Y-179026D01*
X326016Y-178540D01*
X326058Y-178055D01*
X326111Y-177571D01*
X326177Y-177088D01*
X326254Y-176607D01*
X326343Y-176129D01*
X326444Y-175652D01*
X326557Y-175178D01*
X326681Y-174707D01*
X326816Y-174240D01*
X326964Y-173775D01*
X327122Y-173315D01*
X327292Y-172858D01*
X327473Y-172406D01*
X327664Y-171958D01*
X327867Y-171516D01*
X328081Y-171078D01*
X328305Y-170646D01*
X328540Y-170219D01*
X328785Y-169798D01*
X329041Y-169384D01*
X329306Y-168975D01*
X329582Y-168574D01*
X329867Y-168179D01*
X330162Y-167791D01*
X330466Y-167411D01*
X330780Y-167038D01*
X331103Y-166674D01*
X331434Y-166317D01*
X331774Y-165968D01*
X332123Y-165628D01*
X332480Y-165297D01*
X332844Y-164974D01*
X333217Y-164660D01*
X333597Y-164356D01*
X333985Y-164061D01*
X334380Y-163776D01*
X334781Y-163500D01*
X335190Y-163235D01*
X335604Y-162979D01*
X336025Y-162734D01*
X336452Y-162499D01*
X336884Y-162275D01*
X337322Y-162061D01*
X337764Y-161858D01*
X338212Y-161667D01*
X338664Y-161486D01*
X339121Y-161316D01*
X339581Y-161158D01*
X340046Y-161010D01*
X340513Y-160875D01*
X340984Y-160751D01*
X341458Y-160638D01*
X341935Y-160537D01*
X342413Y-160448D01*
X342894Y-160371D01*
X343377Y-160305D01*
X343861Y-160252D01*
X344346Y-160210D01*
X344832Y-160180D01*
X345319Y-160162D01*
X345806Y-160156D01*
X346293Y-160162D01*
X346780Y-160180D01*
X347266Y-160210D01*
X347751Y-160252D01*
X348235Y-160305D01*
X348718Y-160371D01*
X349199Y-160448D01*
X349677Y-160537D01*
X350154Y-160638D01*
X350628Y-160751D01*
X351099Y-160875D01*
X351566Y-161010D01*
X352031Y-161158D01*
X352491Y-161316D01*
X352948Y-161486D01*
X353400Y-161667D01*
X353848Y-161858D01*
X354290Y-162061D01*
X354728Y-162275D01*
X355160Y-162499D01*
X355587Y-162734D01*
X356008Y-162979D01*
X356422Y-163235D01*
X356831Y-163500D01*
X357232Y-163776D01*
X357627Y-164061D01*
X358015Y-164356D01*
X358395Y-164660D01*
X358768Y-164974D01*
X359132Y-165297D01*
X359489Y-165628D01*
X359838Y-165968D01*
X360178Y-166317D01*
X360509Y-166674D01*
X360832Y-167038D01*
X361146Y-167411D01*
X361450Y-167791D01*
X361745Y-168179D01*
X362030Y-168574D01*
X362306Y-168975D01*
X362571Y-169384D01*
X362827Y-169798D01*
X363072Y-170219D01*
X363307Y-170646D01*
X363531Y-171078D01*
X363745Y-171516D01*
X363948Y-171958D01*
X364139Y-172406D01*
X364320Y-172858D01*
X364490Y-173315D01*
X364648Y-173775D01*
X364796Y-174240D01*
X364931Y-174707D01*
X365055Y-175178D01*
X365168Y-175652D01*
X365269Y-176129D01*
X365358Y-176607D01*
X365435Y-177088D01*
X365501Y-177571D01*
X365554Y-178055D01*
X365596Y-178540D01*
X365626Y-179026D01*
X365644Y-179513D01*
X365650Y-180000D01*
X365644Y-180487D01*
X365626Y-180974D01*
X365596Y-181460D01*
X365554Y-181945D01*
X365501Y-182429D01*
X365435Y-182912D01*
X365358Y-183393D01*
X365269Y-183871D01*
X365168Y-184348D01*
X365055Y-184822D01*
X364931Y-185293D01*
X364796Y-185760D01*
X364648Y-186225D01*
X364490Y-186685D01*
X364320Y-187142D01*
X364139Y-187594D01*
X363948Y-188042D01*
X363745Y-188484D01*
X363531Y-188922D01*
X363307Y-189354D01*
X363072Y-189781D01*
X362827Y-190202D01*
X362571Y-190616D01*
X362306Y-191025D01*
X362030Y-191426D01*
X361745Y-191821D01*
X361450Y-192209D01*
X361146Y-192589D01*
X360832Y-192962D01*
X360509Y-193326D01*
X360178Y-193683D01*
X359838Y-194032D01*
X359489Y-194372D01*
X359132Y-194703D01*
X358768Y-195026D01*
X358395Y-195340D01*
X358015Y-195644D01*
X357627Y-195939D01*
X357232Y-196224D01*
X356831Y-196500D01*
X356422Y-196765D01*
X356008Y-197021D01*
X355587Y-197266D01*
X355160Y-197501D01*
X354728Y-197725D01*
X354290Y-197939D01*
X353848Y-198142D01*
X353400Y-198333D01*
X352948Y-198514D01*
X352491Y-198684D01*
X352031Y-198842D01*
X351566Y-198990D01*
X351099Y-199125D01*
X350628Y-199249D01*
X350154Y-199362D01*
X349677Y-199463D01*
X349199Y-199552D01*
X348718Y-199629D01*
X348235Y-199695D01*
X347751Y-199748D01*
X347266Y-199790D01*
X346780Y-199820D01*
X346293Y-199838D01*
X345806Y-199844D01*
X345319Y-199838D01*
X344832Y-199820D01*
X344346Y-199790D01*
X343861Y-199748D01*
X343377Y-199695D01*
X342894Y-199629D01*
X342413Y-199552D01*
X341935Y-199463D01*
X341458Y-199362D01*
X340984Y-199249D01*
X340513Y-199125D01*
X340046Y-198990D01*
X339581Y-198842D01*
X339121Y-198684D01*
X338664Y-198514D01*
X338212Y-198333D01*
X337764Y-198142D01*
X337322Y-197939D01*
X336884Y-197725D01*
X336452Y-197501D01*
X336025Y-197266D01*
X335604Y-197021D01*
X335190Y-196765D01*
X334781Y-196500D01*
X334380Y-196224D01*
X333985Y-195939D01*
X333597Y-195644D01*
X333217Y-195340D01*
X332844Y-195026D01*
X332480Y-194703D01*
X332123Y-194372D01*
X331774Y-194032D01*
X331434Y-193683D01*
X331103Y-193326D01*
X330780Y-192962D01*
X330466Y-192589D01*
X330162Y-192209D01*
X329867Y-191821D01*
X329582Y-191426D01*
X329306Y-191025D01*
X329041Y-190616D01*
X328785Y-190202D01*
X328540Y-189781D01*
X328305Y-189354D01*
X328081Y-188922D01*
X327867Y-188484D01*
X327664Y-188042D01*
X327473Y-187594D01*
X327292Y-187142D01*
X327122Y-186685D01*
X326964Y-186225D01*
X326816Y-185760D01*
X326681Y-185293D01*
X326557Y-184822D01*
X326444Y-184348D01*
X326343Y-183871D01*
X326254Y-183393D01*
X326177Y-182912D01*
X326111Y-182429D01*
X326058Y-181945D01*
X326016Y-181460D01*
X325986Y-180974D01*
X325968Y-180487D01*
X325962Y-180000D01*
D12*
X345806Y-180000D03*
D13*
X412057Y-19385D03*
X412057Y-95585D03*
D14*
X306548Y140597D03*
X281148Y140597D03*
D15*
X348318Y-131910D02*
X348318Y-145118D01*
X373718Y-145118D02*
X373718Y-131910D01*
X474818Y-131910D02*
X474818Y-145118D01*
X500218Y-145118D02*
X500218Y-131910D01*
X538318Y-131910D02*
X538318Y-145118D01*
X563718Y-145118D02*
X563718Y-131910D01*
X411818Y-131910D02*
X411818Y-145118D01*
X437218Y-145118D02*
X437218Y-131910D01*
D13*
X442154Y-19195D03*
X442154Y-95395D03*
D15*
X727858Y101018D02*
X727858Y114226D01*
X702458Y114226D02*
X702458Y101018D01*
X575458Y101018D02*
X575458Y114226D01*
X550058Y114226D02*
X550058Y101018D01*
X677058Y101018D02*
X677058Y114226D01*
X651658Y114226D02*
X651658Y101018D01*
X600858Y101018D02*
X600858Y114226D01*
X626258Y114226D02*
X626258Y101018D01*
X524658Y101018D02*
X524658Y114226D01*
X499258Y114226D02*
X499258Y101018D01*
X473858Y101018D02*
X473858Y114226D01*
X448458Y114226D02*
X448458Y101018D01*
X423058Y101018D02*
X423058Y114226D01*
X397658Y114226D02*
X397658Y101018D01*
X397658Y38026D02*
X397658Y24818D01*
X423058Y24818D02*
X423058Y38026D01*
X448458Y38026D02*
X448458Y24818D01*
X473858Y24818D02*
X473858Y38026D01*
X499258Y38026D02*
X499258Y24818D01*
X524658Y24818D02*
X524658Y38026D01*
X550058Y38026D02*
X550058Y24818D01*
X575458Y24818D02*
X575458Y38026D01*
X600858Y38026D02*
X600858Y24818D01*
X626258Y24818D02*
X626258Y38026D01*
X651658Y38026D02*
X651658Y24818D01*
X677058Y24818D02*
X677058Y38026D01*
X702458Y38026D02*
X702458Y24818D01*
X727858Y24818D02*
X727858Y38026D01*
D16*
X746747Y-9749D03*
X692865Y-63631D03*
D17*
X380815Y-95375D03*
X380815Y-19175D03*
D15*
X244345Y3671D02*
X244345Y16879D01*
X224345Y16879D02*
X224345Y3671D01*
X204345Y3671D02*
X204345Y16879D01*
X184345Y16879D02*
X184345Y3671D01*
X164345Y3671D02*
X164345Y16879D01*
X144345Y16879D02*
X144345Y3671D01*
X124345Y3671D02*
X124345Y16879D01*
X104345Y16879D02*
X104345Y3671D01*
X244345Y-136329D02*
X244345Y-149537D01*
X224345Y-149537D02*
X224345Y-136329D01*
X204345Y-136329D02*
X204345Y-149537D01*
X184345Y-149537D02*
X184345Y-136329D01*
X164345Y-136329D02*
X164345Y-149537D01*
X144345Y-149537D02*
X144345Y-136329D01*
X124345Y-136329D02*
X124345Y-149537D01*
X104345Y-149537D02*
X104345Y-136329D01*
X252395Y-16979D02*
X265603Y-16979D01*
X265603Y-36979D02*
X252395Y-36979D01*
X252395Y-56979D02*
X265603Y-56979D01*
X265603Y-76979D02*
X252395Y-76979D01*
X252395Y-96979D02*
X265603Y-96979D01*
X265603Y-116979D02*
X252395Y-116979D01*
D13*
X472105Y-19215D03*
X472105Y-95415D03*
D18*
X280792Y105416D03*
X306192Y105416D03*
D15*
X68820Y76625D02*
X68820Y63417D01*
X94220Y63417D02*
X94220Y76625D01*
X145020Y139617D02*
X145020Y152825D01*
X119620Y152825D02*
X119620Y139617D01*
X119620Y76625D02*
X119620Y63417D01*
X145020Y63417D02*
X145020Y76625D01*
X170420Y139617D02*
X170420Y152825D01*
X170420Y76625D02*
X170420Y63417D01*
X94220Y139617D02*
X94220Y152825D01*
X68820Y152825D02*
X68820Y139617D01*
D19*
X246817Y63358D03*
X210224Y130196D03*
D17*
X302074Y-172992D03*
X302074Y-96792D03*
D20*
X314857Y-6726D02*
X329937Y-6726D01*
D21*
X329937Y18674D02*
X314857Y18674D01*
X314857Y44074D02*
X329937Y44074D01*
D22*
X386618Y149799D02*
X386618Y165039D01*
X412018Y165039D02*
X412018Y149799D01*
X437418Y149799D02*
X437418Y165039D01*
X462818Y165039D02*
X462818Y149799D01*
X488218Y149799D02*
X488218Y165039D01*
D16*
X747584Y-84672D03*
X693703Y-138553D03*
X747585Y-122736D03*
X693703Y-176618D03*
X747585Y-46607D03*
X693703Y-100489D03*
D23*
X63871Y-176774D03*
D22*
X643992Y-175555D02*
X659232Y-175555D01*
X659232Y-150155D02*
X643992Y-150155D01*
X643992Y-124755D02*
X659232Y-124755D01*
X659232Y-99355D02*
X643992Y-99355D01*
X643992Y-73955D02*
X659232Y-73955D01*
X659232Y-48555D02*
X643992Y-48555D01*
X643992Y-23155D02*
X659232Y-23155D01*
D23*
X651612Y141935D03*
D22*
X119558Y176251D02*
X119558Y191491D01*
X144958Y191491D02*
X144958Y176251D01*
D24*
X246451Y36774D03*
X437418Y187742D03*
X587096Y-181935D03*
X550321Y136129D03*
X694192Y-15484D03*
X596128Y-156129D03*
X596128Y-61935D03*
X523870Y157419D03*
X606450Y156774D03*
X367741Y55484D03*
X367741Y127742D03*
X276128Y-150322D03*
X224516Y36774D03*
X183871Y37419D03*
X104516Y37419D03*
X136129Y37419D03*
X343225Y154193D03*
X343225Y87742D03*
X143871Y-176774D03*
X104516Y-176774D03*
M02*
