%
M48
M72
T01C0.02205
T02C0.02756
T03C0.03200
T04C0.03937
T05C0.04000
T06C0.04331
T07C0.04700
T08C0.07000
T09C0.07087
T10C0.07100
T11C0.12598
T12C0.15625
%
T01
X66250Y177565
X56250Y182565
X66250Y187565
X56250Y192565
X66250Y197565
X56250Y202565
X66250Y207565
X56250Y212565
X66250Y241315
X56250Y246315
X66250Y251315
X56250Y256315
X66250Y261315
X56250Y266315
X66250Y271315
X56250Y276315
T02
X84718Y268933
X89968Y280433
X119893Y285558
X141218Y271183
X154343Y285558
X213093Y283933
X232718Y259508
X244968Y258308
X256718Y258308
X269468Y258308
X221093Y253933
X210143Y229933
X201137Y222051
X176093Y223933
X141218Y207558
X141343Y197183
X181093Y182933
X201137Y187601
X221093Y198933
X232718Y225058
X244968Y223858
X256718Y223858
X269468Y223858
X301093Y208933
X281093Y198933
X326093Y197933
X310093Y161933
X318093Y156933
X335093Y151933
X326093Y133933
X296093Y124933
X285468Y128933
X285468Y118933
X276093Y118933
X289593Y108933
X289593Y98933
X277843Y88933
X324043Y98933
X324043Y108933
X286093Y138933
X221093Y138933
X205093Y127933
X184093Y118933
X139093Y124933
X139093Y105933
X93093Y148933
X97468Y167808
X58093Y137933
X82968Y203683
X93093Y218933
X102093Y233058
X126093Y223933
X331093Y238933
X431093Y188058
X457218Y187808
X467843Y191183
X457218Y217808
X467843Y225633
X431093Y152933
X416093Y143933
X449593Y123933
X416093Y103933
X450093Y83933
X376093Y103933
X376093Y143933
T03
X336093Y123933
X326093Y123933
X266093Y118933
X266093Y108933
X266093Y98933
X266093Y88933
X266093Y78933
X236093Y78933
X236093Y88933
X236093Y98933
X236093Y108933
X236093Y118933
X236093Y128933
X236093Y138933
X236093Y148933
X236093Y158933
X236093Y168933
X236093Y178933
X236093Y188933
X236093Y198933
X236093Y208933
X266093Y208933
X266093Y198933
X266093Y188933
X266093Y178933
X266093Y168933
X266093Y158933
X266093Y148933
X266093Y138933
X266093Y128933
X381093Y171933
X381093Y181933
X381093Y191933
X381093Y201933
X356093Y208933
X356093Y218933
X356093Y228933
X356093Y238933
X341093Y228933
X341093Y218933
X299093Y247933
X289093Y247933
X286093Y283933
X296093Y283933
X316093Y283933
X326093Y283933
X266093Y283933
X256093Y283933
X234968Y284183
X224968Y284183
X126968Y271308
X126968Y261308
X126968Y251308
X126968Y241308
X96968Y241308
X96968Y251308
X96968Y261308
X96968Y271308
X81343Y283933
X81343Y233933
X81843Y218433
X97468Y207558
X97468Y197558
X97468Y187558
X97468Y177558
X81843Y168433
X78093Y146933
X68093Y146933
X38093Y145933
X28093Y145933
X127468Y177558
X127468Y187558
X127468Y197558
X127468Y207558
X411093Y201933
X411093Y191933
X411093Y181933
X411093Y171933
X444093Y152933
X454093Y152933
T04
X436093Y133933
X436093Y123933
X436093Y113933
X436093Y103933
X436093Y93933
X436093Y83933
X436093Y73933
X396093Y73933
X396093Y83933
X396093Y93933
X396093Y103933
X396093Y113933
X396093Y123933
X396093Y133933
X356093Y133933
X356093Y123933
X356093Y113933
X356093Y103933
X356093Y93933
X356093Y83933
X356093Y73933
X166593Y123308
X156593Y123308
X115593Y123808
X105593Y123808
T05
X73093Y121933
X73093Y111933
X73093Y101933
X43093Y101933
X43093Y111933
X43093Y121933
X151093Y168933
X161093Y168933
X171093Y168933
X181093Y168933
X191093Y168933
X201093Y168933
X301093Y223933
X311093Y223933
T06
X477343Y220683
X477343Y190683
T07
X209443Y246633
X209443Y266233
X160243Y266233
X160243Y246633
T08
X101854Y84543
X191224Y84543
T09
X184843Y238733
T10
X184843Y274133
T11
X31250Y281315
X31250Y236315
X31250Y217565
X31250Y172565
T12
X349093Y263933
M30
