G75*
%MOIN*%
%OFA0B0*%
%FSLAX25Y25*%
%IPPOS*%
%LPD*%
%AMOC8*
5,1,8,0,0,1.08239X$1,22.5*
%
%ADD10C,0.00000*%
%ADD11C,0.02400*%
D10*
X0024951Y0172565D02*
X0024953Y0172723D01*
X0024959Y0172881D01*
X0024969Y0173039D01*
X0024983Y0173197D01*
X0025001Y0173354D01*
X0025022Y0173511D01*
X0025048Y0173667D01*
X0025078Y0173823D01*
X0025111Y0173978D01*
X0025149Y0174131D01*
X0025190Y0174284D01*
X0025235Y0174436D01*
X0025284Y0174587D01*
X0025337Y0174736D01*
X0025393Y0174884D01*
X0025453Y0175030D01*
X0025517Y0175175D01*
X0025585Y0175318D01*
X0025656Y0175460D01*
X0025730Y0175600D01*
X0025808Y0175737D01*
X0025890Y0175873D01*
X0025974Y0176007D01*
X0026063Y0176138D01*
X0026154Y0176267D01*
X0026249Y0176394D01*
X0026346Y0176519D01*
X0026447Y0176641D01*
X0026551Y0176760D01*
X0026658Y0176877D01*
X0026768Y0176991D01*
X0026881Y0177102D01*
X0026996Y0177211D01*
X0027114Y0177316D01*
X0027235Y0177418D01*
X0027358Y0177518D01*
X0027484Y0177614D01*
X0027612Y0177707D01*
X0027742Y0177797D01*
X0027875Y0177883D01*
X0028010Y0177967D01*
X0028146Y0178046D01*
X0028285Y0178123D01*
X0028426Y0178195D01*
X0028568Y0178265D01*
X0028712Y0178330D01*
X0028858Y0178392D01*
X0029005Y0178450D01*
X0029154Y0178505D01*
X0029304Y0178556D01*
X0029455Y0178603D01*
X0029607Y0178646D01*
X0029760Y0178685D01*
X0029915Y0178721D01*
X0030070Y0178752D01*
X0030226Y0178780D01*
X0030382Y0178804D01*
X0030539Y0178824D01*
X0030697Y0178840D01*
X0030854Y0178852D01*
X0031013Y0178860D01*
X0031171Y0178864D01*
X0031329Y0178864D01*
X0031487Y0178860D01*
X0031646Y0178852D01*
X0031803Y0178840D01*
X0031961Y0178824D01*
X0032118Y0178804D01*
X0032274Y0178780D01*
X0032430Y0178752D01*
X0032585Y0178721D01*
X0032740Y0178685D01*
X0032893Y0178646D01*
X0033045Y0178603D01*
X0033196Y0178556D01*
X0033346Y0178505D01*
X0033495Y0178450D01*
X0033642Y0178392D01*
X0033788Y0178330D01*
X0033932Y0178265D01*
X0034074Y0178195D01*
X0034215Y0178123D01*
X0034354Y0178046D01*
X0034490Y0177967D01*
X0034625Y0177883D01*
X0034758Y0177797D01*
X0034888Y0177707D01*
X0035016Y0177614D01*
X0035142Y0177518D01*
X0035265Y0177418D01*
X0035386Y0177316D01*
X0035504Y0177211D01*
X0035619Y0177102D01*
X0035732Y0176991D01*
X0035842Y0176877D01*
X0035949Y0176760D01*
X0036053Y0176641D01*
X0036154Y0176519D01*
X0036251Y0176394D01*
X0036346Y0176267D01*
X0036437Y0176138D01*
X0036526Y0176007D01*
X0036610Y0175873D01*
X0036692Y0175737D01*
X0036770Y0175600D01*
X0036844Y0175460D01*
X0036915Y0175318D01*
X0036983Y0175175D01*
X0037047Y0175030D01*
X0037107Y0174884D01*
X0037163Y0174736D01*
X0037216Y0174587D01*
X0037265Y0174436D01*
X0037310Y0174284D01*
X0037351Y0174131D01*
X0037389Y0173978D01*
X0037422Y0173823D01*
X0037452Y0173667D01*
X0037478Y0173511D01*
X0037499Y0173354D01*
X0037517Y0173197D01*
X0037531Y0173039D01*
X0037541Y0172881D01*
X0037547Y0172723D01*
X0037549Y0172565D01*
X0037547Y0172407D01*
X0037541Y0172249D01*
X0037531Y0172091D01*
X0037517Y0171933D01*
X0037499Y0171776D01*
X0037478Y0171619D01*
X0037452Y0171463D01*
X0037422Y0171307D01*
X0037389Y0171152D01*
X0037351Y0170999D01*
X0037310Y0170846D01*
X0037265Y0170694D01*
X0037216Y0170543D01*
X0037163Y0170394D01*
X0037107Y0170246D01*
X0037047Y0170100D01*
X0036983Y0169955D01*
X0036915Y0169812D01*
X0036844Y0169670D01*
X0036770Y0169530D01*
X0036692Y0169393D01*
X0036610Y0169257D01*
X0036526Y0169123D01*
X0036437Y0168992D01*
X0036346Y0168863D01*
X0036251Y0168736D01*
X0036154Y0168611D01*
X0036053Y0168489D01*
X0035949Y0168370D01*
X0035842Y0168253D01*
X0035732Y0168139D01*
X0035619Y0168028D01*
X0035504Y0167919D01*
X0035386Y0167814D01*
X0035265Y0167712D01*
X0035142Y0167612D01*
X0035016Y0167516D01*
X0034888Y0167423D01*
X0034758Y0167333D01*
X0034625Y0167247D01*
X0034490Y0167163D01*
X0034354Y0167084D01*
X0034215Y0167007D01*
X0034074Y0166935D01*
X0033932Y0166865D01*
X0033788Y0166800D01*
X0033642Y0166738D01*
X0033495Y0166680D01*
X0033346Y0166625D01*
X0033196Y0166574D01*
X0033045Y0166527D01*
X0032893Y0166484D01*
X0032740Y0166445D01*
X0032585Y0166409D01*
X0032430Y0166378D01*
X0032274Y0166350D01*
X0032118Y0166326D01*
X0031961Y0166306D01*
X0031803Y0166290D01*
X0031646Y0166278D01*
X0031487Y0166270D01*
X0031329Y0166266D01*
X0031171Y0166266D01*
X0031013Y0166270D01*
X0030854Y0166278D01*
X0030697Y0166290D01*
X0030539Y0166306D01*
X0030382Y0166326D01*
X0030226Y0166350D01*
X0030070Y0166378D01*
X0029915Y0166409D01*
X0029760Y0166445D01*
X0029607Y0166484D01*
X0029455Y0166527D01*
X0029304Y0166574D01*
X0029154Y0166625D01*
X0029005Y0166680D01*
X0028858Y0166738D01*
X0028712Y0166800D01*
X0028568Y0166865D01*
X0028426Y0166935D01*
X0028285Y0167007D01*
X0028146Y0167084D01*
X0028010Y0167163D01*
X0027875Y0167247D01*
X0027742Y0167333D01*
X0027612Y0167423D01*
X0027484Y0167516D01*
X0027358Y0167612D01*
X0027235Y0167712D01*
X0027114Y0167814D01*
X0026996Y0167919D01*
X0026881Y0168028D01*
X0026768Y0168139D01*
X0026658Y0168253D01*
X0026551Y0168370D01*
X0026447Y0168489D01*
X0026346Y0168611D01*
X0026249Y0168736D01*
X0026154Y0168863D01*
X0026063Y0168992D01*
X0025974Y0169123D01*
X0025890Y0169257D01*
X0025808Y0169393D01*
X0025730Y0169530D01*
X0025656Y0169670D01*
X0025585Y0169812D01*
X0025517Y0169955D01*
X0025453Y0170100D01*
X0025393Y0170246D01*
X0025337Y0170394D01*
X0025284Y0170543D01*
X0025235Y0170694D01*
X0025190Y0170846D01*
X0025149Y0170999D01*
X0025111Y0171152D01*
X0025078Y0171307D01*
X0025048Y0171463D01*
X0025022Y0171619D01*
X0025001Y0171776D01*
X0024983Y0171933D01*
X0024969Y0172091D01*
X0024959Y0172249D01*
X0024953Y0172407D01*
X0024951Y0172565D01*
X0024951Y0217565D02*
X0024953Y0217723D01*
X0024959Y0217881D01*
X0024969Y0218039D01*
X0024983Y0218197D01*
X0025001Y0218354D01*
X0025022Y0218511D01*
X0025048Y0218667D01*
X0025078Y0218823D01*
X0025111Y0218978D01*
X0025149Y0219131D01*
X0025190Y0219284D01*
X0025235Y0219436D01*
X0025284Y0219587D01*
X0025337Y0219736D01*
X0025393Y0219884D01*
X0025453Y0220030D01*
X0025517Y0220175D01*
X0025585Y0220318D01*
X0025656Y0220460D01*
X0025730Y0220600D01*
X0025808Y0220737D01*
X0025890Y0220873D01*
X0025974Y0221007D01*
X0026063Y0221138D01*
X0026154Y0221267D01*
X0026249Y0221394D01*
X0026346Y0221519D01*
X0026447Y0221641D01*
X0026551Y0221760D01*
X0026658Y0221877D01*
X0026768Y0221991D01*
X0026881Y0222102D01*
X0026996Y0222211D01*
X0027114Y0222316D01*
X0027235Y0222418D01*
X0027358Y0222518D01*
X0027484Y0222614D01*
X0027612Y0222707D01*
X0027742Y0222797D01*
X0027875Y0222883D01*
X0028010Y0222967D01*
X0028146Y0223046D01*
X0028285Y0223123D01*
X0028426Y0223195D01*
X0028568Y0223265D01*
X0028712Y0223330D01*
X0028858Y0223392D01*
X0029005Y0223450D01*
X0029154Y0223505D01*
X0029304Y0223556D01*
X0029455Y0223603D01*
X0029607Y0223646D01*
X0029760Y0223685D01*
X0029915Y0223721D01*
X0030070Y0223752D01*
X0030226Y0223780D01*
X0030382Y0223804D01*
X0030539Y0223824D01*
X0030697Y0223840D01*
X0030854Y0223852D01*
X0031013Y0223860D01*
X0031171Y0223864D01*
X0031329Y0223864D01*
X0031487Y0223860D01*
X0031646Y0223852D01*
X0031803Y0223840D01*
X0031961Y0223824D01*
X0032118Y0223804D01*
X0032274Y0223780D01*
X0032430Y0223752D01*
X0032585Y0223721D01*
X0032740Y0223685D01*
X0032893Y0223646D01*
X0033045Y0223603D01*
X0033196Y0223556D01*
X0033346Y0223505D01*
X0033495Y0223450D01*
X0033642Y0223392D01*
X0033788Y0223330D01*
X0033932Y0223265D01*
X0034074Y0223195D01*
X0034215Y0223123D01*
X0034354Y0223046D01*
X0034490Y0222967D01*
X0034625Y0222883D01*
X0034758Y0222797D01*
X0034888Y0222707D01*
X0035016Y0222614D01*
X0035142Y0222518D01*
X0035265Y0222418D01*
X0035386Y0222316D01*
X0035504Y0222211D01*
X0035619Y0222102D01*
X0035732Y0221991D01*
X0035842Y0221877D01*
X0035949Y0221760D01*
X0036053Y0221641D01*
X0036154Y0221519D01*
X0036251Y0221394D01*
X0036346Y0221267D01*
X0036437Y0221138D01*
X0036526Y0221007D01*
X0036610Y0220873D01*
X0036692Y0220737D01*
X0036770Y0220600D01*
X0036844Y0220460D01*
X0036915Y0220318D01*
X0036983Y0220175D01*
X0037047Y0220030D01*
X0037107Y0219884D01*
X0037163Y0219736D01*
X0037216Y0219587D01*
X0037265Y0219436D01*
X0037310Y0219284D01*
X0037351Y0219131D01*
X0037389Y0218978D01*
X0037422Y0218823D01*
X0037452Y0218667D01*
X0037478Y0218511D01*
X0037499Y0218354D01*
X0037517Y0218197D01*
X0037531Y0218039D01*
X0037541Y0217881D01*
X0037547Y0217723D01*
X0037549Y0217565D01*
X0037547Y0217407D01*
X0037541Y0217249D01*
X0037531Y0217091D01*
X0037517Y0216933D01*
X0037499Y0216776D01*
X0037478Y0216619D01*
X0037452Y0216463D01*
X0037422Y0216307D01*
X0037389Y0216152D01*
X0037351Y0215999D01*
X0037310Y0215846D01*
X0037265Y0215694D01*
X0037216Y0215543D01*
X0037163Y0215394D01*
X0037107Y0215246D01*
X0037047Y0215100D01*
X0036983Y0214955D01*
X0036915Y0214812D01*
X0036844Y0214670D01*
X0036770Y0214530D01*
X0036692Y0214393D01*
X0036610Y0214257D01*
X0036526Y0214123D01*
X0036437Y0213992D01*
X0036346Y0213863D01*
X0036251Y0213736D01*
X0036154Y0213611D01*
X0036053Y0213489D01*
X0035949Y0213370D01*
X0035842Y0213253D01*
X0035732Y0213139D01*
X0035619Y0213028D01*
X0035504Y0212919D01*
X0035386Y0212814D01*
X0035265Y0212712D01*
X0035142Y0212612D01*
X0035016Y0212516D01*
X0034888Y0212423D01*
X0034758Y0212333D01*
X0034625Y0212247D01*
X0034490Y0212163D01*
X0034354Y0212084D01*
X0034215Y0212007D01*
X0034074Y0211935D01*
X0033932Y0211865D01*
X0033788Y0211800D01*
X0033642Y0211738D01*
X0033495Y0211680D01*
X0033346Y0211625D01*
X0033196Y0211574D01*
X0033045Y0211527D01*
X0032893Y0211484D01*
X0032740Y0211445D01*
X0032585Y0211409D01*
X0032430Y0211378D01*
X0032274Y0211350D01*
X0032118Y0211326D01*
X0031961Y0211306D01*
X0031803Y0211290D01*
X0031646Y0211278D01*
X0031487Y0211270D01*
X0031329Y0211266D01*
X0031171Y0211266D01*
X0031013Y0211270D01*
X0030854Y0211278D01*
X0030697Y0211290D01*
X0030539Y0211306D01*
X0030382Y0211326D01*
X0030226Y0211350D01*
X0030070Y0211378D01*
X0029915Y0211409D01*
X0029760Y0211445D01*
X0029607Y0211484D01*
X0029455Y0211527D01*
X0029304Y0211574D01*
X0029154Y0211625D01*
X0029005Y0211680D01*
X0028858Y0211738D01*
X0028712Y0211800D01*
X0028568Y0211865D01*
X0028426Y0211935D01*
X0028285Y0212007D01*
X0028146Y0212084D01*
X0028010Y0212163D01*
X0027875Y0212247D01*
X0027742Y0212333D01*
X0027612Y0212423D01*
X0027484Y0212516D01*
X0027358Y0212612D01*
X0027235Y0212712D01*
X0027114Y0212814D01*
X0026996Y0212919D01*
X0026881Y0213028D01*
X0026768Y0213139D01*
X0026658Y0213253D01*
X0026551Y0213370D01*
X0026447Y0213489D01*
X0026346Y0213611D01*
X0026249Y0213736D01*
X0026154Y0213863D01*
X0026063Y0213992D01*
X0025974Y0214123D01*
X0025890Y0214257D01*
X0025808Y0214393D01*
X0025730Y0214530D01*
X0025656Y0214670D01*
X0025585Y0214812D01*
X0025517Y0214955D01*
X0025453Y0215100D01*
X0025393Y0215246D01*
X0025337Y0215394D01*
X0025284Y0215543D01*
X0025235Y0215694D01*
X0025190Y0215846D01*
X0025149Y0215999D01*
X0025111Y0216152D01*
X0025078Y0216307D01*
X0025048Y0216463D01*
X0025022Y0216619D01*
X0025001Y0216776D01*
X0024983Y0216933D01*
X0024969Y0217091D01*
X0024959Y0217249D01*
X0024953Y0217407D01*
X0024951Y0217565D01*
X0024951Y0236315D02*
X0024953Y0236473D01*
X0024959Y0236631D01*
X0024969Y0236789D01*
X0024983Y0236947D01*
X0025001Y0237104D01*
X0025022Y0237261D01*
X0025048Y0237417D01*
X0025078Y0237573D01*
X0025111Y0237728D01*
X0025149Y0237881D01*
X0025190Y0238034D01*
X0025235Y0238186D01*
X0025284Y0238337D01*
X0025337Y0238486D01*
X0025393Y0238634D01*
X0025453Y0238780D01*
X0025517Y0238925D01*
X0025585Y0239068D01*
X0025656Y0239210D01*
X0025730Y0239350D01*
X0025808Y0239487D01*
X0025890Y0239623D01*
X0025974Y0239757D01*
X0026063Y0239888D01*
X0026154Y0240017D01*
X0026249Y0240144D01*
X0026346Y0240269D01*
X0026447Y0240391D01*
X0026551Y0240510D01*
X0026658Y0240627D01*
X0026768Y0240741D01*
X0026881Y0240852D01*
X0026996Y0240961D01*
X0027114Y0241066D01*
X0027235Y0241168D01*
X0027358Y0241268D01*
X0027484Y0241364D01*
X0027612Y0241457D01*
X0027742Y0241547D01*
X0027875Y0241633D01*
X0028010Y0241717D01*
X0028146Y0241796D01*
X0028285Y0241873D01*
X0028426Y0241945D01*
X0028568Y0242015D01*
X0028712Y0242080D01*
X0028858Y0242142D01*
X0029005Y0242200D01*
X0029154Y0242255D01*
X0029304Y0242306D01*
X0029455Y0242353D01*
X0029607Y0242396D01*
X0029760Y0242435D01*
X0029915Y0242471D01*
X0030070Y0242502D01*
X0030226Y0242530D01*
X0030382Y0242554D01*
X0030539Y0242574D01*
X0030697Y0242590D01*
X0030854Y0242602D01*
X0031013Y0242610D01*
X0031171Y0242614D01*
X0031329Y0242614D01*
X0031487Y0242610D01*
X0031646Y0242602D01*
X0031803Y0242590D01*
X0031961Y0242574D01*
X0032118Y0242554D01*
X0032274Y0242530D01*
X0032430Y0242502D01*
X0032585Y0242471D01*
X0032740Y0242435D01*
X0032893Y0242396D01*
X0033045Y0242353D01*
X0033196Y0242306D01*
X0033346Y0242255D01*
X0033495Y0242200D01*
X0033642Y0242142D01*
X0033788Y0242080D01*
X0033932Y0242015D01*
X0034074Y0241945D01*
X0034215Y0241873D01*
X0034354Y0241796D01*
X0034490Y0241717D01*
X0034625Y0241633D01*
X0034758Y0241547D01*
X0034888Y0241457D01*
X0035016Y0241364D01*
X0035142Y0241268D01*
X0035265Y0241168D01*
X0035386Y0241066D01*
X0035504Y0240961D01*
X0035619Y0240852D01*
X0035732Y0240741D01*
X0035842Y0240627D01*
X0035949Y0240510D01*
X0036053Y0240391D01*
X0036154Y0240269D01*
X0036251Y0240144D01*
X0036346Y0240017D01*
X0036437Y0239888D01*
X0036526Y0239757D01*
X0036610Y0239623D01*
X0036692Y0239487D01*
X0036770Y0239350D01*
X0036844Y0239210D01*
X0036915Y0239068D01*
X0036983Y0238925D01*
X0037047Y0238780D01*
X0037107Y0238634D01*
X0037163Y0238486D01*
X0037216Y0238337D01*
X0037265Y0238186D01*
X0037310Y0238034D01*
X0037351Y0237881D01*
X0037389Y0237728D01*
X0037422Y0237573D01*
X0037452Y0237417D01*
X0037478Y0237261D01*
X0037499Y0237104D01*
X0037517Y0236947D01*
X0037531Y0236789D01*
X0037541Y0236631D01*
X0037547Y0236473D01*
X0037549Y0236315D01*
X0037547Y0236157D01*
X0037541Y0235999D01*
X0037531Y0235841D01*
X0037517Y0235683D01*
X0037499Y0235526D01*
X0037478Y0235369D01*
X0037452Y0235213D01*
X0037422Y0235057D01*
X0037389Y0234902D01*
X0037351Y0234749D01*
X0037310Y0234596D01*
X0037265Y0234444D01*
X0037216Y0234293D01*
X0037163Y0234144D01*
X0037107Y0233996D01*
X0037047Y0233850D01*
X0036983Y0233705D01*
X0036915Y0233562D01*
X0036844Y0233420D01*
X0036770Y0233280D01*
X0036692Y0233143D01*
X0036610Y0233007D01*
X0036526Y0232873D01*
X0036437Y0232742D01*
X0036346Y0232613D01*
X0036251Y0232486D01*
X0036154Y0232361D01*
X0036053Y0232239D01*
X0035949Y0232120D01*
X0035842Y0232003D01*
X0035732Y0231889D01*
X0035619Y0231778D01*
X0035504Y0231669D01*
X0035386Y0231564D01*
X0035265Y0231462D01*
X0035142Y0231362D01*
X0035016Y0231266D01*
X0034888Y0231173D01*
X0034758Y0231083D01*
X0034625Y0230997D01*
X0034490Y0230913D01*
X0034354Y0230834D01*
X0034215Y0230757D01*
X0034074Y0230685D01*
X0033932Y0230615D01*
X0033788Y0230550D01*
X0033642Y0230488D01*
X0033495Y0230430D01*
X0033346Y0230375D01*
X0033196Y0230324D01*
X0033045Y0230277D01*
X0032893Y0230234D01*
X0032740Y0230195D01*
X0032585Y0230159D01*
X0032430Y0230128D01*
X0032274Y0230100D01*
X0032118Y0230076D01*
X0031961Y0230056D01*
X0031803Y0230040D01*
X0031646Y0230028D01*
X0031487Y0230020D01*
X0031329Y0230016D01*
X0031171Y0230016D01*
X0031013Y0230020D01*
X0030854Y0230028D01*
X0030697Y0230040D01*
X0030539Y0230056D01*
X0030382Y0230076D01*
X0030226Y0230100D01*
X0030070Y0230128D01*
X0029915Y0230159D01*
X0029760Y0230195D01*
X0029607Y0230234D01*
X0029455Y0230277D01*
X0029304Y0230324D01*
X0029154Y0230375D01*
X0029005Y0230430D01*
X0028858Y0230488D01*
X0028712Y0230550D01*
X0028568Y0230615D01*
X0028426Y0230685D01*
X0028285Y0230757D01*
X0028146Y0230834D01*
X0028010Y0230913D01*
X0027875Y0230997D01*
X0027742Y0231083D01*
X0027612Y0231173D01*
X0027484Y0231266D01*
X0027358Y0231362D01*
X0027235Y0231462D01*
X0027114Y0231564D01*
X0026996Y0231669D01*
X0026881Y0231778D01*
X0026768Y0231889D01*
X0026658Y0232003D01*
X0026551Y0232120D01*
X0026447Y0232239D01*
X0026346Y0232361D01*
X0026249Y0232486D01*
X0026154Y0232613D01*
X0026063Y0232742D01*
X0025974Y0232873D01*
X0025890Y0233007D01*
X0025808Y0233143D01*
X0025730Y0233280D01*
X0025656Y0233420D01*
X0025585Y0233562D01*
X0025517Y0233705D01*
X0025453Y0233850D01*
X0025393Y0233996D01*
X0025337Y0234144D01*
X0025284Y0234293D01*
X0025235Y0234444D01*
X0025190Y0234596D01*
X0025149Y0234749D01*
X0025111Y0234902D01*
X0025078Y0235057D01*
X0025048Y0235213D01*
X0025022Y0235369D01*
X0025001Y0235526D01*
X0024983Y0235683D01*
X0024969Y0235841D01*
X0024959Y0235999D01*
X0024953Y0236157D01*
X0024951Y0236315D01*
X0024951Y0281315D02*
X0024953Y0281473D01*
X0024959Y0281631D01*
X0024969Y0281789D01*
X0024983Y0281947D01*
X0025001Y0282104D01*
X0025022Y0282261D01*
X0025048Y0282417D01*
X0025078Y0282573D01*
X0025111Y0282728D01*
X0025149Y0282881D01*
X0025190Y0283034D01*
X0025235Y0283186D01*
X0025284Y0283337D01*
X0025337Y0283486D01*
X0025393Y0283634D01*
X0025453Y0283780D01*
X0025517Y0283925D01*
X0025585Y0284068D01*
X0025656Y0284210D01*
X0025730Y0284350D01*
X0025808Y0284487D01*
X0025890Y0284623D01*
X0025974Y0284757D01*
X0026063Y0284888D01*
X0026154Y0285017D01*
X0026249Y0285144D01*
X0026346Y0285269D01*
X0026447Y0285391D01*
X0026551Y0285510D01*
X0026658Y0285627D01*
X0026768Y0285741D01*
X0026881Y0285852D01*
X0026996Y0285961D01*
X0027114Y0286066D01*
X0027235Y0286168D01*
X0027358Y0286268D01*
X0027484Y0286364D01*
X0027612Y0286457D01*
X0027742Y0286547D01*
X0027875Y0286633D01*
X0028010Y0286717D01*
X0028146Y0286796D01*
X0028285Y0286873D01*
X0028426Y0286945D01*
X0028568Y0287015D01*
X0028712Y0287080D01*
X0028858Y0287142D01*
X0029005Y0287200D01*
X0029154Y0287255D01*
X0029304Y0287306D01*
X0029455Y0287353D01*
X0029607Y0287396D01*
X0029760Y0287435D01*
X0029915Y0287471D01*
X0030070Y0287502D01*
X0030226Y0287530D01*
X0030382Y0287554D01*
X0030539Y0287574D01*
X0030697Y0287590D01*
X0030854Y0287602D01*
X0031013Y0287610D01*
X0031171Y0287614D01*
X0031329Y0287614D01*
X0031487Y0287610D01*
X0031646Y0287602D01*
X0031803Y0287590D01*
X0031961Y0287574D01*
X0032118Y0287554D01*
X0032274Y0287530D01*
X0032430Y0287502D01*
X0032585Y0287471D01*
X0032740Y0287435D01*
X0032893Y0287396D01*
X0033045Y0287353D01*
X0033196Y0287306D01*
X0033346Y0287255D01*
X0033495Y0287200D01*
X0033642Y0287142D01*
X0033788Y0287080D01*
X0033932Y0287015D01*
X0034074Y0286945D01*
X0034215Y0286873D01*
X0034354Y0286796D01*
X0034490Y0286717D01*
X0034625Y0286633D01*
X0034758Y0286547D01*
X0034888Y0286457D01*
X0035016Y0286364D01*
X0035142Y0286268D01*
X0035265Y0286168D01*
X0035386Y0286066D01*
X0035504Y0285961D01*
X0035619Y0285852D01*
X0035732Y0285741D01*
X0035842Y0285627D01*
X0035949Y0285510D01*
X0036053Y0285391D01*
X0036154Y0285269D01*
X0036251Y0285144D01*
X0036346Y0285017D01*
X0036437Y0284888D01*
X0036526Y0284757D01*
X0036610Y0284623D01*
X0036692Y0284487D01*
X0036770Y0284350D01*
X0036844Y0284210D01*
X0036915Y0284068D01*
X0036983Y0283925D01*
X0037047Y0283780D01*
X0037107Y0283634D01*
X0037163Y0283486D01*
X0037216Y0283337D01*
X0037265Y0283186D01*
X0037310Y0283034D01*
X0037351Y0282881D01*
X0037389Y0282728D01*
X0037422Y0282573D01*
X0037452Y0282417D01*
X0037478Y0282261D01*
X0037499Y0282104D01*
X0037517Y0281947D01*
X0037531Y0281789D01*
X0037541Y0281631D01*
X0037547Y0281473D01*
X0037549Y0281315D01*
X0037547Y0281157D01*
X0037541Y0280999D01*
X0037531Y0280841D01*
X0037517Y0280683D01*
X0037499Y0280526D01*
X0037478Y0280369D01*
X0037452Y0280213D01*
X0037422Y0280057D01*
X0037389Y0279902D01*
X0037351Y0279749D01*
X0037310Y0279596D01*
X0037265Y0279444D01*
X0037216Y0279293D01*
X0037163Y0279144D01*
X0037107Y0278996D01*
X0037047Y0278850D01*
X0036983Y0278705D01*
X0036915Y0278562D01*
X0036844Y0278420D01*
X0036770Y0278280D01*
X0036692Y0278143D01*
X0036610Y0278007D01*
X0036526Y0277873D01*
X0036437Y0277742D01*
X0036346Y0277613D01*
X0036251Y0277486D01*
X0036154Y0277361D01*
X0036053Y0277239D01*
X0035949Y0277120D01*
X0035842Y0277003D01*
X0035732Y0276889D01*
X0035619Y0276778D01*
X0035504Y0276669D01*
X0035386Y0276564D01*
X0035265Y0276462D01*
X0035142Y0276362D01*
X0035016Y0276266D01*
X0034888Y0276173D01*
X0034758Y0276083D01*
X0034625Y0275997D01*
X0034490Y0275913D01*
X0034354Y0275834D01*
X0034215Y0275757D01*
X0034074Y0275685D01*
X0033932Y0275615D01*
X0033788Y0275550D01*
X0033642Y0275488D01*
X0033495Y0275430D01*
X0033346Y0275375D01*
X0033196Y0275324D01*
X0033045Y0275277D01*
X0032893Y0275234D01*
X0032740Y0275195D01*
X0032585Y0275159D01*
X0032430Y0275128D01*
X0032274Y0275100D01*
X0032118Y0275076D01*
X0031961Y0275056D01*
X0031803Y0275040D01*
X0031646Y0275028D01*
X0031487Y0275020D01*
X0031329Y0275016D01*
X0031171Y0275016D01*
X0031013Y0275020D01*
X0030854Y0275028D01*
X0030697Y0275040D01*
X0030539Y0275056D01*
X0030382Y0275076D01*
X0030226Y0275100D01*
X0030070Y0275128D01*
X0029915Y0275159D01*
X0029760Y0275195D01*
X0029607Y0275234D01*
X0029455Y0275277D01*
X0029304Y0275324D01*
X0029154Y0275375D01*
X0029005Y0275430D01*
X0028858Y0275488D01*
X0028712Y0275550D01*
X0028568Y0275615D01*
X0028426Y0275685D01*
X0028285Y0275757D01*
X0028146Y0275834D01*
X0028010Y0275913D01*
X0027875Y0275997D01*
X0027742Y0276083D01*
X0027612Y0276173D01*
X0027484Y0276266D01*
X0027358Y0276362D01*
X0027235Y0276462D01*
X0027114Y0276564D01*
X0026996Y0276669D01*
X0026881Y0276778D01*
X0026768Y0276889D01*
X0026658Y0277003D01*
X0026551Y0277120D01*
X0026447Y0277239D01*
X0026346Y0277361D01*
X0026249Y0277486D01*
X0026154Y0277613D01*
X0026063Y0277742D01*
X0025974Y0277873D01*
X0025890Y0278007D01*
X0025808Y0278143D01*
X0025730Y0278280D01*
X0025656Y0278420D01*
X0025585Y0278562D01*
X0025517Y0278705D01*
X0025453Y0278850D01*
X0025393Y0278996D01*
X0025337Y0279144D01*
X0025284Y0279293D01*
X0025235Y0279444D01*
X0025190Y0279596D01*
X0025149Y0279749D01*
X0025111Y0279902D01*
X0025078Y0280057D01*
X0025048Y0280213D01*
X0025022Y0280369D01*
X0025001Y0280526D01*
X0024983Y0280683D01*
X0024969Y0280841D01*
X0024959Y0280999D01*
X0024953Y0281157D01*
X0024951Y0281315D01*
X0181293Y0274133D02*
X0181295Y0274252D01*
X0181301Y0274370D01*
X0181311Y0274488D01*
X0181325Y0274606D01*
X0181342Y0274723D01*
X0181364Y0274840D01*
X0181390Y0274956D01*
X0181419Y0275071D01*
X0181452Y0275185D01*
X0181489Y0275297D01*
X0181530Y0275409D01*
X0181575Y0275519D01*
X0181623Y0275627D01*
X0181675Y0275734D01*
X0181730Y0275839D01*
X0181789Y0275942D01*
X0181851Y0276043D01*
X0181916Y0276142D01*
X0181985Y0276239D01*
X0182057Y0276333D01*
X0182132Y0276425D01*
X0182210Y0276514D01*
X0182291Y0276601D01*
X0182375Y0276685D01*
X0182462Y0276766D01*
X0182551Y0276844D01*
X0182643Y0276919D01*
X0182737Y0276991D01*
X0182834Y0277060D01*
X0182933Y0277125D01*
X0183034Y0277187D01*
X0183137Y0277246D01*
X0183242Y0277301D01*
X0183349Y0277353D01*
X0183457Y0277401D01*
X0183567Y0277446D01*
X0183679Y0277487D01*
X0183791Y0277524D01*
X0183905Y0277557D01*
X0184020Y0277586D01*
X0184136Y0277612D01*
X0184253Y0277634D01*
X0184370Y0277651D01*
X0184488Y0277665D01*
X0184606Y0277675D01*
X0184724Y0277681D01*
X0184843Y0277683D01*
X0184962Y0277681D01*
X0185080Y0277675D01*
X0185198Y0277665D01*
X0185316Y0277651D01*
X0185433Y0277634D01*
X0185550Y0277612D01*
X0185666Y0277586D01*
X0185781Y0277557D01*
X0185895Y0277524D01*
X0186007Y0277487D01*
X0186119Y0277446D01*
X0186229Y0277401D01*
X0186337Y0277353D01*
X0186444Y0277301D01*
X0186549Y0277246D01*
X0186652Y0277187D01*
X0186753Y0277125D01*
X0186852Y0277060D01*
X0186949Y0276991D01*
X0187043Y0276919D01*
X0187135Y0276844D01*
X0187224Y0276766D01*
X0187311Y0276685D01*
X0187395Y0276601D01*
X0187476Y0276514D01*
X0187554Y0276425D01*
X0187629Y0276333D01*
X0187701Y0276239D01*
X0187770Y0276142D01*
X0187835Y0276043D01*
X0187897Y0275942D01*
X0187956Y0275839D01*
X0188011Y0275734D01*
X0188063Y0275627D01*
X0188111Y0275519D01*
X0188156Y0275409D01*
X0188197Y0275297D01*
X0188234Y0275185D01*
X0188267Y0275071D01*
X0188296Y0274956D01*
X0188322Y0274840D01*
X0188344Y0274723D01*
X0188361Y0274606D01*
X0188375Y0274488D01*
X0188385Y0274370D01*
X0188391Y0274252D01*
X0188393Y0274133D01*
X0188391Y0274014D01*
X0188385Y0273896D01*
X0188375Y0273778D01*
X0188361Y0273660D01*
X0188344Y0273543D01*
X0188322Y0273426D01*
X0188296Y0273310D01*
X0188267Y0273195D01*
X0188234Y0273081D01*
X0188197Y0272969D01*
X0188156Y0272857D01*
X0188111Y0272747D01*
X0188063Y0272639D01*
X0188011Y0272532D01*
X0187956Y0272427D01*
X0187897Y0272324D01*
X0187835Y0272223D01*
X0187770Y0272124D01*
X0187701Y0272027D01*
X0187629Y0271933D01*
X0187554Y0271841D01*
X0187476Y0271752D01*
X0187395Y0271665D01*
X0187311Y0271581D01*
X0187224Y0271500D01*
X0187135Y0271422D01*
X0187043Y0271347D01*
X0186949Y0271275D01*
X0186852Y0271206D01*
X0186753Y0271141D01*
X0186652Y0271079D01*
X0186549Y0271020D01*
X0186444Y0270965D01*
X0186337Y0270913D01*
X0186229Y0270865D01*
X0186119Y0270820D01*
X0186007Y0270779D01*
X0185895Y0270742D01*
X0185781Y0270709D01*
X0185666Y0270680D01*
X0185550Y0270654D01*
X0185433Y0270632D01*
X0185316Y0270615D01*
X0185198Y0270601D01*
X0185080Y0270591D01*
X0184962Y0270585D01*
X0184843Y0270583D01*
X0184724Y0270585D01*
X0184606Y0270591D01*
X0184488Y0270601D01*
X0184370Y0270615D01*
X0184253Y0270632D01*
X0184136Y0270654D01*
X0184020Y0270680D01*
X0183905Y0270709D01*
X0183791Y0270742D01*
X0183679Y0270779D01*
X0183567Y0270820D01*
X0183457Y0270865D01*
X0183349Y0270913D01*
X0183242Y0270965D01*
X0183137Y0271020D01*
X0183034Y0271079D01*
X0182933Y0271141D01*
X0182834Y0271206D01*
X0182737Y0271275D01*
X0182643Y0271347D01*
X0182551Y0271422D01*
X0182462Y0271500D01*
X0182375Y0271581D01*
X0182291Y0271665D01*
X0182210Y0271752D01*
X0182132Y0271841D01*
X0182057Y0271933D01*
X0181985Y0272027D01*
X0181916Y0272124D01*
X0181851Y0272223D01*
X0181789Y0272324D01*
X0181730Y0272427D01*
X0181675Y0272532D01*
X0181623Y0272639D01*
X0181575Y0272747D01*
X0181530Y0272857D01*
X0181489Y0272969D01*
X0181452Y0273081D01*
X0181419Y0273195D01*
X0181390Y0273310D01*
X0181364Y0273426D01*
X0181342Y0273543D01*
X0181325Y0273660D01*
X0181311Y0273778D01*
X0181301Y0273896D01*
X0181295Y0274014D01*
X0181293Y0274133D01*
X0181300Y0238733D02*
X0181302Y0238851D01*
X0181308Y0238970D01*
X0181318Y0239088D01*
X0181332Y0239205D01*
X0181349Y0239322D01*
X0181371Y0239439D01*
X0181397Y0239554D01*
X0181426Y0239669D01*
X0181459Y0239783D01*
X0181496Y0239895D01*
X0181537Y0240006D01*
X0181581Y0240116D01*
X0181629Y0240224D01*
X0181681Y0240331D01*
X0181736Y0240436D01*
X0181795Y0240539D01*
X0181857Y0240639D01*
X0181922Y0240738D01*
X0181991Y0240835D01*
X0182062Y0240929D01*
X0182137Y0241020D01*
X0182215Y0241110D01*
X0182296Y0241196D01*
X0182380Y0241280D01*
X0182466Y0241361D01*
X0182556Y0241439D01*
X0182647Y0241514D01*
X0182741Y0241585D01*
X0182838Y0241654D01*
X0182937Y0241719D01*
X0183037Y0241781D01*
X0183140Y0241840D01*
X0183245Y0241895D01*
X0183352Y0241947D01*
X0183460Y0241995D01*
X0183570Y0242039D01*
X0183681Y0242080D01*
X0183793Y0242117D01*
X0183907Y0242150D01*
X0184022Y0242179D01*
X0184137Y0242205D01*
X0184254Y0242227D01*
X0184371Y0242244D01*
X0184488Y0242258D01*
X0184606Y0242268D01*
X0184725Y0242274D01*
X0184843Y0242276D01*
X0184961Y0242274D01*
X0185080Y0242268D01*
X0185198Y0242258D01*
X0185315Y0242244D01*
X0185432Y0242227D01*
X0185549Y0242205D01*
X0185664Y0242179D01*
X0185779Y0242150D01*
X0185893Y0242117D01*
X0186005Y0242080D01*
X0186116Y0242039D01*
X0186226Y0241995D01*
X0186334Y0241947D01*
X0186441Y0241895D01*
X0186546Y0241840D01*
X0186649Y0241781D01*
X0186749Y0241719D01*
X0186848Y0241654D01*
X0186945Y0241585D01*
X0187039Y0241514D01*
X0187130Y0241439D01*
X0187220Y0241361D01*
X0187306Y0241280D01*
X0187390Y0241196D01*
X0187471Y0241110D01*
X0187549Y0241020D01*
X0187624Y0240929D01*
X0187695Y0240835D01*
X0187764Y0240738D01*
X0187829Y0240639D01*
X0187891Y0240539D01*
X0187950Y0240436D01*
X0188005Y0240331D01*
X0188057Y0240224D01*
X0188105Y0240116D01*
X0188149Y0240006D01*
X0188190Y0239895D01*
X0188227Y0239783D01*
X0188260Y0239669D01*
X0188289Y0239554D01*
X0188315Y0239439D01*
X0188337Y0239322D01*
X0188354Y0239205D01*
X0188368Y0239088D01*
X0188378Y0238970D01*
X0188384Y0238851D01*
X0188386Y0238733D01*
X0188384Y0238615D01*
X0188378Y0238496D01*
X0188368Y0238378D01*
X0188354Y0238261D01*
X0188337Y0238144D01*
X0188315Y0238027D01*
X0188289Y0237912D01*
X0188260Y0237797D01*
X0188227Y0237683D01*
X0188190Y0237571D01*
X0188149Y0237460D01*
X0188105Y0237350D01*
X0188057Y0237242D01*
X0188005Y0237135D01*
X0187950Y0237030D01*
X0187891Y0236927D01*
X0187829Y0236827D01*
X0187764Y0236728D01*
X0187695Y0236631D01*
X0187624Y0236537D01*
X0187549Y0236446D01*
X0187471Y0236356D01*
X0187390Y0236270D01*
X0187306Y0236186D01*
X0187220Y0236105D01*
X0187130Y0236027D01*
X0187039Y0235952D01*
X0186945Y0235881D01*
X0186848Y0235812D01*
X0186749Y0235747D01*
X0186649Y0235685D01*
X0186546Y0235626D01*
X0186441Y0235571D01*
X0186334Y0235519D01*
X0186226Y0235471D01*
X0186116Y0235427D01*
X0186005Y0235386D01*
X0185893Y0235349D01*
X0185779Y0235316D01*
X0185664Y0235287D01*
X0185549Y0235261D01*
X0185432Y0235239D01*
X0185315Y0235222D01*
X0185198Y0235208D01*
X0185080Y0235198D01*
X0184961Y0235192D01*
X0184843Y0235190D01*
X0184725Y0235192D01*
X0184606Y0235198D01*
X0184488Y0235208D01*
X0184371Y0235222D01*
X0184254Y0235239D01*
X0184137Y0235261D01*
X0184022Y0235287D01*
X0183907Y0235316D01*
X0183793Y0235349D01*
X0183681Y0235386D01*
X0183570Y0235427D01*
X0183460Y0235471D01*
X0183352Y0235519D01*
X0183245Y0235571D01*
X0183140Y0235626D01*
X0183037Y0235685D01*
X0182937Y0235747D01*
X0182838Y0235812D01*
X0182741Y0235881D01*
X0182647Y0235952D01*
X0182556Y0236027D01*
X0182466Y0236105D01*
X0182380Y0236186D01*
X0182296Y0236270D01*
X0182215Y0236356D01*
X0182137Y0236446D01*
X0182062Y0236537D01*
X0181991Y0236631D01*
X0181922Y0236728D01*
X0181857Y0236827D01*
X0181795Y0236927D01*
X0181736Y0237030D01*
X0181681Y0237135D01*
X0181629Y0237242D01*
X0181581Y0237350D01*
X0181537Y0237460D01*
X0181496Y0237571D01*
X0181459Y0237683D01*
X0181426Y0237797D01*
X0181397Y0237912D01*
X0181371Y0238027D01*
X0181349Y0238144D01*
X0181332Y0238261D01*
X0181318Y0238378D01*
X0181308Y0238496D01*
X0181302Y0238615D01*
X0181300Y0238733D01*
X0341281Y0263933D02*
X0341283Y0264125D01*
X0341290Y0264316D01*
X0341302Y0264508D01*
X0341319Y0264699D01*
X0341340Y0264889D01*
X0341366Y0265079D01*
X0341396Y0265269D01*
X0341431Y0265457D01*
X0341471Y0265645D01*
X0341515Y0265831D01*
X0341564Y0266017D01*
X0341617Y0266201D01*
X0341675Y0266383D01*
X0341738Y0266565D01*
X0341804Y0266745D01*
X0341876Y0266923D01*
X0341951Y0267099D01*
X0342031Y0267273D01*
X0342115Y0267445D01*
X0342203Y0267616D01*
X0342296Y0267784D01*
X0342392Y0267949D01*
X0342493Y0268112D01*
X0342598Y0268273D01*
X0342706Y0268431D01*
X0342818Y0268587D01*
X0342934Y0268739D01*
X0343054Y0268889D01*
X0343178Y0269036D01*
X0343305Y0269179D01*
X0343435Y0269320D01*
X0343569Y0269457D01*
X0343706Y0269591D01*
X0343847Y0269721D01*
X0343990Y0269848D01*
X0344137Y0269972D01*
X0344287Y0270092D01*
X0344439Y0270208D01*
X0344595Y0270320D01*
X0344753Y0270428D01*
X0344914Y0270533D01*
X0345077Y0270634D01*
X0345242Y0270730D01*
X0345410Y0270823D01*
X0345581Y0270911D01*
X0345753Y0270995D01*
X0345927Y0271075D01*
X0346103Y0271150D01*
X0346281Y0271222D01*
X0346461Y0271288D01*
X0346643Y0271351D01*
X0346825Y0271409D01*
X0347009Y0271462D01*
X0347195Y0271511D01*
X0347381Y0271555D01*
X0347569Y0271595D01*
X0347757Y0271630D01*
X0347947Y0271660D01*
X0348137Y0271686D01*
X0348327Y0271707D01*
X0348518Y0271724D01*
X0348710Y0271736D01*
X0348901Y0271743D01*
X0349093Y0271745D01*
X0349285Y0271743D01*
X0349476Y0271736D01*
X0349668Y0271724D01*
X0349859Y0271707D01*
X0350049Y0271686D01*
X0350239Y0271660D01*
X0350429Y0271630D01*
X0350617Y0271595D01*
X0350805Y0271555D01*
X0350991Y0271511D01*
X0351177Y0271462D01*
X0351361Y0271409D01*
X0351543Y0271351D01*
X0351725Y0271288D01*
X0351905Y0271222D01*
X0352083Y0271150D01*
X0352259Y0271075D01*
X0352433Y0270995D01*
X0352605Y0270911D01*
X0352776Y0270823D01*
X0352944Y0270730D01*
X0353109Y0270634D01*
X0353272Y0270533D01*
X0353433Y0270428D01*
X0353591Y0270320D01*
X0353747Y0270208D01*
X0353899Y0270092D01*
X0354049Y0269972D01*
X0354196Y0269848D01*
X0354339Y0269721D01*
X0354480Y0269591D01*
X0354617Y0269457D01*
X0354751Y0269320D01*
X0354881Y0269179D01*
X0355008Y0269036D01*
X0355132Y0268889D01*
X0355252Y0268739D01*
X0355368Y0268587D01*
X0355480Y0268431D01*
X0355588Y0268273D01*
X0355693Y0268112D01*
X0355794Y0267949D01*
X0355890Y0267784D01*
X0355983Y0267616D01*
X0356071Y0267445D01*
X0356155Y0267273D01*
X0356235Y0267099D01*
X0356310Y0266923D01*
X0356382Y0266745D01*
X0356448Y0266565D01*
X0356511Y0266383D01*
X0356569Y0266201D01*
X0356622Y0266017D01*
X0356671Y0265831D01*
X0356715Y0265645D01*
X0356755Y0265457D01*
X0356790Y0265269D01*
X0356820Y0265079D01*
X0356846Y0264889D01*
X0356867Y0264699D01*
X0356884Y0264508D01*
X0356896Y0264316D01*
X0356903Y0264125D01*
X0356905Y0263933D01*
X0356903Y0263741D01*
X0356896Y0263550D01*
X0356884Y0263358D01*
X0356867Y0263167D01*
X0356846Y0262977D01*
X0356820Y0262787D01*
X0356790Y0262597D01*
X0356755Y0262409D01*
X0356715Y0262221D01*
X0356671Y0262035D01*
X0356622Y0261849D01*
X0356569Y0261665D01*
X0356511Y0261483D01*
X0356448Y0261301D01*
X0356382Y0261121D01*
X0356310Y0260943D01*
X0356235Y0260767D01*
X0356155Y0260593D01*
X0356071Y0260421D01*
X0355983Y0260250D01*
X0355890Y0260082D01*
X0355794Y0259917D01*
X0355693Y0259754D01*
X0355588Y0259593D01*
X0355480Y0259435D01*
X0355368Y0259279D01*
X0355252Y0259127D01*
X0355132Y0258977D01*
X0355008Y0258830D01*
X0354881Y0258687D01*
X0354751Y0258546D01*
X0354617Y0258409D01*
X0354480Y0258275D01*
X0354339Y0258145D01*
X0354196Y0258018D01*
X0354049Y0257894D01*
X0353899Y0257774D01*
X0353747Y0257658D01*
X0353591Y0257546D01*
X0353433Y0257438D01*
X0353272Y0257333D01*
X0353109Y0257232D01*
X0352944Y0257136D01*
X0352776Y0257043D01*
X0352605Y0256955D01*
X0352433Y0256871D01*
X0352259Y0256791D01*
X0352083Y0256716D01*
X0351905Y0256644D01*
X0351725Y0256578D01*
X0351543Y0256515D01*
X0351361Y0256457D01*
X0351177Y0256404D01*
X0350991Y0256355D01*
X0350805Y0256311D01*
X0350617Y0256271D01*
X0350429Y0256236D01*
X0350239Y0256206D01*
X0350049Y0256180D01*
X0349859Y0256159D01*
X0349668Y0256142D01*
X0349476Y0256130D01*
X0349285Y0256123D01*
X0349093Y0256121D01*
X0348901Y0256123D01*
X0348710Y0256130D01*
X0348518Y0256142D01*
X0348327Y0256159D01*
X0348137Y0256180D01*
X0347947Y0256206D01*
X0347757Y0256236D01*
X0347569Y0256271D01*
X0347381Y0256311D01*
X0347195Y0256355D01*
X0347009Y0256404D01*
X0346825Y0256457D01*
X0346643Y0256515D01*
X0346461Y0256578D01*
X0346281Y0256644D01*
X0346103Y0256716D01*
X0345927Y0256791D01*
X0345753Y0256871D01*
X0345581Y0256955D01*
X0345410Y0257043D01*
X0345242Y0257136D01*
X0345077Y0257232D01*
X0344914Y0257333D01*
X0344753Y0257438D01*
X0344595Y0257546D01*
X0344439Y0257658D01*
X0344287Y0257774D01*
X0344137Y0257894D01*
X0343990Y0258018D01*
X0343847Y0258145D01*
X0343706Y0258275D01*
X0343569Y0258409D01*
X0343435Y0258546D01*
X0343305Y0258687D01*
X0343178Y0258830D01*
X0343054Y0258977D01*
X0342934Y0259127D01*
X0342818Y0259279D01*
X0342706Y0259435D01*
X0342598Y0259593D01*
X0342493Y0259754D01*
X0342392Y0259917D01*
X0342296Y0260082D01*
X0342203Y0260250D01*
X0342115Y0260421D01*
X0342031Y0260593D01*
X0341951Y0260767D01*
X0341876Y0260943D01*
X0341804Y0261121D01*
X0341738Y0261301D01*
X0341675Y0261483D01*
X0341617Y0261665D01*
X0341564Y0261849D01*
X0341515Y0262035D01*
X0341471Y0262221D01*
X0341431Y0262409D01*
X0341396Y0262597D01*
X0341366Y0262787D01*
X0341340Y0262977D01*
X0341319Y0263167D01*
X0341302Y0263358D01*
X0341290Y0263550D01*
X0341283Y0263741D01*
X0341281Y0263933D01*
D11*
X0021093Y0293933D02*
X0021093Y0053933D01*
X0491093Y0053933D01*
X0491093Y0293933D01*
X0021093Y0293933D01*
M02*
