G75*
%MOIN*%
%OFA0B0*%
%FSLAX25Y25*%
%IPPOS*%
%LPD*%
%AMOC8*
5,1,8,0,0,1.08239X$1,22.5*
%
%ADD10C,0.00600*%
%ADD11C,0.00200*%
%ADD12C,0.00500*%
%ADD13R,0.08500X0.02000*%
%ADD14C,0.00512*%
%ADD15C,0.00400*%
%ADD16C,0.01800*%
%ADD17C,0.00800*%
%ADD18C,0.01000*%
D10*
X0165843Y0231433D02*
X0164843Y0232433D01*
X0177843Y0232433D01*
X0177843Y0231433D01*
X0165843Y0231433D01*
X0164843Y0232433D02*
X0160843Y0236433D01*
X0160843Y0241433D01*
X0160843Y0251933D02*
X0160843Y0260933D01*
X0177343Y0263933D02*
X0177343Y0248933D01*
X0192343Y0248933D01*
X0192343Y0263933D01*
X0177343Y0263933D01*
X0170843Y0256433D02*
X0170847Y0256777D01*
X0170860Y0257120D01*
X0170881Y0257463D01*
X0170910Y0257805D01*
X0170948Y0258147D01*
X0170995Y0258487D01*
X0171049Y0258826D01*
X0171112Y0259164D01*
X0171183Y0259500D01*
X0171263Y0259835D01*
X0171350Y0260167D01*
X0171446Y0260497D01*
X0171550Y0260825D01*
X0171661Y0261149D01*
X0171781Y0261472D01*
X0171909Y0261791D01*
X0172044Y0262106D01*
X0172187Y0262419D01*
X0172338Y0262728D01*
X0172496Y0263033D01*
X0172662Y0263334D01*
X0172835Y0263630D01*
X0173015Y0263923D01*
X0173202Y0264211D01*
X0173397Y0264494D01*
X0173598Y0264773D01*
X0173806Y0265046D01*
X0174021Y0265315D01*
X0174242Y0265577D01*
X0174470Y0265835D01*
X0174704Y0266087D01*
X0174944Y0266332D01*
X0175189Y0266572D01*
X0175441Y0266806D01*
X0175699Y0267034D01*
X0175961Y0267255D01*
X0176230Y0267470D01*
X0176503Y0267678D01*
X0176782Y0267879D01*
X0177065Y0268074D01*
X0177353Y0268261D01*
X0177646Y0268441D01*
X0177942Y0268614D01*
X0178243Y0268780D01*
X0178548Y0268938D01*
X0178857Y0269089D01*
X0179170Y0269232D01*
X0179485Y0269367D01*
X0179804Y0269495D01*
X0180127Y0269615D01*
X0180451Y0269726D01*
X0180779Y0269830D01*
X0181109Y0269926D01*
X0181441Y0270013D01*
X0181776Y0270093D01*
X0182112Y0270164D01*
X0182450Y0270227D01*
X0182789Y0270281D01*
X0183129Y0270328D01*
X0183471Y0270366D01*
X0183813Y0270395D01*
X0184156Y0270416D01*
X0184499Y0270429D01*
X0184843Y0270433D01*
X0185187Y0270429D01*
X0185530Y0270416D01*
X0185873Y0270395D01*
X0186215Y0270366D01*
X0186557Y0270328D01*
X0186897Y0270281D01*
X0187236Y0270227D01*
X0187574Y0270164D01*
X0187910Y0270093D01*
X0188245Y0270013D01*
X0188577Y0269926D01*
X0188907Y0269830D01*
X0189235Y0269726D01*
X0189559Y0269615D01*
X0189882Y0269495D01*
X0190201Y0269367D01*
X0190516Y0269232D01*
X0190829Y0269089D01*
X0191138Y0268938D01*
X0191443Y0268780D01*
X0191744Y0268614D01*
X0192040Y0268441D01*
X0192333Y0268261D01*
X0192621Y0268074D01*
X0192904Y0267879D01*
X0193183Y0267678D01*
X0193456Y0267470D01*
X0193725Y0267255D01*
X0193987Y0267034D01*
X0194245Y0266806D01*
X0194497Y0266572D01*
X0194742Y0266332D01*
X0194982Y0266087D01*
X0195216Y0265835D01*
X0195444Y0265577D01*
X0195665Y0265315D01*
X0195880Y0265046D01*
X0196088Y0264773D01*
X0196289Y0264494D01*
X0196484Y0264211D01*
X0196671Y0263923D01*
X0196851Y0263630D01*
X0197024Y0263334D01*
X0197190Y0263033D01*
X0197348Y0262728D01*
X0197499Y0262419D01*
X0197642Y0262106D01*
X0197777Y0261791D01*
X0197905Y0261472D01*
X0198025Y0261149D01*
X0198136Y0260825D01*
X0198240Y0260497D01*
X0198336Y0260167D01*
X0198423Y0259835D01*
X0198503Y0259500D01*
X0198574Y0259164D01*
X0198637Y0258826D01*
X0198691Y0258487D01*
X0198738Y0258147D01*
X0198776Y0257805D01*
X0198805Y0257463D01*
X0198826Y0257120D01*
X0198839Y0256777D01*
X0198843Y0256433D01*
X0198839Y0256089D01*
X0198826Y0255746D01*
X0198805Y0255403D01*
X0198776Y0255061D01*
X0198738Y0254719D01*
X0198691Y0254379D01*
X0198637Y0254040D01*
X0198574Y0253702D01*
X0198503Y0253366D01*
X0198423Y0253031D01*
X0198336Y0252699D01*
X0198240Y0252369D01*
X0198136Y0252041D01*
X0198025Y0251717D01*
X0197905Y0251394D01*
X0197777Y0251075D01*
X0197642Y0250760D01*
X0197499Y0250447D01*
X0197348Y0250138D01*
X0197190Y0249833D01*
X0197024Y0249532D01*
X0196851Y0249236D01*
X0196671Y0248943D01*
X0196484Y0248655D01*
X0196289Y0248372D01*
X0196088Y0248093D01*
X0195880Y0247820D01*
X0195665Y0247551D01*
X0195444Y0247289D01*
X0195216Y0247031D01*
X0194982Y0246779D01*
X0194742Y0246534D01*
X0194497Y0246294D01*
X0194245Y0246060D01*
X0193987Y0245832D01*
X0193725Y0245611D01*
X0193456Y0245396D01*
X0193183Y0245188D01*
X0192904Y0244987D01*
X0192621Y0244792D01*
X0192333Y0244605D01*
X0192040Y0244425D01*
X0191744Y0244252D01*
X0191443Y0244086D01*
X0191138Y0243928D01*
X0190829Y0243777D01*
X0190516Y0243634D01*
X0190201Y0243499D01*
X0189882Y0243371D01*
X0189559Y0243251D01*
X0189235Y0243140D01*
X0188907Y0243036D01*
X0188577Y0242940D01*
X0188245Y0242853D01*
X0187910Y0242773D01*
X0187574Y0242702D01*
X0187236Y0242639D01*
X0186897Y0242585D01*
X0186557Y0242538D01*
X0186215Y0242500D01*
X0185873Y0242471D01*
X0185530Y0242450D01*
X0185187Y0242437D01*
X0184843Y0242433D01*
X0184499Y0242437D01*
X0184156Y0242450D01*
X0183813Y0242471D01*
X0183471Y0242500D01*
X0183129Y0242538D01*
X0182789Y0242585D01*
X0182450Y0242639D01*
X0182112Y0242702D01*
X0181776Y0242773D01*
X0181441Y0242853D01*
X0181109Y0242940D01*
X0180779Y0243036D01*
X0180451Y0243140D01*
X0180127Y0243251D01*
X0179804Y0243371D01*
X0179485Y0243499D01*
X0179170Y0243634D01*
X0178857Y0243777D01*
X0178548Y0243928D01*
X0178243Y0244086D01*
X0177942Y0244252D01*
X0177646Y0244425D01*
X0177353Y0244605D01*
X0177065Y0244792D01*
X0176782Y0244987D01*
X0176503Y0245188D01*
X0176230Y0245396D01*
X0175961Y0245611D01*
X0175699Y0245832D01*
X0175441Y0246060D01*
X0175189Y0246294D01*
X0174944Y0246534D01*
X0174704Y0246779D01*
X0174470Y0247031D01*
X0174242Y0247289D01*
X0174021Y0247551D01*
X0173806Y0247820D01*
X0173598Y0248093D01*
X0173397Y0248372D01*
X0173202Y0248655D01*
X0173015Y0248943D01*
X0172835Y0249236D01*
X0172662Y0249532D01*
X0172496Y0249833D01*
X0172338Y0250138D01*
X0172187Y0250447D01*
X0172044Y0250760D01*
X0171909Y0251075D01*
X0171781Y0251394D01*
X0171661Y0251717D01*
X0171550Y0252041D01*
X0171446Y0252369D01*
X0171350Y0252699D01*
X0171263Y0253031D01*
X0171183Y0253366D01*
X0171112Y0253702D01*
X0171049Y0254040D01*
X0170995Y0254379D01*
X0170948Y0254719D01*
X0170910Y0255061D01*
X0170881Y0255403D01*
X0170860Y0255746D01*
X0170847Y0256089D01*
X0170843Y0256433D01*
X0160843Y0271433D02*
X0160843Y0276433D01*
X0164843Y0280433D01*
X0165843Y0281433D01*
X0177843Y0281433D01*
X0177843Y0280433D01*
X0180843Y0280433D01*
X0180843Y0281933D01*
X0188843Y0281933D01*
X0188843Y0280433D01*
X0180843Y0280433D01*
X0177843Y0280433D02*
X0164843Y0280433D01*
X0191843Y0280433D02*
X0191843Y0281433D01*
X0203843Y0281433D01*
X0208843Y0276433D01*
X0208843Y0271433D01*
X0208843Y0260933D02*
X0208843Y0251933D01*
X0208843Y0241433D02*
X0208843Y0236433D01*
X0204843Y0232433D01*
X0203843Y0231433D01*
X0191843Y0231433D01*
X0191843Y0232433D01*
X0188843Y0232433D01*
X0180843Y0232433D01*
X0177843Y0232433D01*
X0180843Y0232433D02*
X0180843Y0230933D01*
X0188843Y0230933D01*
X0188843Y0232433D01*
X0191843Y0232433D02*
X0204843Y0232433D01*
X0219968Y0284183D02*
X0219971Y0284428D01*
X0219980Y0284674D01*
X0219995Y0284919D01*
X0220016Y0285163D01*
X0220043Y0285407D01*
X0220076Y0285650D01*
X0220115Y0285893D01*
X0220160Y0286134D01*
X0220211Y0286374D01*
X0220268Y0286613D01*
X0220330Y0286850D01*
X0220399Y0287086D01*
X0220473Y0287320D01*
X0220553Y0287552D01*
X0220638Y0287782D01*
X0220729Y0288010D01*
X0220826Y0288235D01*
X0220928Y0288459D01*
X0221036Y0288679D01*
X0221149Y0288897D01*
X0221267Y0289112D01*
X0221391Y0289324D01*
X0221519Y0289533D01*
X0221653Y0289739D01*
X0221792Y0289941D01*
X0221936Y0290140D01*
X0222085Y0290335D01*
X0222238Y0290527D01*
X0222396Y0290715D01*
X0222558Y0290899D01*
X0222726Y0291078D01*
X0222897Y0291254D01*
X0223073Y0291425D01*
X0223252Y0291593D01*
X0223436Y0291755D01*
X0223624Y0291913D01*
X0223816Y0292066D01*
X0224011Y0292215D01*
X0224210Y0292359D01*
X0224412Y0292498D01*
X0224618Y0292632D01*
X0224827Y0292760D01*
X0225039Y0292884D01*
X0225254Y0293002D01*
X0225472Y0293115D01*
X0225692Y0293223D01*
X0225916Y0293325D01*
X0226141Y0293422D01*
X0226369Y0293513D01*
X0226599Y0293598D01*
X0226831Y0293678D01*
X0227065Y0293752D01*
X0227301Y0293821D01*
X0227538Y0293883D01*
X0227777Y0293940D01*
X0228017Y0293991D01*
X0228258Y0294036D01*
X0228501Y0294075D01*
X0228744Y0294108D01*
X0228988Y0294135D01*
X0229232Y0294156D01*
X0229477Y0294171D01*
X0229723Y0294180D01*
X0229968Y0294183D01*
X0230213Y0294180D01*
X0230459Y0294171D01*
X0230704Y0294156D01*
X0230948Y0294135D01*
X0231192Y0294108D01*
X0231435Y0294075D01*
X0231678Y0294036D01*
X0231919Y0293991D01*
X0232159Y0293940D01*
X0232398Y0293883D01*
X0232635Y0293821D01*
X0232871Y0293752D01*
X0233105Y0293678D01*
X0233337Y0293598D01*
X0233567Y0293513D01*
X0233795Y0293422D01*
X0234020Y0293325D01*
X0234244Y0293223D01*
X0234464Y0293115D01*
X0234682Y0293002D01*
X0234897Y0292884D01*
X0235109Y0292760D01*
X0235318Y0292632D01*
X0235524Y0292498D01*
X0235726Y0292359D01*
X0235925Y0292215D01*
X0236120Y0292066D01*
X0236312Y0291913D01*
X0236500Y0291755D01*
X0236684Y0291593D01*
X0236863Y0291425D01*
X0237039Y0291254D01*
X0237210Y0291078D01*
X0237378Y0290899D01*
X0237540Y0290715D01*
X0237698Y0290527D01*
X0237851Y0290335D01*
X0238000Y0290140D01*
X0238144Y0289941D01*
X0238283Y0289739D01*
X0238417Y0289533D01*
X0238545Y0289324D01*
X0238669Y0289112D01*
X0238787Y0288897D01*
X0238900Y0288679D01*
X0239008Y0288459D01*
X0239110Y0288235D01*
X0239207Y0288010D01*
X0239298Y0287782D01*
X0239383Y0287552D01*
X0239463Y0287320D01*
X0239537Y0287086D01*
X0239606Y0286850D01*
X0239668Y0286613D01*
X0239725Y0286374D01*
X0239776Y0286134D01*
X0239821Y0285893D01*
X0239860Y0285650D01*
X0239893Y0285407D01*
X0239920Y0285163D01*
X0239941Y0284919D01*
X0239956Y0284674D01*
X0239965Y0284428D01*
X0239968Y0284183D01*
X0239965Y0283938D01*
X0239956Y0283692D01*
X0239941Y0283447D01*
X0239920Y0283203D01*
X0239893Y0282959D01*
X0239860Y0282716D01*
X0239821Y0282473D01*
X0239776Y0282232D01*
X0239725Y0281992D01*
X0239668Y0281753D01*
X0239606Y0281516D01*
X0239537Y0281280D01*
X0239463Y0281046D01*
X0239383Y0280814D01*
X0239298Y0280584D01*
X0239207Y0280356D01*
X0239110Y0280131D01*
X0239008Y0279907D01*
X0238900Y0279687D01*
X0238787Y0279469D01*
X0238669Y0279254D01*
X0238545Y0279042D01*
X0238417Y0278833D01*
X0238283Y0278627D01*
X0238144Y0278425D01*
X0238000Y0278226D01*
X0237851Y0278031D01*
X0237698Y0277839D01*
X0237540Y0277651D01*
X0237378Y0277467D01*
X0237210Y0277288D01*
X0237039Y0277112D01*
X0236863Y0276941D01*
X0236684Y0276773D01*
X0236500Y0276611D01*
X0236312Y0276453D01*
X0236120Y0276300D01*
X0235925Y0276151D01*
X0235726Y0276007D01*
X0235524Y0275868D01*
X0235318Y0275734D01*
X0235109Y0275606D01*
X0234897Y0275482D01*
X0234682Y0275364D01*
X0234464Y0275251D01*
X0234244Y0275143D01*
X0234020Y0275041D01*
X0233795Y0274944D01*
X0233567Y0274853D01*
X0233337Y0274768D01*
X0233105Y0274688D01*
X0232871Y0274614D01*
X0232635Y0274545D01*
X0232398Y0274483D01*
X0232159Y0274426D01*
X0231919Y0274375D01*
X0231678Y0274330D01*
X0231435Y0274291D01*
X0231192Y0274258D01*
X0230948Y0274231D01*
X0230704Y0274210D01*
X0230459Y0274195D01*
X0230213Y0274186D01*
X0229968Y0274183D01*
X0229723Y0274186D01*
X0229477Y0274195D01*
X0229232Y0274210D01*
X0228988Y0274231D01*
X0228744Y0274258D01*
X0228501Y0274291D01*
X0228258Y0274330D01*
X0228017Y0274375D01*
X0227777Y0274426D01*
X0227538Y0274483D01*
X0227301Y0274545D01*
X0227065Y0274614D01*
X0226831Y0274688D01*
X0226599Y0274768D01*
X0226369Y0274853D01*
X0226141Y0274944D01*
X0225916Y0275041D01*
X0225692Y0275143D01*
X0225472Y0275251D01*
X0225254Y0275364D01*
X0225039Y0275482D01*
X0224827Y0275606D01*
X0224618Y0275734D01*
X0224412Y0275868D01*
X0224210Y0276007D01*
X0224011Y0276151D01*
X0223816Y0276300D01*
X0223624Y0276453D01*
X0223436Y0276611D01*
X0223252Y0276773D01*
X0223073Y0276941D01*
X0222897Y0277112D01*
X0222726Y0277288D01*
X0222558Y0277467D01*
X0222396Y0277651D01*
X0222238Y0277839D01*
X0222085Y0278031D01*
X0221936Y0278226D01*
X0221792Y0278425D01*
X0221653Y0278627D01*
X0221519Y0278833D01*
X0221391Y0279042D01*
X0221267Y0279254D01*
X0221149Y0279469D01*
X0221036Y0279687D01*
X0220928Y0279907D01*
X0220826Y0280131D01*
X0220729Y0280356D01*
X0220638Y0280584D01*
X0220553Y0280814D01*
X0220473Y0281046D01*
X0220399Y0281280D01*
X0220330Y0281516D01*
X0220268Y0281753D01*
X0220211Y0281992D01*
X0220160Y0282232D01*
X0220115Y0282473D01*
X0220076Y0282716D01*
X0220043Y0282959D01*
X0220016Y0283203D01*
X0219995Y0283447D01*
X0219980Y0283692D01*
X0219971Y0283938D01*
X0219968Y0284183D01*
X0251093Y0283933D02*
X0251096Y0284178D01*
X0251105Y0284424D01*
X0251120Y0284669D01*
X0251141Y0284913D01*
X0251168Y0285157D01*
X0251201Y0285400D01*
X0251240Y0285643D01*
X0251285Y0285884D01*
X0251336Y0286124D01*
X0251393Y0286363D01*
X0251455Y0286600D01*
X0251524Y0286836D01*
X0251598Y0287070D01*
X0251678Y0287302D01*
X0251763Y0287532D01*
X0251854Y0287760D01*
X0251951Y0287985D01*
X0252053Y0288209D01*
X0252161Y0288429D01*
X0252274Y0288647D01*
X0252392Y0288862D01*
X0252516Y0289074D01*
X0252644Y0289283D01*
X0252778Y0289489D01*
X0252917Y0289691D01*
X0253061Y0289890D01*
X0253210Y0290085D01*
X0253363Y0290277D01*
X0253521Y0290465D01*
X0253683Y0290649D01*
X0253851Y0290828D01*
X0254022Y0291004D01*
X0254198Y0291175D01*
X0254377Y0291343D01*
X0254561Y0291505D01*
X0254749Y0291663D01*
X0254941Y0291816D01*
X0255136Y0291965D01*
X0255335Y0292109D01*
X0255537Y0292248D01*
X0255743Y0292382D01*
X0255952Y0292510D01*
X0256164Y0292634D01*
X0256379Y0292752D01*
X0256597Y0292865D01*
X0256817Y0292973D01*
X0257041Y0293075D01*
X0257266Y0293172D01*
X0257494Y0293263D01*
X0257724Y0293348D01*
X0257956Y0293428D01*
X0258190Y0293502D01*
X0258426Y0293571D01*
X0258663Y0293633D01*
X0258902Y0293690D01*
X0259142Y0293741D01*
X0259383Y0293786D01*
X0259626Y0293825D01*
X0259869Y0293858D01*
X0260113Y0293885D01*
X0260357Y0293906D01*
X0260602Y0293921D01*
X0260848Y0293930D01*
X0261093Y0293933D01*
X0261338Y0293930D01*
X0261584Y0293921D01*
X0261829Y0293906D01*
X0262073Y0293885D01*
X0262317Y0293858D01*
X0262560Y0293825D01*
X0262803Y0293786D01*
X0263044Y0293741D01*
X0263284Y0293690D01*
X0263523Y0293633D01*
X0263760Y0293571D01*
X0263996Y0293502D01*
X0264230Y0293428D01*
X0264462Y0293348D01*
X0264692Y0293263D01*
X0264920Y0293172D01*
X0265145Y0293075D01*
X0265369Y0292973D01*
X0265589Y0292865D01*
X0265807Y0292752D01*
X0266022Y0292634D01*
X0266234Y0292510D01*
X0266443Y0292382D01*
X0266649Y0292248D01*
X0266851Y0292109D01*
X0267050Y0291965D01*
X0267245Y0291816D01*
X0267437Y0291663D01*
X0267625Y0291505D01*
X0267809Y0291343D01*
X0267988Y0291175D01*
X0268164Y0291004D01*
X0268335Y0290828D01*
X0268503Y0290649D01*
X0268665Y0290465D01*
X0268823Y0290277D01*
X0268976Y0290085D01*
X0269125Y0289890D01*
X0269269Y0289691D01*
X0269408Y0289489D01*
X0269542Y0289283D01*
X0269670Y0289074D01*
X0269794Y0288862D01*
X0269912Y0288647D01*
X0270025Y0288429D01*
X0270133Y0288209D01*
X0270235Y0287985D01*
X0270332Y0287760D01*
X0270423Y0287532D01*
X0270508Y0287302D01*
X0270588Y0287070D01*
X0270662Y0286836D01*
X0270731Y0286600D01*
X0270793Y0286363D01*
X0270850Y0286124D01*
X0270901Y0285884D01*
X0270946Y0285643D01*
X0270985Y0285400D01*
X0271018Y0285157D01*
X0271045Y0284913D01*
X0271066Y0284669D01*
X0271081Y0284424D01*
X0271090Y0284178D01*
X0271093Y0283933D01*
X0271090Y0283688D01*
X0271081Y0283442D01*
X0271066Y0283197D01*
X0271045Y0282953D01*
X0271018Y0282709D01*
X0270985Y0282466D01*
X0270946Y0282223D01*
X0270901Y0281982D01*
X0270850Y0281742D01*
X0270793Y0281503D01*
X0270731Y0281266D01*
X0270662Y0281030D01*
X0270588Y0280796D01*
X0270508Y0280564D01*
X0270423Y0280334D01*
X0270332Y0280106D01*
X0270235Y0279881D01*
X0270133Y0279657D01*
X0270025Y0279437D01*
X0269912Y0279219D01*
X0269794Y0279004D01*
X0269670Y0278792D01*
X0269542Y0278583D01*
X0269408Y0278377D01*
X0269269Y0278175D01*
X0269125Y0277976D01*
X0268976Y0277781D01*
X0268823Y0277589D01*
X0268665Y0277401D01*
X0268503Y0277217D01*
X0268335Y0277038D01*
X0268164Y0276862D01*
X0267988Y0276691D01*
X0267809Y0276523D01*
X0267625Y0276361D01*
X0267437Y0276203D01*
X0267245Y0276050D01*
X0267050Y0275901D01*
X0266851Y0275757D01*
X0266649Y0275618D01*
X0266443Y0275484D01*
X0266234Y0275356D01*
X0266022Y0275232D01*
X0265807Y0275114D01*
X0265589Y0275001D01*
X0265369Y0274893D01*
X0265145Y0274791D01*
X0264920Y0274694D01*
X0264692Y0274603D01*
X0264462Y0274518D01*
X0264230Y0274438D01*
X0263996Y0274364D01*
X0263760Y0274295D01*
X0263523Y0274233D01*
X0263284Y0274176D01*
X0263044Y0274125D01*
X0262803Y0274080D01*
X0262560Y0274041D01*
X0262317Y0274008D01*
X0262073Y0273981D01*
X0261829Y0273960D01*
X0261584Y0273945D01*
X0261338Y0273936D01*
X0261093Y0273933D01*
X0260848Y0273936D01*
X0260602Y0273945D01*
X0260357Y0273960D01*
X0260113Y0273981D01*
X0259869Y0274008D01*
X0259626Y0274041D01*
X0259383Y0274080D01*
X0259142Y0274125D01*
X0258902Y0274176D01*
X0258663Y0274233D01*
X0258426Y0274295D01*
X0258190Y0274364D01*
X0257956Y0274438D01*
X0257724Y0274518D01*
X0257494Y0274603D01*
X0257266Y0274694D01*
X0257041Y0274791D01*
X0256817Y0274893D01*
X0256597Y0275001D01*
X0256379Y0275114D01*
X0256164Y0275232D01*
X0255952Y0275356D01*
X0255743Y0275484D01*
X0255537Y0275618D01*
X0255335Y0275757D01*
X0255136Y0275901D01*
X0254941Y0276050D01*
X0254749Y0276203D01*
X0254561Y0276361D01*
X0254377Y0276523D01*
X0254198Y0276691D01*
X0254022Y0276862D01*
X0253851Y0277038D01*
X0253683Y0277217D01*
X0253521Y0277401D01*
X0253363Y0277589D01*
X0253210Y0277781D01*
X0253061Y0277976D01*
X0252917Y0278175D01*
X0252778Y0278377D01*
X0252644Y0278583D01*
X0252516Y0278792D01*
X0252392Y0279004D01*
X0252274Y0279219D01*
X0252161Y0279437D01*
X0252053Y0279657D01*
X0251951Y0279881D01*
X0251854Y0280106D01*
X0251763Y0280334D01*
X0251678Y0280564D01*
X0251598Y0280796D01*
X0251524Y0281030D01*
X0251455Y0281266D01*
X0251393Y0281503D01*
X0251336Y0281742D01*
X0251285Y0281982D01*
X0251240Y0282223D01*
X0251201Y0282466D01*
X0251168Y0282709D01*
X0251141Y0282953D01*
X0251120Y0283197D01*
X0251105Y0283442D01*
X0251096Y0283688D01*
X0251093Y0283933D01*
X0281093Y0283933D02*
X0281096Y0284178D01*
X0281105Y0284424D01*
X0281120Y0284669D01*
X0281141Y0284913D01*
X0281168Y0285157D01*
X0281201Y0285400D01*
X0281240Y0285643D01*
X0281285Y0285884D01*
X0281336Y0286124D01*
X0281393Y0286363D01*
X0281455Y0286600D01*
X0281524Y0286836D01*
X0281598Y0287070D01*
X0281678Y0287302D01*
X0281763Y0287532D01*
X0281854Y0287760D01*
X0281951Y0287985D01*
X0282053Y0288209D01*
X0282161Y0288429D01*
X0282274Y0288647D01*
X0282392Y0288862D01*
X0282516Y0289074D01*
X0282644Y0289283D01*
X0282778Y0289489D01*
X0282917Y0289691D01*
X0283061Y0289890D01*
X0283210Y0290085D01*
X0283363Y0290277D01*
X0283521Y0290465D01*
X0283683Y0290649D01*
X0283851Y0290828D01*
X0284022Y0291004D01*
X0284198Y0291175D01*
X0284377Y0291343D01*
X0284561Y0291505D01*
X0284749Y0291663D01*
X0284941Y0291816D01*
X0285136Y0291965D01*
X0285335Y0292109D01*
X0285537Y0292248D01*
X0285743Y0292382D01*
X0285952Y0292510D01*
X0286164Y0292634D01*
X0286379Y0292752D01*
X0286597Y0292865D01*
X0286817Y0292973D01*
X0287041Y0293075D01*
X0287266Y0293172D01*
X0287494Y0293263D01*
X0287724Y0293348D01*
X0287956Y0293428D01*
X0288190Y0293502D01*
X0288426Y0293571D01*
X0288663Y0293633D01*
X0288902Y0293690D01*
X0289142Y0293741D01*
X0289383Y0293786D01*
X0289626Y0293825D01*
X0289869Y0293858D01*
X0290113Y0293885D01*
X0290357Y0293906D01*
X0290602Y0293921D01*
X0290848Y0293930D01*
X0291093Y0293933D01*
X0291338Y0293930D01*
X0291584Y0293921D01*
X0291829Y0293906D01*
X0292073Y0293885D01*
X0292317Y0293858D01*
X0292560Y0293825D01*
X0292803Y0293786D01*
X0293044Y0293741D01*
X0293284Y0293690D01*
X0293523Y0293633D01*
X0293760Y0293571D01*
X0293996Y0293502D01*
X0294230Y0293428D01*
X0294462Y0293348D01*
X0294692Y0293263D01*
X0294920Y0293172D01*
X0295145Y0293075D01*
X0295369Y0292973D01*
X0295589Y0292865D01*
X0295807Y0292752D01*
X0296022Y0292634D01*
X0296234Y0292510D01*
X0296443Y0292382D01*
X0296649Y0292248D01*
X0296851Y0292109D01*
X0297050Y0291965D01*
X0297245Y0291816D01*
X0297437Y0291663D01*
X0297625Y0291505D01*
X0297809Y0291343D01*
X0297988Y0291175D01*
X0298164Y0291004D01*
X0298335Y0290828D01*
X0298503Y0290649D01*
X0298665Y0290465D01*
X0298823Y0290277D01*
X0298976Y0290085D01*
X0299125Y0289890D01*
X0299269Y0289691D01*
X0299408Y0289489D01*
X0299542Y0289283D01*
X0299670Y0289074D01*
X0299794Y0288862D01*
X0299912Y0288647D01*
X0300025Y0288429D01*
X0300133Y0288209D01*
X0300235Y0287985D01*
X0300332Y0287760D01*
X0300423Y0287532D01*
X0300508Y0287302D01*
X0300588Y0287070D01*
X0300662Y0286836D01*
X0300731Y0286600D01*
X0300793Y0286363D01*
X0300850Y0286124D01*
X0300901Y0285884D01*
X0300946Y0285643D01*
X0300985Y0285400D01*
X0301018Y0285157D01*
X0301045Y0284913D01*
X0301066Y0284669D01*
X0301081Y0284424D01*
X0301090Y0284178D01*
X0301093Y0283933D01*
X0301090Y0283688D01*
X0301081Y0283442D01*
X0301066Y0283197D01*
X0301045Y0282953D01*
X0301018Y0282709D01*
X0300985Y0282466D01*
X0300946Y0282223D01*
X0300901Y0281982D01*
X0300850Y0281742D01*
X0300793Y0281503D01*
X0300731Y0281266D01*
X0300662Y0281030D01*
X0300588Y0280796D01*
X0300508Y0280564D01*
X0300423Y0280334D01*
X0300332Y0280106D01*
X0300235Y0279881D01*
X0300133Y0279657D01*
X0300025Y0279437D01*
X0299912Y0279219D01*
X0299794Y0279004D01*
X0299670Y0278792D01*
X0299542Y0278583D01*
X0299408Y0278377D01*
X0299269Y0278175D01*
X0299125Y0277976D01*
X0298976Y0277781D01*
X0298823Y0277589D01*
X0298665Y0277401D01*
X0298503Y0277217D01*
X0298335Y0277038D01*
X0298164Y0276862D01*
X0297988Y0276691D01*
X0297809Y0276523D01*
X0297625Y0276361D01*
X0297437Y0276203D01*
X0297245Y0276050D01*
X0297050Y0275901D01*
X0296851Y0275757D01*
X0296649Y0275618D01*
X0296443Y0275484D01*
X0296234Y0275356D01*
X0296022Y0275232D01*
X0295807Y0275114D01*
X0295589Y0275001D01*
X0295369Y0274893D01*
X0295145Y0274791D01*
X0294920Y0274694D01*
X0294692Y0274603D01*
X0294462Y0274518D01*
X0294230Y0274438D01*
X0293996Y0274364D01*
X0293760Y0274295D01*
X0293523Y0274233D01*
X0293284Y0274176D01*
X0293044Y0274125D01*
X0292803Y0274080D01*
X0292560Y0274041D01*
X0292317Y0274008D01*
X0292073Y0273981D01*
X0291829Y0273960D01*
X0291584Y0273945D01*
X0291338Y0273936D01*
X0291093Y0273933D01*
X0290848Y0273936D01*
X0290602Y0273945D01*
X0290357Y0273960D01*
X0290113Y0273981D01*
X0289869Y0274008D01*
X0289626Y0274041D01*
X0289383Y0274080D01*
X0289142Y0274125D01*
X0288902Y0274176D01*
X0288663Y0274233D01*
X0288426Y0274295D01*
X0288190Y0274364D01*
X0287956Y0274438D01*
X0287724Y0274518D01*
X0287494Y0274603D01*
X0287266Y0274694D01*
X0287041Y0274791D01*
X0286817Y0274893D01*
X0286597Y0275001D01*
X0286379Y0275114D01*
X0286164Y0275232D01*
X0285952Y0275356D01*
X0285743Y0275484D01*
X0285537Y0275618D01*
X0285335Y0275757D01*
X0285136Y0275901D01*
X0284941Y0276050D01*
X0284749Y0276203D01*
X0284561Y0276361D01*
X0284377Y0276523D01*
X0284198Y0276691D01*
X0284022Y0276862D01*
X0283851Y0277038D01*
X0283683Y0277217D01*
X0283521Y0277401D01*
X0283363Y0277589D01*
X0283210Y0277781D01*
X0283061Y0277976D01*
X0282917Y0278175D01*
X0282778Y0278377D01*
X0282644Y0278583D01*
X0282516Y0278792D01*
X0282392Y0279004D01*
X0282274Y0279219D01*
X0282161Y0279437D01*
X0282053Y0279657D01*
X0281951Y0279881D01*
X0281854Y0280106D01*
X0281763Y0280334D01*
X0281678Y0280564D01*
X0281598Y0280796D01*
X0281524Y0281030D01*
X0281455Y0281266D01*
X0281393Y0281503D01*
X0281336Y0281742D01*
X0281285Y0281982D01*
X0281240Y0282223D01*
X0281201Y0282466D01*
X0281168Y0282709D01*
X0281141Y0282953D01*
X0281120Y0283197D01*
X0281105Y0283442D01*
X0281096Y0283688D01*
X0281093Y0283933D01*
X0311093Y0283933D02*
X0311096Y0284178D01*
X0311105Y0284424D01*
X0311120Y0284669D01*
X0311141Y0284913D01*
X0311168Y0285157D01*
X0311201Y0285400D01*
X0311240Y0285643D01*
X0311285Y0285884D01*
X0311336Y0286124D01*
X0311393Y0286363D01*
X0311455Y0286600D01*
X0311524Y0286836D01*
X0311598Y0287070D01*
X0311678Y0287302D01*
X0311763Y0287532D01*
X0311854Y0287760D01*
X0311951Y0287985D01*
X0312053Y0288209D01*
X0312161Y0288429D01*
X0312274Y0288647D01*
X0312392Y0288862D01*
X0312516Y0289074D01*
X0312644Y0289283D01*
X0312778Y0289489D01*
X0312917Y0289691D01*
X0313061Y0289890D01*
X0313210Y0290085D01*
X0313363Y0290277D01*
X0313521Y0290465D01*
X0313683Y0290649D01*
X0313851Y0290828D01*
X0314022Y0291004D01*
X0314198Y0291175D01*
X0314377Y0291343D01*
X0314561Y0291505D01*
X0314749Y0291663D01*
X0314941Y0291816D01*
X0315136Y0291965D01*
X0315335Y0292109D01*
X0315537Y0292248D01*
X0315743Y0292382D01*
X0315952Y0292510D01*
X0316164Y0292634D01*
X0316379Y0292752D01*
X0316597Y0292865D01*
X0316817Y0292973D01*
X0317041Y0293075D01*
X0317266Y0293172D01*
X0317494Y0293263D01*
X0317724Y0293348D01*
X0317956Y0293428D01*
X0318190Y0293502D01*
X0318426Y0293571D01*
X0318663Y0293633D01*
X0318902Y0293690D01*
X0319142Y0293741D01*
X0319383Y0293786D01*
X0319626Y0293825D01*
X0319869Y0293858D01*
X0320113Y0293885D01*
X0320357Y0293906D01*
X0320602Y0293921D01*
X0320848Y0293930D01*
X0321093Y0293933D01*
X0321338Y0293930D01*
X0321584Y0293921D01*
X0321829Y0293906D01*
X0322073Y0293885D01*
X0322317Y0293858D01*
X0322560Y0293825D01*
X0322803Y0293786D01*
X0323044Y0293741D01*
X0323284Y0293690D01*
X0323523Y0293633D01*
X0323760Y0293571D01*
X0323996Y0293502D01*
X0324230Y0293428D01*
X0324462Y0293348D01*
X0324692Y0293263D01*
X0324920Y0293172D01*
X0325145Y0293075D01*
X0325369Y0292973D01*
X0325589Y0292865D01*
X0325807Y0292752D01*
X0326022Y0292634D01*
X0326234Y0292510D01*
X0326443Y0292382D01*
X0326649Y0292248D01*
X0326851Y0292109D01*
X0327050Y0291965D01*
X0327245Y0291816D01*
X0327437Y0291663D01*
X0327625Y0291505D01*
X0327809Y0291343D01*
X0327988Y0291175D01*
X0328164Y0291004D01*
X0328335Y0290828D01*
X0328503Y0290649D01*
X0328665Y0290465D01*
X0328823Y0290277D01*
X0328976Y0290085D01*
X0329125Y0289890D01*
X0329269Y0289691D01*
X0329408Y0289489D01*
X0329542Y0289283D01*
X0329670Y0289074D01*
X0329794Y0288862D01*
X0329912Y0288647D01*
X0330025Y0288429D01*
X0330133Y0288209D01*
X0330235Y0287985D01*
X0330332Y0287760D01*
X0330423Y0287532D01*
X0330508Y0287302D01*
X0330588Y0287070D01*
X0330662Y0286836D01*
X0330731Y0286600D01*
X0330793Y0286363D01*
X0330850Y0286124D01*
X0330901Y0285884D01*
X0330946Y0285643D01*
X0330985Y0285400D01*
X0331018Y0285157D01*
X0331045Y0284913D01*
X0331066Y0284669D01*
X0331081Y0284424D01*
X0331090Y0284178D01*
X0331093Y0283933D01*
X0331090Y0283688D01*
X0331081Y0283442D01*
X0331066Y0283197D01*
X0331045Y0282953D01*
X0331018Y0282709D01*
X0330985Y0282466D01*
X0330946Y0282223D01*
X0330901Y0281982D01*
X0330850Y0281742D01*
X0330793Y0281503D01*
X0330731Y0281266D01*
X0330662Y0281030D01*
X0330588Y0280796D01*
X0330508Y0280564D01*
X0330423Y0280334D01*
X0330332Y0280106D01*
X0330235Y0279881D01*
X0330133Y0279657D01*
X0330025Y0279437D01*
X0329912Y0279219D01*
X0329794Y0279004D01*
X0329670Y0278792D01*
X0329542Y0278583D01*
X0329408Y0278377D01*
X0329269Y0278175D01*
X0329125Y0277976D01*
X0328976Y0277781D01*
X0328823Y0277589D01*
X0328665Y0277401D01*
X0328503Y0277217D01*
X0328335Y0277038D01*
X0328164Y0276862D01*
X0327988Y0276691D01*
X0327809Y0276523D01*
X0327625Y0276361D01*
X0327437Y0276203D01*
X0327245Y0276050D01*
X0327050Y0275901D01*
X0326851Y0275757D01*
X0326649Y0275618D01*
X0326443Y0275484D01*
X0326234Y0275356D01*
X0326022Y0275232D01*
X0325807Y0275114D01*
X0325589Y0275001D01*
X0325369Y0274893D01*
X0325145Y0274791D01*
X0324920Y0274694D01*
X0324692Y0274603D01*
X0324462Y0274518D01*
X0324230Y0274438D01*
X0323996Y0274364D01*
X0323760Y0274295D01*
X0323523Y0274233D01*
X0323284Y0274176D01*
X0323044Y0274125D01*
X0322803Y0274080D01*
X0322560Y0274041D01*
X0322317Y0274008D01*
X0322073Y0273981D01*
X0321829Y0273960D01*
X0321584Y0273945D01*
X0321338Y0273936D01*
X0321093Y0273933D01*
X0320848Y0273936D01*
X0320602Y0273945D01*
X0320357Y0273960D01*
X0320113Y0273981D01*
X0319869Y0274008D01*
X0319626Y0274041D01*
X0319383Y0274080D01*
X0319142Y0274125D01*
X0318902Y0274176D01*
X0318663Y0274233D01*
X0318426Y0274295D01*
X0318190Y0274364D01*
X0317956Y0274438D01*
X0317724Y0274518D01*
X0317494Y0274603D01*
X0317266Y0274694D01*
X0317041Y0274791D01*
X0316817Y0274893D01*
X0316597Y0275001D01*
X0316379Y0275114D01*
X0316164Y0275232D01*
X0315952Y0275356D01*
X0315743Y0275484D01*
X0315537Y0275618D01*
X0315335Y0275757D01*
X0315136Y0275901D01*
X0314941Y0276050D01*
X0314749Y0276203D01*
X0314561Y0276361D01*
X0314377Y0276523D01*
X0314198Y0276691D01*
X0314022Y0276862D01*
X0313851Y0277038D01*
X0313683Y0277217D01*
X0313521Y0277401D01*
X0313363Y0277589D01*
X0313210Y0277781D01*
X0313061Y0277976D01*
X0312917Y0278175D01*
X0312778Y0278377D01*
X0312644Y0278583D01*
X0312516Y0278792D01*
X0312392Y0279004D01*
X0312274Y0279219D01*
X0312161Y0279437D01*
X0312053Y0279657D01*
X0311951Y0279881D01*
X0311854Y0280106D01*
X0311763Y0280334D01*
X0311678Y0280564D01*
X0311598Y0280796D01*
X0311524Y0281030D01*
X0311455Y0281266D01*
X0311393Y0281503D01*
X0311336Y0281742D01*
X0311285Y0281982D01*
X0311240Y0282223D01*
X0311201Y0282466D01*
X0311168Y0282709D01*
X0311141Y0282953D01*
X0311120Y0283197D01*
X0311105Y0283442D01*
X0311096Y0283688D01*
X0311093Y0283933D01*
D11*
X0191343Y0262933D02*
X0191343Y0249933D01*
X0178343Y0249933D01*
X0178343Y0262933D01*
X0191343Y0262933D01*
X0181843Y0256433D02*
X0181845Y0256542D01*
X0181851Y0256651D01*
X0181861Y0256759D01*
X0181875Y0256867D01*
X0181892Y0256975D01*
X0181914Y0257082D01*
X0181939Y0257188D01*
X0181969Y0257292D01*
X0182002Y0257396D01*
X0182039Y0257499D01*
X0182079Y0257600D01*
X0182123Y0257699D01*
X0182171Y0257797D01*
X0182223Y0257894D01*
X0182277Y0257988D01*
X0182335Y0258080D01*
X0182397Y0258170D01*
X0182462Y0258257D01*
X0182529Y0258343D01*
X0182600Y0258426D01*
X0182674Y0258506D01*
X0182751Y0258583D01*
X0182830Y0258658D01*
X0182912Y0258729D01*
X0182997Y0258798D01*
X0183084Y0258863D01*
X0183173Y0258926D01*
X0183265Y0258984D01*
X0183359Y0259040D01*
X0183454Y0259092D01*
X0183552Y0259141D01*
X0183651Y0259186D01*
X0183752Y0259228D01*
X0183854Y0259265D01*
X0183957Y0259299D01*
X0184062Y0259330D01*
X0184168Y0259356D01*
X0184274Y0259379D01*
X0184382Y0259397D01*
X0184490Y0259412D01*
X0184598Y0259423D01*
X0184707Y0259430D01*
X0184816Y0259433D01*
X0184925Y0259432D01*
X0185034Y0259427D01*
X0185142Y0259418D01*
X0185250Y0259405D01*
X0185358Y0259388D01*
X0185465Y0259368D01*
X0185571Y0259343D01*
X0185676Y0259315D01*
X0185780Y0259283D01*
X0185883Y0259247D01*
X0185985Y0259207D01*
X0186085Y0259164D01*
X0186183Y0259117D01*
X0186280Y0259067D01*
X0186374Y0259013D01*
X0186467Y0258955D01*
X0186558Y0258895D01*
X0186646Y0258831D01*
X0186732Y0258764D01*
X0186815Y0258694D01*
X0186896Y0258621D01*
X0186974Y0258545D01*
X0187049Y0258466D01*
X0187122Y0258384D01*
X0187191Y0258300D01*
X0187257Y0258214D01*
X0187320Y0258125D01*
X0187380Y0258034D01*
X0187437Y0257941D01*
X0187490Y0257846D01*
X0187539Y0257749D01*
X0187585Y0257650D01*
X0187627Y0257550D01*
X0187666Y0257448D01*
X0187701Y0257344D01*
X0187732Y0257240D01*
X0187760Y0257135D01*
X0187783Y0257028D01*
X0187803Y0256921D01*
X0187819Y0256813D01*
X0187831Y0256705D01*
X0187839Y0256596D01*
X0187843Y0256487D01*
X0187843Y0256379D01*
X0187839Y0256270D01*
X0187831Y0256161D01*
X0187819Y0256053D01*
X0187803Y0255945D01*
X0187783Y0255838D01*
X0187760Y0255731D01*
X0187732Y0255626D01*
X0187701Y0255522D01*
X0187666Y0255418D01*
X0187627Y0255316D01*
X0187585Y0255216D01*
X0187539Y0255117D01*
X0187490Y0255020D01*
X0187437Y0254925D01*
X0187380Y0254832D01*
X0187320Y0254741D01*
X0187257Y0254652D01*
X0187191Y0254566D01*
X0187122Y0254482D01*
X0187049Y0254400D01*
X0186974Y0254321D01*
X0186896Y0254245D01*
X0186815Y0254172D01*
X0186732Y0254102D01*
X0186646Y0254035D01*
X0186558Y0253971D01*
X0186467Y0253911D01*
X0186374Y0253853D01*
X0186280Y0253799D01*
X0186183Y0253749D01*
X0186085Y0253702D01*
X0185985Y0253659D01*
X0185883Y0253619D01*
X0185780Y0253583D01*
X0185676Y0253551D01*
X0185571Y0253523D01*
X0185465Y0253498D01*
X0185358Y0253478D01*
X0185250Y0253461D01*
X0185142Y0253448D01*
X0185034Y0253439D01*
X0184925Y0253434D01*
X0184816Y0253433D01*
X0184707Y0253436D01*
X0184598Y0253443D01*
X0184490Y0253454D01*
X0184382Y0253469D01*
X0184274Y0253487D01*
X0184168Y0253510D01*
X0184062Y0253536D01*
X0183957Y0253567D01*
X0183854Y0253601D01*
X0183752Y0253638D01*
X0183651Y0253680D01*
X0183552Y0253725D01*
X0183454Y0253774D01*
X0183359Y0253826D01*
X0183265Y0253882D01*
X0183173Y0253940D01*
X0183084Y0254003D01*
X0182997Y0254068D01*
X0182912Y0254137D01*
X0182830Y0254208D01*
X0182751Y0254283D01*
X0182674Y0254360D01*
X0182600Y0254440D01*
X0182529Y0254523D01*
X0182462Y0254609D01*
X0182397Y0254696D01*
X0182335Y0254786D01*
X0182277Y0254878D01*
X0182223Y0254972D01*
X0182171Y0255069D01*
X0182123Y0255167D01*
X0182079Y0255266D01*
X0182039Y0255367D01*
X0182002Y0255470D01*
X0181969Y0255574D01*
X0181939Y0255678D01*
X0181914Y0255784D01*
X0181892Y0255891D01*
X0181875Y0255999D01*
X0181861Y0256107D01*
X0181851Y0256215D01*
X0181845Y0256324D01*
X0181843Y0256433D01*
X0180843Y0256433D02*
X0180845Y0256559D01*
X0180851Y0256685D01*
X0180861Y0256811D01*
X0180875Y0256937D01*
X0180893Y0257062D01*
X0180915Y0257186D01*
X0180940Y0257310D01*
X0180970Y0257433D01*
X0181003Y0257554D01*
X0181041Y0257675D01*
X0181082Y0257794D01*
X0181127Y0257913D01*
X0181175Y0258029D01*
X0181227Y0258144D01*
X0181283Y0258257D01*
X0181343Y0258369D01*
X0181406Y0258478D01*
X0181472Y0258586D01*
X0181541Y0258691D01*
X0181614Y0258794D01*
X0181691Y0258895D01*
X0181770Y0258993D01*
X0181852Y0259089D01*
X0181938Y0259182D01*
X0182026Y0259273D01*
X0182117Y0259360D01*
X0182211Y0259445D01*
X0182307Y0259526D01*
X0182406Y0259605D01*
X0182507Y0259680D01*
X0182611Y0259752D01*
X0182717Y0259821D01*
X0182825Y0259887D01*
X0182935Y0259949D01*
X0183047Y0260007D01*
X0183160Y0260062D01*
X0183276Y0260113D01*
X0183393Y0260161D01*
X0183511Y0260205D01*
X0183631Y0260245D01*
X0183752Y0260281D01*
X0183874Y0260314D01*
X0183997Y0260343D01*
X0184121Y0260367D01*
X0184245Y0260388D01*
X0184370Y0260405D01*
X0184496Y0260418D01*
X0184622Y0260427D01*
X0184748Y0260432D01*
X0184875Y0260433D01*
X0185001Y0260430D01*
X0185127Y0260423D01*
X0185253Y0260412D01*
X0185378Y0260397D01*
X0185503Y0260378D01*
X0185627Y0260355D01*
X0185751Y0260329D01*
X0185873Y0260298D01*
X0185995Y0260264D01*
X0186115Y0260225D01*
X0186234Y0260183D01*
X0186352Y0260138D01*
X0186468Y0260088D01*
X0186583Y0260035D01*
X0186695Y0259978D01*
X0186806Y0259918D01*
X0186915Y0259854D01*
X0187022Y0259787D01*
X0187127Y0259717D01*
X0187230Y0259643D01*
X0187330Y0259566D01*
X0187428Y0259486D01*
X0187523Y0259403D01*
X0187615Y0259317D01*
X0187705Y0259228D01*
X0187792Y0259136D01*
X0187875Y0259042D01*
X0187956Y0258945D01*
X0188034Y0258845D01*
X0188109Y0258743D01*
X0188180Y0258639D01*
X0188248Y0258532D01*
X0188312Y0258424D01*
X0188373Y0258313D01*
X0188431Y0258201D01*
X0188485Y0258087D01*
X0188535Y0257971D01*
X0188582Y0257854D01*
X0188625Y0257735D01*
X0188664Y0257615D01*
X0188700Y0257494D01*
X0188731Y0257371D01*
X0188759Y0257248D01*
X0188783Y0257124D01*
X0188803Y0256999D01*
X0188819Y0256874D01*
X0188831Y0256748D01*
X0188839Y0256622D01*
X0188843Y0256496D01*
X0188843Y0256370D01*
X0188839Y0256244D01*
X0188831Y0256118D01*
X0188819Y0255992D01*
X0188803Y0255867D01*
X0188783Y0255742D01*
X0188759Y0255618D01*
X0188731Y0255495D01*
X0188700Y0255372D01*
X0188664Y0255251D01*
X0188625Y0255131D01*
X0188582Y0255012D01*
X0188535Y0254895D01*
X0188485Y0254779D01*
X0188431Y0254665D01*
X0188373Y0254553D01*
X0188312Y0254442D01*
X0188248Y0254334D01*
X0188180Y0254227D01*
X0188109Y0254123D01*
X0188034Y0254021D01*
X0187956Y0253921D01*
X0187875Y0253824D01*
X0187792Y0253730D01*
X0187705Y0253638D01*
X0187615Y0253549D01*
X0187523Y0253463D01*
X0187428Y0253380D01*
X0187330Y0253300D01*
X0187230Y0253223D01*
X0187127Y0253149D01*
X0187022Y0253079D01*
X0186915Y0253012D01*
X0186806Y0252948D01*
X0186695Y0252888D01*
X0186583Y0252831D01*
X0186468Y0252778D01*
X0186352Y0252728D01*
X0186234Y0252683D01*
X0186115Y0252641D01*
X0185995Y0252602D01*
X0185873Y0252568D01*
X0185751Y0252537D01*
X0185627Y0252511D01*
X0185503Y0252488D01*
X0185378Y0252469D01*
X0185253Y0252454D01*
X0185127Y0252443D01*
X0185001Y0252436D01*
X0184875Y0252433D01*
X0184748Y0252434D01*
X0184622Y0252439D01*
X0184496Y0252448D01*
X0184370Y0252461D01*
X0184245Y0252478D01*
X0184121Y0252499D01*
X0183997Y0252523D01*
X0183874Y0252552D01*
X0183752Y0252585D01*
X0183631Y0252621D01*
X0183511Y0252661D01*
X0183393Y0252705D01*
X0183276Y0252753D01*
X0183160Y0252804D01*
X0183047Y0252859D01*
X0182935Y0252917D01*
X0182825Y0252979D01*
X0182717Y0253045D01*
X0182611Y0253114D01*
X0182507Y0253186D01*
X0182406Y0253261D01*
X0182307Y0253340D01*
X0182211Y0253421D01*
X0182117Y0253506D01*
X0182026Y0253593D01*
X0181938Y0253684D01*
X0181852Y0253777D01*
X0181770Y0253873D01*
X0181691Y0253971D01*
X0181614Y0254072D01*
X0181541Y0254175D01*
X0181472Y0254280D01*
X0181406Y0254388D01*
X0181343Y0254497D01*
X0181283Y0254609D01*
X0181227Y0254722D01*
X0181175Y0254837D01*
X0181127Y0254953D01*
X0181082Y0255072D01*
X0181041Y0255191D01*
X0181003Y0255312D01*
X0180970Y0255433D01*
X0180940Y0255556D01*
X0180915Y0255680D01*
X0180893Y0255804D01*
X0180875Y0255929D01*
X0180861Y0256055D01*
X0180851Y0256181D01*
X0180845Y0256307D01*
X0180843Y0256433D01*
D12*
X0387722Y0243061D02*
X0407407Y0223376D01*
X0423156Y0239124D01*
X0423262Y0239228D01*
X0423371Y0239328D01*
X0423483Y0239426D01*
X0423597Y0239520D01*
X0423713Y0239612D01*
X0423832Y0239700D01*
X0423954Y0239786D01*
X0424077Y0239867D01*
X0424203Y0239946D01*
X0424330Y0240021D01*
X0424460Y0240093D01*
X0424592Y0240162D01*
X0424725Y0240226D01*
X0424860Y0240288D01*
X0424997Y0240345D01*
X0425135Y0240399D01*
X0425274Y0240449D01*
X0425415Y0240496D01*
X0425557Y0240539D01*
X0425700Y0240578D01*
X0425844Y0240613D01*
X0425989Y0240644D01*
X0426134Y0240672D01*
X0426281Y0240695D01*
X0426428Y0240715D01*
X0426575Y0240731D01*
X0426723Y0240743D01*
X0426871Y0240751D01*
X0427019Y0240755D01*
X0427167Y0240755D01*
X0427315Y0240751D01*
X0427463Y0240743D01*
X0427611Y0240731D01*
X0427758Y0240715D01*
X0427905Y0240695D01*
X0428052Y0240672D01*
X0428197Y0240644D01*
X0428342Y0240613D01*
X0428486Y0240578D01*
X0428629Y0240539D01*
X0428771Y0240496D01*
X0428912Y0240449D01*
X0429051Y0240399D01*
X0429189Y0240345D01*
X0429326Y0240288D01*
X0429461Y0240226D01*
X0429594Y0240162D01*
X0429726Y0240093D01*
X0429856Y0240021D01*
X0429983Y0239946D01*
X0430109Y0239867D01*
X0430232Y0239786D01*
X0430354Y0239700D01*
X0430473Y0239612D01*
X0430589Y0239520D01*
X0430703Y0239426D01*
X0430815Y0239328D01*
X0430924Y0239228D01*
X0431030Y0239124D01*
X0446778Y0223376D01*
X0466463Y0243061D01*
X0466463Y0254872D01*
X0490085Y0254872D01*
X0490085Y0278494D01*
X0466463Y0278494D01*
X0466463Y0294242D01*
X0446778Y0294242D01*
X0446778Y0282431D02*
X0446778Y0250935D01*
X0446777Y0250935D02*
X0446779Y0250783D01*
X0446785Y0250631D01*
X0446795Y0250479D01*
X0446808Y0250328D01*
X0446826Y0250177D01*
X0446847Y0250026D01*
X0446873Y0249876D01*
X0446902Y0249727D01*
X0446935Y0249578D01*
X0446972Y0249431D01*
X0447012Y0249284D01*
X0447057Y0249139D01*
X0447105Y0248995D01*
X0447157Y0248852D01*
X0447212Y0248710D01*
X0447271Y0248570D01*
X0447334Y0248431D01*
X0447400Y0248294D01*
X0447470Y0248159D01*
X0447543Y0248026D01*
X0447620Y0247895D01*
X0447700Y0247765D01*
X0447783Y0247638D01*
X0447869Y0247513D01*
X0447959Y0247390D01*
X0448052Y0247270D01*
X0448148Y0247152D01*
X0448247Y0247036D01*
X0448349Y0246923D01*
X0448453Y0246813D01*
X0448561Y0246705D01*
X0448671Y0246601D01*
X0448784Y0246499D01*
X0448900Y0246400D01*
X0449018Y0246304D01*
X0449138Y0246211D01*
X0449261Y0246121D01*
X0449386Y0246035D01*
X0449513Y0245952D01*
X0449643Y0245872D01*
X0449774Y0245795D01*
X0449907Y0245722D01*
X0450042Y0245652D01*
X0450179Y0245586D01*
X0450318Y0245523D01*
X0450458Y0245464D01*
X0450600Y0245409D01*
X0450743Y0245357D01*
X0450887Y0245309D01*
X0451032Y0245264D01*
X0451179Y0245224D01*
X0451326Y0245187D01*
X0451475Y0245154D01*
X0451624Y0245125D01*
X0451774Y0245099D01*
X0451925Y0245078D01*
X0452076Y0245060D01*
X0452227Y0245047D01*
X0452379Y0245037D01*
X0452531Y0245031D01*
X0452683Y0245029D01*
X0452835Y0245031D01*
X0452987Y0245037D01*
X0453139Y0245047D01*
X0453290Y0245060D01*
X0453441Y0245078D01*
X0453592Y0245099D01*
X0453742Y0245125D01*
X0453891Y0245154D01*
X0454040Y0245187D01*
X0454187Y0245224D01*
X0454334Y0245264D01*
X0454479Y0245309D01*
X0454623Y0245357D01*
X0454766Y0245409D01*
X0454908Y0245464D01*
X0455048Y0245523D01*
X0455187Y0245586D01*
X0455324Y0245652D01*
X0455459Y0245722D01*
X0455592Y0245795D01*
X0455723Y0245872D01*
X0455853Y0245952D01*
X0455980Y0246035D01*
X0456105Y0246121D01*
X0456228Y0246211D01*
X0456348Y0246304D01*
X0456466Y0246400D01*
X0456582Y0246499D01*
X0456695Y0246601D01*
X0456805Y0246705D01*
X0456913Y0246813D01*
X0457017Y0246923D01*
X0457119Y0247036D01*
X0457218Y0247152D01*
X0457314Y0247270D01*
X0457407Y0247390D01*
X0457497Y0247513D01*
X0457583Y0247638D01*
X0457666Y0247765D01*
X0457746Y0247895D01*
X0457823Y0248026D01*
X0457896Y0248159D01*
X0457966Y0248294D01*
X0458032Y0248431D01*
X0458095Y0248570D01*
X0458154Y0248710D01*
X0458209Y0248852D01*
X0458261Y0248995D01*
X0458309Y0249139D01*
X0458354Y0249284D01*
X0458394Y0249431D01*
X0458431Y0249578D01*
X0458464Y0249727D01*
X0458493Y0249876D01*
X0458519Y0250026D01*
X0458540Y0250177D01*
X0458558Y0250328D01*
X0458571Y0250479D01*
X0458581Y0250631D01*
X0458587Y0250783D01*
X0458589Y0250935D01*
X0458589Y0282431D01*
X0466463Y0278494D02*
X0466463Y0254872D01*
X0472706Y0266683D02*
X0472708Y0266832D01*
X0472714Y0266981D01*
X0472724Y0267129D01*
X0472738Y0267277D01*
X0472756Y0267425D01*
X0472777Y0267572D01*
X0472803Y0267719D01*
X0472833Y0267865D01*
X0472866Y0268010D01*
X0472904Y0268154D01*
X0472945Y0268297D01*
X0472990Y0268439D01*
X0473039Y0268580D01*
X0473092Y0268719D01*
X0473148Y0268857D01*
X0473208Y0268993D01*
X0473271Y0269128D01*
X0473338Y0269260D01*
X0473409Y0269391D01*
X0473483Y0269521D01*
X0473561Y0269648D01*
X0473642Y0269773D01*
X0473726Y0269895D01*
X0473814Y0270016D01*
X0473904Y0270134D01*
X0473998Y0270249D01*
X0474095Y0270362D01*
X0474195Y0270473D01*
X0474298Y0270580D01*
X0474403Y0270685D01*
X0474512Y0270787D01*
X0474623Y0270887D01*
X0474736Y0270983D01*
X0474853Y0271076D01*
X0474971Y0271166D01*
X0475092Y0271252D01*
X0475215Y0271336D01*
X0475341Y0271416D01*
X0475469Y0271493D01*
X0475598Y0271566D01*
X0475730Y0271636D01*
X0475863Y0271702D01*
X0475998Y0271765D01*
X0476135Y0271824D01*
X0476273Y0271879D01*
X0476412Y0271931D01*
X0476553Y0271978D01*
X0476696Y0272023D01*
X0476839Y0272063D01*
X0476983Y0272099D01*
X0477128Y0272132D01*
X0477275Y0272161D01*
X0477421Y0272185D01*
X0477569Y0272206D01*
X0477717Y0272223D01*
X0477865Y0272236D01*
X0478014Y0272245D01*
X0478162Y0272250D01*
X0478311Y0272251D01*
X0478460Y0272248D01*
X0478609Y0272241D01*
X0478757Y0272230D01*
X0478905Y0272215D01*
X0479053Y0272196D01*
X0479200Y0272173D01*
X0479347Y0272147D01*
X0479492Y0272116D01*
X0479637Y0272082D01*
X0479781Y0272043D01*
X0479924Y0272001D01*
X0480065Y0271955D01*
X0480206Y0271905D01*
X0480344Y0271852D01*
X0480482Y0271795D01*
X0480618Y0271734D01*
X0480752Y0271669D01*
X0480884Y0271601D01*
X0481015Y0271530D01*
X0481144Y0271455D01*
X0481270Y0271376D01*
X0481394Y0271294D01*
X0481517Y0271209D01*
X0481636Y0271121D01*
X0481754Y0271030D01*
X0481869Y0270935D01*
X0481981Y0270837D01*
X0482091Y0270737D01*
X0482198Y0270633D01*
X0482302Y0270527D01*
X0482404Y0270418D01*
X0482502Y0270306D01*
X0482597Y0270192D01*
X0482690Y0270075D01*
X0482779Y0269956D01*
X0482864Y0269834D01*
X0482947Y0269710D01*
X0483026Y0269584D01*
X0483102Y0269456D01*
X0483175Y0269326D01*
X0483244Y0269194D01*
X0483309Y0269060D01*
X0483371Y0268925D01*
X0483429Y0268788D01*
X0483483Y0268649D01*
X0483534Y0268509D01*
X0483581Y0268368D01*
X0483624Y0268226D01*
X0483663Y0268082D01*
X0483699Y0267938D01*
X0483730Y0267792D01*
X0483758Y0267646D01*
X0483782Y0267499D01*
X0483802Y0267351D01*
X0483818Y0267203D01*
X0483830Y0267055D01*
X0483838Y0266906D01*
X0483842Y0266757D01*
X0483842Y0266609D01*
X0483838Y0266460D01*
X0483830Y0266311D01*
X0483818Y0266163D01*
X0483802Y0266015D01*
X0483782Y0265867D01*
X0483758Y0265720D01*
X0483730Y0265574D01*
X0483699Y0265428D01*
X0483663Y0265284D01*
X0483624Y0265140D01*
X0483581Y0264998D01*
X0483534Y0264857D01*
X0483483Y0264717D01*
X0483429Y0264578D01*
X0483371Y0264441D01*
X0483309Y0264306D01*
X0483244Y0264172D01*
X0483175Y0264040D01*
X0483102Y0263910D01*
X0483026Y0263782D01*
X0482947Y0263656D01*
X0482864Y0263532D01*
X0482779Y0263410D01*
X0482690Y0263291D01*
X0482597Y0263174D01*
X0482502Y0263060D01*
X0482404Y0262948D01*
X0482302Y0262839D01*
X0482198Y0262733D01*
X0482091Y0262629D01*
X0481981Y0262529D01*
X0481869Y0262431D01*
X0481754Y0262336D01*
X0481636Y0262245D01*
X0481517Y0262157D01*
X0481394Y0262072D01*
X0481270Y0261990D01*
X0481144Y0261911D01*
X0481015Y0261836D01*
X0480884Y0261765D01*
X0480752Y0261697D01*
X0480618Y0261632D01*
X0480482Y0261571D01*
X0480344Y0261514D01*
X0480206Y0261461D01*
X0480065Y0261411D01*
X0479924Y0261365D01*
X0479781Y0261323D01*
X0479637Y0261284D01*
X0479492Y0261250D01*
X0479347Y0261219D01*
X0479200Y0261193D01*
X0479053Y0261170D01*
X0478905Y0261151D01*
X0478757Y0261136D01*
X0478609Y0261125D01*
X0478460Y0261118D01*
X0478311Y0261115D01*
X0478162Y0261116D01*
X0478014Y0261121D01*
X0477865Y0261130D01*
X0477717Y0261143D01*
X0477569Y0261160D01*
X0477421Y0261181D01*
X0477275Y0261205D01*
X0477128Y0261234D01*
X0476983Y0261267D01*
X0476839Y0261303D01*
X0476696Y0261343D01*
X0476553Y0261388D01*
X0476412Y0261435D01*
X0476273Y0261487D01*
X0476135Y0261542D01*
X0475998Y0261601D01*
X0475863Y0261664D01*
X0475730Y0261730D01*
X0475598Y0261800D01*
X0475469Y0261873D01*
X0475341Y0261950D01*
X0475215Y0262030D01*
X0475092Y0262114D01*
X0474971Y0262200D01*
X0474853Y0262290D01*
X0474736Y0262383D01*
X0474623Y0262479D01*
X0474512Y0262579D01*
X0474403Y0262681D01*
X0474298Y0262786D01*
X0474195Y0262893D01*
X0474095Y0263004D01*
X0473998Y0263117D01*
X0473904Y0263232D01*
X0473814Y0263350D01*
X0473726Y0263471D01*
X0473642Y0263593D01*
X0473561Y0263718D01*
X0473483Y0263845D01*
X0473409Y0263975D01*
X0473338Y0264106D01*
X0473271Y0264238D01*
X0473208Y0264373D01*
X0473148Y0264509D01*
X0473092Y0264647D01*
X0473039Y0264786D01*
X0472990Y0264927D01*
X0472945Y0265069D01*
X0472904Y0265212D01*
X0472866Y0265356D01*
X0472833Y0265501D01*
X0472803Y0265647D01*
X0472777Y0265794D01*
X0472756Y0265941D01*
X0472738Y0266089D01*
X0472724Y0266237D01*
X0472714Y0266385D01*
X0472708Y0266534D01*
X0472706Y0266683D01*
X0407407Y0250935D02*
X0407407Y0282431D01*
X0395596Y0282431D02*
X0395596Y0250935D01*
X0395598Y0250783D01*
X0395604Y0250631D01*
X0395614Y0250479D01*
X0395627Y0250328D01*
X0395645Y0250177D01*
X0395666Y0250026D01*
X0395692Y0249876D01*
X0395721Y0249727D01*
X0395754Y0249578D01*
X0395791Y0249431D01*
X0395831Y0249284D01*
X0395876Y0249139D01*
X0395924Y0248995D01*
X0395976Y0248852D01*
X0396031Y0248710D01*
X0396090Y0248570D01*
X0396153Y0248431D01*
X0396219Y0248294D01*
X0396289Y0248159D01*
X0396362Y0248026D01*
X0396439Y0247895D01*
X0396519Y0247765D01*
X0396602Y0247638D01*
X0396688Y0247513D01*
X0396778Y0247390D01*
X0396871Y0247270D01*
X0396967Y0247152D01*
X0397066Y0247036D01*
X0397168Y0246923D01*
X0397272Y0246813D01*
X0397380Y0246705D01*
X0397490Y0246601D01*
X0397603Y0246499D01*
X0397719Y0246400D01*
X0397837Y0246304D01*
X0397957Y0246211D01*
X0398080Y0246121D01*
X0398205Y0246035D01*
X0398332Y0245952D01*
X0398462Y0245872D01*
X0398593Y0245795D01*
X0398726Y0245722D01*
X0398861Y0245652D01*
X0398998Y0245586D01*
X0399137Y0245523D01*
X0399277Y0245464D01*
X0399419Y0245409D01*
X0399562Y0245357D01*
X0399706Y0245309D01*
X0399851Y0245264D01*
X0399998Y0245224D01*
X0400145Y0245187D01*
X0400294Y0245154D01*
X0400443Y0245125D01*
X0400593Y0245099D01*
X0400744Y0245078D01*
X0400895Y0245060D01*
X0401046Y0245047D01*
X0401198Y0245037D01*
X0401350Y0245031D01*
X0401502Y0245029D01*
X0401654Y0245031D01*
X0401806Y0245037D01*
X0401958Y0245047D01*
X0402109Y0245060D01*
X0402260Y0245078D01*
X0402411Y0245099D01*
X0402561Y0245125D01*
X0402710Y0245154D01*
X0402859Y0245187D01*
X0403006Y0245224D01*
X0403153Y0245264D01*
X0403298Y0245309D01*
X0403442Y0245357D01*
X0403585Y0245409D01*
X0403727Y0245464D01*
X0403867Y0245523D01*
X0404006Y0245586D01*
X0404143Y0245652D01*
X0404278Y0245722D01*
X0404411Y0245795D01*
X0404542Y0245872D01*
X0404672Y0245952D01*
X0404799Y0246035D01*
X0404924Y0246121D01*
X0405047Y0246211D01*
X0405167Y0246304D01*
X0405285Y0246400D01*
X0405401Y0246499D01*
X0405514Y0246601D01*
X0405624Y0246705D01*
X0405732Y0246813D01*
X0405836Y0246923D01*
X0405938Y0247036D01*
X0406037Y0247152D01*
X0406133Y0247270D01*
X0406226Y0247390D01*
X0406316Y0247513D01*
X0406402Y0247638D01*
X0406485Y0247765D01*
X0406565Y0247895D01*
X0406642Y0248026D01*
X0406715Y0248159D01*
X0406785Y0248294D01*
X0406851Y0248431D01*
X0406914Y0248570D01*
X0406973Y0248710D01*
X0407028Y0248852D01*
X0407080Y0248995D01*
X0407128Y0249139D01*
X0407173Y0249284D01*
X0407213Y0249431D01*
X0407250Y0249578D01*
X0407283Y0249727D01*
X0407312Y0249876D01*
X0407338Y0250026D01*
X0407359Y0250177D01*
X0407377Y0250328D01*
X0407390Y0250479D01*
X0407400Y0250631D01*
X0407406Y0250783D01*
X0407408Y0250935D01*
X0387722Y0254872D02*
X0387722Y0243061D01*
X0387722Y0254872D02*
X0364100Y0254872D01*
X0364100Y0278494D01*
X0387722Y0278494D01*
X0387722Y0254872D01*
X0370343Y0266683D02*
X0370345Y0266832D01*
X0370351Y0266981D01*
X0370361Y0267129D01*
X0370375Y0267277D01*
X0370393Y0267425D01*
X0370414Y0267572D01*
X0370440Y0267719D01*
X0370470Y0267865D01*
X0370503Y0268010D01*
X0370541Y0268154D01*
X0370582Y0268297D01*
X0370627Y0268439D01*
X0370676Y0268580D01*
X0370729Y0268719D01*
X0370785Y0268857D01*
X0370845Y0268993D01*
X0370908Y0269128D01*
X0370975Y0269260D01*
X0371046Y0269391D01*
X0371120Y0269521D01*
X0371198Y0269648D01*
X0371279Y0269773D01*
X0371363Y0269895D01*
X0371451Y0270016D01*
X0371541Y0270134D01*
X0371635Y0270249D01*
X0371732Y0270362D01*
X0371832Y0270473D01*
X0371935Y0270580D01*
X0372040Y0270685D01*
X0372149Y0270787D01*
X0372260Y0270887D01*
X0372373Y0270983D01*
X0372490Y0271076D01*
X0372608Y0271166D01*
X0372729Y0271252D01*
X0372852Y0271336D01*
X0372978Y0271416D01*
X0373106Y0271493D01*
X0373235Y0271566D01*
X0373367Y0271636D01*
X0373500Y0271702D01*
X0373635Y0271765D01*
X0373772Y0271824D01*
X0373910Y0271879D01*
X0374049Y0271931D01*
X0374190Y0271978D01*
X0374333Y0272023D01*
X0374476Y0272063D01*
X0374620Y0272099D01*
X0374765Y0272132D01*
X0374912Y0272161D01*
X0375058Y0272185D01*
X0375206Y0272206D01*
X0375354Y0272223D01*
X0375502Y0272236D01*
X0375651Y0272245D01*
X0375799Y0272250D01*
X0375948Y0272251D01*
X0376097Y0272248D01*
X0376246Y0272241D01*
X0376394Y0272230D01*
X0376542Y0272215D01*
X0376690Y0272196D01*
X0376837Y0272173D01*
X0376984Y0272147D01*
X0377129Y0272116D01*
X0377274Y0272082D01*
X0377418Y0272043D01*
X0377561Y0272001D01*
X0377702Y0271955D01*
X0377843Y0271905D01*
X0377981Y0271852D01*
X0378119Y0271795D01*
X0378255Y0271734D01*
X0378389Y0271669D01*
X0378521Y0271601D01*
X0378652Y0271530D01*
X0378781Y0271455D01*
X0378907Y0271376D01*
X0379031Y0271294D01*
X0379154Y0271209D01*
X0379273Y0271121D01*
X0379391Y0271030D01*
X0379506Y0270935D01*
X0379618Y0270837D01*
X0379728Y0270737D01*
X0379835Y0270633D01*
X0379939Y0270527D01*
X0380041Y0270418D01*
X0380139Y0270306D01*
X0380234Y0270192D01*
X0380327Y0270075D01*
X0380416Y0269956D01*
X0380501Y0269834D01*
X0380584Y0269710D01*
X0380663Y0269584D01*
X0380739Y0269456D01*
X0380812Y0269326D01*
X0380881Y0269194D01*
X0380946Y0269060D01*
X0381008Y0268925D01*
X0381066Y0268788D01*
X0381120Y0268649D01*
X0381171Y0268509D01*
X0381218Y0268368D01*
X0381261Y0268226D01*
X0381300Y0268082D01*
X0381336Y0267938D01*
X0381367Y0267792D01*
X0381395Y0267646D01*
X0381419Y0267499D01*
X0381439Y0267351D01*
X0381455Y0267203D01*
X0381467Y0267055D01*
X0381475Y0266906D01*
X0381479Y0266757D01*
X0381479Y0266609D01*
X0381475Y0266460D01*
X0381467Y0266311D01*
X0381455Y0266163D01*
X0381439Y0266015D01*
X0381419Y0265867D01*
X0381395Y0265720D01*
X0381367Y0265574D01*
X0381336Y0265428D01*
X0381300Y0265284D01*
X0381261Y0265140D01*
X0381218Y0264998D01*
X0381171Y0264857D01*
X0381120Y0264717D01*
X0381066Y0264578D01*
X0381008Y0264441D01*
X0380946Y0264306D01*
X0380881Y0264172D01*
X0380812Y0264040D01*
X0380739Y0263910D01*
X0380663Y0263782D01*
X0380584Y0263656D01*
X0380501Y0263532D01*
X0380416Y0263410D01*
X0380327Y0263291D01*
X0380234Y0263174D01*
X0380139Y0263060D01*
X0380041Y0262948D01*
X0379939Y0262839D01*
X0379835Y0262733D01*
X0379728Y0262629D01*
X0379618Y0262529D01*
X0379506Y0262431D01*
X0379391Y0262336D01*
X0379273Y0262245D01*
X0379154Y0262157D01*
X0379031Y0262072D01*
X0378907Y0261990D01*
X0378781Y0261911D01*
X0378652Y0261836D01*
X0378521Y0261765D01*
X0378389Y0261697D01*
X0378255Y0261632D01*
X0378119Y0261571D01*
X0377981Y0261514D01*
X0377843Y0261461D01*
X0377702Y0261411D01*
X0377561Y0261365D01*
X0377418Y0261323D01*
X0377274Y0261284D01*
X0377129Y0261250D01*
X0376984Y0261219D01*
X0376837Y0261193D01*
X0376690Y0261170D01*
X0376542Y0261151D01*
X0376394Y0261136D01*
X0376246Y0261125D01*
X0376097Y0261118D01*
X0375948Y0261115D01*
X0375799Y0261116D01*
X0375651Y0261121D01*
X0375502Y0261130D01*
X0375354Y0261143D01*
X0375206Y0261160D01*
X0375058Y0261181D01*
X0374912Y0261205D01*
X0374765Y0261234D01*
X0374620Y0261267D01*
X0374476Y0261303D01*
X0374333Y0261343D01*
X0374190Y0261388D01*
X0374049Y0261435D01*
X0373910Y0261487D01*
X0373772Y0261542D01*
X0373635Y0261601D01*
X0373500Y0261664D01*
X0373367Y0261730D01*
X0373235Y0261800D01*
X0373106Y0261873D01*
X0372978Y0261950D01*
X0372852Y0262030D01*
X0372729Y0262114D01*
X0372608Y0262200D01*
X0372490Y0262290D01*
X0372373Y0262383D01*
X0372260Y0262479D01*
X0372149Y0262579D01*
X0372040Y0262681D01*
X0371935Y0262786D01*
X0371832Y0262893D01*
X0371732Y0263004D01*
X0371635Y0263117D01*
X0371541Y0263232D01*
X0371451Y0263350D01*
X0371363Y0263471D01*
X0371279Y0263593D01*
X0371198Y0263718D01*
X0371120Y0263845D01*
X0371046Y0263975D01*
X0370975Y0264106D01*
X0370908Y0264238D01*
X0370845Y0264373D01*
X0370785Y0264509D01*
X0370729Y0264647D01*
X0370676Y0264786D01*
X0370627Y0264927D01*
X0370582Y0265069D01*
X0370541Y0265212D01*
X0370503Y0265356D01*
X0370470Y0265501D01*
X0370440Y0265647D01*
X0370414Y0265794D01*
X0370393Y0265941D01*
X0370375Y0266089D01*
X0370361Y0266237D01*
X0370351Y0266385D01*
X0370345Y0266534D01*
X0370343Y0266683D01*
X0387722Y0278494D02*
X0387722Y0294242D01*
X0407407Y0294242D01*
X0407408Y0294242D02*
X0408101Y0293769D01*
X0408805Y0293314D01*
X0409520Y0292875D01*
X0410245Y0292455D01*
X0410981Y0292052D01*
X0411726Y0291668D01*
X0412480Y0291301D01*
X0413243Y0290954D01*
X0414015Y0290625D01*
X0414794Y0290315D01*
X0415580Y0290024D01*
X0416374Y0289752D01*
X0417173Y0289500D01*
X0417979Y0289267D01*
X0418790Y0289054D01*
X0419606Y0288862D01*
X0420427Y0288689D01*
X0421251Y0288536D01*
X0422079Y0288403D01*
X0422910Y0288291D01*
X0423744Y0288199D01*
X0424579Y0288127D01*
X0425416Y0288076D01*
X0426254Y0288045D01*
X0427093Y0288035D01*
X0427932Y0288045D01*
X0428770Y0288076D01*
X0429607Y0288127D01*
X0430442Y0288199D01*
X0431276Y0288291D01*
X0432107Y0288403D01*
X0432935Y0288536D01*
X0433759Y0288689D01*
X0434580Y0288862D01*
X0435396Y0289054D01*
X0436207Y0289267D01*
X0437013Y0289500D01*
X0437812Y0289752D01*
X0438606Y0290024D01*
X0439392Y0290315D01*
X0440171Y0290625D01*
X0440943Y0290954D01*
X0441706Y0291301D01*
X0442460Y0291668D01*
X0443205Y0292052D01*
X0443941Y0292455D01*
X0444666Y0292875D01*
X0445381Y0293314D01*
X0446085Y0293769D01*
X0446778Y0294242D01*
X0205093Y0272686D02*
X0203591Y0274187D01*
X0203591Y0269683D01*
X0202090Y0269683D02*
X0205093Y0269683D01*
X0169093Y0269683D02*
X0166090Y0272686D01*
X0166090Y0273436D01*
X0166841Y0274187D01*
X0168342Y0274187D01*
X0169093Y0273436D01*
X0169093Y0269683D02*
X0166090Y0269683D01*
X0166341Y0242687D02*
X0168593Y0240435D01*
X0165590Y0240435D01*
X0166341Y0238183D02*
X0166341Y0242687D01*
X0202090Y0241936D02*
X0202090Y0241186D01*
X0202841Y0240435D01*
X0202090Y0239684D01*
X0202090Y0238934D01*
X0202841Y0238183D01*
X0204342Y0238183D01*
X0205093Y0238934D01*
X0203591Y0240435D02*
X0202841Y0240435D01*
X0202090Y0241936D02*
X0202841Y0242687D01*
X0204342Y0242687D01*
X0205093Y0241936D01*
D13*
X0198093Y0232433D03*
X0171593Y0232433D03*
X0171593Y0280433D03*
X0198093Y0280433D03*
D14*
X0375911Y0266683D02*
X0375911Y0313730D01*
X0376167Y0306053D02*
X0386148Y0307077D01*
X0386148Y0307310D02*
X0376167Y0306053D01*
X0386148Y0305030D01*
X0386148Y0304796D02*
X0386148Y0307310D01*
X0386148Y0306565D02*
X0376167Y0306053D01*
X0386148Y0305541D01*
X0386148Y0304796D02*
X0376167Y0306053D01*
X0478018Y0306053D01*
X0468037Y0307077D01*
X0468037Y0307310D02*
X0478018Y0306053D01*
X0468037Y0305030D01*
X0468037Y0304796D02*
X0468037Y0307310D01*
X0468037Y0306565D02*
X0478018Y0306053D01*
X0468037Y0305541D01*
X0468037Y0304796D02*
X0478018Y0306053D01*
X0478274Y0313730D02*
X0478274Y0266683D01*
D15*
X0441918Y0299491D02*
X0438849Y0299491D01*
X0437314Y0300259D02*
X0436547Y0299491D01*
X0435012Y0299491D01*
X0434245Y0300259D01*
X0434245Y0301026D01*
X0435012Y0301793D01*
X0437314Y0301793D01*
X0437314Y0300259D01*
X0437314Y0301793D02*
X0435780Y0303328D01*
X0434245Y0304095D01*
X0430408Y0303328D02*
X0430408Y0300259D01*
X0427339Y0303328D01*
X0427339Y0300259D01*
X0428106Y0299491D01*
X0429641Y0299491D01*
X0430408Y0300259D01*
X0431943Y0300259D02*
X0431943Y0299491D01*
X0432710Y0299491D01*
X0432710Y0300259D01*
X0431943Y0300259D01*
X0430408Y0303328D02*
X0429641Y0304095D01*
X0428106Y0304095D01*
X0427339Y0303328D01*
X0425804Y0303328D02*
X0425037Y0304095D01*
X0423503Y0304095D01*
X0422735Y0303328D01*
X0425804Y0300259D01*
X0425037Y0299491D01*
X0423503Y0299491D01*
X0422735Y0300259D01*
X0422735Y0303328D01*
X0421201Y0302561D02*
X0420433Y0302561D01*
X0419666Y0301793D01*
X0418899Y0302561D01*
X0418131Y0301793D01*
X0418131Y0299491D01*
X0416597Y0299491D02*
X0416597Y0302561D01*
X0415829Y0302561D01*
X0415062Y0301793D01*
X0414295Y0302561D01*
X0413527Y0301793D01*
X0413527Y0299491D01*
X0415062Y0299491D02*
X0415062Y0301793D01*
X0419666Y0301793D02*
X0419666Y0299491D01*
X0421201Y0299491D02*
X0421201Y0302561D01*
X0425804Y0303328D02*
X0425804Y0300259D01*
X0438849Y0302561D02*
X0438849Y0303328D01*
X0439616Y0304095D01*
X0441151Y0304095D01*
X0441918Y0303328D01*
X0438849Y0302561D02*
X0441918Y0299491D01*
D16*
X0429039Y0278250D02*
X0429039Y0267630D01*
X0434349Y0272940D02*
X0423729Y0272940D01*
X0426193Y0260531D02*
X0415572Y0260531D01*
X0415572Y0257876D01*
X0426193Y0247256D01*
X0426193Y0244601D01*
X0415572Y0244601D01*
X0431886Y0244601D02*
X0442506Y0244601D01*
X0442506Y0260531D01*
X0431886Y0260531D01*
X0437196Y0252566D02*
X0442506Y0252566D01*
D17*
X0311093Y0276433D02*
X0311093Y0291433D01*
X0281093Y0291433D02*
X0281093Y0276433D01*
X0251093Y0276433D02*
X0251093Y0291433D01*
X0219968Y0291683D02*
X0219968Y0276683D01*
D18*
X0220155Y0276440D01*
X0220347Y0276202D01*
X0220546Y0275969D01*
X0220750Y0275741D01*
X0220959Y0275518D01*
X0221174Y0275300D01*
X0221394Y0275087D01*
X0221619Y0274880D01*
X0221850Y0274678D01*
X0222085Y0274482D01*
X0222325Y0274292D01*
X0222569Y0274108D01*
X0222818Y0273930D01*
X0223072Y0273758D01*
X0223329Y0273592D01*
X0223590Y0273432D01*
X0223855Y0273279D01*
X0224124Y0273133D01*
X0224397Y0272993D01*
X0224672Y0272860D01*
X0224951Y0272734D01*
X0225233Y0272614D01*
X0225518Y0272502D01*
X0225805Y0272397D01*
X0226095Y0272298D01*
X0226387Y0272207D01*
X0226682Y0272123D01*
X0226978Y0272046D01*
X0227276Y0271976D01*
X0227576Y0271914D01*
X0227877Y0271859D01*
X0228179Y0271812D01*
X0228483Y0271772D01*
X0228787Y0271739D01*
X0229092Y0271714D01*
X0229398Y0271696D01*
X0229704Y0271686D01*
X0230010Y0271683D01*
X0230316Y0271688D01*
X0230622Y0271700D01*
X0230928Y0271720D01*
X0231232Y0271747D01*
X0231537Y0271782D01*
X0231840Y0271824D01*
X0232142Y0271873D01*
X0232443Y0271930D01*
X0232742Y0271995D01*
X0233040Y0272066D01*
X0233335Y0272145D01*
X0233629Y0272231D01*
X0233921Y0272324D01*
X0234210Y0272425D01*
X0234497Y0272532D01*
X0234781Y0272647D01*
X0235062Y0272768D01*
X0235340Y0272896D01*
X0235615Y0273031D01*
X0235886Y0273173D01*
X0236154Y0273321D01*
X0236418Y0273476D01*
X0236678Y0273637D01*
X0236934Y0273804D01*
X0237187Y0273978D01*
X0237434Y0274158D01*
X0237678Y0274344D01*
X0237916Y0274535D01*
X0238150Y0274733D01*
X0238379Y0274936D01*
X0238603Y0275145D01*
X0238822Y0275359D01*
X0239035Y0275579D01*
X0239243Y0275803D01*
X0239446Y0276033D01*
X0239642Y0276267D01*
X0239833Y0276507D01*
X0240018Y0276750D01*
X0240197Y0276999D01*
X0240370Y0277251D01*
X0240537Y0277508D01*
X0240697Y0277769D01*
X0240851Y0278034D01*
X0240998Y0278302D01*
X0241139Y0278574D01*
X0241273Y0278849D01*
X0241400Y0279128D01*
X0241521Y0279409D01*
X0241634Y0279694D01*
X0241740Y0279981D01*
X0241840Y0280270D01*
X0241932Y0280562D01*
X0242017Y0280856D01*
X0242095Y0281152D01*
X0242166Y0281450D01*
X0242229Y0281750D01*
X0242285Y0282051D01*
X0242333Y0282353D01*
X0242374Y0282656D01*
X0242408Y0282960D01*
X0242434Y0283265D01*
X0242453Y0283571D01*
X0242464Y0283877D01*
X0242468Y0284183D01*
X0242464Y0284489D01*
X0242453Y0284795D01*
X0242434Y0285101D01*
X0242408Y0285406D01*
X0242374Y0285710D01*
X0242333Y0286013D01*
X0242285Y0286315D01*
X0242229Y0286616D01*
X0242166Y0286916D01*
X0242095Y0287214D01*
X0242017Y0287510D01*
X0241932Y0287804D01*
X0241840Y0288096D01*
X0241740Y0288385D01*
X0241634Y0288672D01*
X0241521Y0288957D01*
X0241400Y0289238D01*
X0241273Y0289517D01*
X0241139Y0289792D01*
X0240998Y0290064D01*
X0240851Y0290332D01*
X0240697Y0290597D01*
X0240537Y0290858D01*
X0240370Y0291115D01*
X0240197Y0291367D01*
X0240018Y0291616D01*
X0239833Y0291859D01*
X0239642Y0292099D01*
X0239446Y0292333D01*
X0239243Y0292563D01*
X0239035Y0292787D01*
X0238822Y0293007D01*
X0238603Y0293221D01*
X0238379Y0293430D01*
X0238150Y0293633D01*
X0237916Y0293831D01*
X0237678Y0294022D01*
X0237434Y0294208D01*
X0237187Y0294388D01*
X0236934Y0294562D01*
X0236678Y0294729D01*
X0236418Y0294890D01*
X0236154Y0295045D01*
X0235886Y0295193D01*
X0235615Y0295335D01*
X0235340Y0295470D01*
X0235062Y0295598D01*
X0234781Y0295719D01*
X0234497Y0295834D01*
X0234210Y0295941D01*
X0233921Y0296042D01*
X0233629Y0296135D01*
X0233335Y0296221D01*
X0233040Y0296300D01*
X0232742Y0296371D01*
X0232443Y0296436D01*
X0232142Y0296493D01*
X0231840Y0296542D01*
X0231537Y0296584D01*
X0231232Y0296619D01*
X0230928Y0296646D01*
X0230622Y0296666D01*
X0230316Y0296678D01*
X0230010Y0296683D01*
X0229704Y0296680D01*
X0229398Y0296670D01*
X0229092Y0296652D01*
X0228787Y0296627D01*
X0228483Y0296594D01*
X0228179Y0296554D01*
X0227877Y0296507D01*
X0227576Y0296452D01*
X0227276Y0296390D01*
X0226978Y0296320D01*
X0226682Y0296243D01*
X0226387Y0296159D01*
X0226095Y0296068D01*
X0225805Y0295969D01*
X0225518Y0295864D01*
X0225233Y0295752D01*
X0224951Y0295632D01*
X0224672Y0295506D01*
X0224397Y0295373D01*
X0224124Y0295233D01*
X0223855Y0295087D01*
X0223590Y0294934D01*
X0223329Y0294774D01*
X0223072Y0294608D01*
X0222818Y0294436D01*
X0222569Y0294258D01*
X0222325Y0294074D01*
X0222085Y0293884D01*
X0221850Y0293688D01*
X0221619Y0293486D01*
X0221394Y0293279D01*
X0221174Y0293066D01*
X0220959Y0292848D01*
X0220750Y0292625D01*
X0220546Y0292397D01*
X0220347Y0292164D01*
X0220155Y0291926D01*
X0219968Y0291683D01*
X0251093Y0291433D02*
X0251280Y0291676D01*
X0251472Y0291914D01*
X0251671Y0292147D01*
X0251875Y0292375D01*
X0252084Y0292598D01*
X0252299Y0292816D01*
X0252519Y0293029D01*
X0252744Y0293236D01*
X0252975Y0293438D01*
X0253210Y0293634D01*
X0253450Y0293824D01*
X0253694Y0294008D01*
X0253943Y0294186D01*
X0254197Y0294358D01*
X0254454Y0294524D01*
X0254715Y0294684D01*
X0254980Y0294837D01*
X0255249Y0294983D01*
X0255522Y0295123D01*
X0255797Y0295256D01*
X0256076Y0295382D01*
X0256358Y0295502D01*
X0256643Y0295614D01*
X0256930Y0295719D01*
X0257220Y0295818D01*
X0257512Y0295909D01*
X0257807Y0295993D01*
X0258103Y0296070D01*
X0258401Y0296140D01*
X0258701Y0296202D01*
X0259002Y0296257D01*
X0259304Y0296304D01*
X0259608Y0296344D01*
X0259912Y0296377D01*
X0260217Y0296402D01*
X0260523Y0296420D01*
X0260829Y0296430D01*
X0261135Y0296433D01*
X0261441Y0296428D01*
X0261747Y0296416D01*
X0262053Y0296396D01*
X0262357Y0296369D01*
X0262662Y0296334D01*
X0262965Y0296292D01*
X0263267Y0296243D01*
X0263568Y0296186D01*
X0263867Y0296121D01*
X0264165Y0296050D01*
X0264460Y0295971D01*
X0264754Y0295885D01*
X0265046Y0295792D01*
X0265335Y0295691D01*
X0265622Y0295584D01*
X0265906Y0295469D01*
X0266187Y0295348D01*
X0266465Y0295220D01*
X0266740Y0295085D01*
X0267011Y0294943D01*
X0267279Y0294795D01*
X0267543Y0294640D01*
X0267803Y0294479D01*
X0268059Y0294312D01*
X0268312Y0294138D01*
X0268559Y0293958D01*
X0268803Y0293772D01*
X0269041Y0293581D01*
X0269275Y0293383D01*
X0269504Y0293180D01*
X0269728Y0292971D01*
X0269947Y0292757D01*
X0270160Y0292537D01*
X0270368Y0292313D01*
X0270571Y0292083D01*
X0270767Y0291849D01*
X0270958Y0291609D01*
X0271143Y0291366D01*
X0271322Y0291117D01*
X0271495Y0290865D01*
X0271662Y0290608D01*
X0271822Y0290347D01*
X0271976Y0290082D01*
X0272123Y0289814D01*
X0272264Y0289542D01*
X0272398Y0289267D01*
X0272525Y0288988D01*
X0272646Y0288707D01*
X0272759Y0288422D01*
X0272865Y0288135D01*
X0272965Y0287846D01*
X0273057Y0287554D01*
X0273142Y0287260D01*
X0273220Y0286964D01*
X0273291Y0286666D01*
X0273354Y0286366D01*
X0273410Y0286065D01*
X0273458Y0285763D01*
X0273499Y0285460D01*
X0273533Y0285156D01*
X0273559Y0284851D01*
X0273578Y0284545D01*
X0273589Y0284239D01*
X0273593Y0283933D01*
X0273589Y0283627D01*
X0273578Y0283321D01*
X0273559Y0283015D01*
X0273533Y0282710D01*
X0273499Y0282406D01*
X0273458Y0282103D01*
X0273410Y0281801D01*
X0273354Y0281500D01*
X0273291Y0281200D01*
X0273220Y0280902D01*
X0273142Y0280606D01*
X0273057Y0280312D01*
X0272965Y0280020D01*
X0272865Y0279731D01*
X0272759Y0279444D01*
X0272646Y0279159D01*
X0272525Y0278878D01*
X0272398Y0278599D01*
X0272264Y0278324D01*
X0272123Y0278052D01*
X0271976Y0277784D01*
X0271822Y0277519D01*
X0271662Y0277258D01*
X0271495Y0277001D01*
X0271322Y0276749D01*
X0271143Y0276500D01*
X0270958Y0276257D01*
X0270767Y0276017D01*
X0270571Y0275783D01*
X0270368Y0275553D01*
X0270160Y0275329D01*
X0269947Y0275109D01*
X0269728Y0274895D01*
X0269504Y0274686D01*
X0269275Y0274483D01*
X0269041Y0274285D01*
X0268803Y0274094D01*
X0268559Y0273908D01*
X0268312Y0273728D01*
X0268059Y0273554D01*
X0267803Y0273387D01*
X0267543Y0273226D01*
X0267279Y0273071D01*
X0267011Y0272923D01*
X0266740Y0272781D01*
X0266465Y0272646D01*
X0266187Y0272518D01*
X0265906Y0272397D01*
X0265622Y0272282D01*
X0265335Y0272175D01*
X0265046Y0272074D01*
X0264754Y0271981D01*
X0264460Y0271895D01*
X0264165Y0271816D01*
X0263867Y0271745D01*
X0263568Y0271680D01*
X0263267Y0271623D01*
X0262965Y0271574D01*
X0262662Y0271532D01*
X0262357Y0271497D01*
X0262053Y0271470D01*
X0261747Y0271450D01*
X0261441Y0271438D01*
X0261135Y0271433D01*
X0260829Y0271436D01*
X0260523Y0271446D01*
X0260217Y0271464D01*
X0259912Y0271489D01*
X0259608Y0271522D01*
X0259304Y0271562D01*
X0259002Y0271609D01*
X0258701Y0271664D01*
X0258401Y0271726D01*
X0258103Y0271796D01*
X0257807Y0271873D01*
X0257512Y0271957D01*
X0257220Y0272048D01*
X0256930Y0272147D01*
X0256643Y0272252D01*
X0256358Y0272364D01*
X0256076Y0272484D01*
X0255797Y0272610D01*
X0255522Y0272743D01*
X0255249Y0272883D01*
X0254980Y0273029D01*
X0254715Y0273182D01*
X0254454Y0273342D01*
X0254197Y0273508D01*
X0253943Y0273680D01*
X0253694Y0273858D01*
X0253450Y0274042D01*
X0253210Y0274232D01*
X0252975Y0274428D01*
X0252744Y0274630D01*
X0252519Y0274837D01*
X0252299Y0275050D01*
X0252084Y0275268D01*
X0251875Y0275491D01*
X0251671Y0275719D01*
X0251472Y0275952D01*
X0251280Y0276190D01*
X0251093Y0276433D01*
X0281093Y0276433D02*
X0281280Y0276190D01*
X0281472Y0275952D01*
X0281671Y0275719D01*
X0281875Y0275491D01*
X0282084Y0275268D01*
X0282299Y0275050D01*
X0282519Y0274837D01*
X0282744Y0274630D01*
X0282975Y0274428D01*
X0283210Y0274232D01*
X0283450Y0274042D01*
X0283694Y0273858D01*
X0283943Y0273680D01*
X0284197Y0273508D01*
X0284454Y0273342D01*
X0284715Y0273182D01*
X0284980Y0273029D01*
X0285249Y0272883D01*
X0285522Y0272743D01*
X0285797Y0272610D01*
X0286076Y0272484D01*
X0286358Y0272364D01*
X0286643Y0272252D01*
X0286930Y0272147D01*
X0287220Y0272048D01*
X0287512Y0271957D01*
X0287807Y0271873D01*
X0288103Y0271796D01*
X0288401Y0271726D01*
X0288701Y0271664D01*
X0289002Y0271609D01*
X0289304Y0271562D01*
X0289608Y0271522D01*
X0289912Y0271489D01*
X0290217Y0271464D01*
X0290523Y0271446D01*
X0290829Y0271436D01*
X0291135Y0271433D01*
X0291441Y0271438D01*
X0291747Y0271450D01*
X0292053Y0271470D01*
X0292357Y0271497D01*
X0292662Y0271532D01*
X0292965Y0271574D01*
X0293267Y0271623D01*
X0293568Y0271680D01*
X0293867Y0271745D01*
X0294165Y0271816D01*
X0294460Y0271895D01*
X0294754Y0271981D01*
X0295046Y0272074D01*
X0295335Y0272175D01*
X0295622Y0272282D01*
X0295906Y0272397D01*
X0296187Y0272518D01*
X0296465Y0272646D01*
X0296740Y0272781D01*
X0297011Y0272923D01*
X0297279Y0273071D01*
X0297543Y0273226D01*
X0297803Y0273387D01*
X0298059Y0273554D01*
X0298312Y0273728D01*
X0298559Y0273908D01*
X0298803Y0274094D01*
X0299041Y0274285D01*
X0299275Y0274483D01*
X0299504Y0274686D01*
X0299728Y0274895D01*
X0299947Y0275109D01*
X0300160Y0275329D01*
X0300368Y0275553D01*
X0300571Y0275783D01*
X0300767Y0276017D01*
X0300958Y0276257D01*
X0301143Y0276500D01*
X0301322Y0276749D01*
X0301495Y0277001D01*
X0301662Y0277258D01*
X0301822Y0277519D01*
X0301976Y0277784D01*
X0302123Y0278052D01*
X0302264Y0278324D01*
X0302398Y0278599D01*
X0302525Y0278878D01*
X0302646Y0279159D01*
X0302759Y0279444D01*
X0302865Y0279731D01*
X0302965Y0280020D01*
X0303057Y0280312D01*
X0303142Y0280606D01*
X0303220Y0280902D01*
X0303291Y0281200D01*
X0303354Y0281500D01*
X0303410Y0281801D01*
X0303458Y0282103D01*
X0303499Y0282406D01*
X0303533Y0282710D01*
X0303559Y0283015D01*
X0303578Y0283321D01*
X0303589Y0283627D01*
X0303593Y0283933D01*
X0303589Y0284239D01*
X0303578Y0284545D01*
X0303559Y0284851D01*
X0303533Y0285156D01*
X0303499Y0285460D01*
X0303458Y0285763D01*
X0303410Y0286065D01*
X0303354Y0286366D01*
X0303291Y0286666D01*
X0303220Y0286964D01*
X0303142Y0287260D01*
X0303057Y0287554D01*
X0302965Y0287846D01*
X0302865Y0288135D01*
X0302759Y0288422D01*
X0302646Y0288707D01*
X0302525Y0288988D01*
X0302398Y0289267D01*
X0302264Y0289542D01*
X0302123Y0289814D01*
X0301976Y0290082D01*
X0301822Y0290347D01*
X0301662Y0290608D01*
X0301495Y0290865D01*
X0301322Y0291117D01*
X0301143Y0291366D01*
X0300958Y0291609D01*
X0300767Y0291849D01*
X0300571Y0292083D01*
X0300368Y0292313D01*
X0300160Y0292537D01*
X0299947Y0292757D01*
X0299728Y0292971D01*
X0299504Y0293180D01*
X0299275Y0293383D01*
X0299041Y0293581D01*
X0298803Y0293772D01*
X0298559Y0293958D01*
X0298312Y0294138D01*
X0298059Y0294312D01*
X0297803Y0294479D01*
X0297543Y0294640D01*
X0297279Y0294795D01*
X0297011Y0294943D01*
X0296740Y0295085D01*
X0296465Y0295220D01*
X0296187Y0295348D01*
X0295906Y0295469D01*
X0295622Y0295584D01*
X0295335Y0295691D01*
X0295046Y0295792D01*
X0294754Y0295885D01*
X0294460Y0295971D01*
X0294165Y0296050D01*
X0293867Y0296121D01*
X0293568Y0296186D01*
X0293267Y0296243D01*
X0292965Y0296292D01*
X0292662Y0296334D01*
X0292357Y0296369D01*
X0292053Y0296396D01*
X0291747Y0296416D01*
X0291441Y0296428D01*
X0291135Y0296433D01*
X0290829Y0296430D01*
X0290523Y0296420D01*
X0290217Y0296402D01*
X0289912Y0296377D01*
X0289608Y0296344D01*
X0289304Y0296304D01*
X0289002Y0296257D01*
X0288701Y0296202D01*
X0288401Y0296140D01*
X0288103Y0296070D01*
X0287807Y0295993D01*
X0287512Y0295909D01*
X0287220Y0295818D01*
X0286930Y0295719D01*
X0286643Y0295614D01*
X0286358Y0295502D01*
X0286076Y0295382D01*
X0285797Y0295256D01*
X0285522Y0295123D01*
X0285249Y0294983D01*
X0284980Y0294837D01*
X0284715Y0294684D01*
X0284454Y0294524D01*
X0284197Y0294358D01*
X0283943Y0294186D01*
X0283694Y0294008D01*
X0283450Y0293824D01*
X0283210Y0293634D01*
X0282975Y0293438D01*
X0282744Y0293236D01*
X0282519Y0293029D01*
X0282299Y0292816D01*
X0282084Y0292598D01*
X0281875Y0292375D01*
X0281671Y0292147D01*
X0281472Y0291914D01*
X0281280Y0291676D01*
X0281093Y0291433D01*
X0311093Y0291433D02*
X0311280Y0291676D01*
X0311472Y0291914D01*
X0311671Y0292147D01*
X0311875Y0292375D01*
X0312084Y0292598D01*
X0312299Y0292816D01*
X0312519Y0293029D01*
X0312744Y0293236D01*
X0312975Y0293438D01*
X0313210Y0293634D01*
X0313450Y0293824D01*
X0313694Y0294008D01*
X0313943Y0294186D01*
X0314197Y0294358D01*
X0314454Y0294524D01*
X0314715Y0294684D01*
X0314980Y0294837D01*
X0315249Y0294983D01*
X0315522Y0295123D01*
X0315797Y0295256D01*
X0316076Y0295382D01*
X0316358Y0295502D01*
X0316643Y0295614D01*
X0316930Y0295719D01*
X0317220Y0295818D01*
X0317512Y0295909D01*
X0317807Y0295993D01*
X0318103Y0296070D01*
X0318401Y0296140D01*
X0318701Y0296202D01*
X0319002Y0296257D01*
X0319304Y0296304D01*
X0319608Y0296344D01*
X0319912Y0296377D01*
X0320217Y0296402D01*
X0320523Y0296420D01*
X0320829Y0296430D01*
X0321135Y0296433D01*
X0321441Y0296428D01*
X0321747Y0296416D01*
X0322053Y0296396D01*
X0322357Y0296369D01*
X0322662Y0296334D01*
X0322965Y0296292D01*
X0323267Y0296243D01*
X0323568Y0296186D01*
X0323867Y0296121D01*
X0324165Y0296050D01*
X0324460Y0295971D01*
X0324754Y0295885D01*
X0325046Y0295792D01*
X0325335Y0295691D01*
X0325622Y0295584D01*
X0325906Y0295469D01*
X0326187Y0295348D01*
X0326465Y0295220D01*
X0326740Y0295085D01*
X0327011Y0294943D01*
X0327279Y0294795D01*
X0327543Y0294640D01*
X0327803Y0294479D01*
X0328059Y0294312D01*
X0328312Y0294138D01*
X0328559Y0293958D01*
X0328803Y0293772D01*
X0329041Y0293581D01*
X0329275Y0293383D01*
X0329504Y0293180D01*
X0329728Y0292971D01*
X0329947Y0292757D01*
X0330160Y0292537D01*
X0330368Y0292313D01*
X0330571Y0292083D01*
X0330767Y0291849D01*
X0330958Y0291609D01*
X0331143Y0291366D01*
X0331322Y0291117D01*
X0331495Y0290865D01*
X0331662Y0290608D01*
X0331822Y0290347D01*
X0331976Y0290082D01*
X0332123Y0289814D01*
X0332264Y0289542D01*
X0332398Y0289267D01*
X0332525Y0288988D01*
X0332646Y0288707D01*
X0332759Y0288422D01*
X0332865Y0288135D01*
X0332965Y0287846D01*
X0333057Y0287554D01*
X0333142Y0287260D01*
X0333220Y0286964D01*
X0333291Y0286666D01*
X0333354Y0286366D01*
X0333410Y0286065D01*
X0333458Y0285763D01*
X0333499Y0285460D01*
X0333533Y0285156D01*
X0333559Y0284851D01*
X0333578Y0284545D01*
X0333589Y0284239D01*
X0333593Y0283933D01*
X0333589Y0283627D01*
X0333578Y0283321D01*
X0333559Y0283015D01*
X0333533Y0282710D01*
X0333499Y0282406D01*
X0333458Y0282103D01*
X0333410Y0281801D01*
X0333354Y0281500D01*
X0333291Y0281200D01*
X0333220Y0280902D01*
X0333142Y0280606D01*
X0333057Y0280312D01*
X0332965Y0280020D01*
X0332865Y0279731D01*
X0332759Y0279444D01*
X0332646Y0279159D01*
X0332525Y0278878D01*
X0332398Y0278599D01*
X0332264Y0278324D01*
X0332123Y0278052D01*
X0331976Y0277784D01*
X0331822Y0277519D01*
X0331662Y0277258D01*
X0331495Y0277001D01*
X0331322Y0276749D01*
X0331143Y0276500D01*
X0330958Y0276257D01*
X0330767Y0276017D01*
X0330571Y0275783D01*
X0330368Y0275553D01*
X0330160Y0275329D01*
X0329947Y0275109D01*
X0329728Y0274895D01*
X0329504Y0274686D01*
X0329275Y0274483D01*
X0329041Y0274285D01*
X0328803Y0274094D01*
X0328559Y0273908D01*
X0328312Y0273728D01*
X0328059Y0273554D01*
X0327803Y0273387D01*
X0327543Y0273226D01*
X0327279Y0273071D01*
X0327011Y0272923D01*
X0326740Y0272781D01*
X0326465Y0272646D01*
X0326187Y0272518D01*
X0325906Y0272397D01*
X0325622Y0272282D01*
X0325335Y0272175D01*
X0325046Y0272074D01*
X0324754Y0271981D01*
X0324460Y0271895D01*
X0324165Y0271816D01*
X0323867Y0271745D01*
X0323568Y0271680D01*
X0323267Y0271623D01*
X0322965Y0271574D01*
X0322662Y0271532D01*
X0322357Y0271497D01*
X0322053Y0271470D01*
X0321747Y0271450D01*
X0321441Y0271438D01*
X0321135Y0271433D01*
X0320829Y0271436D01*
X0320523Y0271446D01*
X0320217Y0271464D01*
X0319912Y0271489D01*
X0319608Y0271522D01*
X0319304Y0271562D01*
X0319002Y0271609D01*
X0318701Y0271664D01*
X0318401Y0271726D01*
X0318103Y0271796D01*
X0317807Y0271873D01*
X0317512Y0271957D01*
X0317220Y0272048D01*
X0316930Y0272147D01*
X0316643Y0272252D01*
X0316358Y0272364D01*
X0316076Y0272484D01*
X0315797Y0272610D01*
X0315522Y0272743D01*
X0315249Y0272883D01*
X0314980Y0273029D01*
X0314715Y0273182D01*
X0314454Y0273342D01*
X0314197Y0273508D01*
X0313943Y0273680D01*
X0313694Y0273858D01*
X0313450Y0274042D01*
X0313210Y0274232D01*
X0312975Y0274428D01*
X0312744Y0274630D01*
X0312519Y0274837D01*
X0312299Y0275050D01*
X0312084Y0275268D01*
X0311875Y0275491D01*
X0311671Y0275719D01*
X0311472Y0275952D01*
X0311280Y0276190D01*
X0311093Y0276433D01*
M02*
